<svg width="140" height="140" viewBox="0 0 140 140" fill="none" xmlns="http://www.w3.org/2000/svg">
<g filter="url(#filter0_d_259_538)">
<path d="M69.747 60C64.3642 60 60 64.4397 60 69.9156C60 75.3916 64.3642 79.8313 69.747 79.8313C75.1298 79.8313 79.494 75.3916 79.494 69.9156C79.494 64.4397 75.1262 60 69.747 60Z" fill="white"/>
</g>
<path d="M73.1875 72.0776C73.5503 72.4467 73.5503 73.0431 73.1875 73.4121C73.008 73.5985 72.7698 73.688 72.5316 73.688C72.2935 73.688 72.0553 73.5948 71.8757 73.4121L69.7468 71.2463L67.6178 73.4121C67.4383 73.5985 67.2001 73.688 66.9619 73.688C66.7237 73.688 66.4856 73.5948 66.306 73.4121C65.9432 73.0431 65.9432 72.4467 66.306 72.0776L68.435 69.9118L66.306 67.7461C65.9432 67.377 65.9432 66.7806 66.306 66.4115C66.6688 66.0425 67.2551 66.0425 67.6178 66.4115L69.7468 68.5773L71.8757 66.4115C72.2385 66.0425 72.8248 66.0425 73.1875 66.4115C73.5503 66.7806 73.5503 67.377 73.1875 67.7461L71.0586 69.9118L73.1875 72.0776Z" fill="#FF6966"/>
<defs>
<filter id="filter0_d_259_538" x="0" y="0" width="139.494" height="139.831" filterUnits="userSpaceOnUse" color-interpolation-filters="sRGB">
<feFlood flood-opacity="0" result="BackgroundImageFix"/>
<feColorMatrix in="SourceAlpha" type="matrix" values="0 0 0 0 0 0 0 0 0 0 0 0 0 0 0 0 0 0 127 0" result="hardAlpha"/>
<feOffset/>
<feGaussianBlur stdDeviation="30"/>
<feComposite in2="hardAlpha" operator="out"/>
<feColorMatrix type="matrix" values="0 0 0 0 0.0470588 0 0 0 0 0.117647 0 0 0 0 0.356863 0 0 0 0.35 0"/>
<feBlend mode="normal" in2="BackgroundImageFix" result="effect1_dropShadow_259_538"/>
<feBlend mode="normal" in="SourceGraphic" in2="effect1_dropShadow_259_538" result="shape"/>
</filter>
</defs>
</svg>
