<svg width="8" height="8" viewBox="0 0 8 8" fill="none" xmlns="http://www.w3.org/2000/svg">
<path d="M7.1536 6.37784C7.51637 6.74955 7.51637 7.35031 7.1536 7.72203C6.97405 7.90977 6.73587 7.99988 6.4977 7.99988C6.25952 7.99988 6.02134 7.90601 5.84179 7.72203L3.71284 5.54053L1.58389 7.72203C1.40434 7.90977 1.16616 7.99988 0.927981 7.99988C0.689802 7.99988 0.451623 7.90601 0.272073 7.72203C-0.0906911 7.35031 -0.0906911 6.74955 0.272073 6.37784L2.40102 4.19633L0.272073 2.01483C-0.0906911 1.64311 -0.0906911 1.04235 0.272073 0.670635C0.634837 0.298916 1.22112 0.298916 1.58389 0.670635L3.71284 2.85214L5.84179 0.670635C6.20455 0.298916 6.79084 0.298916 7.1536 0.670635C7.51637 1.04235 7.51637 1.64311 7.1536 2.01483L5.02465 4.19633L7.1536 6.37784Z" fill="#FF6966"/>
</svg>
