<svg width="1431" height="517" viewBox="0 0 1431 517" fill="none" xmlns="http://www.w3.org/2000/svg">
<rect width="1431" height="517" fill="#F2FAFA"/>
<mask id="mask0_517_103" style="mask-type:alpha" maskUnits="userSpaceOnUse" x="0" y="0" width="1431" height="517">
<rect width="1431" height="517" fill="white"/>
</mask>
<g mask="url(#mask0_517_103)">
<ellipse opacity="0.40445" cx="305.366" cy="501.424" rx="569.52" ry="288.154" fill="#FFECB3" fill-opacity="0.84"/>
<path fill-rule="evenodd" clip-rule="evenodd" d="M-12.5916 403.334C-12.5916 403.334 112.217 478.911 294.999 478.911C477.78 478.911 533.863 394.129 738.914 403.266C943.965 412.403 1051.56 459.322 1228.79 466.363C1573.49 480.057 1816.31 434.294 1816.31 434.294L1723.63 519.995L-66.5347 497.288L-12.5916 403.334Z" fill="#FFDFE1" fill-opacity="0.76"/>
<path fill-rule="evenodd" clip-rule="evenodd" d="M1804.98 392.902C1804.98 392.902 1697.01 477.106 1514.49 482.875C1331.97 488.645 1326.5 439.205 1122.54 454.787C918.569 470.369 919.862 497.477 743.496 510.091C665.498 515.669 514.856 381.806 220.406 458.349C-74.0439 534.893 -560.768 339.559 -560.768 339.559L-146.469 510.737L1804.85 520.081L1804.98 392.902Z" fill="#E1F2FF" fill-opacity="0.98"/>
<path fill-rule="evenodd" clip-rule="evenodd" d="M-14.1454 460.306C-14.1454 460.306 22.9927 510.542 184.092 510.542C345.19 510.542 388.077 438.604 568.803 447.704C749.53 456.804 844.36 503.53 1000.56 510.542C1304.37 524.18 1518.39 478.605 1518.39 478.605L1502.04 527.184L-30.7847 517.862L-14.1454 460.306Z" fill="white"/>
</g>
</svg>
