<svg width="1431" height="603" viewBox="0 0 1431 603" fill="none" xmlns="http://www.w3.org/2000/svg">
<rect width="1431" height="603" fill="#F2FAFA"/>
<mask id="mask0_517_103" style="mask-type:alpha" maskUnits="userSpaceOnUse" x="0" y="0" width="1431" height="603">
<rect width="1431" height="603" fill="white"/>
</mask>
<g mask="url(#mask0_517_103)">
<ellipse opacity="0.40445" cx="305.366" cy="584.833" rx="569.52" ry="336.087" fill="#FFECB3"/>
<path fill-rule="evenodd" clip-rule="evenodd" d="M-12.5916 470.426C-12.5916 470.426 112.217 558.575 294.999 558.575C477.78 558.575 533.863 459.69 738.914 470.347C943.965 481.004 1051.56 535.727 1228.79 543.939C1573.49 559.911 1816.31 506.537 1816.31 506.537L1723.63 606.494L-66.5347 580.008L-12.5916 470.426Z" fill="#F6B4B8"/>
<path fill-rule="evenodd" clip-rule="evenodd" d="M1804.98 458.259C1804.98 458.259 1697.01 556.47 1514.49 563.199C1331.97 569.928 1326.5 512.265 1122.54 530.438C918.568 548.612 919.861 580.23 743.495 594.941C665.498 601.448 514.855 445.317 220.405 534.593C-74.0445 623.869 -560.769 396.042 -560.769 396.042L-146.469 595.695L1804.85 606.594L1804.98 458.259Z" fill="#C6E1F7"/>
<path fill-rule="evenodd" clip-rule="evenodd" d="M-14.1454 536.876C-14.1454 536.876 22.9927 595.468 184.092 595.468C345.19 595.468 388.077 511.564 568.803 522.177C749.53 532.791 844.36 587.29 1000.56 595.468C1304.37 611.374 1518.39 558.219 1518.39 558.219L1502.04 614.878L-30.7847 604.006L-14.1454 536.876Z" fill="white"/>
</g>
</svg>
