<svg width="28" height="21" viewBox="0 0 28 21" fill="none" xmlns="http://www.w3.org/2000/svg">
<path d="M9.67773 2.15157L9.70342 2.11185C9.71438 2.11894 9.95545 2.27561 10.1962 2.49842L10.1666 2.53048L10.1962 2.49842C10.5557 2.83113 10.7489 3.15538 10.7489 3.46185C10.7489 3.79361 10.6095 4.07252 10.3668 4.26743C10.1251 4.4616 9.78369 4.57025 9.38095 4.57025C8.97821 4.57025 8.63684 4.4616 8.39506 4.26743C8.15235 4.07252 8.013 3.79362 8.01299 3.46185C8.01299 3.15537 8.20614 2.83111 8.56565 2.49842C8.80621 2.27582 9.04704 2.11923 9.05847 2.11185L9.67773 2.15157ZM9.67773 2.15157L9.70341 2.11185M9.67773 2.15157L9.70341 2.11185M19.5563 2.52519L19.5811 2.49842C19.9406 2.83113 20.1337 3.15538 20.1337 3.46185C20.1337 3.79361 19.9944 4.07252 19.7517 4.26743C19.5099 4.4616 19.1685 4.57025 18.7658 4.57025C18.3631 4.57025 18.0217 4.4616 17.7799 4.26743C17.5372 4.07252 17.3979 3.79362 17.3979 3.46185C17.3979 3.15537 17.591 2.83111 17.9505 2.49842C18.191 2.27584 18.4318 2.11926 18.4433 2.11185L19.5563 2.52519ZM19.5563 2.52519L19.5811 2.49842C19.3405 2.27582 19.0997 2.11923 19.0883 2.11185M19.5563 2.52519L18.4434 2.11183C18.6312 1.99038 18.9004 1.99039 19.0883 2.11185M9.70341 2.11185C9.51556 1.99039 9.24636 1.99039 9.0585 2.11183L9.70341 2.11185ZM19.0883 2.11185L19.0611 2.15384L19.0882 2.11183C19.0883 2.11184 19.0883 2.11184 19.0883 2.11185ZM14.0734 3.72874C14.5101 3.72874 14.8799 3.61079 15.1415 3.40039C15.4041 3.18926 15.5549 2.88722 15.5549 2.5278C15.5549 2.19494 15.3425 1.83968 14.9454 1.47229C14.6766 1.2235 14.408 1.04895 14.3958 1.0411C14.208 0.919634 13.9388 0.919634 13.7509 1.0411C13.7388 1.04895 13.4702 1.22351 13.2013 1.47228C12.8043 1.83968 12.5919 2.19494 12.5919 2.5278C12.5919 2.88722 12.7426 3.18926 13.0052 3.40039C13.2669 3.61079 13.6367 3.72874 14.0734 3.72874ZM13.763 2.23883C13.8467 2.13439 13.9576 2.02522 14.074 1.92544C14.1901 2.02487 14.3007 2.13373 14.3842 2.23805C14.4298 2.295 14.4664 2.34959 14.4915 2.39971C14.5168 2.45027 14.5287 2.49323 14.5287 2.5278C14.5287 2.66457 14.4914 2.75502 14.423 2.81285C14.3529 2.8722 14.2407 2.90543 14.0734 2.90543C13.9061 2.90543 13.7939 2.8722 13.7238 2.81286C13.6554 2.75503 13.6181 2.66458 13.6181 2.5278C13.6181 2.49364 13.63 2.45093 13.6554 2.40044C13.6805 2.35041 13.7173 2.29583 13.763 2.23883ZM26.6837 18.0705H24.6145V11.1547C24.6145 9.99019 23.4068 9.06245 21.9495 9.06245H19.9628V5.08173C19.9628 4.84358 19.7209 4.67008 19.4497 4.67008H18.0819C17.8107 4.67008 17.5688 4.84358 17.5688 5.08173V9.06245H15.3612V4.49835C15.3612 4.26019 15.1193 4.08669 14.8482 4.08669H13.2986C13.0274 4.08669 12.7855 4.26019 12.7855 4.49835V9.06245H10.578V5.08173C10.578 4.84358 10.336 4.67008 10.0649 4.67008H8.69703C8.42588 4.67008 8.18395 4.84358 8.18395 5.08173V9.06245H6.19731C4.74 9.06245 3.53231 9.99019 3.53231 11.1547V18.0705H1.46308C1.19193 18.0705 0.95 18.244 0.95 18.4821V20.1627C0.95 20.4009 1.19193 20.5744 1.46308 20.5744H26.6837C26.9549 20.5744 27.1968 20.4009 27.1968 20.1627V18.4821C27.1968 18.244 26.9549 18.0705 26.6837 18.0705ZM18.595 9.06245V5.49339H18.9367V9.06245H18.595ZM13.8117 9.06244V4.90998H14.3351V9.06244H13.8117ZM9.21011 9.06245V5.49339H9.55181V9.06245H9.21011ZM26.1706 18.8938L26.1706 19.7511H1.97614V18.8938H26.1706ZM21.9495 9.88576C22.8653 9.88576 23.5883 10.4659 23.5883 11.1547V18.0705H4.55847V11.1547C4.55847 10.4658 5.28148 9.88576 6.19731 9.88576H21.9495ZM9.38093 3.00222C9.47094 3.08283 9.55361 3.16755 9.61548 3.24683C9.65013 3.29125 9.67747 3.33296 9.69595 3.37046C9.71469 3.40847 9.72275 3.43897 9.72275 3.46186C9.72275 3.5694 9.69492 3.63645 9.64597 3.67832C9.59524 3.7217 9.51176 3.74696 9.38097 3.74696C9.25017 3.74696 9.16669 3.7217 9.11597 3.67832C9.06702 3.63645 9.03919 3.5694 9.03919 3.46186C9.03918 3.43896 9.04724 3.40846 9.06598 3.37044C9.08447 3.33293 9.11182 3.29121 9.14647 3.24679C9.20833 3.1675 9.29098 3.08278 9.38093 3.00222ZM18.7658 3.00222C18.8558 3.08283 18.9385 3.16755 19.0003 3.24683C19.035 3.29125 19.0623 3.33296 19.0808 3.37046C19.0996 3.40847 19.1076 3.43897 19.1076 3.46186C19.1076 3.56941 19.0798 3.63645 19.0308 3.67832C18.9801 3.7217 18.8966 3.74696 18.7658 3.74696C18.635 3.74696 18.5516 3.7217 18.5008 3.67832C18.4519 3.63645 18.424 3.56941 18.424 3.46186C18.424 3.43896 18.4321 3.40846 18.4508 3.37044C18.4693 3.33293 18.4967 3.29121 18.5313 3.24679C18.5932 3.1675 18.6758 3.08278 18.7658 3.00222Z" fill="#242424" stroke="#242424" stroke-width="0.1"/>
</svg>
