<svg width="20" height="18" viewBox="0 0 20 18" fill="none" xmlns="http://www.w3.org/2000/svg">
<path fill-rule="evenodd" clip-rule="evenodd" d="M6.5 6.75C6.5 5.0103 8.067 3.6 10 3.6C11.933 3.6 13.5 5.0103 13.5 6.75C13.5 8.4897 11.933 9.9 10 9.9C8.067 9.9 6.5 8.4897 6.5 6.75ZM10 5.4C9.17157 5.4 8.5 6.00442 8.5 6.75C8.5 7.49558 9.17157 8.1 10 8.1C10.8284 8.1 11.5 7.49558 11.5 6.75C11.5 6.00442 10.8284 5.4 10 5.4Z" fill="#152C70"/>
<path fill-rule="evenodd" clip-rule="evenodd" d="M13.3307 17.4887C17.2161 16.2539 20 12.9195 20 9C20 4.02944 15.5228 0 10 0C4.47715 0 0 4.02944 0 9C0 12.9195 2.78394 16.2539 6.66927 17.4887C7.52012 17.8058 8.61102 18 9.99998 18C11.3889 18 12.4798 17.8058 13.3307 17.4887ZM10 1.8C5.58172 1.8 2 5.02355 2 9C2 10.8995 2.8173 12.6272 4.15267 13.9138C4.93324 12.5554 6.49158 11.7 8.19429 11.7H11.806C13.5086 11.7 15.0669 12.5553 15.8475 13.9137C17.1828 12.6271 18 10.8994 18 9C18 5.02355 14.4183 1.8 10 1.8ZM12.6147 15.8066C13.0486 15.6378 13.3306 15.4399 13.5144 15.267C13.791 15.0067 13.9106 14.7416 13.9621 14.5695C13.4982 13.9082 12.6865 13.5 11.806 13.5H8.19429C7.31368 13.5 6.50197 13.9082 6.0381 14.5695C6.08956 14.7416 6.20915 15.0068 6.48575 15.267C6.6695 15.44 6.95143 15.6378 7.38527 15.8066C8.20463 16.0616 9.08435 16.2 10 16.2C10.9156 16.2 11.7954 16.0616 12.6147 15.8066Z" fill="#152C70"/>
</svg>
