<svg width="20" height="14" viewBox="0 0 20 14" fill="none" xmlns="http://www.w3.org/2000/svg">
<path d="M17.25 0H2.75C1.233 0 0 0.94721 0 2.11242V11.7035C0 12.8687 1.233 13.8167 2.75 13.8167H17.25C18.767 13.8167 20 12.8687 20 11.7035V2.11242C20 0.94721 18.767 0 17.25 0ZM2.75 1.15139H17.25C17.94 1.15139 18.5 1.58124 18.5 2.11088V2.65894L10.45 6.77862C10.177 6.91678 9.824 6.91832 9.55 6.77708L1.5 2.65894V2.11088C1.5 1.58124 2.06 1.15139 2.75 1.15139V1.15139ZM17.25 12.6638H2.75C2.06 12.6638 1.5 12.2339 1.5 11.7043V4.00837L8.74 7.71585C9.123 7.91235 9.562 8.01061 10 8.01061C10.44 8.01061 10.877 7.91235 11.26 7.71662L18.5 4.00914V11.702C18.5 12.2316 17.94 12.6615 17.25 12.6615V12.6638Z" fill="#242424"/>
</svg>
