<svg width="743" height="730" viewBox="0 0 743 730" fill="none" xmlns="http://www.w3.org/2000/svg">
<g opacity="0.5">
<g opacity="0.89">
<path opacity="0.89" d="M371.5 729C576.122 729 742 566.032 742 365C742 163.968 576.122 1 371.5 1C166.878 1 1 163.968 1 365C1 566.032 166.878 729 371.5 729Z" stroke="#D1CDDE" stroke-width="0.8127" stroke-linecap="round" stroke-linejoin="round"/>
</g>
<g opacity="0.89">
<path opacity="0.89" d="M371.501 702.454C561.2 702.454 714.981 551.371 714.981 365C714.981 178.63 561.2 27.5466 371.501 27.5466C181.803 27.5466 28.0215 178.63 28.0215 365C28.0215 551.371 181.803 702.454 371.501 702.454Z" stroke="#D1CDDE" stroke-width="0.9493" stroke-linecap="round" stroke-linejoin="round"/>
</g>
<g opacity="0.89">
<path opacity="0.89" d="M371.5 675.908C546.276 675.908 687.96 536.71 687.96 365.001C687.96 193.291 546.276 54.0932 371.5 54.0932C196.725 54.0932 55.041 193.291 55.041 365.001C55.041 536.71 196.725 675.908 371.5 675.908Z" stroke="#D1CDDE" stroke-width="1.0859" stroke-linecap="round" stroke-linejoin="round"/>
</g>
<g opacity="0.89">
<path opacity="0.89" d="M371.499 649.361C531.352 649.361 660.938 522.048 660.938 365C660.938 207.951 531.352 80.6388 371.499 80.6388C211.647 80.6388 82.0605 207.951 82.0605 365C82.0605 522.048 211.647 649.361 371.499 649.361Z" stroke="#D1CDDE" stroke-width="1.2225" stroke-linecap="round" stroke-linejoin="round"/>
</g>
<g opacity="0.89">
<path opacity="0.89" d="M371.501 622.815C516.43 622.815 633.919 507.387 633.919 365C633.919 222.613 516.43 107.185 371.501 107.185C226.571 107.185 109.082 222.613 109.082 365C109.082 507.387 226.571 622.815 371.501 622.815Z" stroke="#D1CDDE" stroke-width="1.3591" stroke-linecap="round" stroke-linejoin="round"/>
</g>
<g opacity="0.89">
<path opacity="0.89" d="M371.502 596.268C501.508 596.268 606.9 492.726 606.9 365C606.9 237.274 501.508 133.732 371.502 133.732C241.495 133.732 136.104 237.274 136.104 365C136.104 492.726 241.495 596.268 371.502 596.268Z" stroke="#D1CDDE" stroke-width="1.4956" stroke-linecap="round" stroke-linejoin="round"/>
</g>
<g opacity="0.89">
<path opacity="0.89" d="M371.499 569.723C486.583 569.723 579.876 478.065 579.876 365.001C579.876 251.936 486.583 160.279 371.499 160.279C256.415 160.279 163.121 251.936 163.121 365.001C163.121 478.065 256.415 569.723 371.499 569.723Z" stroke="#D1CDDE" stroke-width="1.6322" stroke-linecap="round" stroke-linejoin="round"/>
</g>
<g opacity="0.89">
<path opacity="0.89" d="M371.5 543.176C471.661 543.176 552.857 463.404 552.857 365.001C552.857 266.597 471.661 186.825 371.5 186.825C271.339 186.825 190.143 266.597 190.143 365.001C190.143 463.404 271.339 543.176 371.5 543.176Z" stroke="#D1CDDE" stroke-width="1.7688" stroke-linecap="round" stroke-linejoin="round"/>
</g>
<g opacity="0.89">
<path opacity="0.89" d="M371.5 516.674C456.763 516.674 525.883 448.767 525.883 365C525.883 281.232 456.763 213.326 371.5 213.326C286.237 213.326 217.117 281.232 217.117 365C217.117 448.767 286.237 516.674 371.5 516.674Z" stroke="#D1CDDE" stroke-width="1.9054" stroke-linecap="round" stroke-linejoin="round"/>
</g>
<g opacity="0.89">
<path opacity="0.89" d="M371.501 490.128C441.841 490.128 498.863 434.106 498.863 365C498.863 295.894 441.841 239.872 371.501 239.872C301.161 239.872 244.139 295.894 244.139 365C244.139 434.106 301.161 490.128 371.501 490.128Z" stroke="#D1CDDE" stroke-width="2.042" stroke-linecap="round" stroke-linejoin="round"/>
</g>
<g opacity="0.89">
<path opacity="0.89" d="M371.5 463.581C426.917 463.581 471.842 419.445 471.842 365C471.842 310.555 426.917 266.418 371.5 266.418C316.083 266.418 271.158 310.555 271.158 365C271.158 419.445 316.083 463.581 371.5 463.581Z" stroke="#D1CDDE" stroke-width="2.1786" stroke-linecap="round" stroke-linejoin="round"/>
</g>
<g opacity="0.89">
<path opacity="0.89" d="M371.501 437.035C411.996 437.035 444.823 404.784 444.823 365C444.823 325.216 411.996 292.965 371.501 292.965C331.007 292.965 298.18 325.216 298.18 365C298.18 404.784 331.007 437.035 371.501 437.035Z" stroke="#D1CDDE" stroke-width="2.3152" stroke-linecap="round" stroke-linejoin="round"/>
</g>
</g>
</svg>
