<svg width="325" height="399" viewBox="0 0 325 399" fill="none" xmlns="http://www.w3.org/2000/svg">
<path d="M0.224684 388.455C51.5132 390.642 102.616 373.177 146.26 338.545C189.486 304.054 215.23 247.422 234.154 189.406L269.392 203.92C269.392 203.92 243.807 334.859 180.752 395.731L0.0260144 397.039L0.224684 388.455Z" fill="#F5B544"/>
<g opacity="0.6">
<path d="M0.417658 389.839C51.4766 391.799 102.43 373.954 146.026 338.845C189.206 303.879 215.069 246.684 234.147 188.127L269.175 202.586C269.175 202.586 243.007 340.712 180.139 396.312L0.185056 398.491L0.417658 389.839Z" fill="white"/>
</g>
<path d="M229.655 204.61C229.917 204.721 229.779 205.976 229.274 208.27C229.021 209.413 228.677 210.82 228.249 212.472L227.533 215.127C227.262 216.071 226.943 217.016 226.606 218.112C225.934 220.21 225.179 222.544 224.325 225.086C223.471 227.628 222.387 230.313 221.283 233.225C220.179 236.136 218.807 239.182 217.469 242.434C216.131 245.687 214.479 249.008 212.816 252.526L211.546 255.194C211.081 256.074 210.624 256.964 210.151 257.863L207.272 263.361L206.53 264.771L205.719 266.162L204.094 269.002C202.998 270.895 201.924 272.845 200.741 274.767C198.315 278.556 195.953 282.598 193.213 286.483C191.866 288.444 190.541 290.49 189.1 292.452C187.659 294.414 186.195 296.395 184.706 298.404L183.588 299.921L182.416 301.39L180.08 304.33L177.672 307.326C176.869 308.331 176.014 309.223 175.172 310.257C173.475 312.202 171.791 314.203 170.032 316.149L164.613 321.92C156.973 329.779 148.934 337.045 140.547 343.673C124.314 356.372 106.963 366.763 88.8548 374.63L82.6682 377.229L76.5752 379.489L73.588 380.585L70.6194 381.55L64.8249 383.373C62.9183 383.915 61.03 384.344 59.186 384.876C57.342 385.407 55.5314 385.845 53.6991 386.207L48.444 387.291C47.5827 387.458 46.7362 387.662 45.8912 387.8L43.3961 388.177C40.0956 388.663 36.9662 389.166 34.0142 389.414C31.0622 389.661 28.2404 390.012 25.6135 390.022C22.9865 390.031 20.5508 390.2 18.3065 390.178C16.0623 390.157 14.0159 390.002 12.1788 389.903C11.2604 389.843 10.396 389.812 9.5872 389.733L7.3105 389.429C5.9043 389.232 4.72417 389.033 3.76989 388.842C1.86112 388.469 0.872013 388.099 0.895468 387.76C0.918924 387.42 1.9545 387.13 3.87791 386.871C4.84741 386.741 6.03497 386.619 7.4328 386.506L9.6888 386.357L12.2597 386.075C14.0723 385.885 16.08 385.692 18.2826 385.493C20.4786 385.242 22.8644 384.876 25.4205 384.555C27.9767 384.235 30.7018 383.687 33.5891 383.205C36.4764 382.722 39.542 381.945 42.6747 381.3L45.0955 380.764C45.8793 380.579 46.7267 380.337 47.5502 380.115L52.6324 378.758C54.3646 378.34 56.1012 377.733 57.8833 377.183L63.3246 375.466L68.8973 373.455L71.7505 372.425L74.6226 371.254L80.4847 368.865L86.4401 366.153C103.835 358.056 120.534 347.778 136.255 335.493C144.347 329.099 152.134 322.143 159.575 314.66L164.87 309.173C166.588 307.322 168.239 305.377 169.91 303.574C170.711 302.625 171.581 301.752 172.367 300.794C173.153 299.836 173.97 298.897 174.725 297.949L177.066 295.104L178.229 293.719L179.337 292.287L183.708 286.647C185.147 284.751 186.47 282.856 187.823 280.961C190.574 277.292 192.985 273.476 195.437 269.895C196.64 268.085 197.744 266.22 198.868 264.44L200.535 261.788L201.345 260.472L202.156 259.146L205.168 253.949L206.629 251.44L207.981 248.923C209.757 245.601 211.528 242.487 213.011 239.403C214.493 236.319 216.047 233.508 217.28 230.737C218.513 227.966 219.741 225.44 220.863 223.094C221.985 220.748 222.863 218.517 223.743 216.559C224.186 215.613 224.566 214.667 224.992 213.788C225.417 212.908 225.717 212.095 226.039 211.329C226.697 209.806 227.281 208.492 227.771 207.546C228.745 205.521 229.392 204.498 229.655 204.61Z" fill="#F5B544"/>
<path d="M231.705 226.222C227.956 231.21 225.034 237.013 223.109 243.295C222.84 244.193 222.809 245.16 223.02 246.061C223.231 246.962 223.674 247.749 224.286 248.312C224.897 248.875 225.647 249.184 226.428 249.196C227.209 249.209 227.981 248.923 228.636 248.38L228.715 248.314C226.007 255.84 223.704 263.556 221.82 271.411C221.553 272.513 221.57 273.676 221.87 274.741C222.17 275.807 222.737 276.724 223.495 277.368C224.253 278.012 225.165 278.351 226.106 278.339C227.047 278.327 227.973 277.965 228.757 277.303C242.877 265.336 253.1 247.729 257.527 227.75L231.705 226.222Z" fill="#F5B544"/>
<g opacity="0.3">
<path d="M232.786 234.281C232.1 235.097 231.549 236.066 231.167 237.13C230.983 237.663 230.928 238.243 231.007 238.799C231.087 239.356 231.297 239.865 231.614 240.266C232.641 241.347 234.471 240.665 235.426 241.813C236.382 242.961 235.766 245.214 235.021 246.808L232.664 251.864C232.092 253.098 231.516 254.708 232.188 255.794C232.86 256.88 234.526 256.558 235.679 255.845C238.337 254.151 240.647 251.709 242.41 248.73C244.173 245.751 245.336 242.323 245.8 238.742L232.786 234.281Z" fill="black"/>
</g>
<path d="M296.173 167.496L296.373 167.86C302.037 178.547 305.611 190.721 306.829 203.484C308.047 216.247 306.879 229.274 303.411 241.603L299.011 257.268L279.721 226.076L296.173 167.496Z" fill="#F5B544"/>
<path d="M296.173 167.494L296.098 167.784L295.862 168.637C295.653 169.387 295.358 170.512 294.972 171.881C294.184 174.693 293.042 178.837 291.615 184.02C288.73 194.332 284.669 208.984 279.873 226.13L279.877 225.924L297.467 254.348L299.168 257.144L298.819 257.231C299.702 254.106 300.568 251.028 301.417 247.997C302.257 244.96 303.149 241.978 303.871 239.026C305.313 233.358 306.281 227.545 306.76 221.677C307.199 216.373 307.221 211.046 306.828 205.77C306.699 203.281 306.352 200.926 306.087 198.654C305.823 196.382 305.417 194.223 304.938 192.214C303.595 185.782 301.627 179.589 299.076 173.763C298.229 171.672 297.408 170.171 296.915 169.098L296.143 167.485C296.143 167.485 296.217 167.596 296.373 167.867L296.978 169.042C297.494 170.096 298.346 171.587 299.185 173.706C301.781 179.509 303.781 185.695 305.141 192.128C305.634 194.146 305.932 196.334 306.328 198.587C306.6 200.868 306.954 203.261 307.091 205.73C307.504 211.024 307.494 216.37 307.061 221.694C306.59 227.595 305.626 233.443 304.184 239.145C303.462 242.126 302.562 245.089 301.73 248.126C300.899 251.163 300.051 254.238 299.14 257.36L299.014 257.81L298.784 257.437C298.249 256.57 297.661 255.629 297.083 254.641L279.509 226.198L279.457 226.105L279.46 225.993L291.436 183.76C292.901 178.622 294.056 174.544 294.86 171.732C295.253 170.354 295.562 169.294 295.772 168.554L296.13 167.728C296.139 167.649 296.153 167.57 296.173 167.494V167.494Z" fill="#263238"/>
<path d="M222.09 139.53L221.737 139.692C211.794 144.413 202.779 151.737 195.357 161.123C187.936 170.51 182.296 181.72 178.855 193.926L174.481 209.427L205.713 197.502L222.09 139.53Z" fill="#F5B544"/>
<path d="M222.09 139.528C222.09 139.528 222.088 139.612 222.022 139.791C221.955 139.97 221.894 140.261 221.801 140.6C221.598 141.334 221.301 142.397 220.951 143.76L217.615 155.678L205.906 197.546L205.903 197.668L205.809 197.669L177.342 208.56L174.577 209.613L174.208 209.756L174.335 209.305L176.877 200.171C177.723 197.171 178.521 194.198 179.411 191.329C181.135 185.791 183.314 180.46 185.914 175.417C188.262 170.864 190.961 166.581 193.975 162.629C195.347 160.742 196.822 159.069 198.196 157.426C199.569 155.782 200.992 154.345 202.404 153.058C206.748 148.842 211.479 145.259 216.495 142.385C218.244 141.302 219.64 140.691 220.622 140.196L221.706 139.662L222.09 139.509L220.651 140.28C219.715 140.803 218.295 141.442 216.562 142.544C211.587 145.49 206.893 149.116 202.576 153.348C201.179 154.644 199.839 156.184 198.398 157.725C196.957 159.265 195.573 161.022 194.217 162.918C191.234 166.866 188.564 171.138 186.242 175.678C183.672 180.685 181.515 185.975 179.804 191.467C178.892 194.29 178.115 197.309 177.27 200.3C176.424 203.291 175.576 206.358 174.728 209.443L174.487 209.135L177.252 208.082L205.727 197.228L205.599 197.379C210.425 180.447 214.549 166.008 217.434 155.783C218.896 150.666 220.062 146.602 220.865 143.799C221.262 142.416 221.574 141.343 221.785 140.6C221.887 140.243 221.971 139.97 222.03 139.763C222.045 139.683 222.065 139.605 222.09 139.528V139.528Z" fill="#263238"/>
<path d="M302.136 0.330064C296.383 -1.8312 280.673 12.3904 262.27 39.102C244.154 65.4086 236.307 91.3711 236.307 91.3711L199.412 222.273L227.596 232.886L243.928 239.03L272.112 249.644L305.594 130.863C308.878 119.259 311.249 107.338 312.673 95.2641C314.128 83.1603 314.784 70.9673 314.633 58.8023C314.008 24.7761 307.928 2.50043 302.167 0.329846" fill="#F5F5F5"/>
<path d="M302.137 0.327426L302.39 0.438078L302.704 0.585778L303.107 0.864023C303.976 1.559 304.729 2.44243 305.33 3.47186C306.979 6.1306 308.709 10.644 310.17 16.7615C311.882 24.2463 313.065 31.914 313.705 39.683C314.119 44.2338 314.424 49.1227 314.598 54.3404C314.772 59.5581 314.823 65.0859 314.635 70.9059C314.446 76.7258 314.051 82.8283 313.44 89.1853C312.824 95.808 311.933 102.4 310.773 108.937C309.51 115.963 307.929 122.912 306.038 129.752C304.055 136.8 302.013 144.063 299.911 151.543C291.486 181.417 282.174 214.53 272.264 249.717L272.205 249.952L272.013 249.878L235.666 236.193L199.312 222.498L199.12 222.434L199.187 222.199C209.112 187.011 218.455 153.898 226.888 124.024C228.995 116.551 231.042 109.29 233.03 102.243C234.024 98.7253 235.004 95.2578 235.97 91.8404C237 88.4413 238.212 85.2002 239.445 82.0432C244.054 70.3912 249.549 59.256 255.856 48.7865C261.103 40.2879 266.781 32.1859 272.857 24.5301C277.376 18.724 282.239 13.3244 287.405 8.37697C291.667 4.37411 295.293 1.81868 298.003 0.740767C299.006 0.303037 300.06 0.0891631 301.113 0.10978L301.576 0.153361L301.907 0.244723L302.16 0.327262L301.898 0.272891L301.575 0.190844L301.112 0.147266C300.056 0.148698 299.003 0.378243 298.001 0.825109C295.345 1.92138 291.727 4.4955 287.463 8.51711C282.343 13.4735 277.519 18.8691 273.032 24.66C266.994 32.3405 261.351 40.4608 256.138 48.9719C249.857 59.4323 244.385 70.5546 239.798 82.1906C238.572 85.3475 237.329 88.5889 236.346 91.9595L233.414 102.362C231.431 109.409 229.389 116.673 227.288 124.152C218.862 154.026 209.589 187.148 199.633 222.346L199.508 222.037L235.831 235.742L272.178 249.437L271.919 249.598L299.612 151.432L305.754 129.661C307.639 122.829 309.214 115.89 310.472 108.873C311.704 102.1 312.536 95.5069 313.162 89.1779C313.787 82.8489 314.175 76.7371 314.356 70.9172C314.536 65.0973 314.524 59.588 314.349 54.3796C314.175 49.1713 313.885 44.2823 313.479 39.7409C312.859 31.9809 311.699 24.3196 310.013 16.8375C308.607 10.7197 306.877 6.20628 305.251 3.54738C304.661 2.51728 303.922 1.62794 303.067 0.920522L302.672 0.632856L302.365 0.485097L302.137 0.327426Z" fill="#263238"/>
<path d="M292.087 126.522C308.816 115.843 315.605 91.4553 307.25 72.0508C298.895 52.6463 278.56 45.5728 261.831 56.2517C245.103 66.9307 238.314 91.3181 246.669 110.723C255.024 130.127 275.359 137.201 292.087 126.522Z" fill="white"/>
<path d="M303.595 72.3601C303.404 72.3847 303.212 72.3625 303.031 72.2948C302.851 72.227 302.684 72.1152 302.542 71.966C302.4 71.8168 302.286 71.6334 302.206 71.4267C302.126 71.2201 302.082 70.9946 302.077 70.7638C302.081 69.8387 302.361 68.9352 302.867 68.2197C303.366 67.5077 303.795 66.728 304.142 65.8976C304.392 65.1059 304.429 64.2466 304.246 63.446C304.063 62.6454 303.67 61.9455 303.125 61.449C303.503 61.2488 303.846 60.9599 304.134 60.5997C304.421 60.2394 304.647 59.8151 304.799 59.3523C304.951 58.8895 305.025 58.3976 305.016 57.9061C305.008 57.4147 304.917 56.9337 304.75 56.4921C304.331 55.7295 303.853 55.0185 303.321 54.3687C303.055 53.9578 302.823 53.5156 302.629 53.0482C303.126 53.4143 303.685 53.6472 304.269 53.7318C304.746 53.7797 305.229 53.6807 305.674 53.444C306.119 53.2073 306.511 52.8407 306.813 52.3781C307.106 51.907 307.287 51.3506 307.335 50.772C307.382 50.1934 307.295 49.6158 307.084 49.1045C306.863 48.5985 306.516 48.1924 306.091 47.9415C305.665 47.6907 305.181 47.6072 304.705 47.7025C303.793 48.0306 302.98 48.6946 302.382 49.5999L301.773 50.3847C301.171 48.1705 300.647 45.9275 299.114 44.6509C297.725 43.4954 295.882 43.5091 294.303 42.8062C293.157 42.26 292.176 41.3178 291.046 40.7151C289.917 40.1123 288.49 39.9255 287.474 40.8355C286.87 41.3664 286.493 42.2058 285.874 42.7275C284.628 43.8178 282.749 43.324 281.615 44.5827C280.697 45.6142 280.688 47.344 280.051 48.6367C279.414 49.9293 278.026 50.7668 276.871 51.6121C275.716 52.4573 274.534 53.7821 274.597 55.3892C274.65 56.799 275.666 57.9384 275.703 59.3577C275.601 60.3898 275.34 61.3963 274.934 62.3247C274.64 63.2669 274.632 64.6113 275.358 65.1418L283.535 71.4177C286.194 74.1244 288.945 76.8868 292.292 78.1406C295.638 79.3944 299.767 78.7716 302.145 75.5107C301.664 75.2997 301.273 74.8723 301.053 74.3155C301.565 74.2373 302.059 74.0208 302.5 73.6822C302.94 73.3436 303.314 72.8916 303.595 72.3601V72.3601Z" fill="#263238"/>
<path d="M295.37 73.0063C296.935 70.5583 298.328 67.9579 299.533 65.234C300.738 62.4943 301.375 59.456 301.387 56.3913C301.397 55.9329 301.092 52.7449 300.701 52.6539C300.441 52.5901 300.368 55.4624 300.164 55.6508C298.245 57.8874 296.911 60.7565 296.338 63.8793C295.733 66.8788 295.406 69.9404 295.362 73.0064" fill="#263238"/>
<path d="M280.22 95.0798C286.871 97.8443 291.198 87.2027 291.198 87.2027L298.614 61.8415C300.872 54.5891 299.311 47.0921 293.33 44.8009L292.769 44.6268C290.031 43.7901 287.098 44.2432 284.554 45.896C282.01 47.5487 280.042 50.2798 279.041 53.5453C277.107 59.8487 275.04 66.8279 274.264 70.2922C272.665 77.4555 278.252 80.3495 278.252 80.3495C278.252 80.3495 277.827 81.9835 277.261 84.059C275.991 88.7548 276.787 94.167 278.311 94.5685L280.22 95.0798Z" fill="#FFBE9D"/>
<path d="M278.219 80.2809C280.949 81.1108 283.843 80.9642 286.558 79.8585C286.558 79.8585 283.458 84.5549 277.718 82.0845L278.219 80.2809Z" fill="#896357"/>
<path d="M279.841 59.7741C279.775 60.0404 279.798 60.3237 279.904 60.5626C280.011 60.8015 280.193 60.9765 280.41 61.0496C280.515 61.0927 280.625 61.1099 280.737 61.1001C280.848 61.0903 280.957 61.0536 281.058 60.9924C281.159 60.9311 281.249 60.8464 281.323 60.7434C281.398 60.6403 281.455 60.521 281.491 60.3924C281.557 60.1261 281.535 59.8428 281.428 59.6039C281.321 59.365 281.14 59.19 280.922 59.1169C280.818 59.0738 280.707 59.0566 280.596 59.0664C280.485 59.0762 280.375 59.1129 280.275 59.1741C280.174 59.2354 280.083 59.3201 280.009 59.4231C279.935 59.5262 279.877 59.6455 279.841 59.7741V59.7741Z" fill="#263238"/>
<path d="M279.436 56.9264C279.511 57.0964 280.285 56.7121 281.192 56.9902C282.1 57.2684 282.629 58.0324 282.733 57.9275C282.837 57.8225 282.741 57.6052 282.514 57.2561C282.201 56.794 281.775 56.4658 281.294 56.3166C280.823 56.1728 280.323 56.2126 279.862 56.4306C279.552 56.6412 279.399 56.8508 279.436 56.9264Z" fill="#263238"/>
<path d="M287.986 62.7105C287.922 62.9766 287.946 63.2588 288.052 63.4971C288.159 63.7353 288.339 63.9107 288.556 63.9859C288.66 64.0291 288.771 64.0463 288.882 64.0364C288.993 64.0266 289.102 63.99 289.203 63.9287C289.304 63.8674 289.394 63.7828 289.469 63.6797C289.543 63.5767 289.6 63.4573 289.637 63.3287C289.703 63.0637 289.681 62.7815 289.576 62.5428C289.471 62.3041 289.291 62.1283 289.075 62.0532C288.97 62.0099 288.859 61.9926 288.747 62.0024C288.635 62.0121 288.526 62.0486 288.424 62.1098C288.323 62.171 288.232 62.2557 288.157 62.3588C288.081 62.462 288.023 62.5815 287.986 62.7105Z" fill="#263238"/>
<path d="M288.268 60.1053C288.342 60.2659 289.116 59.891 290.016 60.1692C290.915 60.4474 291.461 61.2019 291.557 61.1064C291.652 61.011 291.564 60.7936 291.337 60.4445C291.03 59.9792 290.605 59.6501 290.125 59.5051C289.655 59.351 289.152 59.3911 288.693 59.6191C288.385 59.7728 288.23 60.0297 288.268 60.1053Z" fill="#263238"/>
<path d="M283.014 67.4874C282.58 67.1672 282.116 66.9095 281.63 66.7192C281.407 66.6271 281.201 66.4973 281.206 66.3004C281.256 66.003 281.378 65.7277 281.557 65.5105L282.731 63.6272C283.787 62.011 284.735 60.2988 285.568 58.5072C284.412 60.0211 283.354 61.6399 282.405 63.3483L281.252 65.297C281.03 65.5912 280.898 65.9672 280.879 66.359C280.887 66.4697 280.917 66.5755 280.966 66.668C281.015 66.7604 281.082 66.8369 281.161 66.8913C281.278 66.9679 281.401 67.0298 281.528 67.0762C282.005 67.2894 282.504 67.4276 283.014 67.4874Z" fill="#263238"/>
<path d="M285.54 69.0081C285.393 68.9525 285.116 70.154 284.072 70.7471C283.029 71.3402 282.017 70.8941 281.967 71.055C281.916 71.2159 282.147 71.3654 282.588 71.5133C283.161 71.6967 283.775 71.6288 284.324 71.3214C284.855 71.0247 285.275 70.4931 285.497 69.8395C285.649 69.3568 285.609 69.0642 285.54 69.0081Z" fill="#263238"/>
<path d="M289.332 55.6904C289.325 56.0218 290.29 56.1571 291.318 56.6234C292.345 57.0896 293.119 57.7281 293.32 57.4994C293.52 57.2708 293.33 57.0639 293.05 56.6587C292.678 56.1543 292.207 55.771 291.678 55.5416C291.153 55.2924 290.582 55.2022 290.013 55.2786C289.598 55.3572 289.336 55.5389 289.332 55.6904Z" fill="#263238"/>
<path d="M280.659 53.4222C280.762 53.7248 281.435 53.6539 282.211 53.876C282.987 54.0982 283.557 54.4639 283.765 54.2445C283.973 54.0251 283.813 53.8556 283.594 53.5349C283.29 53.1281 282.887 52.8495 282.44 52.7372C281.998 52.6089 281.53 52.6552 281.102 52.8696C280.746 53.0426 280.616 53.2519 280.659 53.4222Z" fill="#263238"/>
<path d="M297.045 67.0578C297.154 67.057 301.414 66.8285 300.136 71.7329C298.857 76.6373 295.139 74.203 295.166 74.0618C295.193 73.9207 297.045 67.0578 297.045 67.0578Z" fill="#FFBE9D"/>
<path d="M296.867 72.5904C296.867 72.5904 296.92 72.6745 297.018 72.7771C297.163 72.9156 297.346 72.9843 297.533 72.9704C297.998 72.9671 298.566 72.2402 298.818 71.3749C298.938 70.9623 298.98 70.5257 298.941 70.0974C298.945 69.9328 298.915 69.7709 298.855 69.6258C298.795 69.4807 298.706 69.3567 298.596 69.2645C298.522 69.2131 298.435 69.1938 298.348 69.2098C298.262 69.2257 298.182 69.2759 298.121 69.3524C298.033 69.4751 298.038 69.5783 298.015 69.5785C297.991 69.5786 297.948 69.4663 298.022 69.2781C298.079 69.1689 298.162 69.083 298.26 69.0323C298.396 68.9655 298.546 68.9645 298.679 69.0293C298.831 69.124 298.959 69.2662 299.051 69.4416C299.142 69.6171 299.193 69.8198 299.198 70.0298C299.257 70.5087 299.219 71.0016 299.088 71.4668C298.802 72.4075 298.156 73.21 297.496 73.2148C297.38 73.215 297.266 73.1834 297.162 73.1224C297.059 73.0614 296.969 72.9725 296.9 72.8624C296.864 72.7125 296.867 72.5904 296.867 72.5904Z" fill="#896357"/>
<path d="M283.737 46.5698C283.216 45.9072 285.821 44.0576 287.638 43.7251C290.374 43.2638 294.229 43.7519 296.22 45.2955C298.607 47.1554 300.368 49.555 300.902 52.9679C301.365 56.4149 301.06 59.9799 300.018 63.3002C299.769 64.3379 299.3 65.287 298.657 66.0512C297.814 66.921 296.573 67.2117 296.22 68.7068C296.103 69.2554 295.813 69.7332 295.413 70.0363C294.426 70.7194 293.787 69.5132 293.616 68.4818C293.256 66.2785 293.775 63.9843 294.284 61.784C294.579 60.1988 295.084 58.6733 295.779 57.2672C296.192 56.532 296.712 55.8805 297.094 55.1267C297.302 54.7578 297.442 54.3417 297.506 53.907C297.569 53.4722 297.555 53.0292 297.463 52.6083C297.407 52.4276 297.336 52.2551 297.25 52.0936C296.858 51.3093 296.298 50.6719 295.626 50.2464C294.953 49.8209 294.194 49.6226 293.424 49.6716C290.936 49.8401 286.742 49.9084 285.995 48.6278C285.44 47.8098 285.039 46.853 284.818 45.8203L283.737 46.5698Z" fill="#263238"/>
<path d="M296.159 44.6518C295.196 43.7879 294.096 43.1692 292.92 42.8315C291.745 42.4939 290.518 42.4439 289.311 42.6845C288.668 42.7976 288.045 43.0667 287.482 43.4756C286.919 43.8844 286.425 44.4245 286.032 45.0634C285.658 45.7169 285.481 46.5018 285.533 47.2802C285.585 48.0585 285.863 48.7805 286.317 49.3192L286.378 49.4039C287.909 50.7178 289.069 50.8327 290.953 50.7249C292.516 50.6288 294.092 50.0122 295.655 49.935C297.355 49.8501 299.02 50.3821 300.436 51.4627C299.54 48.7574 298.065 46.4088 296.159 44.6518V44.6518Z" fill="#263238"/>
<path d="M302.391 52.3199C302.344 52.3202 302.154 51.753 301.641 50.9606C301.355 50.5017 301.026 50.0844 300.662 49.7166C300.218 49.2631 299.691 48.9425 299.121 48.7796C298.08 48.5443 296.995 48.6666 295.989 49.1326C295.199 49.4981 294.784 49.8894 294.754 49.8422C294.724 49.7951 294.843 49.709 295.035 49.5371C295.308 49.2889 295.604 49.0801 295.916 48.9152C296.96 48.3512 298.113 48.1877 299.214 48.4473C299.821 48.6246 300.378 48.9784 300.839 49.4785C301.214 49.8651 301.54 50.3159 301.808 50.8173C302.089 51.2588 302.288 51.771 302.391 52.3199Z" fill="#B3D7B3"/>
<path d="M302.333 54.0645C302.16 54.5292 301.926 54.9586 301.64 55.335C300.983 56.2817 300.199 57.0893 299.323 57.7221C298.446 58.3519 297.491 58.7995 296.5 59.0457C296.095 59.1741 295.677 59.2123 295.265 59.1585C296.64 58.8406 297.97 58.257 299.205 57.4302C300.382 56.5086 301.437 55.3727 302.333 54.0645V54.0645Z" fill="#B3D7B3"/>
<path d="M303.734 55.4228C303.712 55.6155 303.666 55.8039 303.596 55.9808C303.429 56.4743 303.23 56.9524 303.001 57.4106C302.232 58.9212 301.178 60.1956 299.929 61.124C298.677 62.0464 297.266 62.5853 295.822 62.6925C295.388 62.7426 294.952 62.7458 294.519 62.7019C294.36 62.6937 294.203 62.6566 294.054 62.592C294.056 62.5259 294.733 62.5871 295.811 62.4943C297.211 62.3213 298.572 61.7652 299.789 60.8681C301.005 59.971 302.046 58.7566 302.832 57.3174C303.42 56.1803 303.687 55.4043 303.734 55.4228Z" fill="#B3D7B3"/>
<path d="M291.705 42.5C291.31 42.5575 290.913 42.5887 290.516 42.5934C288.612 42.7753 286.783 43.6761 285.287 45.1689C284.719 45.7319 284.406 46.1226 284.374 46.1228C284.586 45.6941 284.86 45.3133 285.181 44.999C286.655 43.3573 288.561 42.4188 290.529 42.3659C290.927 42.3298 291.324 42.3751 291.705 42.5V42.5Z" fill="#B3D7B3"/>
<path d="M306.969 48.922C306.56 49.87 305.948 50.6731 305.2 51.2443C304.451 51.8155 303.594 52.1329 302.722 52.1622C303.541 51.8597 304.335 51.4553 305.09 50.9557C305.77 50.355 306.4 49.6736 306.969 48.922V48.922Z" fill="#B3D7B3"/>
<path d="M305.863 97.6654C304.287 93.3678 292.088 86.5731 292.088 86.5731C290.867 89.0077 289.205 91.0854 287.232 92.6429C284.059 95.0137 280.39 94.2012 277.665 91.6845C275.094 89.2988 276.107 84.5958 276.107 84.5958C276.107 84.5958 262.536 83.8645 258.563 86.4769C254.589 89.0893 252.23 96.6779 252.23 96.6779L247.031 110.124L251.959 119.178L254.151 121.802C254.151 121.802 259.93 129.086 270.855 131.298C281.05 133.365 290.06 128.028 290.06 128.028C295.569 125.773 300.457 120.41 305.008 113.041C305.023 113.069 307.695 102.706 305.863 97.6654Z" fill="#B3D7B3"/>
<path d="M252.103 88.9656C252.103 88.9656 255.39 84.1244 255.682 82.1915L257.175 71.8705C257.175 71.8705 256.737 70.7114 255.498 72.0418C254.26 73.3723 254.488 75.9107 254.488 75.9107L253.423 78.0929L252.891 75.9877L253.502 68.9536C253.502 68.9536 254.037 63.8977 253.295 64.1842C252.552 64.4707 252.018 65.8148 251.782 68.0004C251.545 70.1861 251.265 72.9437 251.265 72.9437C251.265 72.9437 251.129 73.7976 250.856 72.1968C250.583 70.596 251.396 64.5633 251.354 63.7013C251.312 62.8393 251.756 60.7272 250.762 60.5093C249.768 60.2914 249.641 63.123 249.641 63.123L248.344 72.0179C248.344 72.0179 248.329 68.2688 248.314 67.6128C248.298 66.9568 248.513 64.9869 248.454 63.8626C248.395 62.7382 248.041 61.9909 247.593 61.9379C247.385 61.8815 247.164 61.9248 246.977 62.0587C246.789 62.1927 246.649 62.407 246.585 62.6574L246.118 70.4872C246.118 70.4872 246.034 74.1058 245.937 74.294C245.84 74.4821 245.203 72.5371 245.203 72.5371L245.047 69.895C245.047 69.895 245.285 66.3034 244.565 65.9524C243.845 65.6014 243.644 66.2777 243.644 66.2777L243.26 72.8415L243.685 80.59L244.961 88.3793L247.319 88.9248L252.103 88.9656Z" fill="#FFBE9D"/>
<path d="M246.475 83.1482C246.867 82.693 247.232 82.2051 247.568 81.6883C248.367 80.4884 249.497 79.6767 250.738 79.4118C251.341 79.3098 251.947 79.4583 252.458 79.8329L252.626 79.9637L252.741 79.7271C253.232 78.6865 253.784 77.7679 254.095 77.1057C254.406 76.4435 254.588 76.0273 254.541 76.0088C254.3 76.2947 254.086 76.6127 253.904 76.9563C253.365 77.791 252.861 78.6569 252.394 79.5505L252.677 79.4448C252.1 78.9965 251.404 78.8116 250.71 78.9218C249.962 79.0281 249.245 79.3789 248.637 79.9363C248.156 80.3773 247.722 80.8908 247.347 81.4636C246.978 81.9613 246.682 82.5318 246.475 83.1482V83.1482Z" fill="#896357"/>
<path d="M275.807 84.884L277.857 81.1486L282.772 89.2127L282.127 92.8626L283.424 89.3492L292.799 82.7816L292.302 87.4381L287.974 94.0065L282.393 96.8165L278.369 95.0093C278.369 95.0093 275.23 93.6383 275.292 93.3271C275.354 93.0158 275.807 84.884 275.807 84.884Z" fill="#B3D7B3"/>
<path d="M280.109 93.0061L280.503 96.0954L282.37 96.6738L284.125 94.377L283.76 91.6822L281.548 90.9466L280.109 93.0061Z" fill="#F5B544"/>
<path d="M282.734 89.1742C282.513 89.6859 282.241 90.1643 281.924 90.5981C281.368 91.4566 280.571 92.655 279.639 94.014L279.438 94.3066L279.313 93.9695C279.094 93.3701 278.86 92.7333 278.58 92.0969C277.85 90.074 277.186 88.2291 276.736 86.8803C276.458 86.1699 276.239 85.4262 276.081 84.6597C276.461 85.2962 276.781 85.9834 277.035 86.709C277.556 88.0198 278.252 89.8457 278.989 91.8685L279.684 93.7414L279.351 93.6969C280.306 92.3565 281.141 91.1954 281.758 90.3927C282.043 89.9426 282.371 89.5336 282.734 89.1742V89.1742Z" fill="#263238"/>
<path d="M292.57 86.6166C292.058 87.3081 291.495 87.943 290.89 88.5132C289.82 89.6611 288.319 91.2267 286.652 92.9254L284.355 95.2694L284.1 95.5257L284.054 95.1397C283.844 93.4454 283.675 92.0051 283.567 90.979C283.484 90.444 283.449 89.8978 283.464 89.3498C283.63 89.8549 283.741 90.3861 283.794 90.9302C283.965 91.9371 284.181 93.3675 284.422 95.0522L284.121 94.9225L286.395 92.5787C288.063 90.88 289.585 89.3614 290.709 88.279C291.29 87.6625 291.913 87.1063 292.57 86.6166V86.6166Z" fill="#263238"/>
<path d="M311.889 115.037L313.041 108.356C311.917 106.109 310.555 104.054 308.988 102.242C307.36 100.148 305.163 98.8251 302.773 98.4995C299.656 98.2181 296.666 100.226 294.04 102.412C291.413 104.597 288.826 107.085 285.767 108.014C284.606 108.457 283.367 108.385 282.274 107.811C280.68 106.819 280.09 104.315 280.412 102.146C280.865 99.9872 281.68 97.9513 282.806 96.167L280.777 95.4143C279.471 97.5351 278.326 99.7926 277.359 102.157C276.573 104.253 276.36 106.58 276.755 108.786C277.162 110.393 277.922 111.824 278.956 112.927C279.99 114.031 281.26 114.767 282.631 115.058C285.398 115.6 288.266 114.955 290.747 113.233C293.005 111.779 295.068 109.692 297.544 108.955C299.25 108.514 301.01 108.703 302.592 109.5C304.173 110.296 305.503 111.662 306.406 113.418L311.889 115.037Z" fill="#F5B544"/>
<path d="M253.538 121.34C253.431 121.341 254.427 115.654 255.71 108.696C256.994 101.737 258.172 96.1149 258.278 96.1423C258.385 96.1698 257.389 101.828 256.098 108.787C254.807 115.746 253.629 121.405 253.538 121.34Z" fill="#263238"/>
<path d="M243.508 88.0232L253.893 88.8898L252.753 118.014L252.576 120.018C252.576 120.018 244.265 108.683 243.788 99.4864C243.685 97.531 243.374 95.9795 243.32 94.604C243.167 89.4761 243.508 88.0232 243.508 88.0232Z" fill="#B3D7B3"/>
<path d="M252.745 117.577C252.714 117.202 252.721 116.823 252.767 116.448C252.782 115.627 252.839 114.583 252.885 113.389C252.986 110.805 253.069 107.224 253.174 103.278C253.279 99.3332 253.4 95.7423 253.561 93.1492C253.638 91.862 253.71 90.808 253.784 90.0898C253.796 89.7115 253.846 89.3355 253.932 88.9703C253.954 89.3456 253.947 89.7235 253.911 90.0989C253.895 90.9196 253.875 91.9643 253.852 93.1674C253.801 95.8629 253.682 99.3792 253.578 103.278C253.474 107.176 253.345 110.814 253.176 113.398C253.091 114.694 253.012 115.739 252.931 116.467C252.898 116.842 252.836 117.214 252.745 117.577V117.577Z" fill="#263238"/>
<path d="M244.193 83.9464C244.204 84.0432 244.201 84.1418 244.187 84.2388C244.181 84.4558 244.128 84.7391 244.089 85.0883C244.009 85.834 243.842 86.9764 243.709 88.3544C243.196 95.1598 244.075 101.956 246.269 108.142C248.447 114.238 251.863 119.532 256.211 123.547C258.665 125.782 261.372 127.587 264.258 128.912C267.134 130.261 270.172 131.09 273.276 131.374C276.162 131.681 279.083 131.508 281.957 130.859C284.564 130.299 287.115 129.359 289.554 128.059C290.661 127.488 291.745 126.851 292.802 126.149C293.808 125.453 294.753 124.711 295.643 124.007C296.532 123.302 297.338 122.532 298.034 121.764C298.73 120.995 299.463 120.301 300.057 119.57L301.719 117.512L302.993 115.663L303.534 114.877L303.972 114.147L304.645 113.001L305.075 112.3C305.12 112.216 305.171 112.136 305.228 112.063C305.228 112.063 305.226 112.157 305.105 112.328L304.714 113.048L304.063 114.231L303.648 114.979C303.479 115.226 303.301 115.501 303.115 115.785L301.855 117.68L300.247 119.767C299.653 120.516 298.935 121.21 298.223 122.007C297.511 122.805 296.629 123.49 295.831 124.298C295.033 125.105 293.996 125.773 292.982 126.487C291.92 127.219 290.827 127.879 289.708 128.463C281.505 132.851 272.31 133.192 264.129 129.413C261.198 128.063 258.449 126.223 255.96 123.945C251.566 119.878 248.125 114.506 245.952 108.323C243.764 102.066 242.931 95.1899 243.531 88.3274C243.688 86.9115 243.885 85.816 243.988 85.0702L244.117 84.2204C244.135 84.1265 244.16 84.0346 244.193 83.9464Z" fill="#263238"/>
<path d="M309.258 101.897C309.299 101.413 309.376 100.934 309.489 100.465C309.678 99.5294 309.892 98.2102 310.096 96.5639C310.613 92.2468 310.575 87.8789 309.984 83.6189C309.645 81.2815 309.152 78.9869 308.51 76.7574C307.962 74.945 307.317 73.1816 306.58 71.4781C306.282 70.7414 305.959 70.1077 305.687 69.5484C305.416 68.9892 305.174 68.5046 304.952 68.1226C304.724 67.7325 304.52 67.3213 304.343 66.8923C304.618 67.2359 304.867 67.6098 305.085 68.0097C305.366 68.4543 305.627 68.9177 305.867 69.3979C306.162 69.9476 306.5 70.5719 306.822 71.2617C307.604 72.9539 308.28 74.7183 308.844 76.5404C309.519 78.7883 310.032 81.1088 310.378 83.4764C310.977 87.7848 310.975 92.2083 310.372 96.5623C310.192 97.8747 309.946 99.1747 309.635 100.455C309.545 100.947 309.418 101.429 309.258 101.897V101.897Z" fill="#263238"/>
<path d="M277.006 51.0181C276.632 51.122 276.252 51.1785 275.871 51.1868C275.504 51.1894 275.088 51.2679 274.54 51.3569C273.991 51.4458 273.428 51.5065 272.784 51.6623C271.266 51.9667 269.762 52.3878 268.282 52.923C266.475 53.5951 264.708 54.4293 262.995 55.4185C261.294 56.4332 259.652 57.5951 258.084 58.8948C256.81 59.9741 255.591 61.1481 254.436 62.4096C253.924 62.9333 253.506 63.4563 253.121 63.894C252.737 64.3316 252.423 64.7404 252.173 65.0637C251.929 65.4082 251.661 65.7265 251.371 66.0149C251.582 65.6188 251.823 65.2466 252.091 64.9035C252.326 64.552 252.624 64.1338 252.994 63.6679C253.364 63.202 253.798 62.6599 254.271 62.1176C255.415 60.8113 256.629 59.599 257.906 58.4895C261.04 55.7834 264.52 53.7402 268.192 52.4508C269.691 51.931 271.216 51.5411 272.754 51.2842C273.413 51.1472 274.007 51.1147 274.531 51.0449C275.056 50.975 275.501 50.9624 275.876 50.9598C276.254 50.9432 276.632 50.9627 277.006 51.0181V51.0181Z" fill="#263238"/>
<path d="M271.582 131.466C271.474 131.466 272.704 126.717 274.317 120.945C275.931 115.174 277.327 110.526 277.434 110.563C277.541 110.599 276.313 115.312 274.699 121.083C273.085 126.855 271.681 131.502 271.582 131.466Z" fill="#263238"/>
<path d="M307.244 42.1469C307.244 42.1469 307.241 42.2419 307.237 42.4224C307.176 42.6887 307.075 42.9406 306.939 43.1651C306.691 43.5909 306.359 43.9351 305.974 44.1639C305.59 44.3928 305.166 44.4986 304.745 44.471C304.17 44.3817 303.634 44.0917 303.201 43.6359C302.761 43.1486 302.202 42.8466 301.602 42.7726C300.94 42.7731 300.289 43.045 299.756 43.5445C299.169 44.113 298.63 44.7532 298.15 45.4544C297.154 46.8226 295.99 47.997 294.703 48.9339C293.637 49.6897 292.455 50.1577 291.241 50.3051C290.425 50.3974 289.607 50.2963 288.833 50.0075C288.554 49.9147 288.293 49.7621 288.061 49.5567C289.081 49.9511 290.163 50.0862 291.241 49.9537C292.406 49.7695 293.533 49.2861 294.548 48.536C295.787 47.6043 296.91 46.4538 297.876 45.1238C298.382 44.4179 298.946 43.7774 299.56 43.2133C300.171 42.6546 300.914 42.3584 301.666 42.3733C302.332 42.4649 302.95 42.8097 303.434 43.359C303.817 43.7866 304.295 44.0699 304.814 44.1762C305.187 44.1906 305.561 44.0961 305.904 43.9005C306.247 43.705 306.549 43.4141 306.785 43.0521C306.963 42.7691 307.116 42.4658 307.244 42.1469Z" fill="#263238"/>
<path d="M307.069 49.0558C307.069 49.0558 307.256 49.0544 307.566 49.1558C308.015 49.3006 308.441 49.5296 308.828 49.8347C309.132 50.0684 309.381 50.3931 309.55 50.779C309.72 51.165 309.805 51.5996 309.797 52.0429C309.721 52.5745 309.551 53.0837 309.299 53.5349C309.046 53.9862 308.717 54.3686 308.334 54.6554C307.605 55.2596 306.751 55.594 305.881 55.6161C305.173 55.6225 304.481 55.4137 303.869 55.0087C303.465 54.7411 303.106 54.3861 302.811 53.9606C302.607 53.651 302.534 53.4536 302.55 53.4346C302.992 53.9246 303.481 54.3481 304.009 54.6966C304.59 55.0275 305.232 55.1874 305.883 55.1636C306.677 55.1043 307.447 54.7715 308.103 54.2046C308.436 53.9559 308.726 53.6281 308.953 53.242C309.181 52.8558 309.341 52.4196 309.425 51.9608C309.433 51.59 309.367 51.2254 309.232 50.8981C309.097 50.5708 308.897 50.2905 308.65 50.0811C308.296 49.7686 307.913 49.5058 307.508 49.2976C307.222 49.1866 307.061 49.0841 307.069 49.0558Z" fill="#263238"/>
<path d="M278.018 227.768C278.015 227.901 261.638 221.949 241.519 214.491C221.399 207.033 205.082 200.872 205.147 200.739C205.213 200.605 221.527 206.557 241.654 214.015C261.781 221.473 278.053 227.606 278.018 227.768Z" fill="#263238"/>
<path d="M276.569 231.581C276.566 231.714 260.189 225.772 240.069 218.314C219.95 210.856 203.687 204.695 203.69 204.561C203.693 204.428 220.063 210.37 240.19 217.838C260.316 225.305 276.619 231.457 276.569 231.581Z" fill="#263238"/>
<path d="M275.466 235.767C275.464 235.89 259.086 229.948 238.967 222.49C218.848 215.032 202.53 208.871 202.596 208.738C202.661 208.605 218.968 214.547 239.095 222.014C259.222 229.482 275.501 235.633 275.466 235.767Z" fill="#263238"/>
<path d="M274.348 239.944C274.345 240.077 257.968 234.125 237.849 226.667C217.73 219.209 201.412 213.048 201.478 212.915C201.543 212.781 217.858 218.733 237.985 226.191C258.112 233.649 274.383 239.81 274.348 239.944Z" fill="#263238"/>
<path d="M273.207 244.12C273.165 244.253 256.826 238.311 236.707 230.843C216.588 223.376 200.271 217.224 200.336 217.1C200.401 216.976 216.74 222.89 236.867 230.367C256.993 237.844 273.272 243.986 273.207 244.12Z" fill="#263238"/>
<path d="M259.154 153.774C259.146 153.989 259.115 154.203 259.063 154.41C259.007 154.841 258.84 155.431 258.653 156.218C258.272 157.773 257.685 159.965 256.929 162.776C255.421 168.295 253.265 175.894 250.855 184.233C248.445 192.573 246.205 200.163 244.575 205.617C243.745 208.307 243.104 210.499 242.622 212.074C242.398 212.795 242.208 213.376 242.068 213.826C242.014 214.034 241.942 214.235 241.854 214.426C241.881 214.209 241.927 213.996 241.991 213.789L242.477 212.018C242.921 210.426 243.547 208.214 244.308 205.516L250.474 184.086C252.884 175.756 255.062 168.157 256.654 162.675C257.43 159.976 258.057 157.765 258.508 156.181C258.71 155.413 258.9 154.813 258.986 154.411C259.032 154.195 259.089 153.982 259.154 153.774V153.774Z" fill="#E0E0E0"/>
<path d="M282.631 96.3878C282.628 96.5209 282.097 96.4957 281.499 96.3283C280.901 96.161 280.437 95.9168 280.464 95.7835C280.49 95.6503 280.998 95.6756 281.604 95.8429C282.21 96.0102 282.658 96.2545 282.631 96.3878Z" fill="#263238"/>
<path d="M295.79 167.713C295.749 167.837 279.414 161.782 259.299 154.184C239.184 146.586 222.87 140.323 222.936 140.161C223.002 139.999 239.305 146.082 259.428 153.68C279.55 161.278 295.825 167.58 295.79 167.713Z" fill="#EBEBEB"/>
<path d="M253.044 199.022C253.21 198.887 253.404 198.811 253.601 198.801C254.148 198.731 254.692 198.883 255.147 199.232C255.496 199.482 255.782 199.842 255.974 200.275C256.166 200.709 256.258 201.2 256.241 201.698C256.234 202.319 256.069 202.928 255.769 203.443C255.468 203.959 255.046 204.354 254.561 204.576C254.075 204.798 253.55 204.835 253.057 204.683C252.564 204.531 252.127 204.196 251.806 203.726C251.533 203.353 251.349 202.894 251.276 202.398C251.203 201.902 251.242 201.387 251.39 200.906C251.559 200.276 251.898 199.726 252.352 199.347C252.507 199.189 252.696 199.089 252.895 199.06C252.895 199.06 252.713 199.203 252.449 199.497C252.061 199.89 251.777 200.414 251.637 200.998C251.531 201.413 251.515 201.849 251.59 202.266C251.665 202.682 251.828 203.064 252.064 203.376C252.339 203.771 252.711 204.05 253.129 204.177C253.548 204.304 253.993 204.271 254.404 204.084C254.816 203.896 255.174 203.563 255.432 203.129C255.689 202.695 255.833 202.18 255.845 201.654C255.868 201.225 255.799 200.8 255.644 200.42C255.489 200.04 255.254 199.719 254.962 199.487C254.565 199.15 254.09 198.966 253.597 198.961C253.223 198.992 253.043 199.069 253.044 199.022Z" fill="#E0E0E0"/>
<path d="M260.496 174.047C260.662 173.909 260.855 173.833 261.053 173.826C261.6 173.758 262.143 173.909 262.599 174.257C262.947 174.508 263.231 174.869 263.422 175.302C263.613 175.735 263.703 176.225 263.685 176.723C263.679 177.344 263.514 177.953 263.213 178.468C262.912 178.983 262.49 179.379 262.005 179.601C261.52 179.823 260.995 179.86 260.502 179.708C260.009 179.556 259.572 179.221 259.251 178.75C258.977 178.378 258.794 177.919 258.72 177.423C258.647 176.927 258.686 176.412 258.834 175.931C259.008 175.329 259.333 174.803 259.764 174.428C259.92 174.275 260.109 174.179 260.307 174.151C260.307 174.151 260.132 174.294 259.861 174.578C259.474 174.978 259.191 175.504 259.048 176.089C258.939 176.503 258.921 176.939 258.994 177.356C259.068 177.773 259.231 178.156 259.467 178.467C259.757 178.831 260.125 179.089 260.534 179.213C260.942 179.338 261.374 179.324 261.785 179.174C262.187 178.967 262.536 178.628 262.792 178.197C263.047 177.765 263.197 177.258 263.226 176.736C263.25 176.309 263.183 175.885 263.029 175.507C262.876 175.128 262.642 174.808 262.35 174.579C261.949 174.243 261.473 174.057 260.978 174.043C260.707 174.017 260.503 174.094 260.496 174.047Z" fill="#E0E0E0"/>
<path d="M250.047 133.708C250.214 133.574 250.407 133.497 250.604 133.488C251.151 133.417 251.695 133.569 252.15 133.919C252.5 134.169 252.785 134.529 252.977 134.962C253.169 135.395 253.261 135.886 253.244 136.385C253.237 137.005 253.073 137.615 252.772 138.13C252.471 138.645 252.049 139.041 251.564 139.263C251.079 139.484 250.553 139.522 250.06 139.37C249.567 139.217 249.131 138.883 248.81 138.412C248.536 138.04 248.352 137.581 248.279 137.085C248.206 136.589 248.245 136.073 248.393 135.593C248.562 134.962 248.901 134.412 249.355 134.033C249.51 133.875 249.699 133.775 249.898 133.747C249.898 133.747 249.724 133.889 249.453 134.174C249.066 134.573 248.783 135.1 248.64 135.685C248.534 136.099 248.518 136.536 248.593 136.952C248.668 137.369 248.831 137.751 249.067 138.062C249.342 138.457 249.714 138.737 250.133 138.864C250.551 138.99 250.996 138.958 251.407 138.77C251.819 138.583 252.177 138.25 252.435 137.816C252.692 137.381 252.837 136.867 252.848 136.341C252.871 135.912 252.802 135.486 252.647 135.107C252.492 134.727 252.257 134.406 251.965 134.174C251.568 133.836 251.093 133.653 250.601 133.648C250.289 133.678 250.054 133.755 250.047 133.708Z" fill="#E0E0E0"/>
<path d="M249.127 114.934C249.227 114.934 247.281 122.139 244.783 130.937C242.286 139.735 240.164 146.867 240.058 146.802C239.952 146.737 241.897 139.598 244.402 130.79C246.907 121.982 249.028 114.898 249.127 114.934Z" fill="#EBEBEB"/>
<g opacity="0.3">
<path d="M206.308 196.113C206.308 196.113 217.655 158.327 222.107 139.686C216.661 147.47 210.515 156.405 207.192 165.76C203.838 175.54 203.523 186.364 206.308 196.113V196.113Z" fill="black"/>
</g>
<path d="M216.304 295.364C215.29 295.649 214.396 296.4 213.814 297.455C213.231 298.51 213.007 299.786 213.189 301.007C213.372 302.227 213.946 303.297 214.789 303.984C215.632 304.672 216.676 304.923 217.697 304.683C218.717 304.443 219.633 303.732 220.247 302.703C220.86 301.673 221.123 300.407 220.979 299.178C220.834 297.948 220.294 296.852 219.474 296.126C218.654 295.4 217.619 295.103 216.593 295.296" fill="#F5B544"/>
</svg>
