<svg width="38" height="38" viewBox="0 0 38 38" fill="none" xmlns="http://www.w3.org/2000/svg">
<path d="M16.9553 14.7114C15.3553 15.4756 14.25 17.1087 14.25 19C14.25 21.6233 16.3767 23.75 19 23.75C20.8913 23.75 22.5244 22.6446 23.2886 21.0448" stroke="#333333" stroke-width="2" stroke-linecap="round" stroke-linejoin="round"/>
<path d="M22.3878 9.27893C21.3269 8.9093 20.1869 8.70837 19 8.70837C13.3161 8.70837 8.70834 13.3161 8.70834 19C8.70834 24.684 13.3161 29.2917 19 29.2917C24.6839 29.2917 29.2917 24.684 29.2917 19C29.2917 17.8132 29.0907 16.6732 28.7211 15.6123" stroke="#333333" stroke-width="2" stroke-linecap="round" stroke-linejoin="round"/>
<path d="M26.5743 5.09239C24.3244 3.86449 21.7437 3.16663 19 3.16663C10.2555 3.16663 3.16666 10.2554 3.16666 19C3.16666 27.7445 10.2555 34.8333 19 34.8333C27.7445 34.8333 34.8333 27.7445 34.8333 19C34.8333 16.2563 34.1355 13.6756 32.9076 11.4257" stroke="#333333" stroke-width="2" stroke-linecap="round" stroke-linejoin="round"/>
<path d="M34.8333 3.16663L19 19" stroke="#333333" stroke-width="2" stroke-linecap="round" stroke-linejoin="round"/>
</svg>
