<svg width="597" height="416" viewBox="0 0 597 416" fill="none" xmlns="http://www.w3.org/2000/svg">
<path d="M549.264 324.815V366.959H556.06V371.537H549.264V399.753H422.139V374.076H431.587V368.494H422.166V360.121H417.986V356.307H422.957V324.815H549.264Z" fill="#F5F5F5"/>
<path d="M455.896 324.936V399.279H422.139V373.611H431.56V368.485L422.139 368.662V360.27L417.878 360.28L417.959 355.944L422.93 355.823V324.815L455.896 324.936Z" fill="#EBEBEB"/>
<path d="M453.495 370.932C453.495 371.192 476.5 371.397 504.863 371.397C533.226 371.397 556.24 371.192 556.24 370.932C556.24 370.671 533.244 370.467 504.863 370.467C476.482 370.467 453.495 370.671 453.495 370.932Z" fill="#E0E0E0"/>
<path d="M453.495 366.652C453.495 366.913 476.5 367.117 504.863 367.117C533.226 367.117 556.24 366.913 556.24 366.652C556.24 366.392 533.244 366.187 504.863 366.187C476.482 366.187 453.495 366.392 453.495 366.652Z" fill="#E0E0E0"/>
<path d="M446.87 355.125C446.87 355.386 469.875 355.6 498.238 355.6C526.601 355.6 549.615 355.386 549.615 355.125C549.615 354.865 526.619 354.66 498.238 354.66C469.857 354.66 446.87 354.874 446.87 355.125Z" fill="#E0E0E0"/>
<path d="M446.259 386.533C446.259 386.785 469.264 386.998 497.635 386.998C526.007 386.998 549.003 386.785 549.003 386.533C549.003 386.282 526.007 386.059 497.635 386.059C469.264 386.059 446.259 386.273 446.259 386.533Z" fill="#E0E0E0"/>
<path d="M281.385 34.8409C278.512 33.0427 275.419 31.6504 272.189 30.7009L270.292 21.2767L254.91 20.9976L252.699 30.3009C249.438 31.1277 246.299 32.4043 243.367 34.0966L235.609 28.8681L224.543 39.9298L229.316 48.1539C227.577 51.1299 226.231 54.3341 225.316 57.6805L216.209 59.6342L215.939 75.5521L224.974 77.85C225.775 81.224 227.008 84.4718 228.642 87.5068L223.554 95.5542L234.261 107.007L242.208 102.02C245.086 103.813 248.181 105.202 251.413 106.151L253.301 115.575L268.683 115.854L270.903 106.504C274.163 105.676 277.302 104.399 280.235 102.708L288.011 107.983L299.077 96.9218L294.259 88.6977C295.994 85.7237 297.336 82.5229 298.25 79.1804L307.357 77.2174L307.627 61.2994L298.592 59.0108C297.799 55.6373 296.571 52.3893 294.942 49.354L300.039 41.3067L289.35 29.8543L281.403 34.8409H281.385ZM273.187 56.0431C275.449 58.4757 276.963 61.5475 277.54 64.8706C278.116 68.1936 277.727 71.6187 276.424 74.7135C275.12 77.8082 272.959 80.4337 270.214 82.2583C267.469 84.083 264.264 85.0249 261.002 84.9652C257.74 84.9055 254.568 83.8468 251.888 81.9228C249.207 79.9988 247.137 77.2959 245.94 74.1554C244.743 71.0148 244.472 67.5776 245.161 64.2777C245.85 60.9779 247.469 57.9634 249.813 55.6151C251.373 54.0519 253.216 52.8227 255.237 51.9979C257.257 51.1731 259.414 50.7691 261.586 50.8088C263.757 50.8486 265.899 51.3314 267.89 52.2296C269.881 53.1278 271.681 54.4237 273.187 56.0431Z" fill="#EBEBEB"/>
<path d="M196 16.1412C194.314 15.0905 192.5 14.277 190.606 13.7223L189.5 8.22407L180.511 8.06592L179.261 13.527C177.359 14.0149 175.528 14.7593 173.813 15.7411L169.318 12.6711L162.792 19.1089L165.596 23.9094C164.584 25.6547 163.801 27.5319 163.268 29.4914L157.955 30.6357L157.802 39.939L163.07 41.2787C163.54 43.2297 164.26 45.1069 165.21 46.8607L162.234 51.5123L168.473 58.1921L173.112 55.2801C174.796 56.3341 176.611 57.1478 178.506 57.699L179.612 63.188L188.601 63.3554L189.887 57.9037C191.789 57.4174 193.621 56.6729 195.335 55.6895L199.83 58.7596L206.293 52.3124L203.48 47.5119C204.496 45.7686 205.279 43.8909 205.808 41.9299L211.121 40.7856L211.283 31.4823L206.042 30.2729C205.569 28.3215 204.846 26.4443 203.893 24.6909L206.869 20.0393L200.639 13.3595L196 16.2714V16.1412ZM191.217 28.5053C192.54 29.9227 193.427 31.7141 193.765 33.653C194.104 35.5919 193.88 37.5912 193.121 39.3982C192.362 41.2052 191.102 42.7387 189.501 43.8049C187.9 44.8711 186.029 45.4222 184.126 45.3883C182.222 45.3545 180.371 44.7374 178.806 43.615C177.241 42.4925 176.033 40.9152 175.334 39.0823C174.636 37.2494 174.478 35.2433 174.881 33.3176C175.284 31.3919 176.229 29.6331 177.598 28.2634C178.507 27.3533 179.581 26.6376 180.758 26.1573C181.935 25.6769 183.191 25.4412 184.456 25.4636C185.721 25.4861 186.969 25.7663 188.129 26.2882C189.289 26.8101 190.339 27.5635 191.217 28.5053Z" fill="#EBEBEB"/>
<path d="M61.683 158.705C59.4492 157.308 57.0458 156.226 54.5361 155.486L53.0707 148.173L41.1232 147.95L39.3972 155.216C36.8653 155.859 34.4283 156.851 32.1514 158.165L26.1192 154.072L17.516 162.659L21.2647 169.041C19.9134 171.368 18.8674 173.871 18.1542 176.483L11.0882 178.009L10.8635 190.289L17.8755 192.066C18.5001 194.699 19.4679 197.231 20.7523 199.593L16.7967 205.845L25.0944 214.739L31.2704 210.868C33.4994 212.265 35.9004 213.345 38.4083 214.078L39.8827 221.4L51.8301 221.614L53.5472 214.357C56.0775 213.709 58.5139 212.717 60.7929 211.408L66.8341 215.501L75.4284 206.914L71.6886 200.523C73.0387 198.213 74.0819 195.725 74.7901 193.127L81.8831 191.62L82.0898 179.256L75.0778 177.47C74.4482 174.852 73.4902 172.331 72.228 169.971L76.1835 163.729L67.8859 154.825L61.7099 158.705H61.683ZM55.3182 175.172C57.0788 177.059 58.2591 179.445 58.7099 182.026C59.1607 184.608 58.8617 187.27 57.8507 189.676C56.8397 192.082 55.162 194.123 53.03 195.543C50.8979 196.962 48.407 197.695 45.8723 197.65C43.3375 197.604 40.8728 196.782 38.7896 195.287C36.7063 193.792 35.0982 191.691 34.1684 189.251C33.2387 186.81 33.0291 184.139 33.5662 181.575C34.1032 179.011 35.3628 176.669 37.1857 174.846C38.3967 173.635 39.8264 172.682 41.3932 172.043C42.96 171.404 44.6332 171.091 46.3171 171.121C48.001 171.151 49.6627 171.524 51.2071 172.219C52.7516 172.914 54.1485 173.918 55.3182 175.172V175.172Z" fill="#EBEBEB"/>
<path d="M10.8636 400.479C10.8636 400.609 142.115 400.721 303.932 400.721C465.749 400.721 597 400.609 597 400.479C597 400.349 465.749 400.237 303.932 400.237C142.115 400.237 10.8636 400.339 10.8636 400.479Z" fill="#263238"/>
<path d="M272.692 0H594.006V260.195H272.692V0Z" fill="white"/>
<path d="M271.424 0H593.943V21.6395H271.424V0Z" fill="#263238"/>
<path d="M576 21.6394H593.944V260.195H576V21.6394Z" fill="#455A64"/>
<path d="M271.425 21.6394H593.944V35.9758H271.425V21.6394Z" fill="#455A64"/>
<path d="M587.363 16.3832C587.421 16.3841 587.479 16.373 587.533 16.3506C587.587 16.3283 587.636 16.2951 587.678 16.253C587.72 16.2097 587.753 16.1583 587.776 16.1016C587.799 16.0449 587.811 15.9841 587.811 15.9227C587.811 15.8613 587.799 15.8005 587.776 15.7438C587.753 15.6871 587.72 15.6357 587.678 15.5924L577.438 4.8192C577.397 4.77588 577.348 4.74146 577.294 4.71797C577.24 4.69447 577.182 4.68237 577.124 4.68237C577.065 4.68237 577.007 4.69447 576.953 4.71797C576.899 4.74146 576.85 4.77588 576.809 4.8192C576.767 4.86244 576.733 4.91389 576.711 4.97057C576.688 5.02726 576.676 5.08806 576.676 5.14946C576.676 5.21087 576.688 5.27167 576.711 5.32836C576.733 5.38504 576.767 5.43649 576.809 5.47973L587.039 16.2436C587.125 16.3327 587.241 16.3829 587.363 16.3832V16.3832Z" fill="white"/>
<path d="M577.034 16.3181C577.093 16.3188 577.151 16.3068 577.205 16.2828C577.259 16.2587 577.308 16.2232 577.348 16.1785L587.759 5.57278C587.844 5.48643 587.894 5.36832 587.895 5.24445C587.897 5.12057 587.851 5.00108 587.767 4.91225C587.684 4.82343 587.57 4.77254 587.45 4.7708C587.331 4.76905 587.215 4.81659 587.129 4.90295L576.719 15.4994C576.677 15.5426 576.643 15.5941 576.621 15.6508C576.598 15.7075 576.586 15.7683 576.586 15.8297C576.586 15.8911 576.598 15.9519 576.621 16.0086C576.643 16.0652 576.677 16.1167 576.719 16.1599C576.757 16.208 576.805 16.247 576.86 16.2743C576.914 16.3016 576.973 16.3165 577.034 16.3181V16.3181Z" fill="white"/>
<path d="M273.106 35.9758C273.106 36.106 343.918 36.2177 431.255 36.2177C518.591 36.2177 589.422 36.106 589.422 35.9758C589.422 35.8455 518.618 35.7339 431.255 35.7339C343.892 35.7339 273.106 35.8548 273.106 35.9758Z" fill="#263238"/>
<path d="M576 259.348C576.126 259.348 576.234 206.719 576.234 141.81C576.234 76.901 576.126 24.2722 576 24.2722C575.874 24.2722 575.766 76.8824 575.766 141.81C575.766 206.738 575.874 259.348 576 259.348Z" fill="#263238"/>
<path d="M557.571 35.7339C557.807 33.8341 557.885 31.9167 557.804 30.003C557.885 28.0894 557.807 26.172 557.571 24.2722C557.34 26.1725 557.261 28.0894 557.337 30.003C557.261 31.9167 557.34 33.8336 557.571 35.7339V35.7339Z" fill="#263238"/>
<path d="M539.16 35.7339C539.391 33.8336 539.469 31.9167 539.393 30.003C539.469 28.0894 539.391 26.1725 539.16 24.2722C538.923 26.172 538.845 28.0894 538.926 30.003C538.845 31.9167 538.923 33.8341 539.16 35.7339Z" fill="#263238"/>
<path d="M520.739 35.7339C520.976 33.8341 521.054 31.9167 520.973 30.003C521.054 28.0894 520.976 26.172 520.739 24.2722C520.508 26.1725 520.43 28.0894 520.506 30.003C520.43 31.9167 520.508 33.8336 520.739 35.7339Z" fill="#263238"/>
<path d="M502.328 35.7339C502.559 33.8336 502.637 31.9167 502.562 30.003C502.637 28.0894 502.559 26.1725 502.328 24.2722C502.092 26.172 502.014 28.0894 502.094 30.003C502.014 31.9167 502.092 33.8341 502.328 35.7339Z" fill="#263238"/>
<path d="M483.908 35.7339C484.144 33.8341 484.223 31.9167 484.142 30.003C484.223 28.0894 484.144 26.172 483.908 24.2722C483.677 26.1725 483.599 28.0894 483.674 30.003C483.599 31.9167 483.677 33.8336 483.908 35.7339V35.7339Z" fill="#263238"/>
<path d="M465.497 35.7339C465.728 33.8336 465.806 31.9167 465.731 30.003C465.806 28.0894 465.728 26.1725 465.497 24.2722C465.261 26.172 465.182 28.0894 465.263 30.003C465.182 31.9167 465.261 33.8341 465.497 35.7339Z" fill="#263238"/>
<path d="M447.077 35.7339C447.313 33.8341 447.391 31.9167 447.31 30.003C447.391 28.0894 447.313 26.172 447.077 24.2722C446.846 26.1725 446.768 28.0894 446.843 30.003C446.768 31.9167 446.846 33.8336 447.077 35.7339Z" fill="#263238"/>
<path d="M428.666 35.7339C428.897 33.8336 428.975 31.9167 428.899 30.003C428.975 28.0894 428.897 26.1725 428.666 24.2722C428.429 26.172 428.351 28.0894 428.432 30.003C428.351 31.9167 428.429 33.8341 428.666 35.7339Z" fill="#263238"/>
<path d="M410.245 35.7339C410.482 33.8341 410.56 31.9167 410.479 30.003C410.56 28.0894 410.482 26.172 410.245 24.2722C410.014 26.1725 409.936 28.0894 410.012 30.003C409.936 31.9167 410.014 33.8336 410.245 35.7339Z" fill="#263238"/>
<path d="M391.834 35.7339C392.065 33.8336 392.143 31.9167 392.068 30.003C392.143 28.0894 392.065 26.1725 391.834 24.2722C391.603 26.1725 391.525 28.0894 391.601 30.003C391.525 31.9167 391.603 33.8336 391.834 35.7339Z" fill="#263238"/>
<path d="M373.414 35.7339C373.651 33.8341 373.729 31.9167 373.648 30.003C373.729 28.0894 373.651 26.172 373.414 24.2722C373.183 26.1725 373.105 28.0894 373.18 30.003C373.105 31.9167 373.183 33.8336 373.414 35.7339V35.7339Z" fill="#263238"/>
<path d="M355.003 35.7339C355.234 33.8336 355.312 31.9167 355.237 30.003C355.312 28.0894 355.234 26.1725 355.003 24.2722C354.772 26.1725 354.694 28.0894 354.769 30.003C354.694 31.9167 354.772 33.8336 355.003 35.7339Z" fill="#263238"/>
<path d="M336.583 35.7339C336.825 33.8346 336.906 31.917 336.826 30.003C336.906 28.0891 336.825 26.1715 336.583 24.2722C336.352 26.1725 336.274 28.0894 336.349 30.003C336.274 31.9167 336.352 33.8336 336.583 35.7339Z" fill="#263238"/>
<path d="M318.172 35.7339C318.403 33.8336 318.481 31.9167 318.405 30.003C318.481 28.0894 318.403 26.1725 318.172 24.2722C317.941 26.1725 317.862 28.0894 317.938 30.003C317.862 31.9167 317.941 33.8336 318.172 35.7339Z" fill="#263238"/>
<path d="M299.76 35.7339C299.991 33.8336 300.07 31.9167 299.994 30.003C300.07 28.0894 299.991 26.1725 299.76 24.2722C299.518 26.1715 299.437 28.0891 299.518 30.003C299.437 31.917 299.518 33.8346 299.76 35.7339V35.7339Z" fill="#263238"/>
<path d="M281.34 35.7339C281.571 33.8336 281.65 31.9167 281.574 30.003C281.65 28.0894 281.571 26.1725 281.34 24.2722C281.109 26.1725 281.031 28.0894 281.107 30.003C281.031 31.9167 281.109 33.8336 281.34 35.7339V35.7339Z" fill="#263238"/>
<path d="M576 52.1915C578.227 52.4365 580.468 52.5174 582.706 52.4334C584.947 52.5175 587.192 52.4367 589.422 52.1915C587.191 51.952 584.947 51.8712 582.706 51.9497C580.468 51.8713 578.227 51.9522 576 52.1915V52.1915Z" fill="#263238"/>
<path d="M576 69.7562C578.227 70.0012 580.468 70.082 582.706 69.9981C584.947 70.0822 587.192 70.0014 589.422 69.7562C587.191 69.5167 584.947 69.4359 582.706 69.5144C580.468 69.436 578.227 69.5169 576 69.7562V69.7562Z" fill="#263238"/>
<path d="M576 87.3207C578.227 87.5601 580.468 87.6409 582.706 87.5626C584.947 87.6411 587.191 87.5602 589.422 87.3207C587.191 87.0812 584.947 87.0003 582.706 87.0788C580.468 87.0005 578.227 87.0813 576 87.3207Z" fill="#263238"/>
<path d="M576 104.885C578.227 105.125 580.468 105.206 582.706 105.127C584.947 105.206 587.191 105.125 589.422 104.885C587.192 104.64 584.947 104.559 582.706 104.643C580.468 104.56 578.227 104.64 576 104.885V104.885Z" fill="#263238"/>
<path d="M576 122.441C578.227 122.686 580.468 122.766 582.706 122.682C584.947 122.767 587.192 122.686 589.422 122.441C587.191 122.201 584.947 122.12 582.706 122.199C580.468 122.12 578.227 122.201 576 122.441V122.441Z" fill="#263238"/>
<path d="M576 140.052C578.227 140.291 580.468 140.372 582.706 140.294C584.947 140.372 587.191 140.291 589.422 140.052C587.191 139.812 584.947 139.732 582.706 139.81C580.468 139.732 578.227 139.813 576 140.052V140.052Z" fill="#263238"/>
<path d="M576 157.57C578.227 157.809 580.468 157.89 582.706 157.812C584.947 157.89 587.191 157.809 589.422 157.57C587.192 157.325 584.947 157.244 582.706 157.328C580.468 157.244 578.227 157.325 576 157.57V157.57Z" fill="#263238"/>
<path d="M576 175.135C578.227 175.374 580.468 175.455 582.706 175.377C584.947 175.455 587.191 175.374 589.422 175.135C587.192 174.89 584.947 174.809 582.706 174.893C580.468 174.809 578.227 174.89 576 175.135V175.135Z" fill="#263238"/>
<path d="M576 192.69C578.227 192.935 580.468 193.016 582.706 192.932C584.947 193.016 587.192 192.935 589.422 192.69C587.191 192.45 584.947 192.369 582.706 192.448C580.468 192.37 578.227 192.45 576 192.69V192.69Z" fill="#263238"/>
<path d="M576 210.255C578.227 210.494 580.468 210.575 582.706 210.496C584.947 210.575 587.191 210.494 589.422 210.255C587.191 210.015 584.947 209.934 582.706 210.013C580.468 209.934 578.227 210.015 576 210.255V210.255Z" fill="#263238"/>
<path d="M576 227.819C578.227 228.059 580.468 228.139 582.706 228.061C584.947 228.14 587.191 228.059 589.422 227.819C587.192 227.574 584.947 227.493 582.706 227.577C580.468 227.493 578.227 227.574 576 227.819V227.819Z" fill="#263238"/>
<path d="M576 245.374C578.226 245.626 580.468 245.71 582.706 245.626C584.948 245.71 587.192 245.626 589.422 245.374C587.19 245.15 584.946 245.085 582.706 245.179C580.469 245.085 578.228 245.151 576 245.374V245.374Z" fill="#263238"/>
<path d="M383.285 58.648C383.285 58.7411 383.33 58.8527 383.375 59.0574C383.42 59.262 383.51 59.7644 383.645 60.3226C384.059 61.9119 384.588 63.4668 385.227 64.9743C387.665 70.7554 391.636 75.7035 396.68 79.2455L396.779 78.985L388.085 77.6268H387.843L387.906 77.8686C389.011 81.9807 390.144 86.5951 392.553 91.0235C393.78 93.3177 395.397 95.3633 397.327 97.0613C399.371 98.893 401.856 100.118 404.519 100.606V100.187L397.39 100.838H397.174V101.062C398.231 110.201 400.155 119.209 402.919 127.958C405.927 137.581 409.574 146.978 413.832 156.081C415.343 159.412 416.934 162.659 418.507 165.841L419.046 166.938L418.948 165.71C417.374 146.955 415.433 129.325 416.592 113.938V113.863C414.514 104.974 411.652 96.3013 408.043 87.9534C406.496 84.485 404.737 81.1227 402.775 77.8872C401.085 75.152 399.21 72.5436 397.165 70.0818C394.299 66.6196 390.99 63.5774 387.33 61.039C386.701 60.5924 386.117 60.2389 385.622 59.9319C385.128 59.6249 384.723 59.3737 384.337 59.1783L383.285 58.6201L384.328 59.2527C384.993 59.6342 386.009 60.2668 387.258 61.1134C390.883 63.7034 394.154 66.7855 396.985 70.2771C399.009 72.7356 400.86 75.341 402.523 78.0733C404.465 81.3082 406.206 84.6672 407.737 88.1302C411.313 96.4697 414.144 105.13 416.197 114.003V113.928C415.001 129.381 416.925 147.029 418.489 165.785L418.93 165.645C417.356 162.464 415.774 159.226 414.264 155.905C405.544 137.103 399.458 118.143 397.642 101.015L397.453 101.257L404.582 100.597L406.236 100.438L404.6 100.178C402.006 99.7134 399.583 98.5303 397.588 96.7543C395.687 95.0874 394.091 93.08 392.877 90.8281C390.486 86.4742 389.344 81.8877 388.22 77.8035L388.041 78.0082L396.752 79.3293L397.354 79.4223L396.842 79.0688C393.976 77.068 391.441 74.6019 389.335 71.7657C387.765 69.6641 386.441 67.3783 385.389 64.9557C384.737 63.4462 384.187 61.892 383.743 60.304C383.465 59.3272 383.348 58.8806 383.285 58.648Z" fill="#263238"/>
<path d="M420.656 176.186C420.582 175.985 420.519 175.78 420.467 175.572C420.35 175.162 420.224 174.539 420.062 173.711C419.766 172.064 419.415 169.627 419.046 166.464C418.309 160.128 417.509 150.918 416.718 139.484C415.927 128.05 415.657 114.17 418.516 99.08C419.995 91.165 422.379 83.4603 425.618 76.1288C427.324 72.2324 429.354 68.497 431.686 64.9648C434.066 61.284 436.685 57.7748 439.525 54.4614L439.121 54.3218C439.606 58.8246 440.074 63.6251 440.46 68.4629C440.82 73.1145 441.206 77.7661 441.125 82.3062C441.151 84.5507 440.347 86.7206 438.878 88.3719C437.459 90.022 435.766 91.3958 433.88 92.4281L432.28 93.3585L434.077 92.9026L442.663 90.6791L442.384 90.4558C442.444 93.4453 442.537 96.3914 442.663 99.294C442.807 102.197 442.941 105.053 443.283 107.862C443.283 108.216 443.382 108.569 443.445 108.923C443.495 109.231 443.495 109.545 443.445 109.853C443.319 110.517 443.069 111.15 442.708 111.714C441.978 112.839 441.121 113.87 440.155 114.784C438.281 116.598 436.266 118.251 434.131 119.724L433.583 120.115H443.652L443.454 119.91C443.262 128.424 441.559 136.828 438.429 144.703C436.075 150.769 433.24 156.622 429.951 162.203C427.254 166.855 424.872 170.325 423.227 172.669C422.409 173.841 421.761 174.716 421.321 175.311L420.826 175.981L420.656 176.214C420.656 176.214 420.719 176.149 420.835 176L421.366 175.348C421.815 174.772 422.49 173.897 423.326 172.734C424.998 170.418 427.398 166.957 430.149 162.324C433.472 156.749 436.338 150.895 438.716 144.824C441.898 136.912 443.635 128.459 443.84 119.891V119.696H434.284L434.392 120.078C436.551 118.593 438.59 116.928 440.487 115.1C441.476 114.159 442.354 113.101 443.103 111.946C443.495 111.341 443.767 110.661 443.903 109.946C443.967 109.577 443.967 109.199 443.903 108.83C443.849 108.495 443.777 108.151 443.742 107.806C443.409 105.016 443.283 102.169 443.148 99.2754C443.013 96.382 442.932 93.4329 442.87 90.4465V90.1581L442.591 90.2233L433.997 92.4468L434.158 92.884C436.104 91.8313 437.847 90.4187 439.301 88.7161C440.047 87.8444 440.654 86.8552 441.099 85.7856C441.3 85.2391 441.457 84.6757 441.566 84.1017C441.566 83.5249 441.692 82.9388 441.692 82.362C441.746 80.0641 441.692 77.7103 441.521 75.4403C441.35 73.1703 441.224 70.7887 441.027 68.4629C440.64 63.6065 440.128 58.8153 439.687 54.3032L439.624 53.7729L439.283 54.173C436.398 57.4896 433.733 61.005 431.309 64.695C428.969 68.2535 426.93 72.0134 425.214 75.9334C421.974 83.3002 419.59 91.0388 418.112 98.987C415.271 114.133 415.585 128.05 416.403 139.494C417.222 150.937 418.085 160.184 418.876 166.473C419.271 169.636 419.649 172.055 419.981 173.72C420.092 174.349 420.239 174.971 420.422 175.581C420.469 175.794 420.547 175.998 420.656 176.186V176.186Z" fill="#263238"/>
<path d="M407.656 179.461C407.68 179.282 407.68 179.1 407.656 178.921C407.656 178.568 407.656 178.037 407.575 177.349C407.468 175.963 407.252 173.916 406.919 171.292C406.254 166.045 405.121 158.445 403.62 149.02C402.119 139.596 399.817 128.283 394.432 116.71C393.075 113.835 391.511 110.97 389.803 108.114L387.178 103.816C386.279 102.374 385.496 100.876 384.562 99.3779C382.591 96.426 380.252 93.7575 377.603 91.4422C374.898 89.0302 372.005 86.8522 368.955 84.9299L368.551 84.6694L368.659 85.1625C369.135 88.9583 369.674 92.968 370.286 97.0242C370.888 100.866 371.454 104.662 372.407 108.356C372.523 108.822 372.67 109.279 372.848 109.723L373.162 110.384C373.279 110.598 373.423 110.793 373.549 110.998C374.111 111.767 374.784 112.442 375.545 112.998C377.049 114.07 378.727 114.855 380.498 115.314L380.552 114.84H373.171H372.884L372.947 115.128C373.963 119.985 374.978 124.729 375.554 129.353C375.554 129.642 375.599 129.93 375.617 130.218C375.623 130.537 375.684 130.852 375.796 131.149C376.046 131.703 376.398 132.202 376.83 132.619C377.65 133.399 378.555 134.076 379.527 134.637C381.412 135.734 383.382 136.668 385.416 137.428V137.028L377.81 138.954H377.621L377.648 139.122C379.447 146.004 382.498 152.467 386.638 158.165C389.775 162.543 393.27 166.633 397.084 170.39C400.24 173.516 402.892 175.767 404.717 177.265C405.616 178.009 406.344 178.558 406.829 178.93L407.387 179.34L407.584 179.461L407.396 179.303L406.865 178.875C406.389 178.502 405.688 177.944 404.789 177.172C402.991 175.646 400.366 173.376 397.237 170.223C393.459 166.449 389.998 162.35 386.89 157.97C382.794 152.296 379.777 145.868 377.999 139.029L377.855 139.27L385.47 137.41L386.108 137.242L385.487 137C383.478 136.236 381.533 135.303 379.671 134.209C378.722 133.66 377.835 133.002 377.028 132.246C376.65 131.87 376.344 131.421 376.129 130.925C376.031 130.681 375.979 130.418 375.976 130.153C375.976 129.856 375.976 129.558 375.913 129.223C375.338 124.571 374.322 119.817 373.315 114.942L373.1 115.231H380.471H382.269L380.471 114.747C378.76 114.302 377.14 113.543 375.689 112.505C374.971 111.989 374.334 111.361 373.801 110.644C373.293 109.894 372.927 109.051 372.722 108.16C371.823 104.523 371.23 100.718 370.627 96.8847C370.016 92.8377 369.477 88.828 369 85.0416L368.65 85.2834C371.68 87.2009 374.549 89.3794 377.226 91.7958C379.846 94.0795 382.164 96.7101 384.121 99.6198C385.02 101.071 385.838 102.606 386.737 104.048L389.362 108.346C391.044 111.112 392.586 113.965 393.983 116.896C399.377 128.386 401.651 139.698 403.242 149.067C404.834 158.435 405.939 166.064 406.676 171.311C407.036 173.925 407.279 175.963 407.414 177.34C407.549 178.716 407.656 179.461 407.656 179.461Z" fill="#263238"/>
<path d="M428.144 187.945C428.144 187.675 428.198 187.201 428.261 186.187C428.324 185.61 428.414 184.894 428.513 184.066C428.612 183.238 428.791 182.261 429.034 181.182C430.401 175.091 432.281 169.136 434.653 163.385C435.372 161.524 436.172 159.663 437.044 157.663C437.932 155.6 438.925 153.588 440.02 151.635C441.221 149.558 442.545 147.56 443.984 145.653C445.45 143.662 446.978 141.624 448.623 139.596C452.01 135.29 455.896 131.431 460.193 128.106C464.815 124.491 470.19 122.045 475.889 120.962L475.646 120.599C474.381 122.833 472.786 124.848 470.918 126.571C468.19 129.1 464.944 130.958 461.425 132.005L460.436 132.293L461.451 132.47L468.023 133.614L467.87 133.251C465.749 136.591 463.618 139.866 460.777 142.238C457.936 144.611 454.43 145.96 451.086 145.42L449.351 145.132L450.969 145.839L455.959 148.034L455.86 147.755C452.96 153.792 449.546 159.549 445.656 164.957C442.258 169.86 439.121 174.009 436.514 177.405C433.907 180.8 431.794 183.415 430.347 185.201L428.702 187.238C428.324 187.703 428.162 187.936 428.144 187.945C428.358 187.738 428.559 187.518 428.747 187.285L430.446 185.285C431.92 183.526 434.042 180.921 436.738 177.554C439.435 174.186 442.537 170.046 445.962 165.162C449.892 159.752 453.34 153.985 456.264 147.932L456.354 147.736L456.156 147.653L451.176 145.439L451.05 145.857C454.556 146.453 458.242 145.001 461.092 142.601C463.942 140.201 466.162 136.852 468.284 133.512L468.473 133.205L468.131 133.149L461.559 131.995V132.46C467.653 130.653 472.843 126.493 476.06 120.841L476.312 120.394L475.826 120.478C470.055 121.581 464.613 124.062 459.932 127.725C455.614 131.082 451.71 134.976 448.308 139.317C446.663 141.354 445.135 143.401 443.679 145.401C442.231 147.324 440.904 149.341 439.705 151.439C438.608 153.406 437.617 155.434 436.738 157.514C435.875 159.493 435.084 161.409 434.365 163.264C432.023 169.041 430.191 175.026 428.89 181.145C428.657 182.233 428.54 183.201 428.405 184.047C428.27 184.894 428.252 185.601 428.198 186.178C428.153 187.201 428.153 187.675 428.144 187.945Z" fill="#263238"/>
<path d="M440.577 198.663V208.496H436.136L431.102 241.579H402.946L398.253 208.496H393.992V198.663H440.577Z" fill="#EBB762"/>
<path d="M440.577 198.663C440.577 198.663 440.514 198.663 440.37 198.663H439.741H437.242L427.749 198.607L393.992 198.495H393.776V198.663C393.776 201.779 393.776 205.082 393.776 208.496V208.719H398.271L398.046 208.515C399.098 215.957 400.231 223.977 401.408 232.275C401.858 235.429 402.307 238.546 402.739 241.579V241.793H402.937H431.093H431.273V241.607C433.304 228.014 435.021 216.599 436.226 208.515L436.1 208.626H440.541H440.649V208.515C440.649 205.314 440.604 202.849 440.586 201.165C440.586 200.359 440.586 199.739 440.586 199.304C440.586 198.886 440.586 198.69 440.586 198.69C440.586 198.69 440.586 198.914 440.586 199.342C440.586 199.77 440.586 200.421 440.586 201.202C440.586 202.868 440.586 205.314 440.523 208.487L440.631 208.375H436.19H436.082V208.487C434.833 216.562 433.071 227.968 430.967 241.551L431.174 241.365H403.018L403.251 241.569C402.811 238.509 402.352 235.392 401.93 232.266C400.743 223.968 399.601 215.948 398.541 208.515V208.319H394.091L394.306 208.552C394.306 205.138 394.306 201.835 394.306 198.718L394.1 198.932L427.722 198.821L437.26 198.765L439.678 198.663H440.577Z" fill="#263238"/>
<path d="M285.602 241.579C285.602 241.709 346.885 241.821 422.463 241.821C498.04 241.821 559.333 241.709 559.333 241.579C559.333 241.449 498.067 241.337 422.463 241.337C346.858 241.337 285.602 241.458 285.602 241.579Z" fill="#263238"/>
<path d="M385.155 115.063C385.161 115.14 385.179 115.216 385.209 115.287C385.263 115.454 385.335 115.659 385.416 115.919C385.613 116.505 385.883 117.315 386.234 118.338C386.953 120.441 388.032 123.464 389.389 127.195C392.086 134.637 395.97 144.871 399.97 156.323C401.957 162.045 403.737 167.487 405.265 172.548C406.793 177.609 408.025 182.14 408.978 185.992C409.481 187.917 409.877 189.713 410.218 191.211C410.56 192.709 410.857 194.076 411.117 195.165C411.378 196.253 411.513 197.025 411.648 197.677C411.702 197.937 411.756 198.151 411.792 198.318C411.803 198.397 411.828 198.472 411.864 198.542C411.874 198.465 411.874 198.386 411.864 198.309C411.864 198.132 411.801 197.918 411.756 197.658C411.648 197.035 411.495 196.197 411.306 195.127C411.117 194.058 410.866 192.69 410.524 191.155C410.183 189.62 409.841 187.843 409.346 185.908C408.447 182.038 407.216 177.46 405.751 172.418C404.285 167.376 402.478 161.887 400.491 156.165C396.491 144.722 392.553 134.498 389.776 127.074L386.485 118.273C386.099 117.268 385.802 116.468 385.586 115.882L385.344 115.268C385.296 115.186 385.232 115.116 385.155 115.063V115.063Z" fill="#263238"/>
<path d="M426.418 108.272C426.292 108.272 424.512 128.441 422.454 153.346C420.395 178.251 418.813 198.449 418.948 198.458C419.082 198.467 420.853 178.288 422.912 153.383C424.971 128.478 426.553 108.29 426.418 108.272Z" fill="#263238"/>
<path d="M425.411 198.858C425.605 198.375 425.761 197.878 425.879 197.369C426.157 196.439 426.553 195.006 427.074 193.285C428.099 189.843 429.646 185.126 431.65 180.037C433.655 174.949 435.75 170.464 437.341 167.255C438.132 165.655 438.788 164.361 439.256 163.478C439.512 163.028 439.735 162.558 439.921 162.073C439.609 162.484 439.332 162.923 439.094 163.385C438.581 164.24 437.88 165.515 437.044 167.106C432.718 175.379 429.269 184.113 426.76 193.155C426.283 194.895 425.924 196.309 425.708 197.295C425.562 197.805 425.462 198.328 425.411 198.858V198.858Z" fill="#263238"/>
<path d="M394.118 208.291C394.118 208.422 404.591 208.533 417.491 208.533C430.392 208.533 440.865 208.422 440.865 208.291C440.865 208.161 430.401 208.05 417.491 208.05C404.582 208.05 394.118 208.152 394.118 208.291Z" fill="#263238"/>
<path d="M388.265 197.314L378.916 219.26L375.653 209.603L367.652 206.57L388.265 197.314Z" fill="#263238"/>
<path d="M358.662 214.041H370.412V226.2H358.662V214.041Z" fill="white"/>
<path d="M358.671 226.2C358.671 226.2 358.671 225.856 358.716 225.27C358.761 224.684 358.716 223.8 358.77 222.777C358.77 220.59 358.833 217.595 358.869 214.032L358.671 214.236H370.412C370.465 214.236 369.971 213.78 370.178 213.994V220.395C370.178 222.433 370.178 224.358 370.178 226.135L370.376 225.921L361.925 226.024L359.516 226.079C359.215 226.075 358.915 226.094 358.617 226.135C358.883 226.151 359.151 226.151 359.417 226.135L361.781 226.191L370.358 226.293H370.564V226.089C370.564 224.312 370.564 222.367 370.564 220.349V213.948L370.331 213.706H358.59H358.383V213.92C358.383 217.539 358.464 220.581 358.491 222.795C358.491 223.8 358.491 224.656 358.545 225.242C358.552 225.565 358.594 225.887 358.671 226.2Z" fill="#263238"/>
<path d="M364.541 225.065C364.853 221.774 364.853 218.458 364.541 215.167C364.23 218.458 364.23 221.774 364.541 225.065V225.065Z" fill="#263238"/>
<path d="M359.759 220.116C362.939 220.438 366.143 220.438 369.324 220.116C366.143 219.793 362.939 219.793 359.759 220.116V220.116Z" fill="#263238"/>
<path d="M271.425 35.9758H284.334V260.195H271.425V35.9758Z" fill="#455A64"/>
<path d="M271.425 69.0211C271.425 65.3319 274.314 62.3413 277.879 62.3413C281.444 62.3413 284.334 65.3319 284.334 69.0211V101.592C284.334 105.281 281.444 108.272 277.879 108.272C274.314 108.272 271.425 105.281 271.425 101.592V69.0211Z" fill="#263238"/>
<path d="M501.411 110.802C501.411 110.802 501.411 110.718 501.411 110.57C501.411 110.421 501.411 110.188 501.411 109.909C501.411 109.314 501.411 108.467 501.411 107.379C501.411 105.146 501.411 101.908 501.465 97.7962C501.465 89.5628 501.528 77.8313 501.564 63.7741L501.366 63.9787H546.801C546.864 63.9787 546.36 63.5229 546.576 63.7461V76.4079C546.576 80.5572 546.576 84.6227 546.576 88.5673C546.576 96.4658 546.576 103.918 546.576 110.756L546.783 110.542L513.898 110.653L504.648 110.709H502.193H501.555H501.339H502.148H504.567L513.772 110.765L546.783 110.867H546.981V110.663C546.981 103.825 546.981 96.3728 546.981 88.4743C546.981 84.5297 546.981 80.4642 546.981 76.3149V63.7647C547.187 63.9694 546.693 63.4577 546.738 63.5136H501.303H501.097V63.7647C501.142 77.8778 501.178 89.6558 501.204 97.9172C501.204 102.011 501.204 105.23 501.258 107.453C501.258 108.532 501.258 109.36 501.258 109.946C501.258 110.216 501.258 110.421 501.258 110.579C501.298 110.661 501.349 110.737 501.411 110.802V110.802Z" fill="#263238"/>
<path d="M541.659 69.142H541.038H539.178L532.085 69.0862L506.598 68.9839H506.401V69.1886C506.401 79.7385 506.401 92.1863 506.401 105.471C506.356 105.416 506.85 105.927 506.643 105.713H525.081H541.614H541.821V105.499C541.821 94.6052 541.74 85.5251 541.713 79.1338C541.713 75.9893 541.713 73.5518 541.659 71.7842C541.659 70.9655 541.659 70.3236 541.659 69.8584C541.659 69.663 541.659 69.5049 541.659 69.3746C541.659 69.2444 541.659 69.2165 541.659 69.2165C541.655 69.2784 541.655 69.3406 541.659 69.4025C541.659 69.5328 541.659 69.7002 541.659 69.9049C541.659 70.3794 541.659 71.0306 541.659 71.8679C541.659 73.6076 541.659 76.1009 541.605 79.3105C541.605 85.674 541.542 94.7075 541.506 105.546L541.704 105.332H525.171H506.652L506.877 105.574C506.877 92.2886 506.877 79.8408 506.877 69.2909L506.67 69.5049L532.022 69.3932L539.213 69.3374H541.11H541.605C541.632 69.2753 541.65 69.2095 541.659 69.142V69.142Z" fill="#263238"/>
<path d="M546.909 63.7649C545.874 64.4821 544.929 65.3289 544.095 66.2861C543.153 67.1271 542.317 68.0866 541.605 69.1422C542.649 68.4382 543.598 67.5935 544.428 66.6303C545.364 65.7832 546.197 64.821 546.909 63.7649Z" fill="#263238"/>
<path d="M501.573 63.9324C502.196 64.9865 502.949 65.9528 503.812 66.8071C504.568 67.7681 505.438 68.6276 506.401 69.3655C505.781 68.3056 505.029 67.3358 504.162 66.4815C503.41 65.5188 502.54 64.6619 501.573 63.9324V63.9324Z" fill="#263238"/>
<path d="M501.798 110.895C502.594 110.072 503.33 109.189 504 108.253C504.798 107.438 505.534 106.561 506.203 105.63C504.319 106.966 502.811 108.796 501.834 110.933L501.798 110.895Z" fill="#263238"/>
<path d="M542 105.369C542.666 106.418 543.457 107.374 544.356 108.216C545.146 109.17 546.053 110.015 547.053 110.728C546.387 109.679 545.596 108.723 544.697 107.881C543.904 106.929 542.998 106.085 542 105.369Z" fill="#263238"/>
<path d="M534.008 76.3894C533.892 76.3771 533.774 76.3771 533.658 76.3894H532.588L528.489 76.3336L513.709 76.2219H513.512V76.4359C513.512 82.5482 513.512 89.7489 513.512 97.4334L513.754 97.6753H524.434H534.008H534.206V97.4614C534.161 91.163 534.125 85.9067 534.107 82.1667C534.107 80.3805 534.062 78.9478 534.053 77.9244C534.053 77.4686 534.053 77.1057 534.053 76.8266C534.053 76.5475 534.053 76.4545 534.053 76.4638C534.042 76.6 534.042 76.7369 534.053 76.8732C534.053 77.1585 534.053 77.5399 534.053 78.0175C534.053 79.0501 534.053 80.4921 534.008 82.3063C534.008 86.0276 533.945 91.2188 533.9 97.4614L534.107 97.2567H524.533H513.817C513.601 97.0427 514.096 97.5544 514.042 97.4986C514.042 89.814 514.042 82.6133 514.042 76.501L513.835 76.7057L528.48 76.6034L532.633 76.5475H533.739L534.008 76.3894Z" fill="#263238"/>
<path d="M271.425 260.39C271.425 260.52 343.415 260.632 432.199 260.632C520.982 260.632 592.982 260.52 592.982 260.39C592.982 260.26 521.009 260.148 432.199 260.148C343.388 260.148 271.425 260.251 271.425 260.39Z" fill="#263238"/>
<path d="M222.304 123.557H340.376V195.323H222.304V123.557Z" fill="#455A64"/>
<path d="M222.304 195.323C222.304 195.323 222.304 194.876 222.304 194.02C222.304 193.164 222.304 191.908 222.304 190.299C222.304 186.996 222.304 182.149 222.349 175.925C222.349 163.496 222.403 145.578 222.439 123.594L222.259 123.78L340.323 123.836L340.089 123.594C340.089 149.002 340.089 173.265 340.089 195.36L340.305 195.127L255.369 195.239L230.988 195.304H224.489H222.808H222.232H222.79H224.444H230.898L255.225 195.36L340.305 195.472H340.52V195.248C340.52 173.153 340.52 148.89 340.52 123.483V123.306H340.278L222.214 123.352H222.034V123.548C222.034 145.578 222.106 163.552 222.133 176C222.133 182.196 222.133 187.033 222.178 190.327C222.178 191.955 222.178 193.202 222.178 194.048C222.178 194.895 222.304 195.323 222.304 195.323Z" fill="#263238"/>
<path d="M317.219 157.058H328.762V145.122H317.219V157.058ZM327.863 156.128H318.118V146.052H327.863V156.128Z" fill="#263238"/>
<path d="M222.304 123.557H300.803V139.149H222.304V123.557Z" fill="#263238"/>
<path d="M305.361 131.111C305.361 131.251 311.654 131.353 319.457 131.353C327.26 131.353 333.562 131.251 333.562 131.111C333.562 130.972 327.269 130.869 319.457 130.869C311.645 130.869 305.361 130.981 305.361 131.111Z" fill="#263238"/>
<path d="M322.496 140.592H333.131V151.597H322.496V140.592Z" fill="#EBB762"/>
<path d="M257.14 152.202H305.55V156.454H257.14V152.202Z" fill="#EBB762"/>
<path d="M304.633 157.012L306.197 159.393C306.241 159.461 306.267 159.539 306.271 159.621C306.276 159.702 306.258 159.783 306.221 159.855C306.184 159.927 306.129 159.987 306.061 160.028C305.994 160.07 305.916 160.092 305.838 160.091H302.754C302.675 160.092 302.598 160.07 302.53 160.028C302.463 159.987 302.408 159.927 302.371 159.855C302.334 159.783 302.316 159.702 302.32 159.621C302.325 159.539 302.35 159.461 302.395 159.393L303.932 157.012C303.972 156.954 304.024 156.907 304.085 156.875C304.146 156.842 304.214 156.825 304.282 156.825C304.351 156.825 304.418 156.842 304.479 156.875C304.54 156.907 304.593 156.954 304.633 157.012V157.012Z" fill="white"/>
<path d="M257.14 164.864H305.55V169.115H257.14V164.864Z" fill="#EBEBEB"/>
<path d="M260.619 169.664L262.183 172.055C262.227 172.123 262.253 172.201 262.257 172.283C262.261 172.364 262.244 172.445 262.207 172.517C262.17 172.588 262.115 172.648 262.047 172.69C261.979 172.732 261.902 172.754 261.823 172.753H258.74C258.661 172.754 258.584 172.732 258.516 172.69C258.449 172.648 258.393 172.588 258.356 172.517C258.319 172.445 258.302 172.364 258.306 172.283C258.31 172.201 258.336 172.123 258.38 172.055L259.882 169.674C259.919 169.608 259.973 169.553 260.037 169.515C260.101 169.476 260.174 169.456 260.248 169.455C260.322 169.454 260.395 169.472 260.46 169.509C260.525 169.546 260.58 169.599 260.619 169.664V169.664Z" fill="white"/>
<path d="M257.14 178.54H305.55V182.791H257.14V178.54Z" fill="#263238"/>
<path d="M293.099 183.349L294.663 185.731C294.708 185.798 294.733 185.877 294.737 185.958C294.742 186.04 294.724 186.12 294.687 186.192C294.65 186.264 294.595 186.324 294.527 186.366C294.46 186.408 294.382 186.429 294.304 186.429H291.22C291.141 186.429 291.064 186.408 290.997 186.366C290.929 186.324 290.874 186.264 290.837 186.192C290.8 186.12 290.782 186.04 290.786 185.958C290.791 185.877 290.816 185.798 290.861 185.731L292.38 183.349C292.419 183.288 292.473 183.238 292.535 183.203C292.598 183.168 292.668 183.15 292.739 183.15C292.811 183.15 292.881 183.168 292.943 183.203C293.006 183.238 293.06 183.288 293.099 183.349V183.349Z" fill="white"/>
<path d="M232.13 151.467H250.937V157.189H232.13V151.467Z" fill="#263238"/>
<path d="M232.13 164.129H250.937V169.85H232.13V164.129Z" fill="#263238"/>
<path d="M232.13 177.805H250.937V183.526H232.13V177.805Z" fill="#263238"/>
<path d="M452.147 280.485H561.149V342.027H452.147V280.485Z" fill="#455A64"/>
<path d="M452.138 342.027C452.138 342.027 452.138 341.645 452.138 340.919C452.138 340.194 452.138 339.059 452.138 337.701C452.138 334.91 452.138 330.732 452.183 325.402C452.183 314.749 452.237 299.352 452.273 280.485L452.093 280.671L561.095 280.727L560.861 280.485C560.861 302.236 560.861 323.057 560.861 342.027L561.086 341.803L482.829 341.934L460.283 341.999H454.269H452.174H452.686H454.215H460.193L482.667 342.064L561.176 342.175H561.391V341.943C561.391 322.973 561.391 302.153 561.391 280.402V280.16H561.149L452.147 280.225H451.976V280.532C451.976 299.483 452.048 314.88 452.066 325.56C452.066 330.872 452.066 335.003 452.066 337.821C452.066 339.208 452.066 340.278 452.066 341.003C452.066 341.729 452.138 342.027 452.138 342.027Z" fill="#263238"/>
<path d="M537.173 311.456H547.889V300.366H537.173V311.456ZM546.99 310.526H538.072V301.297H546.99V310.526Z" fill="#263238"/>
<path d="M540.616 332.984C540.635 332.674 540.635 332.363 540.616 332.054C540.616 331.433 540.634 330.624 540.67 329.625C540.67 327.495 540.733 324.574 540.778 321.104L540.571 321.318H552.015L551.781 321.076V322.676C551.781 323.215 551.781 323.736 551.781 324.267V327.327C551.781 329.309 551.781 331.188 551.781 332.909L551.979 332.705L543.744 332.807L541.398 332.863C540.85 332.863 540.553 332.863 540.499 332.909C540.757 332.954 541.019 332.973 541.281 332.965L543.582 333.012L551.943 333.123H552.15V332.909C552.15 331.188 552.15 329.309 552.15 327.327C552.15 326.332 552.15 325.309 552.15 324.267V321.076L551.916 320.834H540.472H540.364V321.038C540.364 324.564 540.436 327.551 540.463 329.69C540.463 330.667 540.463 331.458 540.517 332.072C540.522 332.379 540.555 332.684 540.616 332.984V332.984Z" fill="#263238"/>
<path d="M452.138 280.485H524.614V294.878H452.138V280.485Z" fill="#263238"/>
<path d="M528.821 287.472C528.821 287.602 534.647 287.714 541.838 287.714C549.03 287.714 554.856 287.602 554.856 287.472C554.856 287.342 549.021 287.221 541.838 287.221C534.656 287.221 528.821 287.333 528.821 287.472Z" fill="#263238"/>
<path d="M542.072 296.217H551.889V306.376H542.072V296.217Z" fill="#EBB762"/>
<path d="M540.616 321.141H552.06V332.984H540.616V321.141Z" fill="#EBB762"/>
<path d="M540.616 328.751V332.984H544.76L540.616 328.751Z" fill="white"/>
<path d="M527.23 332.984C527.23 332.984 527.23 332.658 527.23 332.054C527.23 331.449 527.23 330.621 527.284 329.625C527.284 327.495 527.338 324.574 527.383 321.104L527.185 321.318H538.629L538.395 321.076V324.267C538.395 325.309 538.395 326.332 538.395 327.327C538.395 329.309 538.395 331.188 538.395 332.909L538.602 332.705L530.367 332.807L528.021 332.863C527.473 332.863 527.167 332.863 527.122 332.909C527.38 332.955 527.642 332.973 527.904 332.965L530.206 333.012L538.566 333.123H538.764V332.909C538.764 331.188 538.764 329.309 538.764 327.327C538.764 326.332 538.764 325.309 538.764 324.267V321.076L538.53 320.834H527.086H526.879V321.038C526.879 324.564 526.96 327.551 526.987 329.69C526.987 330.667 526.987 331.458 526.987 332.072C527.034 332.385 527.115 332.691 527.23 332.984V332.984Z" fill="#263238"/>
<path d="M527.23 321.141H538.674V332.984H527.23V321.141Z" fill="#EB996E"/>
<path d="M527.23 328.751V332.984H531.365L527.23 328.751Z" fill="white"/>
<path d="M513.835 332.984C513.861 332.674 513.861 332.363 513.835 332.053C513.835 331.433 513.853 330.624 513.889 329.625C513.889 327.495 513.952 324.574 513.997 321.103L513.79 321.317H525.234L525.001 321.075V327.327C525.001 329.309 525.001 331.188 525.001 332.909L525.198 332.705L516.973 332.807L514.617 332.863C514.069 332.863 513.772 332.863 513.718 332.909C513.977 332.953 514.239 332.972 514.5 332.965L516.802 333.012L525.162 333.123H525.369V332.909C525.369 331.188 525.369 329.309 525.369 327.327V321.075C525.576 321.289 525.081 320.778 525.126 320.834H513.682H513.476V321.038C513.476 324.564 513.547 327.551 513.574 329.69C513.574 330.667 513.619 331.458 513.628 332.072C513.677 332.38 513.746 332.685 513.835 332.984V332.984Z" fill="#263238"/>
<path d="M513.835 321.141H525.279V332.984H513.835V321.141Z" fill="#FFBE9D"/>
<path d="M513.835 328.751V332.984H517.979L513.835 328.751Z" fill="white"/>
<path d="M500.449 332.984C500.484 332.675 500.499 332.364 500.494 332.054C500.494 331.433 500.512 330.624 500.548 329.625C500.548 327.495 500.611 324.574 500.647 321.104L500.449 321.318H511.893L511.66 321.076V324.267C511.66 325.309 511.66 326.332 511.66 327.327C511.66 329.309 511.66 331.188 511.66 332.909L511.857 332.705L503.623 332.807L501.276 332.863C500.728 332.863 500.431 332.863 500.377 332.909C500.636 332.955 500.898 332.973 501.16 332.965L503.461 333.012L511.821 333.123H512.028V332.909C512.028 331.188 512.028 329.309 512.028 327.327C512.028 326.332 512.028 325.309 512.028 324.267V321.076L511.794 320.834H500.35H500.144V321.038C500.144 324.564 500.225 327.551 500.252 329.69C500.252 330.667 500.252 331.458 500.305 332.072C500.318 332.381 500.366 332.687 500.449 332.984V332.984Z" fill="#263238"/>
<path d="M500.449 321.141H511.893V332.984H500.449V321.141Z" fill="#263238"/>
<path d="M500.449 328.751V332.984H504.585L500.449 328.751Z" fill="white"/>
<path d="M487.054 332.984C487.096 332.676 487.114 332.365 487.108 332.054C487.108 331.43 487.108 330.621 487.153 329.625C487.153 327.495 487.216 324.574 487.261 321.104L487.054 321.318H498.508C498.552 321.373 498.058 320.862 498.274 321.076V324.267C498.274 325.309 498.274 326.332 498.274 327.327C498.274 329.309 498.274 331.188 498.274 332.909L498.481 332.705L490.246 332.807L487.9 332.863C487.351 332.863 487.045 332.863 487.001 332.909C487.259 332.953 487.521 332.972 487.783 332.965L490.084 333.012L498.454 333.123H498.651V332.909C498.651 331.188 498.651 329.309 498.651 327.327V321.076L498.418 320.834H486.965H486.767V321.038C486.812 324.564 486.839 327.551 486.866 329.69C486.866 330.667 486.866 331.458 486.92 332.072C486.945 332.379 486.99 332.683 487.054 332.984Z" fill="#263238"/>
<path d="M487.063 321.141H498.508V332.984H487.063V321.141Z" fill="#EBEBEB"/>
<path d="M487.054 328.751V332.984H491.199L487.054 328.751Z" fill="white"/>
<path d="M473.669 332.984C473.703 332.675 473.718 332.364 473.714 332.053C473.714 331.433 473.732 330.624 473.768 329.625C473.768 327.495 473.83 324.574 473.866 321.103L473.669 321.317H485.113L484.879 321.075V324.267C484.879 325.309 484.879 326.332 484.879 327.327C484.879 329.309 484.879 331.188 484.879 332.909L485.077 332.705L476.842 332.807L474.496 332.863C473.947 332.863 473.651 332.863 473.597 332.909C473.855 332.955 474.117 332.973 474.379 332.965L476.68 333.012L485.041 333.123H485.248V332.909C485.248 331.188 485.248 329.309 485.248 327.327C485.248 326.332 485.248 325.309 485.248 324.267V321.075C485.463 321.289 484.969 320.778 485.014 320.834H473.57H473.363V321.038C473.363 324.564 473.444 327.551 473.471 329.69C473.471 330.667 473.471 331.458 473.525 332.072C473.545 332.38 473.593 332.685 473.669 332.984V332.984Z" fill="#263238"/>
<path d="M473.669 321.141H485.113V332.984H473.669V321.141Z" fill="#F5F5F5"/>
<path d="M473.669 328.751V332.984H477.804L473.669 328.751Z" fill="white"/>
<path d="M460.283 332.984C460.283 332.984 460.283 332.658 460.328 332.054C460.373 331.449 460.328 330.621 460.382 329.625C460.382 327.495 460.436 324.574 460.481 321.104L460.283 321.318H471.727L471.493 321.076V324.267C471.493 325.309 471.493 326.332 471.493 327.327C471.493 329.309 471.493 331.188 471.493 332.909L471.7 332.705L463.465 332.807L461.119 332.863C460.57 332.863 460.265 332.863 460.22 332.909C460.475 332.955 460.734 332.973 460.993 332.965L463.303 333.012L471.664 333.123H471.862V332.909C471.862 331.188 471.862 329.309 471.862 327.327C471.862 326.332 471.862 325.309 471.862 324.267V321.076L471.628 320.834H460.184H459.977V321.038C460.022 324.564 460.058 327.551 460.085 329.69C460.085 330.667 460.085 331.458 460.13 332.072C460.147 332.381 460.199 332.687 460.283 332.984V332.984Z" fill="#263238"/>
<path d="M460.283 321.141H471.727V332.984H460.283V321.141Z" fill="#FAFAFA"/>
<path d="M460.283 328.751V332.984H464.418L460.283 328.751Z" fill="white"/>
<path d="M464.913 300.208H467.43V302.813H464.913V300.208Z" fill="#263238"/>
<path d="M461.415 300.208H463.933V302.813H461.415V300.208Z" fill="#263238"/>
<path d="M464.913 303.604H467.43V306.209H464.913V303.604Z" fill="#263238"/>
<path d="M461.415 303.604H463.933V306.209H461.415V303.604Z" fill="#263238"/>
<path d="M263.747 359.61H274.688C274.688 359.61 299.383 350.381 304.462 351.237C309.029 352.037 325.777 363.545 329.058 365.824C329.424 366.078 329.701 366.447 329.849 366.876C330.168 367.776 330.139 368.77 329.767 369.649C329.395 370.528 328.71 371.224 327.854 371.592L327.503 371.741L327.656 372.253C327.854 372.924 327.939 373.626 327.908 374.328C327.868 374.859 327.666 375.363 327.331 375.767C326.996 376.171 326.544 376.454 326.043 376.574C325.541 376.695 325.016 376.647 324.543 376.436C324.07 376.226 323.674 375.866 323.413 375.407L324.042 376.56C324.3 377.033 324.422 377.572 324.393 378.114L324.339 379.175C324.305 379.745 324.108 380.291 323.771 380.744C323.435 381.197 322.975 381.535 322.451 381.714V381.714C321.95 381.89 321.41 381.91 320.899 381.771C320.387 381.632 319.927 381.341 319.574 380.933C317.452 378.514 312.607 374.988 309.505 374.421C306.746 373.946 302.403 372.56 299.617 372.56C298.926 372.565 298.253 372.784 297.684 373.188C297.115 373.593 296.677 374.165 296.425 374.83V374.83C298.268 374.969 307.77 379.482 312.31 381.919C313.013 382.283 313.62 382.818 314.08 383.477C314.54 384.136 314.84 384.901 314.953 385.705C315.115 387.175 314.396 388.72 311.582 388.031C305.55 386.58 298.025 383.863 298.025 383.863C298.025 383.863 292.425 382.207 288.802 384.85C283.696 388.571 281.358 389.948 276.971 388.441C274.309 387.52 271.755 386.293 269.357 384.784L260.727 383.854C260.727 383.854 252.582 362.866 263.747 359.61Z" fill="#FFBE9D"/>
<path d="M266.076 379.491C266.254 379.658 266.45 379.805 266.66 379.928C266.894 380.112 267.148 380.268 267.415 380.393C267.763 380.596 268.127 380.767 268.503 380.905C270.918 381.831 273.558 381.923 276.027 381.165C277.738 380.675 279.318 379.787 280.648 378.57L281.188 378.058L281.673 377.491C282.002 377.096 282.303 376.676 282.572 376.235C283.12 375.304 283.525 374.374 284.127 373.49C284.4 373.038 284.759 372.648 285.183 372.344C285.606 372.04 286.085 371.829 286.59 371.723C287.688 371.569 288.801 371.569 289.899 371.723C292.298 371.937 294.715 371.691 297.028 370.997C299.22 370.345 301.292 369.32 303.159 367.964C304.044 367.316 304.88 366.598 305.658 365.815C305.879 365.602 306.036 365.326 306.11 365.022C306.183 364.719 306.17 364.399 306.071 364.103C305.974 363.812 305.799 363.556 305.566 363.363C305.334 363.171 305.054 363.05 304.759 363.015L288.712 362.317L284.109 362.159H282.887C282.746 362.138 282.604 362.138 282.464 362.159L282.887 362.215L284.1 362.308L288.694 362.596L304.732 363.461C304.947 363.488 305.15 363.578 305.317 363.721C305.484 363.864 305.608 364.053 305.675 364.267C305.741 364.48 305.746 364.709 305.691 364.925C305.635 365.142 305.521 365.338 305.361 365.489C304.599 366.248 303.781 366.944 302.916 367.573C301.089 368.895 299.063 369.895 296.92 370.532C294.659 371.208 292.298 371.451 289.953 371.248C288.814 371.081 287.657 371.081 286.518 371.248C285.949 371.361 285.41 371.599 284.936 371.946C284.488 372.296 284.099 372.72 283.786 373.202C283.165 374.132 282.761 375.128 282.239 375.993C281.968 376.418 281.668 376.822 281.34 377.202L280.873 377.76L280.36 378.244C279.072 379.447 277.534 380.328 275.866 380.821C273.461 381.588 270.884 381.549 268.503 380.71C267.666 380.366 266.854 379.959 266.076 379.491V379.491Z" fill="#EB996E"/>
<path d="M142.573 92.6888C143.68 90.9325 145.286 89.5754 147.171 88.8053C149.055 88.0353 151.124 87.8904 153.092 88.3907C155.614 86.7375 158.598 86.0043 161.569 86.3077C164.54 86.6111 167.328 87.9338 169.489 90.0653C171.335 89.1406 173.381 88.7253 175.428 88.8597C177.475 88.9941 179.454 89.6736 181.172 90.8324C182.891 91.9912 184.291 93.5899 185.236 95.4734C186.182 97.357 186.641 99.4615 186.57 101.583C188.657 101.4 190.748 101.906 192.541 103.026C194.335 104.147 195.74 105.826 196.556 107.824C197.371 109.821 197.556 112.034 197.083 114.146C196.611 116.259 195.505 118.162 193.923 119.585C196.116 120.518 197.895 122.263 198.914 124.479C199.932 126.695 200.117 129.224 199.433 131.573C198.749 133.923 197.244 135.925 195.212 137.189C193.18 138.454 190.766 138.891 188.44 138.415L143.49 104.364C142.187 102.757 141.398 100.77 141.234 98.6779C141.07 96.5861 141.538 94.4932 142.573 92.6888Z" fill="#263238"/>
<path d="M189.716 139.903C189.705 129.361 185.86 119.209 178.946 111.467C172.031 103.725 162.554 98.9611 152.399 98.122L150.305 97.9545C127.641 97.4521 114.57 117.091 114.714 140.554L112.017 218.581L114.363 228.61L144.875 254.659L160.202 240.611L164.59 217.651C164.59 217.651 186.552 215.948 188.547 193.527C189.5 182.698 189.761 160.24 189.716 139.903Z" fill="#FFBE9D"/>
<path d="M164.76 217.632C164.76 217.632 150.844 217.353 137.009 206.682C137.009 206.682 142.403 223.382 164.239 223.149L164.76 217.632Z" fill="#EB996E"/>
<path d="M181.823 160.166C181.767 161.001 181.399 161.78 180.796 162.338C180.193 162.896 179.404 163.188 178.596 163.152C178.198 163.153 177.805 163.072 177.439 162.913C177.072 162.754 176.74 162.521 176.463 162.227C176.185 161.933 175.968 161.584 175.823 161.201C175.678 160.818 175.609 160.409 175.62 159.998C175.678 159.162 176.048 158.383 176.652 157.825C177.257 157.268 178.047 156.976 178.856 157.012C179.253 157.012 179.645 157.094 180.011 157.253C180.376 157.413 180.707 157.646 180.983 157.94C181.26 158.234 181.477 158.583 181.621 158.965C181.765 159.347 181.834 159.755 181.823 160.166V160.166Z" fill="#263238"/>
<path d="M184.367 151.662C183.954 152.044 181.742 150.053 178.416 149.802C175.09 149.551 172.501 151.067 172.177 150.611C172.015 150.406 172.465 149.681 173.588 148.974C175.11 148.057 176.869 147.65 178.623 147.811C180.356 147.948 182.002 148.652 183.324 149.82C184.277 150.704 184.565 151.486 184.367 151.662Z" fill="#263238"/>
<path d="M153.154 159.282C153.099 160.119 152.729 160.899 152.124 161.458C151.52 162.016 150.728 162.307 149.918 162.268C149.522 162.27 149.129 162.189 148.763 162.03C148.397 161.872 148.066 161.639 147.789 161.346C147.511 161.053 147.293 160.705 147.148 160.324C147.003 159.942 146.933 159.534 146.942 159.124C147 158.287 147.37 157.507 147.974 156.948C148.578 156.388 149.369 156.095 150.179 156.128C150.576 156.128 150.969 156.21 151.334 156.369C151.7 156.529 152.031 156.762 152.309 157.056C152.586 157.35 152.804 157.698 152.949 158.081C153.094 158.463 153.164 158.871 153.154 159.282V159.282Z" fill="#263238"/>
<path d="M152.516 148.546C152.103 148.936 149.891 146.946 146.556 146.685C143.221 146.425 140.65 147.941 140.317 147.494C140.155 147.29 140.605 146.564 141.737 145.848C143.257 144.935 145.013 144.532 146.763 144.694C148.498 144.823 150.147 145.528 151.464 146.704C152.426 147.587 152.714 148.425 152.516 148.546Z" fill="#263238"/>
<path d="M161.524 175.014C161.524 174.818 163.619 174.614 167.008 174.446C167.907 174.446 168.689 174.316 168.878 173.73C169.019 172.825 168.891 171.897 168.509 171.069C167.88 168.874 167.215 166.576 166.513 164.157C163.753 154.323 161.83 146.267 162.216 146.155C162.603 146.043 165.147 153.923 167.898 163.757L169.795 170.753C170.037 171.776 170.505 172.958 169.965 174.242C169.821 174.543 169.611 174.805 169.352 175.008C169.093 175.212 168.792 175.35 168.473 175.414C167.991 175.51 167.498 175.541 167.008 175.507C163.619 175.405 161.515 175.209 161.524 175.014Z" fill="#263238"/>
<path d="M151.527 176.586C152.076 176.586 151.788 180.307 154.683 183.257C157.577 186.206 161.461 186.048 161.443 186.596C161.443 186.838 160.544 187.257 158.899 187.164C156.776 187.025 154.769 186.112 153.235 184.587C151.764 183.119 150.901 181.118 150.826 179.005C150.808 177.442 151.285 176.549 151.527 176.586Z" fill="#263238"/>
<path d="M153.316 138.703C152.849 139.559 150.044 138.517 146.556 138.294C143.068 138.07 140.101 138.573 139.804 137.652C139.688 137.214 140.326 136.452 141.602 135.791C143.256 135.009 145.078 134.688 146.888 134.861C148.681 134.977 150.411 135.591 151.896 136.638C153.038 137.428 153.523 138.284 153.316 138.703Z" fill="#263238"/>
<path d="M184.367 142.136C183.783 142.927 181.481 142.136 178.712 142.08C175.944 142.024 173.597 142.629 173.058 141.801C172.815 141.41 173.184 140.619 174.209 139.875C175.582 138.98 177.182 138.526 178.805 138.573C180.428 138.619 182 139.163 183.324 140.136C184.268 140.982 184.592 141.754 184.367 142.136Z" fill="#263238"/>
<path d="M188.422 129.437C188.422 129.437 183.783 114.914 177.49 111.091C169.867 106.439 165.758 115.193 158.378 112.384C150.997 109.574 143.715 105.137 135.525 110.523C126.536 116.44 130.132 121.408 128.873 131.325C123.65 171.525 115.64 182.354 115.083 163.171C115.02 161.068 109.563 158.947 109.41 150.081C109.221 138.573 109.859 124.683 112.952 116.784C115.55 110.132 119.676 105.723 126.823 101.08C138.105 93.7494 152.741 94.782 162.594 96.6334C172.447 98.4848 190.66 111.919 188.422 129.437Z" fill="#263238"/>
<path d="M116.512 162.687C116.55 161.861 116.425 161.035 116.145 160.26C115.865 159.486 115.436 158.778 114.883 158.18C114.331 157.583 113.667 157.107 112.931 156.783C112.196 156.459 111.405 156.293 110.606 156.295C106.533 156.361 101.85 158.361 101.454 167.031C100.744 182.419 115.838 179.982 115.838 179.544C115.838 179.107 116.269 169.125 116.512 162.687Z" fill="#FFBE9D"/>
<path d="M112.889 173.59C112.826 173.544 112.619 173.767 112.17 173.953C111.544 174.2 110.849 174.18 110.237 173.897C108.691 173.228 107.486 170.576 107.54 167.804C107.562 166.485 107.869 165.188 108.439 164.008C108.599 163.534 108.869 163.107 109.225 162.765C109.58 162.423 110.011 162.176 110.48 162.045C110.781 161.977 111.095 162.021 111.368 162.169C111.641 162.317 111.855 162.56 111.972 162.854C112.152 163.292 112.044 163.599 112.125 163.627C112.206 163.654 112.457 163.385 112.368 162.696C112.298 162.312 112.108 161.963 111.828 161.701C111.431 161.363 110.921 161.199 110.408 161.245C109.79 161.336 109.206 161.591 108.713 161.985C108.22 162.38 107.834 162.901 107.594 163.496C106.9 164.797 106.523 166.253 106.497 167.739C106.497 170.837 107.855 173.814 109.967 174.567C110.362 174.706 110.781 174.752 111.194 174.702C111.608 174.652 112.006 174.508 112.359 174.279C112.844 173.963 112.943 173.628 112.889 173.59Z" fill="#EB996E"/>
<path d="M119.092 132.991C120.89 134.507 122.841 136.079 125.142 136.507C127.444 136.935 130.203 135.772 130.779 133.428C131.039 132.377 130.878 131.112 131.624 130.349C132.523 129.418 133.979 129.856 135.22 130.097C137.374 130.45 139.58 130.025 141.468 128.893C143.355 127.762 144.809 125.993 145.585 123.883C146.547 125.678 149.118 125.818 150.871 124.813C152.624 123.808 153.829 122.106 155.249 120.673C156.669 119.24 158.602 118.012 160.544 118.459C161.632 118.71 162.603 119.473 163.709 119.464C165.668 119.464 166.801 117.166 167.25 115.184C167.7 113.203 168.149 110.895 169.84 109.946C171.53 108.998 173.382 109.807 175.153 110.235C176.924 110.663 179.279 110.412 179.872 108.635C179.988 108.155 180.008 107.656 179.931 107.168C179.853 106.68 179.681 106.214 179.423 105.797C178.361 103.843 176.695 102.317 174.691 101.464C172.688 100.612 170.466 100.483 168.383 101.099C167.852 98.4831 166.582 96.0891 164.735 94.2203C162.888 92.3515 160.547 91.0918 158.007 90.6007C155.468 90.1097 152.845 90.4093 150.471 91.4616C148.096 92.514 146.077 94.2718 144.668 96.5125C143.208 94.9051 141.394 93.6861 139.381 92.959C137.368 92.2319 135.215 92.0182 133.106 92.3359C130.996 92.6537 128.991 93.4936 127.262 94.7844C125.533 96.0751 124.13 97.7785 123.173 99.7501C121.395 99.1039 119.471 99.0141 117.643 99.4916C115.816 99.9692 114.164 100.993 112.895 102.436C111.625 103.878 110.795 105.675 110.506 107.603C110.217 109.531 110.483 111.505 111.271 113.277C108.484 114.626 105.985 117.184 105.688 120.348C105.391 123.511 108.133 126.934 111.163 126.339C110.473 127.54 110.25 128.967 110.539 130.332C110.828 131.697 111.607 132.897 112.719 133.689C113.831 134.482 115.193 134.807 116.528 134.6C117.863 134.392 119.072 133.667 119.91 132.572" fill="#263238"/>
<path d="M110.066 126.255C110.021 126.255 109.689 127.52 110.758 129.279C111.42 130.313 112.429 131.056 113.59 131.363C114.333 131.55 115.106 131.564 115.854 131.403C116.602 131.242 117.306 130.911 117.914 130.432L117.294 130.283C117.98 131.777 118.89 133.15 119.991 134.349C120.718 135.165 121.587 135.831 122.553 136.312C123.479 136.759 124.503 136.942 125.52 136.842C126.378 136.844 127.227 136.649 128.004 136.271C128.781 135.893 129.468 135.341 130.015 134.656C130.69 133.736 131.182 132.686 131.462 131.567C131.613 131.177 131.686 130.759 131.678 130.339C131.615 130.339 131.453 130.73 131.147 131.446C130.764 132.458 130.226 133.4 129.556 134.237C127.983 136.321 123.317 137.028 120.629 133.716C119.6 132.585 118.743 131.299 118.085 129.902L117.86 129.428L117.465 129.753C116.949 130.161 116.355 130.451 115.723 130.604C115.09 130.756 114.434 130.767 113.797 130.637C112.772 130.409 111.859 129.809 111.226 128.944C110.67 128.136 110.276 127.222 110.066 126.255Z" fill="#455A64"/>
<path d="M140.784 93.5354C140.784 93.5912 141.162 93.6749 141.8 94.0192C142.716 94.5165 143.464 95.2882 143.949 96.2333L144.102 96.5403L144.326 96.2799C146.385 93.8333 149.011 91.9698 151.959 90.8653C153.86 90.1557 155.885 89.8673 157.901 90.0187C160.116 90.213 162.237 91.0337 164.032 92.3911C165.445 93.4503 166.624 94.8074 167.493 96.3729C168.277 97.8298 168.712 99.4601 168.761 101.127V101.62L169.219 101.527C171.338 101.126 173.524 101.586 175.323 102.811C176.729 103.787 177.807 105.191 178.407 106.83C178.905 108.323 179.101 109.906 178.982 111.481C179.157 111.09 179.252 110.666 179.261 110.235C179.366 109.037 179.228 107.83 178.856 106.69C178.288 104.906 177.182 103.357 175.701 102.271C173.769 100.889 171.391 100.345 169.075 100.755L169.543 101.155C169.515 99.3409 169.058 97.5617 168.212 95.9728C167.295 94.2917 166.038 92.8352 164.527 91.7026C162.604 90.2493 160.329 89.3794 157.955 89.1907C155.817 89.033 153.672 89.3502 151.662 90.1211C148.625 91.3142 145.954 93.3325 143.931 95.9635H144.308C143.749 94.9633 142.886 94.1818 141.854 93.7401C141.518 93.5874 141.152 93.5173 140.784 93.5354V93.5354Z" fill="#455A64"/>
<path d="M58.2579 310.302C59.0759 310.302 60.7841 238.248 60.7841 238.248L108.331 220.684L144.812 254.687L163.43 224.358L179.818 232.155C181.886 233.141 190.957 236.899 192.764 238.323C197.96 242.425 208.81 252.278 211.876 264.223C216.551 282.504 223.886 343.301 223.886 343.301L268.548 359.61L267.577 389.38L223.868 396.46C213.323 396.069 200.558 391.455 196.449 383.882V399.772H62.1685C62.1685 399.772 57.4488 310.302 58.2579 310.302Z" fill="#EBB762"/>
<path d="M194.831 282.895C194.824 282.994 194.824 283.093 194.831 283.192V284.076C194.831 284.876 194.831 286.002 194.831 287.444C194.885 290.365 195.002 294.589 195.227 299.817C195.452 305.046 195.766 311.261 196.009 318.164C196.252 325.067 196.342 332.658 196.386 340.631C196.458 356.586 196.386 371.034 196.386 381.491C196.386 386.692 196.386 390.915 196.386 393.874C196.386 395.307 196.386 396.432 196.386 397.232C196.386 397.595 196.386 397.884 196.386 398.107C196.373 398.209 196.373 398.312 196.386 398.414C196.398 398.315 196.398 398.215 196.386 398.116C196.386 397.893 196.386 397.595 196.386 397.232C196.386 396.432 196.431 395.307 196.458 393.874C196.458 390.915 196.539 386.692 196.602 381.491C196.692 371.034 196.782 356.586 196.71 340.631C196.665 332.658 196.566 325.057 196.297 318.145C196.027 311.233 195.676 305.018 195.398 299.799C195.119 294.58 194.957 290.356 194.849 287.435C194.795 286.002 194.759 284.867 194.723 284.067C194.723 283.704 194.723 283.416 194.678 283.192C194.742 283.101 194.794 283.001 194.831 282.895V282.895Z" fill="#263238"/>
<g opacity="0.3">
<path d="M194.831 289.733C202.446 319.447 204.468 351.646 196.818 381.352C196.674 348.278 196.854 317.308 194.831 289.733Z" fill="black"/>
</g>
<g opacity="0.3">
<path d="M83.0068 292.821C80.22 311.372 77.4481 329.914 74.6912 348.446C74.651 349.09 74.4496 349.712 74.1069 350.251C73.2079 351.423 71.4639 351.116 70.0795 350.706C66.7173 349.692 61.4222 349.32 59.6063 346.213L59.1658 338.296C59.6513 335.896 61.8628 333.588 62.9505 331.393C69.4772 317.748 75.9978 304.103 82.5124 290.458" fill="black"/>
</g>
<path d="M61.1346 238.109C61.1346 238.109 45.6092 247.151 39.8557 259.878C32.8346 275.406 1.76576 331.346 0.615061 345.301C-0.535637 359.256 -0.0681506 375.211 22.9368 379.965C45.9418 384.719 69.9626 384.403 69.9626 384.403L79.339 355.488L52.9718 341.394L59.5434 335.421C60.9819 334.11 62.171 332.533 63.0494 330.769L82.89 291.23" fill="#EBB762"/>
<path d="M82.89 291.249C82.89 291.249 82.7102 291.556 82.3955 292.179L80.9931 294.915L75.6622 305.437L67.2836 322.043L64.7485 327.067L63.427 329.69C62.9989 330.602 62.5154 331.484 61.9796 332.333C61.4112 333.186 60.7639 333.981 60.0468 334.705C59.3187 335.431 58.5096 336.119 57.7275 336.845L52.855 341.264L52.6572 341.44L52.8909 341.561L79.2491 355.684L79.1502 355.433L69.7468 384.338L69.9536 384.18C62.3302 384.18 54.3652 383.817 46.1935 383.073C42.1031 382.71 37.9678 382.235 33.7966 381.621C29.6253 381.007 25.409 380.328 21.2108 379.305L19.1432 378.784C18.4599 378.589 17.7946 378.319 17.1294 378.086C16.4641 377.854 15.7809 377.64 15.1337 377.351L13.2278 376.421C12.9042 376.263 12.5896 376.123 12.2749 375.956L11.3759 375.388C10.7826 375.007 10.1803 374.644 9.57797 374.244C8.46504 373.408 7.42428 372.475 6.46747 371.453C4.56506 369.405 3.10895 366.959 2.19731 364.28C1.29714 361.643 0.746732 358.892 0.561151 356.102C0.390241 353.352 0.390241 350.592 0.561151 347.841C0.621962 346.488 0.757038 345.14 0.965704 343.804C1.22953 342.492 1.56264 341.197 1.96356 339.924C2.74568 337.366 3.68062 334.9 4.66051 332.481C5.6404 330.063 6.65628 327.69 7.67213 325.355C11.8164 316.052 16.1046 307.353 20.159 299.241C24.2134 291.128 28.079 283.639 31.576 276.783L36.5384 266.968C37.3116 265.414 38.0577 263.897 38.7589 262.418C39.1006 261.674 39.4421 260.948 39.7837 260.223C40.1254 259.497 40.476 258.827 40.8176 258.148C42.1903 255.667 43.8049 253.339 45.6361 251.198C47.1903 249.413 48.8411 247.72 50.5805 246.128C52.9984 243.932 55.5508 241.9 58.2219 240.044C59.1209 239.402 59.8491 238.937 60.3255 238.63L61.0447 238.155C61.0447 238.155 60.784 238.295 60.2985 238.583C59.8131 238.872 59.0939 239.337 58.1679 239.96C55.4703 241.786 52.8962 243.8 50.4637 245.989C48.7036 247.573 47.0347 249.263 45.4653 251.05C43.615 253.194 41.9823 255.529 40.5929 258.018C40.2423 258.697 39.8737 259.395 39.5321 260.111C39.1904 260.827 38.8578 261.553 38.5072 262.288C37.797 263.767 37.0509 265.274 36.2778 266.828C34.6955 269.929 33.0324 273.191 31.2884 276.615C27.7643 283.472 23.8898 290.961 19.8084 299.064C15.727 307.167 11.4389 315.81 7.28558 325.169C6.25175 327.504 5.22691 329.876 4.25601 332.305C3.28511 334.733 2.34118 337.217 1.55906 339.747C1.14576 341.04 0.80655 342.357 0.543209 343.692C0.329426 345.047 0.191333 346.414 0.129657 347.785C-0.0432043 350.573 -0.0432043 353.37 0.129657 356.158C0.315153 358.992 0.871635 361.787 1.78381 364.466C2.71626 367.207 4.20963 369.708 6.16185 371.797C7.1314 372.863 8.19365 373.835 9.33523 374.7C9.91956 375.1 10.5309 375.472 11.1332 375.863L12.0322 376.439L13.0031 376.914L14.9359 377.844C15.5922 378.142 16.2844 378.337 16.9586 378.589C17.6329 378.84 18.3071 379.091 18.9903 379.296L21.0849 379.817C25.2922 380.849 29.5084 381.528 33.6707 382.142C37.833 382.756 41.9953 383.231 46.0856 383.603C54.2753 384.338 62.2673 384.71 69.8997 384.691H70.0615L70.1065 384.533C73.4057 374.365 76.5521 364.624 79.4738 355.609L79.5278 355.442L79.375 355.358L52.9898 341.282V341.58L57.8533 337.152C58.6354 336.426 59.4355 335.747 60.1817 334.993C60.9081 334.25 61.5643 333.437 62.1414 332.565C62.681 331.703 63.1703 330.808 63.6068 329.886C64.0473 328.955 64.5058 328.118 64.9193 327.253C65.7823 325.523 66.6214 323.848 67.4364 322.229C70.6638 315.717 73.4596 310.135 75.743 305.576L80.9841 295.017C81.5774 293.808 82.0359 292.887 82.3416 292.226C82.6472 291.565 82.89 291.249 82.89 291.249Z" fill="#263238"/>
<path d="M68.2096 237.132C68.6718 237.47 69.152 237.78 69.648 238.062C70.9599 238.913 72.2208 239.845 73.4237 240.853C77.4057 244.195 80.6378 248.393 82.8964 253.156C85.155 257.919 86.3859 263.133 86.5039 268.438C86.5431 270.043 86.4891 271.649 86.3421 273.247C86.2432 274.382 86.1622 275.006 86.1982 275.015C86.255 274.872 86.2942 274.722 86.3151 274.568C86.36 274.271 86.4589 273.833 86.5218 273.266C86.7447 271.664 86.847 270.047 86.8275 268.428C86.8002 263.06 85.5987 257.768 83.3132 252.949C81.0276 248.129 77.7173 243.908 73.6304 240.602C72.4011 239.603 71.1031 238.699 69.7468 237.895C69.2704 237.597 68.8478 237.411 68.6231 237.281C68.3984 237.151 68.2185 237.113 68.2096 237.132Z" fill="#263238"/>
<path d="M24.9595 329.7C25.3289 329.86 25.7151 329.976 26.1103 330.044L29.2656 330.863C32.7298 331.785 36.1371 332.922 39.4691 334.268C42.7928 335.63 46.0192 337.234 49.1242 339.068C50.3198 339.775 51.2728 340.361 51.929 340.789C52.2566 341.026 52.6059 341.228 52.9719 341.394C52.6818 341.109 52.3656 340.853 52.0279 340.631C51.3986 340.157 50.4726 339.524 49.3309 338.77C46.2389 336.839 42.9939 335.184 39.6309 333.821C36.2836 332.46 32.8429 331.36 29.3376 330.528C27.9981 330.211 26.9013 329.988 26.1372 329.858C25.7501 329.768 25.3559 329.716 24.9595 329.7V329.7Z" fill="#263238"/>
<g opacity="0.3">
<path d="M109.662 222.377C111.061 222.685 112.363 223.354 113.446 224.321C124.34 232.612 134.314 242.125 143.185 252.687L144.695 255.58C141.342 253.292 137.503 250.929 133.584 251.738C130.221 252.473 127.785 255.385 125.601 258.129C117.54 247.626 110.192 236.556 103.612 225C105.391 223.577 107.432 222.079 109.662 222.377Z" fill="black"/>
</g>
<path d="M144.839 254.687L131.426 237.132L111.253 212.208L100.537 222.619L119.326 252.724L132.667 244.416L144.839 254.687Z" fill="white"/>
<g opacity="0.3">
<path d="M169.039 231.987C167.242 241.867 162.827 250.11 161.039 259.99C158.908 257.106 159.42 255.878 157.29 252.994C156.527 251.756 155.447 250.761 154.17 250.119C151.878 249.189 149.352 250.575 147.266 251.896C150.527 248.168 154.117 244.764 157.991 241.728L158.153 242.528C161.749 237.907 165.432 233.358 169.201 228.88" fill="black"/>
</g>
<path d="M145.046 254.585L163.888 221.354L170.622 227.773L164.248 257.506L155.204 245.458L145.046 254.585Z" fill="white"/>
<path d="M145.801 253.254L146.142 252.706L147.095 251.068L150.691 244.751L163.996 221.446H163.744L170.523 227.605L170.469 227.419C168.527 236.425 166.352 246.519 163.996 257.422L164.383 257.329L155.393 245.235L155.249 245.04L155.069 245.198L144.902 254.324L145.1 254.268L144.003 254.055L144.12 254.11C140.856 251.105 137.242 248.138 133.727 244.974L132.828 244.156L132.703 244.044L132.559 244.128C127.875 246.714 123.668 249.924 119.218 252.436L119.524 252.519L100.726 222.423V222.702C104.448 219.065 108.026 215.585 111.424 212.283H111.145L134.833 242.053L141.459 250.324L143.167 252.622C143.571 253.106 143.787 253.347 143.787 253.347C143.787 253.347 143.598 253.087 143.212 252.585L141.513 250.38L134.977 242.007L111.406 212.097L111.271 211.938L111.118 212.078L100.402 222.479L100.267 222.6L100.366 222.749L119.128 252.873L119.245 253.059L119.434 252.947C123.929 250.417 128.127 247.207 132.775 244.649H132.505L133.404 245.468C136.937 248.649 140.596 251.608 143.796 254.603H143.85H143.913L145.001 254.817H145.109L145.198 254.743L155.357 245.616H155.024L164.077 257.646L164.356 258.027L164.455 257.553L170.882 227.503V227.391L170.801 227.317L163.996 221.186L163.843 221.046L163.744 221.232L150.565 244.612L147.014 250.975L146.115 252.64C145.891 253.05 145.801 253.254 145.801 253.254Z" fill="#263238"/>
<path d="M196.054 246.11C195.928 246.11 196.054 252.157 196.243 259.618C196.431 267.079 196.791 273.089 196.953 273.089C197.115 273.089 196.998 267.042 196.764 259.581C196.53 252.12 196.198 246.11 196.054 246.11Z" fill="#263238"/>
<path d="M116.314 358.986C117.473 359.185 118.585 359.604 119.595 360.224C122.005 361.908 122.544 365.275 122.868 368.271C122.967 369.201 122.994 370.327 122.247 370.876C121.902 371.046 121.524 371.135 121.142 371.135C120.759 371.135 120.381 371.046 120.036 370.876C115.1 369.264 110.356 367.079 105.895 364.364C103.513 362.922 101.058 361.107 100.249 358.382L100.096 357.209C105.552 357.121 110.997 357.718 116.314 358.986V358.986Z" fill="#FFBE9D"/>
<path d="M95.0533 334.751C103.854 345.701 136.595 386.171 136.595 386.171L137.845 391.976C137.862 392.058 137.857 392.143 137.831 392.222C137.804 392.302 137.758 392.372 137.696 392.427C137.635 392.481 137.56 392.517 137.48 392.531C137.4 392.545 137.318 392.536 137.243 392.506L131.974 390.357L89.6773 339.468C89.3654 339.092 89.1306 338.655 88.9874 338.182C88.8442 337.71 88.7955 337.212 88.8442 336.719C88.893 336.226 89.0383 335.749 89.2712 335.316C89.5041 334.884 89.8197 334.505 90.1987 334.202V334.202C90.9189 333.625 91.8276 333.36 92.7332 333.462C93.6388 333.564 94.4706 334.027 95.0533 334.751V334.751Z" fill="#263238"/>
<path d="M98.1997 338.668L92.8598 343.301L91.3764 341.515L96.7344 336.844L98.1997 338.668Z" fill="#455A64"/>
<path d="M104.6 353.581C105.046 353.583 105.477 353.418 105.814 353.116V353.116C106.172 352.782 106.394 352.32 106.434 351.823C106.454 351.567 106.424 351.309 106.347 351.065C106.27 350.82 106.147 350.594 105.985 350.399L99.8537 342.957C99.6941 342.76 99.4982 342.598 99.2776 342.479C99.0569 342.361 98.8158 342.289 98.5682 342.268C98.1949 342.236 97.8207 342.319 97.4932 342.507C97.1657 342.695 96.8997 342.98 96.729 343.325C96.5584 343.671 96.4909 344.06 96.5351 344.445C96.5792 344.83 96.733 345.193 96.9769 345.487L103.108 352.93C103.432 353.326 103.894 353.574 104.394 353.618L104.6 353.581ZM105.634 352.976C105.295 353.255 104.865 353.386 104.434 353.343C104.003 353.299 103.605 353.085 103.324 352.744L97.1928 345.301C97.0404 345.131 96.9229 344.93 96.8475 344.711C96.7721 344.492 96.7402 344.26 96.7538 344.028C96.7675 343.796 96.8263 343.57 96.9268 343.362C97.0273 343.155 97.1674 342.97 97.3386 342.82C97.5098 342.67 97.7087 342.557 97.9231 342.488C98.1376 342.42 98.3632 342.397 98.5864 342.421C98.8097 342.445 99.0259 342.516 99.222 342.629C99.4182 342.741 99.5902 342.894 99.7278 343.078L105.859 350.52C106.146 350.868 106.288 351.32 106.254 351.776C106.237 352.002 106.177 352.222 106.076 352.423C105.976 352.625 105.838 352.803 105.67 352.949L105.634 352.976Z" fill="#455A64"/>
<path d="M100.168 349.106C100.258 349.199 100.906 348.725 101.625 348.036C102.344 347.348 102.838 346.715 102.757 346.622C102.677 346.529 102.02 347.004 101.301 347.683C100.582 348.362 100.088 349.004 100.168 349.106Z" fill="#455A64"/>
<path d="M79.0154 357.191L87.277 360.177C87.277 360.177 94.8554 358.205 98.0648 357.442C99.1509 357.18 100.277 357.148 101.376 357.348C102.474 357.548 103.522 357.975 104.457 358.605C108.34 361.21 115.02 365.694 117.411 367.341C119.802 368.988 125.906 374.216 125.906 374.216C125.906 374.216 130.338 379.472 128.891 382.487C127.444 385.501 123.434 385.073 123.434 385.073C123.153 386.245 122.55 387.307 121.698 388.133C120.846 388.958 119.782 389.511 118.634 389.725C118.634 389.725 119.64 391.362 115.856 392.404C112.071 393.446 103.27 392.404 103.27 392.404C103.27 392.404 87.0882 393.092 85.551 392.283C84.0137 391.474 77.1994 384.301 77.1994 384.301L71.428 380.728L79.0154 357.191Z" fill="#FFBE9D"/>
<path d="M110.974 362.996C111.747 363.682 112.571 364.304 113.437 364.857C114.993 365.964 117.168 367.443 119.488 369.183C121.472 370.664 123.366 372.27 125.16 373.993C126.527 375.314 127.318 376.207 127.372 376.151C127.426 376.095 127.228 375.89 126.895 375.463C126.563 375.035 126.05 374.439 125.394 373.741C123.648 371.936 121.763 370.281 119.757 368.792C117.429 367.043 115.262 365.601 113.617 364.568C112.777 363.974 111.893 363.448 110.974 362.996V362.996Z" fill="#EB996E"/>
<path d="M103.459 370.774C103.711 370.98 103.985 371.154 104.277 371.295L106.542 372.634C108.484 373.723 111.154 375.239 113.959 377.146C116.361 378.767 118.636 380.581 120.764 382.57C122.391 384.105 123.326 385.138 123.38 385.091C123.221 384.802 123.024 384.536 122.796 384.301C122.4 383.808 121.78 383.128 120.998 382.319C118.918 380.24 116.651 378.371 114.228 376.737C111.807 375.115 109.294 373.642 106.704 372.327C105.715 371.825 104.906 371.397 104.331 371.174C104.061 370.996 103.767 370.862 103.459 370.774Z" fill="#EB996E"/>
<path d="M95.233 376.932C95.4499 377.215 95.7006 377.468 95.9791 377.686C96.4826 378.132 97.2467 378.765 98.2086 379.481C100.141 380.951 102.964 382.719 106.093 384.636C108.8 386.242 111.67 387.533 114.651 388.487C115.793 388.869 116.719 389.148 117.348 389.334C117.678 389.447 118.018 389.525 118.364 389.566C118.063 389.388 117.744 389.247 117.411 389.148C116.683 388.887 115.802 388.552 114.714 388.161C111.792 387.125 108.972 385.804 106.291 384.217C103.153 382.3 100.321 380.589 98.3525 379.202C97.3726 378.523 96.5545 377.937 96.0511 377.537C95.7993 377.307 95.5252 377.104 95.233 376.932Z" fill="#EB996E"/>
<path d="M91.727 384.403C92.1186 384.959 92.5848 385.453 93.1114 385.873C94.3059 386.967 95.5836 387.959 96.932 388.841C98.2772 389.725 99.6868 390.5 101.148 391.157C101.74 391.474 102.373 391.699 103.027 391.827C103.081 391.687 100.33 390.487 97.1838 388.431C94.0373 386.375 91.8258 384.291 91.727 384.403Z" fill="#EB996E"/>
<path d="M46.0676 400.209H167.988C167.988 398.055 167.161 395.99 165.689 394.466C164.217 392.943 162.221 392.088 160.139 392.088H53.9158C51.8343 392.088 49.8381 392.943 48.3663 394.466C46.8945 395.99 46.0676 398.055 46.0676 400.209Z" fill="#263238"/>
<path d="M193.429 393.278L249.813 392.999L268.925 299.334C269.308 297.461 270.299 295.78 271.733 294.571C273.168 293.362 274.96 292.699 276.809 292.691H394.639C395.84 292.699 397.025 292.983 398.106 293.523C399.188 294.063 400.14 294.845 400.894 295.814C401.647 296.782 402.182 297.912 402.461 299.121C402.74 300.33 402.755 301.588 402.505 302.804L383.096 394.906C382.78 396.405 381.978 397.746 380.823 398.707C379.669 399.669 378.231 400.192 376.749 400.191H185.266C185.266 395.474 188.862 393.278 193.429 393.278Z" fill="#E0E0E0"/>
<path d="M253.526 400.209C253.652 400.209 258.965 376.198 265.392 346.511C271.82 316.824 276.935 292.728 276.809 292.691C276.684 292.654 271.371 316.703 264.934 346.399C258.497 376.095 253.4 400.182 253.526 400.209Z" fill="#263238"/>
<path d="M323.188 345.078C320.392 348.967 320.833 354.204 324.168 356.763C327.503 359.321 332.465 358.251 335.261 354.363C338.057 350.474 337.617 345.236 334.281 342.678C330.946 340.119 325.984 341.189 323.188 345.078Z" fill="white"/>
<path d="M221.468 394.534H225.891C226.924 394.534 227.761 395.401 227.761 396.469C227.761 397.538 226.924 398.404 225.891 398.404H221.468C220.435 398.404 219.598 397.538 219.598 396.469C219.598 395.401 220.435 394.534 221.468 394.534Z" fill="#263238"/>
<path d="M140.802 396.088C140.802 396.088 140.713 396.172 140.56 396.358C140.357 396.652 140.219 396.988 140.155 397.344C140.062 398.045 140.15 398.758 140.41 399.412C140.671 400.066 141.095 400.637 141.638 401.065C142.427 401.665 143.36 402.028 144.335 402.116C145.477 402.223 146.626 402.192 147.761 402.023C149.044 401.812 150.345 401.734 151.644 401.791C152.34 401.83 153.025 401.993 153.667 402.275C154.344 402.522 154.912 403.015 155.267 403.661C155.394 404.015 155.421 404.4 155.343 404.77C155.264 405.139 155.085 405.478 154.827 405.745C154.303 406.372 153.635 406.852 152.885 407.14C152.068 407.438 151.273 407.792 150.502 408.201C150.084 408.431 149.72 408.754 149.435 409.146C149.151 409.538 148.954 409.991 148.857 410.471C148.77 411.491 149.016 412.512 149.555 413.37C150.095 414.229 150.897 414.875 151.833 415.206C153.758 415.82 155.772 416.081 157.784 415.978C162.056 415.979 166.323 415.694 170.559 415.122C174.964 414.583 179.549 413.913 184.187 413.476C188.732 413.025 193.307 413.025 197.852 413.476C202.257 413.894 206.509 414.527 210.599 414.601C212.604 414.707 214.613 414.522 216.569 414.053C218.458 413.612 220.142 412.507 221.333 410.927C221.892 410.19 222.282 409.332 222.473 408.416C222.665 407.501 222.653 406.552 222.439 405.642C222.219 404.788 221.716 404.04 221.017 403.53C220.319 403.02 219.47 402.78 218.618 402.851C218.213 402.903 217.832 403.077 217.521 403.352C217.211 403.626 216.986 403.989 216.874 404.396C216.786 404.778 216.779 405.176 216.853 405.561C216.928 405.947 217.082 406.311 217.306 406.629C217.507 406.934 217.765 407.194 218.064 407.396C218.364 407.597 218.699 407.735 219.05 407.801C219.706 407.908 220.378 407.814 220.983 407.531C222.06 407.026 222.907 406.109 223.347 404.973C223.703 404.041 223.904 403.053 223.94 402.051C224.012 400.256 223.85 398.87 223.85 397.939C223.85 397.465 223.85 397.111 223.85 396.869C223.862 396.749 223.862 396.627 223.85 396.507C223.828 396.626 223.813 396.748 223.805 396.869C223.805 397.111 223.761 397.465 223.752 397.939C223.752 398.87 223.841 400.265 223.752 402.033C223.704 403.011 223.494 403.974 223.131 404.88C222.707 405.951 221.898 406.811 220.875 407.28C220.311 407.54 219.686 407.624 219.077 407.522C218.763 407.461 218.464 407.335 218.198 407.151C217.932 406.967 217.705 406.729 217.531 406.452C217.334 406.172 217.198 405.852 217.132 405.514C217.065 405.175 217.069 404.826 217.144 404.489C217.247 404.148 217.442 403.844 217.706 403.615C217.971 403.386 218.294 403.24 218.636 403.196C219.406 403.139 220.171 403.363 220.798 403.829C221.425 404.294 221.875 404.972 222.07 405.745C222.261 406.601 222.263 407.49 222.076 408.347C221.89 409.203 221.519 410.006 220.992 410.694C219.849 412.192 218.237 413.232 216.434 413.634C214.517 414.092 212.546 414.268 210.581 414.155C206.518 414.071 202.284 413.429 197.861 413.001C193.29 412.546 188.687 412.546 184.115 413.001C179.423 413.439 174.874 414.118 170.478 414.657C166.26 415.232 162.011 415.527 157.757 415.541C155.744 415.495 153.712 415.541 151.959 414.815C151.101 414.485 150.36 413.891 149.837 413.113C149.326 412.372 149.104 411.458 149.217 410.555C149.298 410.129 149.47 409.728 149.72 409.38C149.971 409.032 150.293 408.747 150.664 408.545C151.418 408.136 152.199 407.785 153.002 407.494C153.8 407.175 154.51 406.658 155.069 405.987C155.346 405.649 155.545 405.252 155.654 404.824C155.755 404.391 155.714 403.936 155.537 403.531C155.146 402.801 154.504 402.25 153.739 401.986C153.06 401.7 152.34 401.531 151.608 401.484C150.293 401.444 148.977 401.538 147.68 401.763C146.562 401.942 145.427 401.986 144.299 401.893C143.364 401.837 142.462 401.515 141.692 400.963C141.169 400.561 140.755 400.026 140.49 399.41C140.225 398.794 140.119 398.117 140.182 397.446C140.259 396.941 140.474 396.47 140.802 396.088V396.088Z" fill="#263238"/>
<path d="M47.524 396.125C47.524 396.255 74.2777 396.367 107.27 396.367C140.263 396.367 167.026 396.255 167.026 396.125C167.026 395.995 140.317 395.893 107.27 395.893C74.2238 395.893 47.524 395.986 47.524 396.125Z" fill="#455A64"/>
<path d="M92.4191 119.017L76.7499 116.533C66.7428 123.353 54.6325 126.054 42.7993 124.103C30.9661 122.152 20.2661 115.691 12.8024 105.99C5.33863 96.2893 1.65114 84.0503 2.46466 71.6787C3.27818 59.3071 8.5339 47.6978 17.1987 39.1328C25.8635 30.5679 37.3107 25.6667 49.2901 25.3928C61.2696 25.1188 72.9149 29.4918 81.9369 37.6523C90.9588 45.8128 96.705 57.1705 98.0458 69.4928C99.3866 81.8151 96.2252 94.2108 89.1828 104.243V104.243L92.4191 119.017Z" fill="white"/>
<path d="M92.4192 119.017L92.2305 118.087L91.6371 115.296C91.1067 112.784 90.3157 109.072 89.2998 104.253C89.2976 104.239 89.2929 104.226 89.2858 104.215C89.2787 104.203 89.2694 104.193 89.2585 104.185C89.2476 104.177 89.2353 104.172 89.2223 104.169C89.2093 104.166 89.1959 104.166 89.1829 104.169L89.3268 104.308C91.4074 101.356 93.1708 98.1768 94.5858 94.8284C96.3278 90.6537 97.4987 86.2481 98.0649 81.7387C98.4074 79.1808 98.5517 76.5986 98.4964 74.0169C98.3947 71.2501 98.0942 68.4949 97.5974 65.7742C96.5223 59.7986 94.3888 54.0802 91.3045 48.9073C85.7838 39.5947 77.4427 32.4323 67.5798 28.5353C57.7168 24.6383 46.8855 24.2254 36.7723 27.3609C33.0646 28.4784 29.4955 30.0395 26.1373 32.0126L23.6831 33.6685L22.4425 34.5058C22.0379 34.7942 21.6694 35.1292 21.2828 35.4362L18.9544 37.3899C18.1903 38.0411 17.5161 38.7947 16.7879 39.5017C15.3796 40.9027 14.0612 42.3976 12.8414 43.9766L12.3649 44.5441L11.9424 45.1581L11.1153 46.3955C10.5669 47.2235 9.96462 48.0142 9.47917 48.8701C8.99372 49.726 8.53522 50.6005 8.05876 51.4658C7.82503 51.8937 7.58228 52.3217 7.35753 52.7589L6.78222 54.1172L5.6225 56.8058C5.26291 57.7362 5.01119 58.6665 4.72352 59.5968C2.65654 66.1301 1.92032 73.0358 2.56122 79.8783C3.20212 86.7208 5.20625 93.3516 8.44724 99.3524C11.6882 105.353 16.0957 110.594 21.3917 114.744C26.6877 118.894 32.7572 121.863 39.2175 123.464L41.2132 123.929L42.2021 124.152L43.2 124.273C44.5215 124.432 45.816 124.618 47.0926 124.748C49.5731 124.868 52.0583 124.843 54.5362 124.673C62.497 123.963 70.159 121.2 76.8219 116.635H76.75L88.4368 118.412L91.4214 118.868L92.4192 119.008L91.3854 118.822L88.3828 118.329L76.759 116.468H76.6961C73.7269 118.482 70.5523 120.151 67.2298 121.445C63.1343 123.026 58.8478 124.015 54.4912 124.385C52.0312 124.553 49.5637 124.572 47.1016 124.441C45.834 124.301 44.5395 124.125 43.227 123.957L42.2381 123.836L41.2672 123.604L39.2804 123.138C32.8733 121.55 26.8542 118.604 21.6033 114.486C16.3523 110.368 11.9837 105.168 8.77333 99.2139C5.56299 93.26 3.5807 86.6818 2.95173 79.8948C2.32275 73.1079 3.06074 66.2597 5.11907 59.7829C5.42473 58.8526 5.68543 57.9222 6.01806 56.9919L7.16878 54.3219L7.74414 52.9822C7.9599 52.5542 8.20259 52.1356 8.43632 51.6983C8.90379 50.8548 9.37126 49.9989 9.83873 49.1306C10.3242 48.284 10.9175 47.5026 11.4569 46.6839L12.284 45.4651L12.6975 44.8511L13.174 44.2836C14.4069 42.7164 15.7372 41.2341 17.1565 39.8459C17.8756 39.1482 18.5499 38.4039 19.305 37.7527L21.5974 35.892C21.984 35.585 22.3526 35.2501 22.7481 34.9617L23.9798 34.1337L26.416 32.4963C29.7367 30.5308 33.2663 28.9699 36.9341 27.8447C43.8162 25.6989 51.081 25.2079 58.1743 26.4091C65.2677 27.6102 72.0024 30.4718 77.8648 34.7756C83.1356 38.603 87.6059 43.4917 91.0079 49.1492C94.0853 54.2819 96.2188 59.9594 97.3008 65.8952C97.7978 68.597 98.0983 71.3337 98.1997 74.0821C98.2622 76.6442 98.1299 79.2074 97.8042 81.748C96.7258 89.8551 93.7271 97.5606 89.0751 104.178C89.0574 104.199 89.0476 104.225 89.0476 104.253C89.0476 104.28 89.0574 104.307 89.0751 104.327C89.092 104.34 89.1125 104.347 89.1335 104.347C89.1545 104.347 89.175 104.34 89.1919 104.327V104.327L89.0391 104.271C90.0999 109.053 90.918 112.728 91.4753 115.231C91.754 116.468 91.9698 117.417 92.1136 118.068C92.2575 118.719 92.4192 119.017 92.4192 119.017Z" fill="#263238"/>
<path d="M36.6733 95.8703L48.5758 101.452C49.9505 102.099 51.4349 102.46 52.9443 102.513C54.4538 102.567 55.9586 102.312 57.3728 101.763C58.787 101.215 60.0828 100.383 61.1864 99.3161C62.29 98.2491 63.1797 96.9676 63.8046 95.5447L75.4913 69.0024L42.6245 53.531L30.9378 80.0733C30.3089 81.4998 29.9584 83.0407 29.9064 84.6077C29.8544 86.1747 30.102 87.7369 30.6349 89.2047C31.1678 90.6724 31.9756 92.0168 33.0118 93.1606C34.048 94.3045 35.2923 95.2254 36.6733 95.8703V95.8703Z" fill="#E0E0E0"/>
<path d="M36.6733 95.8705C35.675 95.3104 34.7325 94.6498 33.8595 93.8982C32.8674 92.9483 32.0376 91.8317 31.4052 90.5955C30.5486 88.941 30.095 87.0952 30.0838 85.2182C30.0628 84.1181 30.1991 83.0209 30.4883 81.9621C30.8308 80.8083 31.27 79.6876 31.8008 78.6129L35.0821 71.1702L42.8223 53.6335L42.5346 53.7452L64.8923 64.3044L75.3655 69.2259L75.2486 68.9095L65.5666 91.0328C64.8204 92.7074 64.1282 94.3727 63.4 95.9263C62.3857 98.0019 60.798 99.7185 58.8387 100.858C56.8795 101.998 54.6371 102.509 52.3965 102.327C49.7535 102.16 47.6499 100.811 45.7261 99.9919L40.8356 97.7312L37.761 96.3264L36.952 95.9728C36.8636 95.9268 36.77 95.8924 36.6733 95.8705C36.7564 95.9269 36.8436 95.9766 36.934 96.0194L37.7251 96.4101L40.7637 97.8893L45.6271 100.215L48.6837 101.657C49.8497 102.197 51.0961 102.528 52.3695 102.634C54.6766 102.847 56.9925 102.34 59.0191 101.18C61.0457 100.019 62.6905 98.2576 63.7417 96.1217C64.4968 94.5494 65.18 92.9028 65.9352 91.2282C68.8928 84.5019 72.1741 77.0499 75.6712 69.1235L75.761 68.9095L75.5543 68.8072L65.0811 63.8858L42.7144 53.3823L42.5167 53.2893L42.4268 53.494C39.6399 59.8667 37.0329 65.7743 34.7495 71.0586L31.5042 78.5012C30.9809 79.6009 30.545 80.7428 30.2006 81.9156C29.9122 82.9996 29.7819 84.1222 29.8141 85.2461C29.8406 87.164 30.3222 89.0457 31.2165 90.7258C32.2651 92.7764 33.8926 94.4477 35.8822 95.517L36.4755 95.8054C36.5388 95.8349 36.6052 95.8568 36.6733 95.8705Z" fill="#263238"/>
<path d="M75.1767 69.1886C68.8209 70.5376 62.8517 70.5934 56.9993 67.6908C51.1469 64.7882 45.4923 59.7644 42.5257 53.7358L75.1767 69.1886Z" fill="#EBB762"/>
<path d="M40.2333 59.02C40.2333 59.02 40.0175 59.2154 39.6669 59.634L38.1746 61.4947C36.8441 63.2251 35.0192 65.5788 32.7807 68.4443L29.0949 73.2727C28.4387 74.203 27.7374 74.9845 27.0542 76.0078C26.3859 77.0863 26.0216 78.3364 26.0024 79.6175C25.9783 80.9907 26.3457 82.3407 27.0588 83.499C27.7719 84.6572 28.799 85.5723 30.0118 86.1298L37.3565 89.6372L41.0873 91.4141C42.2921 92.0553 43.5613 92.5576 44.8721 92.9119C47.4269 93.5037 50.1003 93.1755 52.4505 91.9816C53.532 91.4263 54.5261 90.7048 55.3991 89.8418C56.2262 88.9952 56.9543 88.1672 57.7005 87.3672L61.7999 82.9202L67.6972 76.4079L69.2974 74.7147C69.4944 74.5178 69.6666 74.2958 69.8098 74.0541C69.5836 74.2122 69.3755 74.3963 69.1895 74.603L67.5174 76.2962C66.0071 77.8592 63.9215 80.0176 61.4493 82.6132C60.1637 83.9529 58.7523 85.4042 57.287 86.995C55.8217 88.5859 54.3204 90.4187 52.1718 91.4048C49.9594 92.5038 47.4511 92.7893 45.0608 92.2142C43.8145 91.8637 42.6088 91.3739 41.4649 90.7536L37.7341 88.9766L30.3805 85.4879C29.2736 84.9653 28.3368 84.1219 27.6835 83.0597C27.0749 82.0304 26.763 80.8426 26.7845 79.6361C26.7876 78.4856 27.0988 77.3585 27.6835 76.38C28.2858 75.4496 29.0319 74.5193 29.6612 73.6634L33.2572 68.7885L38.4443 61.6808L39.8287 59.7271C39.9864 59.5062 40.122 59.2693 40.2333 59.02Z" fill="#263238"/>
<path d="M67.4994 73.6077C67.3357 73.9794 67.2823 74.393 67.3458 74.7962C67.4093 75.1994 67.5868 75.5741 67.8561 75.8728C68.1254 76.1715 68.4742 76.3809 68.8585 76.4745C69.2427 76.568 69.6451 76.5415 70.0148 76.3984C70.3845 76.2552 70.7049 76.0018 70.9355 75.6702C71.166 75.3386 71.2964 74.9437 71.31 74.5354C71.3237 74.1272 71.22 73.7239 71.0122 73.3766C70.8044 73.0293 70.5017 72.7536 70.1424 72.5843C69.6608 72.3574 69.1118 72.3377 68.6161 72.5296C68.1205 72.7216 67.7188 73.1093 67.4994 73.6077V73.6077Z" fill="#263238"/>
<path d="M42.8133 54.0708C42.2919 54.7872 43.0111 56.0338 42.6336 56.8618C42.2889 57.6124 42.1765 58.4548 42.3117 59.274C42.4468 60.0932 42.8229 60.8492 43.3887 61.439C43.4812 61.532 43.5599 61.6386 43.6224 61.7553C43.9291 62.6648 43.8971 63.66 43.5325 64.5463L42.2649 69.0956C41.9456 70.0201 41.7962 70.9983 41.8244 71.9796C41.8426 72.4718 41.9915 72.9493 42.2547 73.3596C42.518 73.7699 42.8854 74.0972 43.3167 74.3055C44.5933 74.8079 46.0137 73.7845 46.7239 72.5937C47.6229 71.1144 48.1084 69.2631 49.7715 68.37C50.1442 68.1529 50.573 68.0613 50.9983 68.108C51.4236 68.1547 51.8243 68.3373 52.1447 68.6305C53.718 70.2306 51.2458 72.789 52.6752 74.3427C52.8861 74.5508 53.1428 74.7028 53.4232 74.7854C53.7035 74.8681 53.999 74.879 54.2843 74.8171C55.4095 74.4713 56.3706 73.7055 56.9813 72.6681L60.3795 68.2211L42.7954 54.0894" fill="#EBB762"/>
</svg>
