<svg width="802" height="2459" viewBox="0 0 802 2459" fill="none" xmlns="http://www.w3.org/2000/svg">
<path fill-rule="evenodd" clip-rule="evenodd" d="M50.7557 0.124299C17.5079 0.124299 -9.40067 27.1603 -9.24358 60.4078L-0.716051 1865.22C-0.596615 1890.5 19.9291 1910.93 45.2076 1910.93C70.5708 1910.93 91.1317 1931.49 91.1317 1956.85L91.1317 2208.41C91.1317 2241.55 117.995 2268.41 151.132 2268.41L161.99 2268.41C195.127 2268.41 221.99 2295.28 221.99 2328.41L221.99 2399C221.99 2432.14 248.853 2459 281.99 2459L741.792 2459C774.929 2459 801.792 2432.14 801.792 2399L801.792 60.1243C801.792 26.9872 774.929 0.124298 741.792 0.124298L50.7557 0.124299Z" fill="#FEF8EC"/>
</svg>
