<svg width="28" height="27" viewBox="0 0 28 27" fill="none" xmlns="http://www.w3.org/2000/svg">
<path d="M16.0732 3.23301L18.1849 7.49145C18.4729 8.08424 19.2408 8.65284 19.8887 8.76172L23.7163 9.40291C26.164 9.81423 26.74 11.6047 24.9762 13.371L22.0005 16.3713C21.4966 16.8794 21.2206 17.8593 21.3766 18.561L22.2285 22.275C22.9004 25.2148 21.3526 26.352 18.7729 24.8155L15.1853 22.6742C14.5373 22.2871 13.4695 22.2871 12.8095 22.6742L9.22192 24.8155C6.6542 26.352 5.09438 25.2027 5.7663 22.275L6.61821 18.561C6.77419 17.8593 6.49822 16.8794 5.99428 16.3713L3.01861 13.371C1.2668 11.6047 1.83074 9.81423 4.27847 9.40291L8.10604 8.76172C8.74197 8.65284 9.50989 8.08424 9.79786 7.49145L11.9096 3.23301C13.0615 0.922329 14.9333 0.922329 16.0732 3.23301Z" stroke="#4A3AFF" stroke-width="2" stroke-linecap="round" stroke-linejoin="round"/>
</svg>
