<svg width="24" height="24" viewBox="0 0 24 24" fill="none" xmlns="http://www.w3.org/2000/svg">
<path fill-rule="evenodd" clip-rule="evenodd" d="M13.5527 4.2893C11.9082 3.90357 10.1968 3.90357 8.55237 4.2893C6.4371 4.78548 4.78548 6.4371 4.2893 8.55237C3.90357 10.1968 3.90357 11.9082 4.2893 13.5527C4.78548 15.668 6.4371 17.3196 8.55237 17.8157C10.1968 18.2015 11.9082 18.2015 13.5527 17.8157C15.668 17.3196 17.3196 15.668 17.8157 13.5527C18.2015 11.9082 18.2015 10.1968 17.8157 8.55237C17.3196 6.4371 15.668 4.78548 13.5527 4.2893ZM8.09563 2.34215C10.0405 1.88595 12.0646 1.88595 14.0094 2.34215C16.8642 3.0118 19.0933 5.24084 19.7629 8.09563C20.2191 10.0405 20.2191 12.0646 19.7629 14.0094C19.5073 15.0989 19.0247 16.0972 18.3668 16.9526L21.7071 20.2929C22.0976 20.6834 22.0976 21.3166 21.7071 21.7071C21.3166 22.0976 20.6834 22.0976 20.2929 21.7071L16.9526 18.3668C16.0972 19.0247 15.0989 19.5073 14.0094 19.7629C12.0646 20.2191 10.0405 20.2191 8.09563 19.7629C5.24084 19.0933 3.0118 16.8642 2.34215 14.0094C1.88595 12.0646 1.88595 10.0405 2.34215 8.09563C3.0118 5.24084 5.24084 3.0118 8.09563 2.34215Z" fill="#091B3D" fill-opacity="0.4"/>
</svg>
