<?xml version="1.0" standalone="no"?><!DOCTYPE svg PUBLIC "-//W3C//DTD SVG 1.1//EN" "http://www.w3.org/Graphics/SVG/1.1/DTD/svg11.dtd"><svg t="1659536220351" class="icon" viewBox="0 0 1025 1024" version="1.1" xmlns="http://www.w3.org/2000/svg" p-id="2368" xmlns:xlink="http://www.w3.org/1999/xlink" width="200.1953125" height="200"><defs><style type="text/css">@font-face { font-family: feedback-iconfont; src: url("//at.alicdn.com/t/font_1031158_u69w8yhxdu.woff2?t=1630033759944") format("woff2"), url("//at.alicdn.com/t/font_1031158_u69w8yhxdu.woff?t=1630033759944") format("woff"), url("//at.alicdn.com/t/font_1031158_u69w8yhxdu.ttf?t=1630033759944") format("truetype"); }
</style></defs><path d="M992.248062 895.967978 896.224056 895.967978 896.224056 991.991984C896.224056 1009.660401 881.900475 1023.999986 864.216054 1023.999986 846.531633 1023.999986 832.208052 1009.660401 832.208052 991.991984L832.208052 895.967978 736.184046 895.967978C718.499625 895.967978 704.176044 881.644397 704.176044 863.959976 704.176044 846.275555 718.499625 831.951974 736.184046 831.951974L832.208052 831.951974 832.208052 735.927968C832.208052 718.243547 846.531633 703.919966 864.216054 703.919966 881.900475 703.919966 896.224056 718.243547 896.224056 735.927968L896.224056 831.951974 992.248062 831.951974C1009.932483 831.951974 1024.256064 846.275555 1024.256064 863.959976 1024.256064 881.644397 1009.932483 895.967978 992.248062 895.967978ZM681.290323 667.606888 766.335584 707.392834 750.507627 771.280806 654.563641 725.781431C634.302576 716.467103 620.331083 697.310313 617.706427 675.144772 615.08177 653.011239 624.172043 631.101761 641.68042 617.322316 710.353588 563.244797 735.95999 445.439346 735.95999 383.887958L735.95999 223.927968C735.95999 155.57488 620.683171 64.01599 511.983996 64.01599 404.229057 64.01599 287.79995 157.047248 287.79995 223.927968L287.79995 383.887958C287.79995 446.383582 318.783696 563.740921 385.28032 617.130268 402.580645 631.005737 411.462866 652.851199 408.742186 674.8567 406.037509 696.862201 392.130033 715.938971 371.980995 725.189283L90.854714 857.846447C83.236809 861.351324 64.128032 869.353324 64.128032 894.799686L64.128032 959.743922 768.192048 959.727918 768.192048 1023.727918 64.08002 1023.727918C28.75919 1023.727918 0.112028 995.09676 0.112028 959.743922L0.112028 863.687908C0.112028 828.207038 64.08002 799.703912 64.08002 799.703912L345.206302 667.046748C255.67992 595.188783 223.783946 453.77743 223.783946 383.887958L223.783946 223.927968C223.783946 117.981481 370.636659-1.4e-05 511.983996-1.4e-05 653.315329-1.4e-05 799.975994 117.981481 799.975994 223.927968L799.975994 383.887958C799.975994 460.723167 769.968492 597.813439 681.290323 667.606888Z" p-id="2369" fill="#2c2c2c"></path></svg>