<svg width="28" height="28" viewBox="0 0 28 28" fill="none" xmlns="http://www.w3.org/2000/svg">
<path fill-rule="evenodd" clip-rule="evenodd" d="M13.1792 3.7285C12.6844 4.10872 12.0904 4.70292 11.1749 5.62493L5.61334 11.2261V17.5164C5.61334 20.2558 7.19233 22.6842 9.5615 23.8197C9.51748 23.2753 9.5455 22.7241 9.64748 22.1809L9.67326 22.0436C9.98033 20.4077 11.1868 19.0837 12.7916 18.6385C13.5824 18.419 14.4176 18.419 15.2084 18.6385C16.8132 19.0837 18.0198 20.4077 18.3268 22.0436L18.3526 22.1809C18.4546 22.7241 18.4826 23.2753 18.4386 23.8197C20.8078 22.6841 22.3867 20.2558 22.3867 17.5164V11.2261L16.8251 5.62493C15.9096 4.70292 15.3156 4.10872 14.8208 3.7285C14.3563 3.37162 14.1407 3.33317 14 3.33317C13.8594 3.33317 13.6438 3.37162 13.1792 3.7285ZM25.0534 13.9117C25.5722 14.4342 26.417 14.4377 26.9395 13.9189C27.462 13.4001 27.465 12.5558 26.9462 12.0333L18.6554 3.68354C17.8196 2.84173 17.0996 2.1166 16.4456 1.614C15.745 1.07566 14.964 0.666504 14 0.666504C13.036 0.666504 12.2551 1.07566 11.5544 1.614C10.9004 2.1166 10.1804 2.84173 9.34465 3.68356C9.32405 3.7043 9.30338 3.72513 9.28263 3.74601L1.05388 12.0333C0.535022 12.5558 0.538022 13.4001 1.06056 13.9189C1.5831 14.4377 2.42732 14.4348 2.94617 13.9122L2.94668 17.5164C2.94668 21.9882 6.00377 25.882 10.3424 26.9069C12.7482 27.4753 15.2519 27.4753 17.6576 26.9069C21.9963 25.882 25.0534 21.9882 25.0534 17.5164V13.9117ZM15.5611 24.5741C15.7915 23.9708 15.8518 23.3124 15.7316 22.6729L15.7059 22.5356C15.585 21.8912 15.1122 21.3792 14.4955 21.208C14.1711 21.1181 13.829 21.1181 13.5046 21.208C12.8879 21.3792 12.4151 21.8912 12.2942 22.5356L12.2684 22.6729C12.1483 23.3124 12.2086 23.9708 12.439 24.5741C13.476 24.6973 14.524 24.6973 15.5611 24.5741Z" fill="white"/>
</svg>
