<svg width="28" height="28" viewBox="0 0 28 28" fill="none" xmlns="http://www.w3.org/2000/svg">
<path fill-rule="evenodd" clip-rule="evenodd" d="M13.1792 3.72875C12.6844 4.10896 12.0904 4.70316 11.1749 5.62517L5.61331 11.2263V17.5166C5.61331 20.2561 7.1923 22.6845 9.56147 23.8199C9.51744 23.2755 9.54547 22.7243 9.64744 22.1811L9.67323 22.0438C9.9803 20.4079 11.1868 19.0839 12.7916 18.6387C13.5824 18.4193 14.4176 18.4193 15.2084 18.6387C16.8132 19.0839 18.0197 20.4079 18.3268 22.0438L18.3525 22.1811C18.4545 22.7243 18.4825 23.2755 18.4385 23.8199C20.8077 22.6843 22.3867 20.2561 22.3867 17.5166V11.2263L16.8251 5.62517C15.9096 4.70316 15.3156 4.10896 14.8208 3.72875C14.3563 3.37187 14.1407 3.33341 14 3.33341C13.8593 3.33341 13.6437 3.37187 13.1792 3.72875ZM25.0533 13.9119C25.5721 14.4345 26.4169 14.4379 26.9395 13.9191C27.462 13.4003 27.4649 12.5561 26.9461 12.0335L18.6553 3.68379C17.8196 2.84197 17.0996 2.11684 16.4456 1.61424C15.7449 1.07591 14.964 0.666748 14 0.666748C13.036 0.666748 12.2551 1.07591 11.5544 1.61424C10.9003 2.11684 10.1804 2.84197 9.34462 3.6838C9.32402 3.70455 9.30335 3.72537 9.2826 3.74625L1.05384 12.0335C0.534992 12.5561 0.537992 13.4003 1.06052 13.9191C1.58307 14.4379 2.42728 14.435 2.94614 13.9125L2.94664 17.5166C2.94664 21.9885 6.00374 25.8822 10.3424 26.9071C12.7481 27.4755 15.2519 27.4755 17.6576 26.9071C21.9963 25.8822 25.0533 21.9885 25.0533 17.5166V13.9119ZM15.5611 24.5743C15.7915 23.971 15.8517 23.3126 15.7316 22.6731L15.7059 22.5358C15.5849 21.8914 15.1121 21.3794 14.4955 21.2082C14.1711 21.1183 13.8289 21.1183 13.5045 21.2082C12.8879 21.3794 12.4151 21.8914 12.2941 22.5358L12.2684 22.6731C12.1483 23.3126 12.2085 23.971 12.4389 24.5743C13.476 24.6975 14.524 24.6975 15.5611 24.5743Z" fill="#F5B544"/>
</svg>
