<?xml version="1.0" standalone="no"?><!DOCTYPE svg PUBLIC "-//W3C//DTD SVG 1.1//EN" "http://www.w3.org/Graphics/SVG/1.1/DTD/svg11.dtd"><svg t="1659512384163" class="icon" viewBox="0 0 1024 1024" version="1.1" xmlns="http://www.w3.org/2000/svg" p-id="4497" xmlns:xlink="http://www.w3.org/1999/xlink" width="200" height="200"><defs><style type="text/css">@font-face { font-family: feedback-iconfont; src: url("//at.alicdn.com/t/font_1031158_u69w8yhxdu.woff2?t=1630033759944") format("woff2"), url("//at.alicdn.com/t/font_1031158_u69w8yhxdu.woff?t=1630033759944") format("woff"), url("//at.alicdn.com/t/font_1031158_u69w8yhxdu.ttf?t=1630033759944") format("truetype"); }
</style></defs><path d="M697.7 493.3c-19.4-9.1-39.3-16.7-59.5-22.8-3-0.9-3.7-4.8-1.2-6.7 51.7-40.2 85.7-102 88.6-171.8C731.1 157.3 618.7 46 484 53c-121.3 6.3-217.7 106.6-217.7 229.4 0 76.7 37.5 144.5 95.2 186.3 2.5 1.8 2 5.7-1 6.7-24.7 8.4-48.6 18.9-71.4 31.5-143.6 79-233.3 229.2-234.7 392.8 0 2.1 1.7 3.8 3.8 3.8h72.4c2.1 0 3.8-1.7 3.8-3.8 1.4-134.4 75.1-257.8 193.2-322.8 54.5-30 116.5-45.8 179.1-45.8 54.6 0 107.1 11.5 156.1 34.2 4 1.9 8.8 0.2 10.8-3.8l27.9-57.2c2.2-4.1 0.4-9-3.8-11zM390.2 176.6c28.3-28.3 65.9-43.9 105.9-43.9s77.6 15.6 105.9 43.9c28.3 28.3 43.9 65.9 43.9 105.9S630.2 360 602 388.3c-28.3 28.3-65.9 43.9-105.9 43.9s-77.6-15.6-105.9-43.9c-28.3-28.3-43.9-65.9-43.9-105.9s15.6-77.6 43.9-105.8zM952.2 727.8h-144V583.9c0-4.5-3.7-8.2-8.2-8.2h-63.6c-4.5 0-8.2 3.7-8.2 8.2v143.9H584.3c-4.5 0-8.2 3.7-8.2 8.2v63.6c0 4.5 3.7 8.2 8.2 8.2h143.9v143.9c0 4.5 3.7 8.2 8.2 8.2H800c4.5 0 8.2-3.7 8.2-8.2V807.8h143.9c4.5 0 8.2-3.7 8.2-8.2V736c0.1-4.5-3.6-8.2-8.1-8.2z" p-id="4498" fill="#2c2c2c"></path></svg>