<?xml version="1.0" standalone="no"?><!DOCTYPE svg PUBLIC "-//W3C//DTD SVG 1.1//EN" "http://www.w3.org/Graphics/SVG/1.1/DTD/svg11.dtd"><svg t="1659512322752" class="icon" viewBox="0 0 1024 1024" version="1.1" xmlns="http://www.w3.org/2000/svg" p-id="3478" xmlns:xlink="http://www.w3.org/1999/xlink" width="200" height="200"><defs><style type="text/css">@font-face { font-family: feedback-iconfont; src: url("//at.alicdn.com/t/font_1031158_u69w8yhxdu.woff2?t=1630033759944") format("woff2"), url("//at.alicdn.com/t/font_1031158_u69w8yhxdu.woff?t=1630033759944") format("woff"), url("//at.alicdn.com/t/font_1031158_u69w8yhxdu.ttf?t=1630033759944") format("truetype"); }
</style></defs><path d="M783.72 958.39h-539c-41.75 0-75.72-33.46-75.72-74.6V242.5c0-21.18 17.17-38.36 38.36-38.36s38.36 17.17 38.36 38.36v639.17h537V242.5c0-21.18 17.17-38.36 38.36-38.36s38.36 17.17 38.36 38.36v641.29c0 41.14-33.97 74.6-75.72 74.6z" p-id="3479" fill="#2c2c2c"></path><path d="M706.01 244.51c-21.19 0-38.36-17.17-38.36-38.36v-63.82H360.79v63.82c0 21.18-17.17 38.36-38.36 38.36-21.19 0-38.36-17.17-38.36-38.36v-65.93c0-41.83 27.11-74.6 61.71-74.6h336.87c34.6 0 61.71 32.77 61.71 74.6v65.93c0.01 21.18-17.16 38.36-38.35 38.36z" p-id="3480" fill="#2c2c2c"></path><path d="M921.14 256.01H102.86c-21.18 0-38.36-17.17-38.36-38.36s17.17-38.36 38.36-38.36h818.29c21.19 0 38.36 17.17 38.36 38.36s-17.18 38.36-38.37 38.36zM514.22 763.27c-21.19 0-38.36-17.17-38.36-38.36V405.27c0-21.18 17.17-38.36 38.36-38.36 21.19 0 38.36 17.17 38.36 38.36v319.64c0 21.18-17.17 38.36-38.36 38.36zM360.79 699.34c-21.19 0-38.36-17.17-38.36-38.36V469.2c0-21.18 17.17-38.36 38.36-38.36s38.36 17.17 38.36 38.36v191.79c0 21.18-17.17 38.35-38.36 38.35zM667.65 699.34c-21.19 0-38.36-17.17-38.36-38.36V469.2c0-21.18 17.17-38.36 38.36-38.36 21.19 0 38.36 17.17 38.36 38.36v191.79c0 21.18-17.17 38.35-38.36 38.35z" p-id="3481" fill="#2c2c2c"></path></svg>