<svg width="55" height="45" viewBox="0 0 55 45" fill="none" xmlns="http://www.w3.org/2000/svg">
<path d="M49.1668 0.375C52.1584 0.375 54.5834 2.57627 54.5834 5.29167V39.7083C54.5834 42.4238 52.1584 44.625 49.1668 44.625H5.83342C2.84187 44.625 0.416748 42.4238 0.416748 39.7083L0.416748 5.29167C0.416748 2.57627 2.84187 0.375 5.83342 0.375L49.1668 0.375ZM41.0418 29.875L13.9584 29.875C12.4627 29.875 11.2501 30.9756 11.2501 32.3333C11.2501 33.6911 12.4627 34.7917 13.9584 34.7917H41.0418C42.5376 34.7917 43.7501 33.6911 43.7501 32.3333C43.7501 30.9756 42.5376 29.875 41.0418 29.875ZM22.0834 10.2083H16.6667C13.8112 10.2083 11.4717 12.214 11.2649 14.7581L11.2501 15.125L11.2501 20.0417C11.2501 22.6337 13.4598 24.7572 16.2625 24.9448L16.6667 24.9583H22.0834C24.9391 24.9583 27.2785 22.9527 27.4852 20.4086L27.5001 20.0417V15.125C27.5001 12.533 25.2905 10.4095 22.4877 10.2218L22.0834 10.2083ZM41.0418 20.0417H32.9167C31.4209 20.0417 30.2084 21.1423 30.2084 22.5C30.2084 23.7608 31.2539 24.7998 32.6009 24.9418L32.9167 24.9583H41.0418C42.5376 24.9583 43.7501 23.8577 43.7501 22.5C43.7501 21.2392 42.7046 20.2002 41.3576 20.0582L41.0418 20.0417ZM22.0834 15.125V20.0417H16.6667V15.125H22.0834ZM41.0418 10.2083H32.9167C31.4209 10.2083 30.2084 11.309 30.2084 12.6667C30.2084 14.0244 31.4209 15.125 32.9167 15.125H41.0418C42.5376 15.125 43.7501 14.0244 43.7501 12.6667C43.7501 11.309 42.5376 10.2083 41.0418 10.2083Z" fill="#F5B544"/>
</svg>
