<?xml version="1.0" standalone="no"?><!DOCTYPE svg PUBLIC "-//W3C//DTD SVG 1.1//EN" "http://www.w3.org/Graphics/SVG/1.1/DTD/svg11.dtd"><svg t="1659882135661" class="icon" viewBox="0 0 1024 1024" version="1.1" xmlns="http://www.w3.org/2000/svg" p-id="6490" xmlns:xlink="http://www.w3.org/1999/xlink" width="200" height="200"><defs><style type="text/css">@font-face { font-family: feedback-iconfont; src: url("//at.alicdn.com/t/font_1031158_u69w8yhxdu.woff2?t=1630033759944") format("woff2"), url("//at.alicdn.com/t/font_1031158_u69w8yhxdu.woff?t=1630033759944") format("woff"), url("//at.alicdn.com/t/font_1031158_u69w8yhxdu.ttf?t=1630033759944") format("truetype"); }
</style></defs><path d="M950.7 280.6L809.4 136.4c-6-6-14.2-9.4-22.7-9.4l-433.6-0.1c-35.3 0-64 28.7-64 64V864H160V97c0-17.7-14.3-32-32-32S96 79.3 96 97v799c0 17.7 14.3 32 32 32h169.8c11.1 19 31.7 31.9 55.3 31.9l542.9 0.1c35.3 0 64-28.7 64-64V303.2c0-8.5-3.3-16.6-9.3-22.6zM896 864c0 17.7-14.3 32-32 32l-478.9-0.1c-17.7 0-32-14.3-32-32v-641c0-17.7 14.3-32 32-32l318.9 0.1v130c0 35.3 28.7 64 64 64h128v479z m-96-543c-17.7 0-32-14.3-32-32v-98l128 130h-96z" p-id="6491" fill="#09244B"></path><path d="M800.1 734.9h-352c-17.7 0-32 14.3-32 32s14.3 32 32 32h352c17.7 0 32-14.3 32-32s-14.3-32-32-32zM416.1 574.9c0 17.7 14.3 32 32 32h352c17.7 0 32-14.3 32-32s-14.3-32-32-32h-352c-17.7 0-32 14.3-32 32zM448.1 414.9h128c17.7 0 32-14.3 32-32s-14.3-32-32-32h-128c-17.7 0-32 14.3-32 32 0 17.6 14.3 32 32 32z" p-id="6492" fill="#09244B"></path></svg>