<svg width="333" height="294" viewBox="0 0 333 294" fill="none" xmlns="http://www.w3.org/2000/svg">
<path d="M1.19517 278.077C47.2628 286.245 95.1058 280.296 137.916 261.076C180.334 241.902 209.167 204.6 231.981 165.428L262.346 180.372C262.346 180.372 226.309 270.986 163.388 306.527L0.167071 284.207L1.19517 278.077Z" fill="#EBB762"/>
<g opacity="0.6">
<path d="M1.23244 279.094C47.1154 287.07 94.8613 280.83 137.675 261.261C180.099 241.741 209.095 204.051 232.101 164.509L262.282 179.387C262.282 179.387 225.008 275.081 162.777 306.865L0.167014 285.269L1.23244 279.094Z" fill="white"/>
</g>
<path d="M226.418 175.753C226.643 175.866 226.395 176.748 225.712 178.329C225.371 179.116 224.921 180.08 224.371 181.211L223.463 183.022C223.124 183.665 222.744 184.301 222.331 185.044C221.517 186.462 220.605 188.039 219.583 189.752C218.561 191.465 217.318 193.251 216.033 195.197C214.749 197.143 213.209 199.151 211.68 201.311C210.151 203.472 208.333 205.641 206.483 207.95L205.073 209.7C204.567 210.272 204.067 210.851 203.551 211.435L200.409 215.007L199.6 215.923L198.73 216.816L196.983 218.644C195.807 219.861 194.645 221.121 193.388 222.347C190.824 224.752 188.293 227.347 185.436 229.781C184.026 231.014 182.628 232.311 181.134 233.532C179.639 234.754 178.122 235.986 176.58 237.236L175.421 238.179L174.218 239.082L171.819 240.89L169.35 242.729C168.526 243.346 167.666 243.876 166.804 244.509C165.08 245.686 163.363 246.904 161.583 248.073L156.122 251.514C148.45 256.168 140.477 260.344 132.253 264.018C116.348 271.037 99.6635 276.256 82.544 279.567L76.704 280.636L70.9821 281.472L68.178 281.874L65.4037 282.183L59.9943 282.746C58.2202 282.889 56.4737 282.953 54.757 283.097C53.0404 283.242 51.3632 283.322 49.6739 283.346L44.8243 283.448C44.0306 283.456 43.2465 283.494 42.4703 283.484L40.1815 283.433C37.155 283.357 34.2812 283.315 31.5927 283.113C28.9043 282.91 26.3231 282.799 23.9516 282.467C21.58 282.136 19.3653 281.944 17.3422 281.64C15.319 281.335 13.4876 280.961 11.8396 280.653C11.0167 280.492 10.2398 280.359 9.51771 280.198L7.49323 279.687C6.24373 279.365 5.19842 279.07 4.35615 278.81C2.67048 278.297 1.81447 277.905 1.86921 277.664C1.92395 277.424 2.88719 277.349 4.64853 277.411C5.53625 277.442 6.61997 277.508 7.89265 277.606L9.94319 277.79L12.2912 277.918C13.9457 278.016 15.7765 278.135 17.7838 278.277C19.7905 278.379 21.9796 278.423 24.318 278.522C26.6564 278.622 29.1698 278.58 31.8231 278.605C34.4764 278.63 37.3197 278.468 40.2104 278.408L42.4481 278.335C43.1736 278.304 43.9622 278.239 44.7275 278.186L49.4479 277.867C51.0524 277.79 52.6795 277.578 54.3421 277.413L59.4223 276.881L64.6501 276.157L67.3267 275.785L70.0343 275.315L75.5607 274.356L81.2031 273.178C97.7017 269.609 113.787 264.387 129.189 257.6C137.124 254.055 144.839 250.068 152.293 245.659L157.614 242.406C159.348 241.299 161.03 240.117 162.716 239.039C163.533 238.462 164.405 237.947 165.209 237.362C166.013 236.776 166.843 236.207 167.617 235.624L170.012 233.885L171.198 233.042L172.34 232.158L176.842 228.675C178.328 227.5 179.709 226.312 181.117 225.126C183.962 222.85 186.516 220.423 189.083 218.17C190.348 217.027 191.528 215.832 192.719 214.7L194.485 213.012L195.346 212.173L196.209 211.326L199.441 207.986L201.007 206.375L202.477 204.744C204.408 202.59 206.314 200.585 207.957 198.564C209.599 196.543 211.28 194.726 212.667 192.898C214.054 191.069 215.411 189.416 216.656 187.878C217.901 186.339 218.914 184.852 219.901 183.561C220.394 182.94 220.831 182.311 221.302 181.735C221.773 181.159 222.124 180.614 222.49 180.106C223.235 179.099 223.892 178.231 224.427 177.616C225.507 176.289 226.192 175.639 226.418 175.753Z" fill="#EBB762"/>
<path d="M226.131 191.516C222.254 194.611 219.044 198.397 216.685 202.655C216.353 203.264 216.229 203.954 216.331 204.627C216.432 205.3 216.754 205.921 217.251 206.404C217.747 206.886 218.393 207.205 219.096 207.314C219.8 207.423 220.525 207.318 221.17 207.013L221.248 206.975C218.06 212.025 215.218 217.261 212.741 222.653C212.391 223.409 212.292 224.245 212.457 225.048C212.622 225.851 213.044 226.581 213.664 227.141C214.284 227.7 215.074 228.06 215.924 228.173C216.775 228.286 217.646 228.145 218.419 227.771C232.345 221.006 243.311 209.694 249.281 195.935L226.131 191.516Z" fill="#EBB762"/>
<g opacity="0.3">
<path d="M226.309 197.435C225.609 197.932 225.017 198.556 224.566 199.27C224.348 199.629 224.24 200.037 224.257 200.447C224.274 200.856 224.413 201.249 224.659 201.577C225.479 202.484 227.198 202.23 227.947 203.177C228.696 204.123 227.917 205.66 227.087 206.707L224.461 210.03C223.822 210.841 223.143 211.922 223.642 212.787C224.141 213.652 225.677 213.636 226.787 213.273C229.354 212.4 231.68 210.946 233.565 209.036C235.451 207.126 236.839 204.818 237.612 202.31L226.309 197.435Z" fill="black"/>
</g>
<path d="M290.115 157.696L290.259 157.983C294.314 166.376 296.335 175.567 296.172 184.877C296.009 194.187 293.667 203.379 289.319 211.776L283.799 222.444L269.476 197.591L290.115 157.696Z" fill="#EBB762"/>
<path d="M290.116 157.694L290.018 157.893L289.722 158.474C289.459 158.985 289.081 159.754 288.598 160.686C287.608 162.602 286.168 165.426 284.368 168.96C280.745 175.985 275.631 185.97 269.607 197.649L269.632 197.502L282.694 220.151L283.953 222.375L283.63 222.392C284.735 220.265 285.821 218.169 286.887 216.104C287.945 214.034 289.045 212.011 289.988 209.986C291.851 206.107 293.299 202.063 294.311 197.916C295.232 194.168 295.779 190.351 295.945 186.516C296.075 184.715 295.995 182.981 295.981 181.317C295.967 179.654 295.814 178.053 295.581 176.551C295.004 171.765 293.841 167.071 292.115 162.564C291.557 160.956 290.964 159.773 290.627 158.941L290.089 157.684C290.089 157.684 290.145 157.774 290.259 157.987L290.689 158.908C291.05 159.73 291.672 160.91 292.219 162.537C293.988 167.033 295.181 171.727 295.772 176.516C296.018 178.027 296.07 179.634 296.204 181.3C296.224 182.971 296.307 184.733 296.186 186.522C296.036 190.371 295.498 194.204 294.581 197.967C293.572 202.138 292.124 206.208 290.259 210.112C289.312 212.157 288.208 214.166 287.157 216.237C286.106 218.308 285.037 220.404 283.906 222.526L283.748 222.833L283.577 222.536C283.18 221.845 282.743 221.095 282.318 220.311L269.272 197.651L269.235 197.578L269.248 197.497L284.232 168.75C286.062 165.254 287.508 162.478 288.511 160.565C289.002 159.627 289.386 158.907 289.648 158.403L290.053 157.857C290.069 157.801 290.09 157.747 290.116 157.694Z" fill="#263238"/>
<path d="M226.027 128.105L225.692 128.176C216.252 130.283 207.393 134.375 199.767 140.152C192.141 145.928 185.943 153.242 181.631 161.553L176.151 172.108L205.515 167.574L226.027 128.105Z" fill="#EBB762"/>
<path d="M226.026 128.104C226.026 128.104 226.016 128.164 225.939 128.284C225.861 128.403 225.777 128.605 225.66 128.835C225.404 129.335 225.031 130.06 224.58 130.993L220.392 139.111L205.684 167.63L205.67 167.717L205.585 167.706L178.819 171.853L176.219 172.252L175.873 172.308L176.032 172.001L179.228 165.777C180.289 163.734 181.303 161.705 182.39 159.762C184.494 156.012 186.987 152.469 189.832 149.187C192.401 146.223 195.26 143.499 198.371 141.053C199.795 139.876 201.292 138.867 202.694 137.865C204.096 136.863 205.522 136.015 206.924 135.274C211.26 132.809 215.885 130.848 220.695 129.433C222.381 128.881 223.701 128.623 224.636 128.394L225.667 128.151L226.029 128.09L224.654 128.458C223.758 128.713 222.413 128.988 220.739 129.555C215.958 131.028 211.364 133.024 207.05 135.504C205.662 136.254 204.3 137.186 202.847 138.105C201.394 139.025 199.972 140.106 198.56 141.292C195.478 143.739 192.646 146.46 190.102 149.416C187.287 152.677 184.818 156.193 182.731 159.911C181.629 161.818 180.629 163.884 179.57 165.92C178.511 167.956 177.443 170.047 176.373 172.15L176.185 171.898L178.785 171.499L205.554 167.379L205.424 167.471C211.454 155.949 216.603 146.124 220.218 139.162C222.043 135.68 223.497 132.916 224.499 131.009C224.994 130.068 225.381 129.339 225.646 128.834C225.773 128.59 225.875 128.405 225.949 128.265C225.971 128.209 225.997 128.155 226.026 128.104Z" fill="#263238"/>
<path d="M312.027 38.575C307.048 36.2846 291.465 44.4623 272.216 61.2509C253.267 77.7862 243.618 95.396 243.618 95.396L197.379 184.528L221.763 195.767L235.894 202.275L260.278 213.514L302.239 132.635C306.351 124.736 309.668 116.492 312.147 108.016C314.658 99.5225 316.455 90.8624 317.522 82.1184C320.323 57.6351 317.039 40.877 312.055 38.5789" fill="#F5F5F5"/>
<path d="M312.028 38.5734L312.245 38.6852L312.514 38.8316L312.85 39.0831C313.566 39.6933 314.158 40.4238 314.598 41.2394C315.823 43.3584 316.938 46.8179 317.652 51.3933C318.457 56.9816 318.766 62.6329 318.575 68.2871C318.498 71.6041 318.291 75.1496 317.932 78.914C317.573 82.6784 317.072 86.6494 316.327 90.7991C315.581 94.9489 314.621 99.2745 313.441 103.755C312.23 108.425 310.775 113.039 309.081 117.577C307.247 122.454 305.133 127.234 302.75 131.896C300.263 136.695 297.702 141.642 295.066 146.736C284.509 167.076 272.831 189.626 260.409 213.586L260.332 213.747L260.166 213.67L228.719 199.177L197.267 184.677L197.1 184.606L197.184 184.446C209.62 160.487 221.326 137.942 231.89 117.602C234.53 112.513 237.095 107.57 239.586 102.771C240.831 100.377 242.058 98.0159 243.268 95.6893C244.534 93.3841 245.948 91.2156 247.373 89.1102C252.684 81.3468 258.744 74.068 265.471 67.3712C271.046 61.9513 276.971 56.8715 283.212 52.1629C287.864 48.5805 292.786 45.3338 297.937 42.4504C302.18 40.1282 305.705 38.7621 308.256 38.3378C309.204 38.1529 310.177 38.1351 311.125 38.2855L311.539 38.3763L311.828 38.4844L312.049 38.5762L311.818 38.5035L311.534 38.4031L311.121 38.3122C310.168 38.1774 309.194 38.2065 308.246 38.398C305.741 38.8424 302.221 40.2229 297.976 42.5584C292.865 45.454 287.979 48.703 283.357 52.2786C277.148 57.0098 271.253 62.1073 265.707 67.5405C259.004 74.234 252.967 81.5066 247.676 89.2613C246.258 91.3677 244.816 93.5323 243.596 95.8232L239.921 102.906C237.435 107.705 234.873 112.652 232.238 117.745C221.68 138.086 210.036 160.647 197.571 184.609L197.489 184.372L228.913 198.875L260.359 213.374L260.109 213.456L294.807 146.618L302.502 131.794C304.879 127.137 306.987 122.363 308.816 117.493C310.597 112.794 312 108.172 313.191 103.714C314.381 99.2554 315.336 94.9221 316.074 90.7714C316.812 86.6207 317.346 82.6679 317.703 78.9102C318.061 75.1524 318.283 71.6088 318.366 68.2995C318.573 62.6544 318.285 57.0106 317.503 51.4277C316.838 46.859 315.723 43.3995 314.519 41.2834C314.089 40.4687 313.51 39.7358 312.809 39.1184L312.48 38.8612L312.218 38.7158L312.028 38.5734Z" fill="#263238"/>
<path d="M290.48 127.784C306.632 122.278 315.17 105.662 309.549 90.67C303.928 75.6782 286.277 67.9884 270.125 73.4942C253.973 79 245.435 95.6166 251.056 110.608C256.677 125.6 274.328 133.29 290.48 127.784Z" fill="white"/>
<path d="M306.221 90.4212C306.046 90.4143 305.875 90.3737 305.718 90.3018C305.562 90.23 305.423 90.1283 305.309 90.0031C305.196 89.8778 305.111 89.7315 305.059 89.573C305.007 89.4145 304.99 89.2471 305.008 89.0809C305.103 88.418 305.446 87.8062 305.973 87.3581C306.494 86.9117 306.958 86.4076 307.353 85.8568C307.657 85.3212 307.775 84.7097 307.689 84.1119C307.603 83.5142 307.318 82.9617 306.876 82.5356C307.236 82.4406 307.574 82.2775 307.869 82.0562C308.165 81.8348 308.411 81.5596 308.593 81.2472C308.776 80.9348 308.891 80.5915 308.932 80.238C308.973 79.8844 308.939 79.5279 308.832 79.1896C308.529 78.5888 308.168 78.0174 307.753 77.4829C307.553 77.154 307.387 76.807 307.258 76.4468C307.671 76.7733 308.152 77.0122 308.671 77.1481C309.097 77.2438 309.542 77.235 309.967 77.1225C310.392 77.01 310.782 76.7975 311.1 76.5046C311.411 76.2045 311.63 75.8288 311.73 75.4199C311.83 75.0111 311.809 74.5857 311.668 74.1917C311.519 73.8005 311.247 73.4646 310.887 73.2299C310.528 72.9952 310.1 72.8731 309.661 72.8802C308.805 72.9981 308.006 73.3696 307.377 73.942L306.749 74.4264C306.425 72.7609 306.174 71.085 304.917 69.972C303.778 68.9646 302.113 68.7371 300.758 68.03C299.778 67.4908 298.985 66.6887 298.026 66.1111C297.066 65.5335 295.797 65.2159 294.79 65.7377C294.193 66.0407 293.769 66.5942 293.159 66.8887C291.926 67.5102 290.28 66.9144 289.132 67.6712C288.202 68.2927 288.022 69.5322 287.32 70.3773C286.617 71.2224 285.282 71.6444 284.156 72.1019C283.03 72.5594 281.832 73.3575 281.731 74.5182C281.639 75.5361 282.443 76.484 282.336 77.5066C282.142 78.2338 281.807 78.922 281.348 79.5355C280.99 80.1734 280.85 81.1366 281.453 81.6105L288.211 87.1637C290.343 89.4471 292.553 91.7823 295.449 93.1122C298.344 94.4421 302.132 94.5268 304.601 92.4942C304.187 92.2809 303.877 91.9242 303.733 91.4964C304.203 91.5062 304.67 91.4146 305.101 91.2284C305.532 91.0422 305.915 90.7663 306.221 90.4212Z" fill="#263238"/>
<path d="M298.734 89.8266C300.388 88.2723 301.902 86.5865 303.259 84.7881C304.618 82.9784 305.493 80.8814 305.807 78.6849C305.861 78.3574 305.901 76.0318 305.558 75.9163C305.329 75.837 304.98 77.8877 304.777 77.9965C302.824 79.3536 301.336 81.2395 300.51 83.4054C299.668 85.4788 299.07 87.6324 298.727 89.8256" fill="#263238"/>
<path d="M282.88 103.708C288.608 106.546 293.565 99.471 293.565 99.471L302.766 82.2369C305.521 77.3262 304.853 71.7486 299.683 69.3358L299.193 69.1387C296.805 68.1862 294.113 68.1337 291.654 68.9917C289.195 69.8496 287.149 71.555 285.923 73.7681C283.554 78.0398 280.999 82.7793 279.956 85.1638C277.805 90.0956 282.561 92.89 282.561 92.89C282.561 92.89 282.016 94.0072 281.299 95.4228C279.688 98.6271 279.872 102.611 281.208 103.095L282.88 103.708Z" fill="#A97663"/>
<path d="M282.538 92.8365C284.919 93.783 287.545 94.0503 290.104 93.6066C290.104 93.6066 286.842 96.5759 281.907 94.0654L282.538 92.8365Z" fill="#896357"/>
<path d="M286.029 78.338C285.943 78.5204 285.936 78.7266 286.008 78.9116C286.081 79.0966 286.228 79.2456 286.417 79.326C286.506 79.3703 286.605 79.3969 286.706 79.4042C286.807 79.4115 286.91 79.3992 287.007 79.3683C287.104 79.3373 287.193 79.2882 287.271 79.2239C287.348 79.1595 287.412 79.0813 287.457 78.9937C287.543 78.8113 287.55 78.6051 287.478 78.4201C287.405 78.2351 287.258 78.0861 287.069 78.0057C286.98 77.9614 286.881 77.9348 286.78 77.9275C286.679 77.9203 286.576 77.9325 286.479 77.9634C286.382 77.9944 286.293 78.0435 286.215 78.1078C286.138 78.1722 286.074 78.2504 286.029 78.338Z" fill="#263238"/>
<path d="M285.945 76.2436C285.995 76.3751 286.732 76.1991 287.524 76.5154C288.315 76.8316 288.717 77.4477 288.821 77.3858C288.926 77.3239 288.86 77.1557 288.69 76.8761C288.454 76.5045 288.101 76.2143 287.682 76.0453C287.271 75.8816 286.816 75.8458 286.378 75.9428C286.078 76.054 285.919 76.1846 285.945 76.2436Z" fill="#263238"/>
<path d="M293.089 81.4923C293.005 81.6749 292.998 81.8804 293.071 82.0649C293.143 82.2494 293.289 82.3985 293.476 82.4802C293.566 82.5246 293.665 82.5512 293.766 82.5585C293.867 82.5657 293.969 82.5535 294.066 82.5226C294.163 82.4916 294.253 82.4425 294.331 82.3782C294.408 82.3138 294.471 82.2356 294.517 82.148C294.603 81.9665 294.611 81.7613 294.54 81.5766C294.469 81.3919 294.324 81.2426 294.136 81.161C294.046 81.1165 293.947 81.0897 293.845 81.0823C293.744 81.0749 293.641 81.087 293.543 81.1178C293.446 81.1487 293.355 81.1977 293.277 81.262C293.199 81.3263 293.135 81.4046 293.089 81.4923Z" fill="#263238"/>
<path d="M293.6 79.66C293.652 79.7848 294.387 79.6155 295.172 79.9308C295.956 80.2461 296.373 80.8573 296.469 80.8013C296.565 80.7452 296.507 80.5778 296.337 80.2983C296.106 79.9251 295.755 79.6344 295.336 79.4685C294.927 79.2976 294.469 79.2616 294.032 79.366C293.739 79.4366 293.574 79.601 293.6 79.66Z" fill="#263238"/>
<path d="M288.129 84.2781C287.769 83.9927 287.376 83.748 286.956 83.5491C286.764 83.4543 286.591 83.3347 286.615 83.1941C286.689 82.9873 286.827 82.8056 287.01 82.6728L288.256 81.4733C289.368 80.45 290.394 79.3441 291.322 78.1665C290.129 79.1034 289.014 80.1282 287.989 81.2312L286.756 82.4805C286.526 82.6629 286.37 82.9155 286.314 83.1941C286.311 83.2746 286.327 83.3543 286.362 83.4269C286.398 83.4995 286.45 83.563 286.516 83.6122C286.614 83.6821 286.719 83.7423 286.829 83.792C287.238 84.0063 287.675 84.1697 288.129 84.2781Z" fill="#263238"/>
<path d="M290.258 85.6941C290.131 85.6353 289.762 86.4613 288.762 86.7524C287.762 87.0435 286.893 86.5934 286.832 86.7023C286.77 86.8112 286.963 86.9481 287.347 87.111C287.845 87.3162 288.407 87.3465 288.933 87.1967C289.441 87.0522 289.873 86.7251 290.138 86.2849C290.322 85.9582 290.315 85.7433 290.258 85.6941Z" fill="#263238"/>
<path d="M294.998 76.631C294.958 76.8677 295.816 77.0889 296.697 77.5556C297.578 78.0222 298.214 78.5797 298.417 78.4416C298.621 78.3034 298.469 78.1305 298.257 77.8039C297.971 77.3943 297.584 77.0588 297.129 76.8261C296.68 76.5799 296.174 76.4417 295.653 76.4232C295.27 76.4261 295.016 76.5228 294.998 76.631Z" fill="#263238"/>
<path d="M287.396 73.8881C287.458 74.1183 288.073 74.1541 288.751 74.4132C289.429 74.6724 289.907 75.008 290.117 74.8775C290.326 74.7469 290.198 74.6047 290.032 74.3465C289.799 74.0158 289.463 73.7641 289.07 73.626C288.684 73.4771 288.257 73.45 287.849 73.5486C287.511 73.627 287.374 73.7604 287.396 73.8881Z" fill="#263238"/>
<path d="M300.834 85.7757C300.932 85.7891 304.8 86.1735 303.161 89.5263C301.522 92.8791 298.408 90.6548 298.446 90.557C298.484 90.4592 300.834 85.7757 300.834 85.7757Z" fill="#A97663"/>
<path d="M300.126 89.7206C300.126 89.7206 300.165 89.7876 300.244 89.8738C300.361 89.9918 300.519 90.0646 300.689 90.0788C301.11 90.1363 301.694 89.688 302.007 89.0999C302.156 88.8194 302.237 88.5116 302.244 88.1995C302.264 88.0819 302.253 87.962 302.213 87.8502C302.173 87.7384 302.105 87.638 302.015 87.5577C301.953 87.5113 301.876 87.4863 301.797 87.4867C301.718 87.487 301.641 87.5127 301.578 87.5597C301.486 87.6363 301.481 87.711 301.46 87.7081C301.439 87.7053 301.41 87.6191 301.496 87.4936C301.558 87.4227 301.642 87.3717 301.735 87.348C301.864 87.3176 302 87.3361 302.113 87.3997C302.241 87.4873 302.343 87.6057 302.408 87.7433C302.473 87.8809 302.499 88.0328 302.483 88.1842C302.489 88.5352 302.406 88.8837 302.241 89.2004C301.89 89.8384 301.228 90.3307 300.632 90.2493C300.527 90.2344 300.427 90.1971 300.34 90.1401C300.253 90.083 300.181 90.0077 300.129 89.9198C300.112 89.8077 300.126 89.7206 300.126 89.7206Z" fill="#896357"/>
<path d="M290.85 69.3694C290.446 68.8272 292.98 67.836 294.652 67.8313C297.167 67.8526 300.598 68.6987 302.241 70.062C304.211 71.7031 305.563 73.6506 305.708 76.1671C305.785 78.6988 305.157 81.2162 303.888 83.4633C303.561 84.1756 303.044 84.7958 302.388 85.2612C301.542 85.7765 300.393 85.8253 299.926 86.8521C299.766 87.2305 299.457 87.5358 299.066 87.7017C298.109 88.0647 297.651 87.1172 297.599 86.3557C297.492 84.7292 298.187 83.1506 298.864 81.6381C299.287 80.5392 299.894 79.5102 300.66 78.5911C301.105 78.117 301.638 77.7166 302.058 77.2253C302.282 76.9874 302.45 76.707 302.55 76.4035C302.651 76.0999 302.681 75.7803 302.64 75.4666C302.608 75.3298 302.56 75.1969 302.499 75.07C302.223 74.4571 301.78 73.9279 301.215 73.5362C300.651 73.1446 299.985 72.9045 299.286 72.8407C297.023 72.6412 293.232 72.1504 292.684 71.136C292.264 70.4779 291.997 69.74 291.9 68.971L290.85 69.3694Z" fill="#263238"/>
<path d="M302.25 69.5925C301.466 68.849 300.534 68.2637 299.507 67.8703C298.48 67.4769 297.378 67.2831 296.265 67.3003C295.673 67.2987 295.085 67.4116 294.536 67.6323C293.987 67.853 293.489 68.1769 293.071 68.5845C292.668 69.005 292.431 69.5452 292.401 70.1101C292.371 70.675 292.55 71.2285 292.907 71.6733L292.953 71.7418C294.205 72.8812 295.241 73.1129 296.951 73.278C298.372 73.4103 299.854 73.1709 301.272 73.3167C302.815 73.4745 304.265 74.0703 305.436 75.0276C304.895 72.9721 303.796 71.0979 302.25 69.5925Z" fill="#263238"/>
<path d="M307.115 75.8938C307.073 75.888 306.957 75.4567 306.573 74.8224C306.36 74.4564 306.105 74.1149 305.812 73.8042C305.457 73.4219 305.013 73.1241 304.515 72.9339C303.598 72.6312 302.608 72.5793 301.653 72.7841C300.905 72.9446 300.491 73.1718 300.469 73.1341C300.446 73.0964 300.562 73.05 300.752 72.9513C301.023 72.8085 301.311 72.6968 301.609 72.6187C302.607 72.3487 303.663 72.3797 304.632 72.7077C305.161 72.9129 305.629 73.2383 305.996 73.6563C306.296 73.9818 306.546 74.3471 306.738 74.7412C306.948 75.094 307.077 75.4869 307.115 75.8938Z" fill="#455A64"/>
<path d="M306.89 77.138C306.689 77.4491 306.435 77.7269 306.14 77.96C305.453 78.5544 304.666 79.0327 303.813 79.3738C302.959 79.7126 302.053 79.9107 301.134 79.9598C300.756 79.9997 300.375 79.9733 300.009 79.8817C301.281 79.8307 302.539 79.5833 303.735 79.1493C304.888 78.6398 305.953 77.961 306.89 77.138Z" fill="#455A64"/>
<path d="M308.02 78.2922C307.982 78.4277 307.922 78.5568 307.841 78.6747C307.641 79.007 307.414 79.3243 307.163 79.6236C306.32 80.608 305.242 81.3862 304.023 81.8913C302.802 82.3917 301.475 82.5966 300.162 82.4877C299.765 82.4677 299.371 82.4139 298.985 82.3268C298.842 82.3004 298.704 82.2536 298.576 82.1881C298.584 82.1409 299.189 82.2719 300.171 82.3441C301.452 82.4003 302.735 82.1765 303.922 81.6897C305.108 81.2029 306.168 80.466 307.019 79.5349C307.662 78.7951 307.98 78.2729 308.02 78.2922Z" fill="#455A64"/>
<path d="M298.444 67.4761C298.081 67.4665 297.72 67.4378 297.361 67.3901C295.625 67.2754 293.885 67.6861 292.387 68.5641C291.82 68.8949 291.498 69.1347 291.47 69.1308C291.704 68.8507 291.988 68.6128 292.309 68.4287C293.801 67.441 295.614 67.0132 297.395 67.2285C297.758 67.2538 298.112 67.3375 298.444 67.4761Z" fill="#455A64"/>
<path d="M311.583 74.0461C311.12 74.6734 310.488 75.1706 309.756 75.4839C309.024 75.7972 308.22 75.9146 307.43 75.8234C308.199 75.7118 308.955 75.5239 309.686 75.2627C310.359 74.9195 310.995 74.5118 311.583 74.0461Z" fill="#455A64"/>
<path d="M305.765 108.862C304.767 105.577 294.431 99.1339 294.431 99.1339C293.088 100.723 291.382 101.999 289.448 102.862C286.35 104.154 283.12 103.099 280.91 100.944C278.825 98.9016 280.205 95.6591 280.205 95.6591C280.205 95.6591 268.031 93.3882 264.186 94.7503C260.342 96.1125 257.463 101.251 257.463 101.251L251.442 110.225L254.993 117.353L256.712 119.517C256.712 119.517 261.207 125.485 270.847 128.477C279.843 131.271 288.502 128.604 288.502 128.604C293.696 127.695 298.637 124.478 303.473 119.779C303.484 119.801 306.92 112.713 305.765 108.862Z" fill="#455A64"/>
<path d="M258.111 95.7042C258.111 95.7042 261.556 92.6552 262.011 91.3066L264.378 84.0967C264.378 84.0967 264.098 83.209 262.848 84.0037C261.599 84.7985 261.554 86.6484 261.554 86.6484L260.377 88.0763L260.105 86.4981L261.352 81.532C261.352 81.532 262.335 77.9749 261.636 78.0848C260.938 78.1947 260.323 79.09 259.894 80.627C259.464 82.1641 258.939 84.1058 258.939 84.1058C258.939 84.1058 258.732 84.7007 258.644 83.5175C258.556 82.3343 259.886 78.1124 259.933 77.4887C259.98 76.8651 260.59 75.4074 259.714 75.1233C258.839 74.8391 258.444 76.8535 258.444 76.8535L256.394 83.0658C256.394 83.0658 256.752 80.3752 256.802 79.9027C256.853 79.4302 257.243 78.0452 257.3 77.2312C257.358 76.4172 257.112 75.8357 256.713 75.74C256.531 75.6728 256.328 75.6755 256.145 75.7474C255.963 75.8193 255.815 75.955 255.732 76.1263L254.537 81.6816C254.537 81.6816 254.103 84.266 253.997 84.3884C253.891 84.5109 253.508 83.034 253.508 83.034L253.629 81.1191C253.629 81.1191 254.199 78.5739 253.584 78.2295C252.969 77.8851 252.72 78.3442 252.72 78.3442L251.725 83.0023L251.343 88.614L251.724 94.3646L253.797 95.0592L258.111 95.7042Z" fill="#A97663"/>
<path d="M253.607 90.8076C254.006 90.5316 254.384 90.2287 254.738 89.9013C255.578 89.1436 256.678 88.7069 257.824 88.6766C258.378 88.681 258.911 88.8656 259.334 89.1999L259.473 89.3154L259.6 89.1605C260.147 88.4774 260.735 87.8896 261.081 87.4547C261.428 87.0199 261.632 86.7447 261.592 86.7255C261.346 86.8994 261.122 87.0999 260.923 87.3229C260.355 87.8523 259.815 88.4084 259.305 88.9892L259.571 88.9498C259.094 88.554 258.484 88.3318 257.847 88.3216C257.162 88.3015 256.48 88.4609 255.876 88.7824C255.398 89.0367 254.956 89.3492 254.561 89.7118C254.178 90.0211 253.855 90.3922 253.607 90.8076Z" fill="#896357"/>
<path d="M279.906 95.8274L282.125 93.4123L285.763 99.8283L284.82 102.363L286.337 100.01L295.448 96.5064L294.538 99.7819L289.983 103.936L284.669 105.233L281.216 103.419C281.216 103.419 278.519 102.032 278.606 101.816C278.692 101.601 279.906 95.8274 279.906 95.8274Z" fill="#455A64"/>
<path d="M282.985 102.206L283.035 104.472L284.662 105.127L286.473 103.706L286.411 101.726L284.486 100.914L282.985 102.206Z" fill="#EBB762"/>
<path d="M285.732 99.7956C285.482 100.134 285.189 100.442 284.86 100.713C284.274 101.257 283.436 102.014 282.46 102.868L282.25 103.052L282.171 102.794C282.033 102.336 281.885 101.85 281.695 101.357C281.236 99.8124 280.819 98.4038 280.547 97.3785C280.366 96.8333 280.241 96.2717 280.175 95.7017C280.455 96.2071 280.676 96.7411 280.833 97.2942C281.174 98.3013 281.621 99.7004 282.087 101.246L282.528 102.679L282.232 102.604C283.227 101.765 284.095 101.04 284.731 100.544C285.033 100.258 285.369 100.007 285.732 99.7956Z" fill="#263238"/>
<path d="M294.861 99.227C294.331 99.657 293.76 100.04 293.158 100.371C292.078 101.057 290.57 101.986 288.897 102.99L286.592 104.375L286.336 104.526L286.333 104.244C286.312 103.002 286.302 101.947 286.305 101.197C286.283 100.803 286.306 100.406 286.374 100.015C286.474 100.399 286.521 100.794 286.515 101.191C286.57 101.935 286.623 102.989 286.674 104.228L286.416 104.097L288.7 102.708C290.372 101.705 291.896 100.811 293.017 100.18C293.603 99.8124 294.22 99.4936 294.861 99.227Z" fill="#263238"/>
<path d="M309.485 122.095L311.185 117.453C310.393 115.696 309.367 114.047 308.132 112.546C306.87 110.834 305.019 109.603 302.894 109.062C300.109 108.459 297.212 109.515 294.626 110.744C292.039 111.973 289.459 113.425 286.607 113.698C285.515 113.866 284.403 113.655 283.474 113.102C282.134 112.186 281.849 110.314 282.355 108.8C282.977 107.31 283.913 105.955 285.106 104.82L283.349 104.019C281.96 105.372 280.705 106.843 279.598 108.415C278.681 109.817 278.259 111.458 278.397 113.091C278.606 114.296 279.151 115.42 279.974 116.344C280.798 117.269 281.871 117.96 283.08 118.346C285.523 119.091 288.175 118.997 290.584 118.081C292.766 117.329 294.833 116.097 297.141 115.888C298.725 115.791 300.294 116.153 301.642 116.928C302.991 117.703 304.055 118.854 304.697 120.229L309.485 122.095Z" fill="#EBB762"/>
<path d="M256.205 119.107C256.108 119.094 257.569 115.144 259.415 110.318C261.261 105.493 262.88 101.612 262.974 101.646C263.067 101.679 261.609 105.609 259.756 110.434C257.903 115.258 256.28 119.165 256.205 119.107Z" fill="#263238"/>
<path d="M250.448 93.9218L259.733 95.8798L255.825 116.62L255.467 118.035C255.467 118.035 249.088 108.836 249.566 102.179C249.668 100.763 249.54 99.6106 249.627 98.6173C249.996 94.9199 250.448 93.9218 250.448 93.9218Z" fill="#455A64"/>
<path d="M255.861 116.306C255.87 116.033 255.914 115.762 255.992 115.499C256.087 114.913 256.242 114.171 256.401 113.32C256.748 111.48 257.177 108.922 257.662 106.107C258.147 103.291 258.611 100.731 259.013 98.8919C259.21 97.9786 259.379 97.232 259.516 96.7263C259.565 96.4566 259.647 96.1933 259.761 95.9426C259.744 96.2145 259.7 96.4846 259.63 96.7492C259.535 97.3358 259.414 98.0824 259.274 98.9424C258.961 100.869 258.506 103.375 258.026 106.158C257.547 108.941 257.071 111.533 256.663 113.364C256.458 114.283 256.283 115.022 256.138 115.533C256.072 115.799 255.979 116.058 255.861 116.306Z" fill="#263238"/>
<path d="M251.469 91.0863C251.469 91.1571 251.457 91.2275 251.434 91.2952C251.408 91.4501 251.332 91.6465 251.262 91.8919C251.117 92.4164 250.853 93.2143 250.597 94.1854C249.46 99 249.581 103.987 250.949 108.706C252.312 113.358 254.872 117.595 258.399 121.034C260.392 122.952 262.656 124.595 265.129 125.917C267.592 127.254 270.251 128.24 273.024 128.843C275.598 129.435 278.251 129.687 280.91 129.591C283.317 129.525 285.712 129.179 288.041 128.561C289.097 128.294 290.138 127.976 291.162 127.609C292.139 127.24 293.065 126.829 293.937 126.438C294.81 126.047 295.612 125.599 296.317 125.137C297.021 124.675 297.751 124.272 298.359 123.824L300.062 122.562L301.395 121.4L301.961 120.906L302.428 120.439L303.149 119.704L303.606 119.256C303.655 119.201 303.71 119.151 303.768 119.106C303.768 119.106 303.757 119.173 303.631 119.28L303.207 119.746L302.503 120.511L302.054 120.994C301.877 121.149 301.689 121.323 301.493 121.503L300.169 122.7L298.512 123.99C297.901 124.451 297.185 124.856 296.463 125.336C295.742 125.816 294.878 126.195 294.078 126.671C293.278 127.147 292.276 127.493 291.29 127.875C290.26 128.263 289.208 128.595 288.141 128.871C280.305 130.962 271.972 130.023 264.964 126.259C262.452 124.915 260.153 123.241 258.133 121.287C254.57 117.805 251.996 113.509 250.646 108.795C249.29 104.026 249.218 98.9875 250.438 94.143C250.72 93.1478 251.006 92.3875 251.173 91.8659L251.373 91.273C251.398 91.2079 251.431 91.1454 251.469 91.0863Z" fill="#263238"/>
<path d="M308.41 112.333C308.495 111.992 308.612 111.658 308.76 111.336C309.023 110.689 309.346 109.771 309.694 108.616C310.587 105.587 310.985 102.449 310.872 99.318C310.798 97.5981 310.58 95.8891 310.221 94.2074C309.906 92.8372 309.498 91.4895 309.001 90.1729C308.805 89.6062 308.576 89.1101 308.387 88.6741C308.197 88.2381 308.026 87.8593 307.864 87.5569C307.697 87.2478 307.554 86.9266 307.436 86.5962C307.65 86.878 307.838 87.1781 307.995 87.493C308.205 87.8481 308.395 88.214 308.564 88.5892C308.775 89.0214 309.019 89.5127 309.241 90.0489C309.779 91.3631 310.215 92.7154 310.544 94.0949C310.931 95.7938 311.164 97.5241 311.242 99.2665C311.357 102.434 310.918 105.606 309.943 108.651C309.651 109.569 309.3 110.47 308.893 111.348C308.762 111.689 308.601 112.019 308.41 112.333Z" fill="#263238"/>
<path d="M284.337 71.6935C283.989 71.7198 283.64 71.7114 283.295 71.6683C282.964 71.6229 282.581 71.6257 282.077 71.6189C281.573 71.6121 281.059 71.5832 280.463 71.6121C279.063 71.6351 277.664 71.7436 276.276 71.9369C274.578 72.1863 272.901 72.5571 271.258 73.0462C269.622 73.555 268.026 74.177 266.481 74.9073C265.225 75.5174 264.01 76.2025 262.842 76.9585C262.328 77.2682 261.9 77.5895 261.509 77.8539C261.119 78.1183 260.795 78.3711 260.538 78.5708C260.284 78.7865 260.01 78.9802 259.72 79.1498C259.95 78.8928 260.204 78.657 260.48 78.4454C260.726 78.2234 261.037 77.962 261.416 77.6754C261.796 77.3888 262.241 77.0559 262.722 76.7279C263.884 75.9382 265.099 75.2251 266.361 74.5936C269.457 73.0563 272.8 72.0389 276.241 71.5866C277.645 71.4067 279.059 71.3233 280.473 71.337C281.081 71.3236 281.62 71.3767 282.1 71.3941C282.581 71.4115 282.984 71.4598 283.322 71.5062C283.665 71.5429 284.005 71.6056 284.337 71.6935Z" fill="#263238"/>
<path d="M271.486 128.691C271.389 128.677 272.968 125.429 274.995 121.498C277.022 117.566 278.742 114.413 278.835 114.453C278.927 114.493 277.353 117.714 275.326 121.646C273.299 125.577 271.572 128.73 271.486 128.691Z" fill="#263238"/>
<path d="M312.501 69.2225C312.501 69.2225 312.489 69.2904 312.468 69.4193C312.386 69.6024 312.27 69.7701 312.125 69.9136C311.859 70.1871 311.525 70.3911 311.156 70.5058C310.786 70.6204 310.393 70.6418 310.016 70.5678C309.506 70.4297 309.051 70.1527 308.705 69.7701C308.356 69.3641 307.882 69.0755 307.348 68.9453C306.75 68.8604 306.136 68.9717 305.606 69.2612C305.019 69.5934 304.47 69.9832 303.967 70.4243C302.933 71.2773 301.767 71.9699 300.512 72.4761C299.476 72.8809 298.363 73.0646 297.253 73.014C296.507 72.9751 295.779 72.7973 295.109 72.4906C294.867 72.3882 294.646 72.2451 294.457 72.068C295.338 72.4821 296.301 72.7183 297.287 72.762C298.357 72.7798 299.422 72.5782 300.412 72.1708C301.623 71.6621 302.749 70.9814 303.753 70.1519C304.279 69.7107 304.852 69.3241 305.462 68.9986C306.068 68.6765 306.768 68.5596 307.445 68.6671C308.037 68.8185 308.561 69.1454 308.942 69.6015C309.246 69.9575 309.65 70.2222 310.107 70.3652C310.443 70.4236 310.79 70.4039 311.119 70.3078C311.447 70.2117 311.749 70.042 311.998 69.8128C312.186 69.6326 312.354 69.4348 312.501 69.2225Z" fill="#263238"/>
<path d="M311.66 74.155C311.66 74.155 311.829 74.1781 312.098 74.2906C312.489 74.4523 312.851 74.6713 313.17 74.94C313.422 75.1467 313.614 75.4116 313.729 75.7102C313.843 76.0088 313.877 76.3314 313.826 76.6484C313.706 77.0199 313.502 77.3632 313.229 77.6543C312.956 77.9454 312.622 78.1773 312.248 78.3338C311.53 78.6732 310.726 78.8032 309.939 78.707C309.3 78.6205 308.696 78.3817 308.184 78.0125C307.845 77.7686 307.557 77.4679 307.332 77.1246C307.179 76.8764 307.133 76.7254 307.149 76.7139C307.499 77.1221 307.899 77.4889 308.341 77.8066C308.833 78.1188 309.396 78.3161 309.986 78.3828C310.708 78.4424 311.436 78.3029 312.084 77.9807C312.409 77.8452 312.703 77.6474 312.946 77.3997C313.19 77.1521 313.378 76.8599 313.499 76.5416C313.542 76.2767 313.519 76.0067 313.429 75.7546C313.34 75.5025 313.188 75.2758 312.986 75.0939C312.697 74.8242 312.377 74.5864 312.032 74.3849C311.785 74.2685 311.65 74.1743 311.66 74.155Z" fill="#263238"/>
<path d="M267.771 198.585C267.756 198.68 253.565 192.305 236.147 184.367C218.728 176.429 204.612 169.91 204.684 169.823C204.757 169.736 218.891 176.104 236.316 184.043C253.742 191.982 267.819 198.474 267.771 198.585Z" fill="#263238"/>
<path d="M266.087 201.133C266.071 201.228 251.879 194.859 234.461 186.921C217.042 178.983 202.976 172.472 202.991 172.377C203.007 172.281 217.192 178.65 234.616 186.595C252.041 194.541 266.144 201.051 266.087 201.133Z" fill="#263238"/>
<path d="M264.678 203.994C264.663 204.082 250.472 197.713 233.053 189.775C215.635 181.837 201.518 175.318 201.591 175.231C201.663 175.144 215.791 181.504 233.216 189.45C250.64 197.396 264.722 203.902 264.678 203.994Z" fill="#263238"/>
<path d="M263.256 206.845C263.24 206.94 249.05 200.564 231.631 192.626C214.213 184.688 200.097 178.169 200.169 178.082C200.241 177.995 214.375 184.363 231.801 192.302C249.226 200.241 263.3 206.753 263.256 206.845Z" fill="#263238"/>
<path d="M261.813 209.693C261.762 209.783 247.605 203.419 230.188 195.474C212.77 187.53 198.653 181.018 198.724 180.937C198.796 180.857 212.955 187.201 230.379 195.153C247.802 203.106 261.885 209.606 261.813 209.693Z" fill="#263238"/>
<path d="M258.065 143.09C258.037 143.243 257.988 143.393 257.92 143.535C257.827 143.836 257.618 144.238 257.372 144.779C256.874 145.845 256.127 147.341 255.167 149.26C253.26 153.024 250.564 158.196 247.564 163.867C244.564 169.538 241.793 174.693 239.782 178.395C238.768 180.217 237.972 181.707 237.382 182.774C237.108 183.263 236.879 183.655 236.708 183.96C236.639 184.102 236.554 184.237 236.456 184.362C236.502 184.21 236.564 184.063 236.643 183.923L237.256 182.716C237.814 181.631 238.598 180.125 239.551 178.288L247.234 163.712C250.233 158.048 252.95 152.879 254.929 149.152C255.896 147.317 256.681 145.811 257.244 144.734C257.502 144.209 257.733 143.803 257.851 143.525C257.914 143.377 257.985 143.231 258.065 143.09Z" fill="#E0E0E0"/>
<path d="M284.926 104.956C284.91 105.051 284.434 104.964 283.91 104.767C283.387 104.57 282.993 104.336 283.03 104.243C283.067 104.151 283.522 104.235 284.053 104.433C284.583 104.631 284.963 104.864 284.926 104.956Z" fill="#263238"/>
<path d="M289.748 157.802C289.698 157.885 275.556 151.441 258.156 143.403C240.755 135.365 226.652 128.774 226.728 128.666C226.803 128.559 240.914 135.019 258.321 143.058C275.729 151.097 289.792 157.711 289.748 157.802Z" fill="#EBEBEB"/>
<path d="M248.077 174.755C248.241 174.68 248.422 174.65 248.602 174.668C249.102 174.688 249.578 174.867 249.954 175.176C250.245 175.4 250.467 175.695 250.597 176.031C250.728 176.366 250.762 176.73 250.697 177.086C250.63 177.53 250.421 177.946 250.099 178.277C249.776 178.607 249.356 178.837 248.896 178.933C248.437 179.03 247.959 178.989 247.529 178.817C247.099 178.644 246.738 178.348 246.495 177.969C246.285 177.666 246.165 177.314 246.148 176.949C246.13 176.584 246.217 176.219 246.398 175.893C246.613 175.463 246.973 175.112 247.42 174.899C247.576 174.805 247.756 174.758 247.939 174.763C247.939 174.763 247.76 174.842 247.493 175.019C247.104 175.251 246.796 175.591 246.611 175.991C246.475 176.275 246.418 176.586 246.444 176.894C246.47 177.202 246.58 177.498 246.762 177.751C246.971 178.07 247.279 178.318 247.644 178.463C248.009 178.608 248.414 178.642 248.804 178.56C249.194 178.479 249.55 178.286 249.826 178.008C250.101 177.729 250.282 177.379 250.344 177.003C250.407 176.698 250.387 176.385 250.285 176.092C250.183 175.8 250.003 175.539 249.762 175.336C249.437 175.042 249.027 174.85 248.582 174.783C248.242 174.757 248.071 174.788 248.077 174.755Z" fill="#E0E0E0"/>
<path d="M257.271 157.802C257.435 157.725 257.617 157.695 257.796 157.716C258.296 157.737 258.771 157.916 259.148 158.224C259.438 158.449 259.658 158.744 259.788 159.079C259.917 159.414 259.95 159.778 259.885 160.132C259.817 160.577 259.608 160.993 259.286 161.323C258.964 161.654 258.544 161.883 258.084 161.98C257.624 162.077 257.147 162.036 256.717 161.863C256.287 161.691 255.926 161.395 255.683 161.016C255.472 160.713 255.352 160.361 255.335 159.996C255.318 159.63 255.404 159.266 255.585 158.94C255.801 158.531 256.147 158.195 256.573 157.982C256.729 157.892 256.909 157.847 257.09 157.853C257.09 157.853 256.919 157.933 256.646 158.102C256.257 158.339 255.95 158.68 255.763 159.081C255.624 159.364 255.564 159.674 255.589 159.983C255.614 160.291 255.724 160.587 255.906 160.84C256.131 161.138 256.438 161.371 256.794 161.513C257.151 161.655 257.542 161.701 257.927 161.646C258.311 161.549 258.66 161.351 258.933 161.074C259.206 160.797 259.392 160.453 259.469 160.083C259.533 159.779 259.514 159.467 259.413 159.176C259.312 158.885 259.132 158.625 258.892 158.423C258.564 158.13 258.152 157.936 257.707 157.862C257.464 157.808 257.273 157.837 257.271 157.802Z" fill="#E0E0E0"/>
<path d="M251.831 127.528C251.995 127.452 252.177 127.423 252.356 127.441C252.856 127.461 253.332 127.64 253.708 127.949C253.999 128.173 254.221 128.468 254.351 128.804C254.482 129.139 254.516 129.503 254.451 129.859C254.384 130.303 254.175 130.719 253.853 131.049C253.53 131.38 253.111 131.61 252.651 131.706C252.191 131.803 251.713 131.762 251.283 131.59C250.853 131.417 250.492 131.121 250.249 130.742C250.039 130.439 249.919 130.087 249.902 129.722C249.885 129.357 249.971 128.992 250.152 128.666C250.367 128.236 250.727 127.885 251.174 127.672C251.33 127.578 251.511 127.531 251.693 127.536C251.693 127.536 251.521 127.616 251.249 127.785C250.86 128.022 250.553 128.363 250.366 128.764C250.229 129.048 250.172 129.359 250.198 129.667C250.224 129.975 250.334 130.27 250.516 130.524C250.725 130.843 251.033 131.091 251.399 131.236C251.764 131.381 252.168 131.414 252.558 131.333C252.948 131.252 253.304 131.059 253.58 130.781C253.855 130.502 254.036 130.152 254.098 129.776C254.162 129.471 254.141 129.157 254.039 128.865C253.937 128.573 253.757 128.312 253.516 128.108C253.191 127.815 252.781 127.623 252.337 127.555C252.052 127.537 251.832 127.562 251.831 127.528Z" fill="#E0E0E0"/>
<path d="M252.857 113.945C252.948 113.958 250.479 118.874 247.355 124.863C244.231 130.852 241.611 135.693 241.522 135.633C241.432 135.573 243.893 130.703 247.025 124.708C250.157 118.714 252.771 113.906 252.857 113.945Z" fill="#EBEBEB"/>
<g opacity="0.3">
<path d="M206.19 166.654C206.19 166.654 220.165 141.015 226.026 128.219C220.342 133.101 213.912 138.718 209.988 144.999C205.995 151.582 204.64 159.304 206.19 166.654Z" fill="black"/>
</g>
<path d="M205.395 239.122C204.452 239.196 203.571 239.619 202.941 240.301C202.311 240.983 201.982 241.868 202.026 242.767C202.07 243.667 202.483 244.507 203.176 245.109C203.868 245.71 204.786 246.025 205.73 245.984C206.675 245.944 207.572 245.552 208.227 244.892C208.883 244.233 209.245 243.359 209.236 242.458C209.228 241.557 208.848 240.702 208.18 240.076C207.512 239.45 206.608 239.103 205.663 239.11" fill="#EBB762"/>
</svg>
