<svg width="273" height="312" viewBox="0 0 273 312" fill="none" xmlns="http://www.w3.org/2000/svg">
<path d="M252.768 102.709L252.772 103.78C252.766 104.032 252.836 104.285 252.974 104.517C253.112 104.749 253.314 104.952 253.562 105.108L254.601 105.789L253.313 105.754C253.044 105.742 252.78 105.781 252.54 105.87C252.301 105.959 252.093 106.095 251.932 106.266L251.117 107.134L251.049 105.925C251.035 105.701 250.963 105.479 250.837 105.274C250.711 105.07 250.534 104.889 250.319 104.745L249.284 104.054L250.561 104.118C250.82 104.128 251.075 104.09 251.307 104.007C251.539 103.924 251.743 103.797 251.904 103.636L252.768 102.709Z" fill="#EBB762"/>
<path d="M230.454 45.5673L230.469 46.6422C230.459 46.8941 230.526 47.1487 230.664 47.3813C230.803 47.6138 231.008 47.8166 231.259 47.9699L232.298 48.6513L231.01 48.6162C230.742 48.6059 230.478 48.6466 230.239 48.7352C230 48.8239 229.792 48.9581 229.629 49.1282L228.813 49.996L228.754 48.7997C228.741 48.5732 228.668 48.3484 228.54 48.142C228.412 47.9355 228.233 47.7526 228.016 47.6067L226.981 46.9158L228.257 46.9795C228.515 46.9919 228.769 46.956 229.001 46.8743C229.233 46.7927 229.436 46.6674 229.597 46.5074L230.454 45.5673Z" fill="#EBB762"/>
<path d="M25.7779 192.434L25.7818 193.505C25.7715 193.757 25.8387 194.011 25.9771 194.244C26.1154 194.477 26.3203 194.679 26.5717 194.833L27.6104 195.514L26.3229 195.479C26.0544 195.469 25.7909 195.509 25.5519 195.598C25.3128 195.687 25.1043 195.821 24.9417 195.991L24.1376 196.863L24.0663 195.662C24.0534 195.436 23.9804 195.211 23.8527 195.005C23.725 194.798 23.5459 194.615 23.3286 194.47L22.2936 193.779L23.5702 193.842C23.8309 193.854 24.0874 193.817 24.3215 193.734C24.5556 193.652 24.7617 193.526 24.9251 193.364L25.7779 192.434Z" fill="#EBB762"/>
<path d="M170.072 205.884L170.087 206.959C170.077 207.211 170.144 207.466 170.282 207.698C170.421 207.931 170.625 208.133 170.877 208.287L171.916 208.968L170.628 208.933C170.36 208.923 170.096 208.964 169.857 209.052C169.618 209.141 169.409 209.275 169.247 209.445L168.431 210.313L168.371 209.117C168.359 208.89 168.286 208.665 168.158 208.459C168.03 208.252 167.851 208.069 167.634 207.924L166.599 207.233L167.875 207.296C168.133 207.309 168.387 207.273 168.619 207.191C168.851 207.11 169.054 206.984 169.215 206.824L170.072 205.884Z" fill="#EBB762"/>
<path d="M256.175 60.9173L256.153 65.4331C256.135 66.4295 256.407 67.432 256.945 68.3533C257.484 69.2745 258.273 70.0866 259.243 70.7186L263.671 73.5755L258.203 73.3517C257.097 73.304 256.01 73.4696 255.026 73.8358C254.042 74.2021 253.187 74.7593 252.525 75.465L249.204 79.0216L248.895 74.013C248.844 73.091 248.546 72.1758 248.025 71.3356C247.504 70.4954 246.773 69.7518 245.886 69.1601L241.665 66.3067L246.784 66.5236C247.846 66.5682 248.889 66.4164 249.842 66.0789C250.794 65.7414 251.632 65.2264 252.297 64.5701L256.175 60.9173Z" fill="#EBB762"/>
<path d="M55.9791 251.136L55.942 255.657C55.9357 256.649 56.2164 257.644 56.7599 258.557C57.3034 259.471 58.0933 260.274 59.0616 260.899L63.4783 263.752L58.0254 263.523C56.9176 263.475 55.8297 263.642 54.8449 264.01C53.8601 264.378 53.0044 264.937 52.3432 265.645L49.0225 269.202L48.738 264.265C48.6894 263.344 48.3949 262.428 47.8766 261.587C47.3582 260.745 46.6293 260 45.7441 259.407L41.5117 256.582L46.6312 256.799C47.6945 256.845 48.7403 256.695 49.6948 256.358C50.6493 256.021 51.4894 255.506 52.1558 254.849L55.9791 251.136Z" fill="#EBB762"/>
<path d="M107.746 52.5014L107.73 54.3684C107.73 54.7777 107.847 55.188 108.071 55.5647C108.295 55.9414 108.62 56.2734 109.018 56.5327L110.843 57.7062L108.589 57.6124C108.132 57.5958 107.684 57.6665 107.278 57.8194C106.872 57.9723 106.519 58.2033 106.245 58.4951L104.873 59.9625L104.76 57.9248C104.737 57.5433 104.614 57.1649 104.399 56.8171C104.184 56.4693 103.883 56.1609 103.518 55.9143L101.769 54.7444L103.904 54.8422C104.343 54.8594 104.773 54.796 105.166 54.6564C105.559 54.5168 105.905 54.3043 106.18 54.0338L107.746 52.5014Z" fill="#EBB762"/>
<path d="M92.4167 254.185L92.4005 256.052C92.3995 256.461 92.5165 256.87 92.7414 257.245C92.9664 257.621 93.2925 257.951 93.6918 258.207L95.5134 259.39L93.2246 259.285C92.7671 259.267 92.3182 259.337 91.912 259.49C91.5059 259.643 91.1532 259.875 90.8808 260.168L89.509 261.635L89.3994 259.588C89.3759 259.207 89.2518 258.83 89.0361 258.484C88.8204 258.138 88.5187 257.831 88.153 257.587L86.4044 256.417L88.5398 256.515C88.978 256.532 89.4086 256.469 89.8017 256.329C90.1948 256.189 90.5409 255.977 90.816 255.706L92.4167 254.185Z" fill="#EBB762"/>
</svg>
