<svg width="24" height="25" viewBox="0 0 24 25" fill="none" xmlns="http://www.w3.org/2000/svg">
<path d="M24.0007 11.6573C24.0007 12.2209 24.0007 12.7846 24.0007 13.342C23.9632 13.6175 23.9319 13.8993 23.8943 14.1749C23.575 16.3543 22.7485 18.3145 21.3586 20.018C19.4803 22.3289 17.076 23.7631 14.1396 24.3079C13.7138 24.3893 13.2818 24.4332 12.8498 24.4958C12.2863 24.4958 11.7228 24.4958 11.1656 24.4958C11.0967 24.4833 11.0341 24.4582 10.9652 24.452C10.4769 24.3831 9.98852 24.3392 9.51268 24.239C6.6639 23.619 4.32227 22.1724 2.53787 19.8677C0.396592 17.0996 -0.379778 13.9557 0.171195 10.5112C0.603207 7.83081 1.84289 5.55745 3.84017 3.72249C6.50738 1.26751 9.67547 0.227909 13.2756 0.566094C15.3417 0.760237 17.2326 1.48045 18.9168 2.69541C21.5777 4.61179 23.2244 7.17949 23.8129 10.411C23.8943 10.8244 23.9444 11.244 24.0007 11.6573ZM16.8381 21.377C16.7755 21.2705 16.7066 21.1641 16.6628 21.0513C16.4311 20.4564 16.1494 19.8802 15.9929 19.2665C15.6422 17.8949 16.0868 16.8052 17.2701 16.0287C17.8086 15.6779 18.3908 15.3836 18.9669 15.0893C20.05 14.5319 21.0706 13.8931 21.8595 12.9412C22.0598 12.6969 22.1788 12.4589 22.1287 12.1395C22.0849 11.8514 22.0786 11.5634 22.0473 11.2753C21.8156 9.31506 21.0643 7.5803 19.8184 6.05847C19.7808 6.01463 19.7745 5.94574 19.7495 5.88937C19.0983 7.69303 18.1091 8.68253 16.7191 9.65325C16.3623 9.90376 15.9929 10.1417 15.6422 10.3985C15.2165 10.7054 15.2165 10.7367 15.4982 11.1751C15.7487 11.5696 16.0242 11.9517 16.2496 12.3587C16.5063 12.8159 16.6002 13.3107 16.4687 13.8305C16.2496 14.7135 15.6485 15.2396 14.8283 15.5402C13.5323 16.0224 12.3114 15.7907 11.1468 15.1206C10.1075 14.5194 9.28102 13.6864 8.56726 12.7345C7.62184 11.4757 6.87678 10.1167 6.5512 8.55728C6.47607 8.18152 6.48233 7.78697 6.36337 7.43C6.06284 6.55322 5.34908 6.06473 4.57271 5.66392C1.32949 9.07082 0.803561 14.8388 4.21583 18.9533C7.6281 23.0804 13.1754 23.4813 16.8381 21.377ZM6.05032 4.3237C6.19432 4.42391 6.33207 4.51785 6.46355 4.61805C7.45906 5.35705 8.15403 6.29645 8.3356 7.55525C8.38569 7.89343 8.39821 8.24414 8.49213 8.5698C9.00554 10.2733 9.95722 11.7074 11.272 12.9036C11.8105 13.3921 12.4178 13.7741 13.1503 13.8931C13.5824 13.962 13.9893 13.8931 14.3713 13.6864C14.6593 13.5298 14.6906 13.4171 14.5278 13.1416C14.4213 12.9537 14.2836 12.7783 14.1709 12.5904C13.9705 12.2585 13.7389 11.9329 13.5824 11.5822C13.2317 10.7868 13.3444 10.0353 13.9518 9.39648C14.1959 9.13971 14.4902 8.92051 14.7782 8.70758C15.2228 8.38192 15.6986 8.08758 16.1369 7.75565C17.0886 7.04797 17.746 6.12736 17.9776 4.94371C18.1028 4.29239 18.1655 4.44896 17.6395 4.10451C15.204 2.495 12.5493 2.01904 9.70677 2.65157C8.37943 2.93965 7.16479 3.50956 6.05032 4.3237ZM21.584 15.7844C20.7763 16.2228 19.9874 16.6487 19.2048 17.0808C18.8667 17.2687 18.5286 17.4628 18.1968 17.6695C17.8774 17.8699 17.7334 18.1642 17.771 18.54C17.8274 19.1913 18.0966 19.7612 18.4159 20.3374C19.8998 19.0974 20.9579 17.5881 21.584 15.7844Z" fill="#9BE065"/>
</svg>
