<svg width="27" height="27" viewBox="0 0 27 27" fill="none" xmlns="http://www.w3.org/2000/svg">
<path d="M9.33984 16.4123C9.33984 18.0248 10.5773 19.3248 12.1148 19.3248H15.2523C16.5898 19.3248 17.6773 18.1873 17.6773 16.7873C17.6773 15.2623 17.0148 14.7248 16.0273 14.3748L10.9898 12.6248C10.0023 12.2748 9.33984 11.7373 9.33984 10.2123C9.33984 8.8123 10.4273 7.6748 11.7648 7.6748H14.9023C16.4398 7.6748 17.6773 8.9748 17.6773 10.5873" stroke="#FFC56F" stroke-width="2" stroke-linecap="round" stroke-linejoin="round"/>
<path d="M13.5 6V21" stroke="#FFC56F" stroke-width="2" stroke-linecap="round" stroke-linejoin="round"/>
<path d="M13.5 26C20.4036 26 26 20.4036 26 13.5C26 6.59644 20.4036 1 13.5 1C6.59644 1 1 6.59644 1 13.5C1 20.4036 6.59644 26 13.5 26Z" stroke="#FFC56F" stroke-width="2" stroke-linecap="round" stroke-linejoin="round"/>
</svg>
