<svg width="38" height="38" viewBox="0 0 38 38" fill="none" xmlns="http://www.w3.org/2000/svg">
<path fill-rule="evenodd" clip-rule="evenodd" d="M19 32.4583C26.87 32.4583 33.25 25.87 33.25 21.375C33.25 16.8799 26.87 10.2916 19 10.2916C11.13 10.2916 4.75 16.8845 4.75 21.375C4.75 25.8655 11.13 32.4583 19 32.4583Z" stroke="#333333" stroke-width="2" stroke-linejoin="round"/>
<path d="M19 26.125C21.6233 26.125 23.75 23.9983 23.75 21.375C23.75 18.7517 21.6233 16.625 19 16.625C16.3767 16.625 14.25 18.7517 14.25 21.375C14.25 23.9983 16.3767 26.125 19 26.125Z" stroke="#333333" stroke-width="2" stroke-linejoin="round"/>
<path d="M10.5004 8.91895L12.5544 11.7849" stroke="#333333" stroke-width="2" stroke-linecap="round"/>
<path d="M28.2031 9.27075L26.1491 12.1368" stroke="#333333" stroke-width="2" stroke-linecap="round"/>
<path d="M19.007 5.54163V10.2916" stroke="#333333" stroke-width="2" stroke-linecap="round"/>
</svg>
