<svg width="113" height="16" viewBox="0 0 113 16" fill="none" xmlns="http://www.w3.org/2000/svg">
<path fill-rule="evenodd" clip-rule="evenodd" d="M52.8854 2.02734C49.9463 2.56359 47.048 3.18919 44.1173 3.82559C36.0167 5.58464 17.4107 9.82349 6.88706 12.221C4.90935 12.6716 3.21709 13.0571 1.93365 13.3489C1.20509 13.5146 0.383198 13.3059 0.0979104 12.8829C-0.187377 12.4598 0.171968 11.9826 0.900531 11.8169C2.179 11.5262 3.86664 11.1417 5.8403 10.6921C16.3583 8.29585 34.9995 4.04896 43.1249 2.28455C46.1409 1.62961 49.2021 0.968483 52.3251 0.405306C52.4965 0.374403 52.6705 0.338053 52.8815 0.294002C52.9201 0.285943 52.9599 0.277626 53.0012 0.269037C53.2515 0.216957 53.5475 0.156579 53.8559 0.10763C54.4608 0.0116277 55.2803 -0.0692237 56.1437 0.0913601C56.91 0.233891 57.0877 0.632393 57.1186 0.771315C57.1497 0.911279 57.1098 1.02124 57.0985 1.05211C57.0694 1.13146 57.0253 1.19301 57.0128 1.21057L57.0123 1.21117C56.9774 1.26001 56.9368 1.3059 56.9105 1.33489C56.8511 1.40054 56.769 1.48438 56.6762 1.57666C56.487 1.76486 56.2133 2.02756 55.8859 2.33731C55.2292 2.95855 54.3365 3.78753 53.4233 4.62941C51.6049 6.30579 49.6726 8.06329 49.3565 8.33454C49.0871 8.56567 48.6778 8.87616 48.2383 9.20947C48.1412 9.28309 48.0427 9.35782 47.9439 9.43306C47.3775 9.86425 46.7586 10.3438 46.1977 10.8296C45.632 11.3195 45.1565 11.7895 44.8568 12.2C44.6863 12.4334 44.6009 12.6101 44.5636 12.7378C44.7238 12.745 44.9373 12.7469 45.2116 12.7382C46.2321 12.7056 47.6319 12.5434 49.1277 12.3205C51.4937 11.9678 53.7848 11.5156 54.8995 11.2956C55.2035 11.2356 55.42 11.1929 55.5267 11.1741C65.4457 9.4319 75.3884 7.73321 85.7457 6.7456C86.1534 6.70673 86.7186 6.63979 87.3958 6.55959C89.5718 6.3019 92.9043 5.90724 95.8834 5.86635C97.847 5.8394 99.9112 5.95554 101.539 6.44664C102.377 6.69937 103.122 7.05833 103.655 7.5546C104.189 8.0516 104.46 8.63878 104.476 9.30107C104.481 9.5041 104.415 9.74669 104.348 9.95805C104.275 10.1867 104.175 10.4544 104.069 10.7341C104.046 10.7931 104.023 10.8529 104 10.9134C103.8 11.4373 103.58 12.0111 103.419 12.5688C103.235 13.2043 103.151 13.7423 103.216 14.1128C103.233 14.2104 103.255 14.2761 103.275 14.3187C104.223 14.4083 105.453 14.3256 106.888 14.1473C107.575 14.0618 108.264 13.9608 108.956 13.8594L109.14 13.8325C109.879 13.7243 110.63 13.6157 111.322 13.5404C112.091 13.4567 112.831 13.7508 112.975 14.1974C113.12 14.6439 112.613 15.0738 111.844 15.1575C111.251 15.222 110.582 15.318 109.832 15.4278C109.77 15.437 109.707 15.4462 109.643 15.4555C108.96 15.5557 108.222 15.664 107.481 15.7561C105.901 15.9524 104.085 16.1073 102.478 15.9051C100.882 15.7044 100.491 14.8125 100.397 14.2791C100.292 13.6772 100.434 12.9569 100.625 12.2963C100.799 11.6934 101.035 11.0765 101.234 10.5577C101.257 10.4966 101.28 10.4368 101.302 10.3786C101.409 10.0969 101.499 9.85584 101.562 9.65956C101.593 9.56199 101.614 9.48278 101.628 9.4204C101.635 9.38958 101.639 9.36573 101.641 9.348C101.643 9.3297 101.643 9.32246 101.643 9.32392C101.633 8.9135 101.471 8.62988 101.251 8.42568C101.031 8.22076 100.702 8.04815 100.233 7.90665C99.2472 7.60926 97.7656 7.48625 95.9503 7.51116C93.2576 7.54812 90.388 7.88734 88.2178 8.14388C87.4449 8.23524 86.7607 8.31612 86.2048 8.36913C76.0534 9.33711 66.2744 11.0052 56.347 12.7489C56.3473 12.7489 56.3459 12.7491 56.3426 12.7497L56.329 12.7523L56.2827 12.7611C56.2439 12.7685 56.1943 12.7782 56.1328 12.7903C56.0677 12.8031 55.9951 12.8175 55.9128 12.8338C55.8358 12.849 55.7504 12.8659 55.6547 12.8848C55.266 12.9614 54.7481 13.0628 54.1451 13.1765C52.9421 13.4035 51.3886 13.6821 49.8321 13.9141C48.2958 14.1431 46.6757 14.3392 45.367 14.381C44.7261 14.4014 44.0363 14.3899 43.4346 14.2845C42.8198 14.1768 42.0171 13.9107 41.7895 13.3334C41.5485 12.722 41.8675 12.079 42.2482 11.5577C42.6495 11.0081 43.2373 10.4391 43.8442 9.91339C44.4559 9.38359 45.1189 8.87086 45.6909 8.43533C45.8036 8.34952 45.9114 8.2677 46.014 8.18986C46.4503 7.85874 46.7916 7.59975 47.0099 7.41247C47.2932 7.16932 49.195 5.44045 51.0258 3.75257C51.686 3.14393 52.3327 2.54454 52.8854 2.02734ZM103.322 14.3878C103.321 14.3891 103.313 14.3835 103.301 14.3667C103.317 14.3781 103.323 14.3864 103.322 14.3878Z" fill="black"/>
</svg>
