<svg width="846" height="828" viewBox="0 0 846 828" fill="none" xmlns="http://www.w3.org/2000/svg">
<path d="M432 827C660.094 827 845 642.094 845 414C845 185.906 660.094 1 432 1C203.906 1 19 185.906 19 414C19 642.094 203.906 827 432 827Z" stroke="url(#paint0_linear_1_6996)" stroke-width="2" stroke-linecap="round" stroke-linejoin="round"/>
<path d="M432 794.132C641.941 794.132 812.132 623.941 812.132 414C812.132 204.059 641.941 33.8682 432 33.8682C222.059 33.8682 51.8683 204.059 51.8683 414C51.8683 623.941 222.059 794.132 432 794.132Z" stroke="url(#paint1_linear_1_6996)" stroke-width="2" stroke-linecap="round" stroke-linejoin="round"/>
<path d="M432 761.251C623.782 761.251 779.252 605.782 779.252 414C779.252 222.218 623.782 66.7485 432 66.7485C240.219 66.7485 84.749 222.218 84.749 414C84.749 605.782 240.219 761.251 432 761.251Z" stroke="url(#paint2_linear_1_6996)" stroke-width="2" stroke-linecap="round" stroke-linejoin="round"/>
<path d="M432 728.383C605.629 728.383 746.383 587.629 746.383 414C746.383 240.371 605.629 99.6167 432 99.6167C258.371 99.6167 117.617 240.371 117.617 414C117.617 587.629 258.371 728.383 432 728.383Z" stroke="url(#paint3_linear_1_6996)" stroke-width="2" stroke-linecap="round" stroke-linejoin="round"/>
<path d="M432 695.503C587.47 695.503 713.503 569.47 713.503 414C713.503 258.531 587.47 132.498 432 132.498C276.53 132.498 150.497 258.531 150.497 414C150.497 569.47 276.53 695.503 432 695.503Z" stroke="url(#paint4_linear_1_6996)" stroke-width="2" stroke-linecap="round" stroke-linejoin="round"/>
<path d="M432 662.634C569.317 662.634 680.635 551.317 680.635 414C680.635 276.683 569.317 165.365 432 165.365C294.683 165.365 183.366 276.683 183.366 414C183.366 551.317 294.683 662.634 432 662.634Z" stroke="url(#paint5_linear_1_6996)" stroke-width="2" stroke-linecap="round" stroke-linejoin="round"/>
<path d="M432.001 629.754C551.158 629.754 647.755 533.157 647.755 414C647.755 294.842 551.158 198.246 432.001 198.246C312.843 198.246 216.246 294.842 216.246 414C216.246 533.157 312.843 629.754 432.001 629.754Z" stroke="url(#paint6_linear_1_6996)" stroke-width="2" stroke-linecap="round" stroke-linejoin="round"/>
<path d="M432 596.886C533.005 596.886 614.886 515.005 614.886 414C614.886 312.995 533.005 231.114 432 231.114C330.995 231.114 249.114 312.995 249.114 414C249.114 515.005 330.995 596.886 432 596.886Z" stroke="url(#paint7_linear_1_6996)" stroke-width="2" stroke-linecap="round" stroke-linejoin="round"/>
<path d="M432 564.005C514.845 564.005 582.005 496.845 582.005 414C582.005 331.154 514.845 263.994 432 263.994C349.154 263.994 281.994 331.154 281.994 414C281.994 496.845 349.154 564.005 432 564.005Z" stroke="url(#paint8_linear_1_6996)" stroke-width="2" stroke-linecap="round" stroke-linejoin="round"/>
<path d="M432 531.137C496.693 531.137 549.137 478.693 549.137 414C549.137 349.306 496.693 296.862 432 296.862C367.307 296.862 314.862 349.306 314.862 414C314.862 478.693 367.307 531.137 432 531.137Z" stroke="url(#paint9_linear_1_6996)" stroke-width="2" stroke-linecap="round" stroke-linejoin="round"/>
<path d="M432 498.257C478.534 498.257 516.257 460.534 516.257 414C516.257 367.466 478.534 329.743 432 329.743C385.466 329.743 347.743 367.466 347.743 414C347.743 460.534 385.466 498.257 432 498.257Z" stroke="url(#paint10_linear_1_6996)" stroke-width="2" stroke-linecap="round" stroke-linejoin="round"/>
<path d="M432 465.389C460.381 465.389 483.389 442.381 483.389 414C483.389 385.619 460.381 362.611 432 362.611C403.619 362.611 380.611 385.619 380.611 414C380.611 442.381 403.619 465.389 432 465.389Z" stroke="url(#paint11_linear_1_6996)" stroke-width="2" stroke-linecap="round" stroke-linejoin="round"/>
<path d="M223.683 106.56L223.683 113.92L280.771 113.92L280.771 106.56L223.683 106.56ZM244.547 127.296L244.547 134.4L278.083 134.4L278.083 127.296L244.547 127.296ZM242.051 149.056L242.051 156.16L280.515 156.16L280.515 149.056L242.051 149.056ZM257.603 116.672L257.603 152.832L265.347 152.832L265.347 116.672L257.603 116.672ZM243.843 97.6C240.515 110.528 233.219 124.864 221.635 132.416C222.787 134.272 224.579 137.664 225.347 139.84C239.043 130.496 247.107 114.944 251.843 99.52L243.843 97.6ZM231.043 124.416L231.043 157.632L238.787 157.632L238.787 124.416L231.043 124.416ZM324.594 106.5L316.719 152L307.563 152L315.469 106.5L324.594 106.5ZM340.95 125.906L336.419 152L327.606 152L333.481 118.187L341.731 118.187L340.95 125.906ZM338.356 133.906L336.169 133.969C336.398 131.948 336.856 129.948 337.544 127.969C338.231 125.99 339.169 124.208 340.356 122.625C341.565 121.021 343.033 119.76 344.763 118.844C346.513 117.927 348.544 117.49 350.856 117.531C352.731 117.594 354.273 117.99 355.481 118.719C356.71 119.427 357.648 120.385 358.294 121.594C358.96 122.802 359.388 124.167 359.575 125.687C359.783 127.208 359.804 128.792 359.638 130.437L356.013 152L347.169 152L350.825 130.344C350.95 129.24 350.919 128.26 350.731 127.406C350.544 126.552 350.127 125.875 349.481 125.375C348.856 124.875 347.94 124.615 346.731 124.594C345.398 124.552 344.242 124.802 343.263 125.344C342.304 125.885 341.492 126.615 340.825 127.531C340.158 128.448 339.627 129.458 339.231 130.562C338.835 131.667 338.544 132.781 338.356 133.906ZM382.963 103.969L374.619 152L365.838 152L374.181 103.969L382.963 103.969ZM401.494 118.187L384.338 134.969L375.15 143.031L372.963 136L380.181 128.281L390.306 118.187L401.494 118.187ZM386.431 152L379.275 136L385.931 130.875L396.119 152L386.431 152ZM423.913 132.031L412.163 132.031L413.256 125.594L422.319 125.625C423.694 125.625 425.006 125.437 426.256 125.062C427.527 124.667 428.59 124.031 429.444 123.156C430.319 122.26 430.871 121.062 431.1 119.562C431.288 118.146 431.163 117.031 430.725 116.219C430.288 115.406 429.59 114.823 428.631 114.469C427.694 114.094 426.579 113.896 425.288 113.875L418.538 113.844L411.913 152L402.756 152L410.631 106.5L425.569 106.531C427.527 106.552 429.423 106.781 431.256 107.219C433.09 107.656 434.715 108.344 436.131 109.281C437.548 110.219 438.642 111.458 439.413 113C440.204 114.542 440.527 116.437 440.381 118.687C440.235 121.146 439.527 123.167 438.256 124.75C436.985 126.312 435.36 127.49 433.381 128.281C431.423 129.073 429.319 129.531 427.069 129.656L423.913 132.031ZM420.194 152L406.006 152L410.819 144.687L420.475 144.719C421.85 144.719 423.131 144.49 424.319 144.031C425.527 143.552 426.538 142.844 427.35 141.906C428.163 140.969 428.673 139.771 428.881 138.312C429.069 137.083 429.017 136.01 428.725 135.094C428.433 134.156 427.892 133.437 427.1 132.937C426.329 132.417 425.298 132.125 424.006 132.062L414.756 132.031L415.913 125.594L426.538 125.625L428.1 128.125C430.142 128.229 431.913 128.698 433.413 129.531C434.933 130.344 436.09 131.5 436.881 133C437.673 134.5 437.996 136.302 437.85 138.406C437.642 141.656 436.694 144.281 435.006 146.281C433.319 148.281 431.163 149.74 428.538 150.656C425.933 151.573 423.152 152.021 420.194 152ZM446.581 135.625L446.675 134.969C446.925 132.573 447.498 130.323 448.394 128.219C449.31 126.094 450.519 124.229 452.019 122.625C453.54 121 455.321 119.74 457.362 118.844C459.425 117.927 461.737 117.5 464.3 117.562C466.737 117.604 468.842 118.094 470.612 119.031C472.383 119.969 473.831 121.229 474.956 122.812C476.102 124.396 476.904 126.208 477.362 128.25C477.842 130.292 477.977 132.448 477.769 134.719L477.706 135.406C477.435 137.781 476.831 140.021 475.894 142.125C474.977 144.208 473.758 146.052 472.237 147.656C470.737 149.24 468.956 150.479 466.894 151.375C464.831 152.271 462.54 152.687 460.019 152.625C457.623 152.583 455.529 152.104 453.737 151.187C451.946 150.25 450.487 149 449.362 147.437C448.237 145.854 447.446 144.052 446.987 142.031C446.529 140.01 446.394 137.875 446.581 135.625ZM455.456 134.969L455.394 135.656C455.29 136.656 455.258 137.729 455.3 138.875C455.342 140 455.519 141.073 455.831 142.094C456.165 143.115 456.706 143.948 457.456 144.594C458.206 145.24 459.237 145.583 460.55 145.625C461.946 145.667 463.144 145.385 464.144 144.781C465.144 144.177 465.967 143.365 466.612 142.344C467.258 141.302 467.769 140.177 468.144 138.969C468.519 137.74 468.769 136.542 468.894 135.375L468.956 134.719C469.04 133.719 469.06 132.646 469.019 131.5C468.998 130.333 468.821 129.24 468.487 128.219C468.154 127.177 467.612 126.323 466.862 125.656C466.112 124.99 465.081 124.635 463.769 124.594C462.373 124.531 461.175 124.823 460.175 125.469C459.175 126.094 458.352 126.927 457.706 127.969C457.06 129.01 456.55 130.146 456.175 131.375C455.821 132.604 455.581 133.802 455.456 134.969ZM484.844 135.625L484.938 134.969C485.188 132.573 485.76 130.323 486.656 128.219C487.573 126.094 488.781 124.229 490.281 122.625C491.802 121 493.583 119.74 495.625 118.844C497.688 117.927 500 117.5 502.563 117.562C505 117.604 507.104 118.094 508.875 119.031C510.646 119.969 512.094 121.229 513.219 122.812C514.365 124.396 515.167 126.208 515.625 128.25C516.104 130.292 516.24 132.448 516.031 134.719L515.969 135.406C515.698 137.781 515.094 140.021 514.156 142.125C513.24 144.208 512.021 146.052 510.5 147.656C509 149.24 507.219 150.479 505.156 151.375C503.094 152.271 500.802 152.687 498.281 152.625C495.885 152.583 493.792 152.104 492 151.187C490.208 150.25 488.75 149 487.625 147.437C486.5 145.854 485.708 144.052 485.25 142.031C484.792 140.01 484.656 137.875 484.844 135.625ZM493.719 134.969L493.656 135.656C493.552 136.656 493.521 137.729 493.563 138.875C493.604 140 493.781 141.073 494.094 142.094C494.427 143.115 494.969 143.948 495.719 144.594C496.469 145.24 497.5 145.583 498.813 145.625C500.208 145.667 501.406 145.385 502.406 144.781C503.406 144.177 504.229 143.365 504.875 142.344C505.521 141.302 506.031 140.177 506.406 138.969C506.781 137.74 507.031 136.542 507.156 135.375L507.219 134.719C507.302 133.719 507.323 132.646 507.281 131.5C507.26 130.333 507.083 129.24 506.75 128.219C506.417 127.177 505.875 126.323 505.125 125.656C504.375 124.99 503.344 124.635 502.031 124.594C500.635 124.531 499.438 124.823 498.438 125.469C497.438 126.094 496.615 126.927 495.969 127.969C495.323 129.01 494.813 130.146 494.438 131.375C494.083 132.604 493.844 133.802 493.719 134.969ZM538.7 103.969L530.356 152L521.575 152L529.919 103.969L538.7 103.969ZM557.231 118.187L540.075 134.969L530.888 143.031L528.7 136L535.919 128.281L546.044 118.187L557.231 118.187ZM542.169 152L535.013 136L541.669 130.875L551.856 152L542.169 152ZM570.19 160.832C578.126 158.464 582.862 152.576 582.862 145.344C582.862 139.968 580.43 136.512 575.95 136.512C572.494 136.512 569.614 138.688 569.614 142.272C569.614 145.984 572.558 148.032 575.758 148.032C577.166 148.032 578.51 147.584 579.534 146.624L576.014 140.864L576.462 147.2C576.462 150.848 573.518 153.984 568.142 155.712L570.19 160.832ZM23.234 209.88L23.234 216.728L61.57 216.728L61.57 209.88L23.234 209.88ZM43.778 187.608L43.778 196.952C43.778 202.712 44.93 204.696 50.818 204.696C51.906 204.696 54.786 204.696 55.938 204.696C60.162 204.696 61.89 202.904 62.594 196.248C60.738 195.8 57.922 194.776 56.578 193.752C56.45 197.976 56.194 198.616 55.106 198.616C54.53 198.616 52.482 198.616 51.97 198.616C50.818 198.616 50.626 198.424 50.626 196.888L50.626 187.608L43.778 187.608ZM23.81 179.608L23.81 192.728L30.338 192.728L30.338 186.136L54.594 186.136L54.594 192.408L61.378 192.408L61.378 179.608L23.81 179.608ZM38.402 203.544L38.402 236.696L45.954 236.696L45.954 203.544L38.402 203.544ZM33.474 187.672C33.09 194.904 31.874 198.616 22.466 200.728C23.81 201.944 25.538 204.504 26.178 206.168C37.826 203.16 39.874 197.464 40.45 187.672L33.474 187.672ZM47.874 213.208L42.05 215.384C45.698 222.872 51.842 230.232 58.242 234.264C59.458 232.408 61.826 229.72 63.426 228.312C57.282 225.176 51.074 219.16 47.874 213.208ZM36.738 212.568C33.41 219.416 26.626 225.816 19.266 228.952C20.866 230.36 23.042 233.048 24.13 234.776C32.002 230.744 38.786 223.128 42.69 214.552L36.738 212.568ZM1.73001 208.856L3.45801 216.216C9.09001 214.616 16.13 212.568 22.722 210.52L21.698 203.608C14.466 205.656 6.85001 207.704 1.73001 208.856ZM2.75401 188.824L2.75401 195.864L22.338 195.864L22.338 188.824L2.75401 188.824ZM9.53801 176.728L9.53801 228.632C9.53801 229.528 9.21801 229.72 8.45001 229.72C7.68201 229.784 5.44201 229.784 3.13801 229.656C4.03401 231.768 4.93001 234.904 5.12201 236.824C9.28201 236.824 12.034 236.568 13.954 235.352C15.938 234.2 16.578 232.216 16.578 228.632L16.578 176.728L9.53801 176.728ZM95.618 219.288L95.618 236.76L103.234 236.76L103.234 219.288L95.618 219.288ZM95.554 176.664L95.554 195.096L103.17 195.096L103.17 176.664L95.554 176.664ZM93.826 196.248C91.394 199.256 87.042 203.288 83.65 205.784L89.026 208.664C92.546 206.424 96.962 202.968 100.802 199.512L93.826 196.248ZM107.714 200.344C101.506 205.848 91.266 212.824 83.074 217.048L88.13 220.568C96.258 216.472 106.626 210.008 114.562 204.056L107.714 200.344ZM78.018 207C82.754 209.496 88.706 213.336 91.522 216.024L96.898 211.224C93.762 208.536 87.618 204.952 83.01 202.712L78.018 207ZM108.034 212.056C113.218 215.448 119.81 220.632 122.946 223.896L128.322 219.48C124.93 216.152 118.146 211.352 113.09 208.152L108.034 212.056ZM106.882 225.88C112.13 228.824 118.978 233.176 122.178 236.12L128.514 231.768C124.802 228.824 117.762 224.664 112.77 222.04L106.882 225.88ZM71.554 215.512L71.938 222.424C84.482 222.168 103.362 221.592 120.962 220.952L121.346 215.128C103.042 215.384 83.522 215.576 71.554 215.512ZM84.61 222.232C81.218 225.624 75.394 228.952 69.89 230.936C71.618 232.216 74.434 234.84 75.778 236.312C81.218 233.752 87.746 229.336 91.906 224.984L84.61 222.232ZM72.258 181.656L72.258 188.248L126.85 188.248L126.85 181.656L72.258 181.656ZM71.746 192.152L71.746 205.464L78.978 205.464L78.978 198.616L120.066 198.616L120.066 205.464L127.618 205.464L127.618 192.152L71.746 192.152ZM738.19 176.664L738.19 187.096L746.126 187.096L746.126 176.664L738.19 176.664ZM738.19 214.616L738.19 231.704L746.126 231.704L746.126 214.616L738.19 214.616ZM731.342 188.696C730.446 196.76 728.462 201.432 713.998 203.928C715.598 205.464 717.454 208.536 718.094 210.456C734.926 206.808 738.126 199.768 739.278 188.696L731.342 188.696ZM745.358 188.568L745.358 199.576C745.358 206.04 746.958 208.024 754.19 208.024C755.598 208.024 760.27 208.024 761.806 208.024C766.99 208.024 768.974 206.232 769.806 199.512C767.758 199.064 764.686 197.976 763.214 196.888C762.958 200.856 762.638 201.496 761.038 201.496C759.886 201.496 756.174 201.496 755.278 201.496C753.358 201.496 752.974 201.304 752.974 199.576L752.974 188.568L745.358 188.568ZM714.894 182.424L714.894 196.888L722.446 196.888L722.446 189.336L761.998 189.336L761.998 195.736L769.934 195.736L769.934 182.424L714.894 182.424ZM720.974 211.608L720.974 218.456L765.07 218.456L765.07 211.608L720.974 211.608ZM714.19 228.12L714.19 235.032L770.446 235.032L770.446 228.12L714.19 228.12ZM782.094 192.088L782.094 236.696L790.03 236.696L790.03 192.088L782.094 192.088ZM782.99 180.76C785.87 183.832 789.198 188.12 790.542 190.872L797.006 186.776C795.47 183.896 792.014 179.864 789.006 177.112L782.99 180.76ZM799.246 179.864L799.246 186.968L833.87 186.968L833.87 179.864L799.246 179.864ZM829.582 179.864L829.582 228.44C829.582 229.208 829.39 229.528 828.558 229.528C827.79 229.528 825.422 229.592 823.374 229.464C824.334 231.32 825.294 234.392 825.55 236.312C829.582 236.312 832.654 236.248 834.83 235.032C836.942 233.816 837.582 232.088 837.582 228.504L837.582 179.864L829.582 179.864ZM803.342 213.016L815.758 213.016L815.758 219.16L803.342 219.16L803.342 213.016ZM803.342 200.792L815.758 200.792L815.758 206.872L803.342 206.872L803.342 200.792ZM796.494 194.648L796.494 225.304L822.926 225.304L822.926 194.648L796.494 194.648Z" fill="#1E344F"/>
<path d="M191.688 176.856L191.688 230.488L199.368 230.488L199.368 176.856L191.688 176.856ZM175.304 227.288L176.584 235.416C185.864 234.328 198.856 232.984 210.824 231.448L210.696 223.896C198.088 225.176 184.2 226.584 175.304 227.288ZM201.8 217.368C204.424 223.64 207.368 231.768 208.52 236.696L216.264 234.2C214.92 229.272 211.592 221.336 208.968 215.384L201.8 217.368ZM186.12 195.16L204.744 195.16L204.744 207.64L186.12 207.64L186.12 195.16ZM178.568 188.568L178.568 214.232L212.744 214.232L212.744 188.568L178.568 188.568ZM155.912 181.848C166.28 190.488 168.072 200.024 168.072 211.672C168.072 219.544 167.496 226.2 166.152 228.056C165.64 228.76 165.064 229.08 164.104 229.208C162.76 229.336 160.456 229.4 157.32 229.144C158.6 231.32 159.304 234.008 159.368 236.44C162.376 236.568 165.128 236.504 167.624 235.928C169.288 235.544 170.696 234.648 171.656 233.368C174.6 229.464 175.368 220.824 175.368 211.928C175.368 199.512 173.704 187.928 161.288 177.816L155.912 181.848ZM168.84 200.92C166.024 206.616 160.2 213.144 155.08 216.344C156.872 217.752 158.984 220.248 160.2 222.04C165.384 217.88 171.336 210.52 174.472 204.312L168.84 200.92ZM171.336 178.008C167.752 184.92 161.608 192.472 155.144 197.016C156.808 198.232 159.24 200.536 160.456 202.072C167.112 196.952 173.64 189.336 178.12 181.4L171.336 178.008ZM223.432 201.88L223.432 210.264L282.696 210.264L282.696 201.88L223.432 201.88ZM291.08 198.936L291.08 206.232L349.384 206.232L349.384 198.936L291.08 198.936ZM294.92 180.632L294.92 187.928L345.864 187.928L345.864 180.632L294.92 180.632ZM320.456 208.856L320.456 226.072C320.456 233.752 322.568 236.248 330.76 236.248C332.36 236.248 338.632 236.248 340.296 236.248C347.4 236.248 349.576 233.304 350.472 222.296C348.36 221.784 344.776 220.504 343.112 219.16C342.728 227.416 342.28 228.696 339.656 228.696C338.12 228.696 333 228.696 331.848 228.696C329.032 228.696 328.584 228.376 328.584 226.072L328.584 208.856L320.456 208.856ZM315.144 183.704C314.824 205.72 315.272 222.296 290.056 230.232C291.848 231.896 294.024 234.776 294.92 236.888C321.992 227.544 322.632 208.088 323.08 183.704L315.144 183.704ZM364.168 185.496L364.168 193.944L410.632 193.944L410.632 185.496L364.168 185.496ZM358.856 222.616L358.856 231.448L416.008 231.448L416.008 222.616L358.856 222.616Z" fill="#EA9D82"/>
<path d="M446.094 179.096L446.094 236.824L454.03 236.824L454.03 186.136L492.558 186.136L492.558 236.824L500.878 236.824L500.878 179.096L446.094 179.096ZM450.638 227.608L450.638 234.52L497.486 234.52L497.486 227.608L450.638 227.608ZM456.718 195.032L456.718 201.752L490.318 201.752L490.318 195.032L456.718 195.032ZM475.15 188.056L475.15 218.072C475.15 218.776 474.894 218.968 474.062 218.968C473.23 219.032 470.734 219.032 468.366 218.904C469.326 220.76 470.414 223.768 470.798 225.752C474.766 225.752 477.582 225.624 479.758 224.472C481.998 223.384 482.51 221.528 482.51 218.136L482.51 188.056L475.15 188.056ZM475.662 196.952C470.734 204.888 462.414 211.736 455.118 215.512C456.782 216.92 458.958 219.288 459.918 220.76C467.534 216.728 476.238 209.624 481.87 201.368L475.662 196.952ZM513.998 179.16L513.998 236.568L521.23 236.568L521.23 186.008L531.214 186.008L531.214 179.16L513.998 179.16ZM529.614 179.16L529.614 181.464C528.462 185.56 525.966 193.88 523.854 199.384C528.206 203.8 529.422 207.896 529.422 210.904C529.422 212.696 529.038 213.976 528.078 214.552C527.502 214.936 526.798 215.064 526.03 215.064C525.198 215.128 524.11 215.064 522.83 215C524.046 216.984 524.686 220.12 524.75 222.104C526.414 222.168 528.078 222.104 529.486 221.976C530.958 221.72 532.366 221.272 533.454 220.504C535.758 218.904 536.718 216.088 536.718 211.8C536.718 208.024 535.822 203.48 531.214 198.488C533.326 193.688 535.758 187.416 537.678 182.104L532.174 178.904L531.022 179.16L529.614 179.16ZM547.086 176.92C546.958 197.912 547.726 219.224 529.998 230.872C532.174 232.344 534.542 234.776 535.758 236.76C554.574 223.576 554.83 199.768 555.022 176.92L547.086 176.92ZM554.51 195.032L547.534 195.672C548.622 203.288 550.926 225.752 565.966 236.888C567.182 234.84 569.358 232.536 571.598 231C557.198 221.016 555.214 201.496 554.51 195.032ZM578.382 191.768L578.382 198.872L598.094 198.872L598.094 191.768L578.382 191.768ZM584.59 176.664L584.59 236.76L591.95 236.76L591.95 176.664L584.59 176.664ZM599.758 188.504L599.758 195.992L625.806 195.992L625.806 188.504L599.758 188.504ZM622.734 188.504L622.734 190.168C622.222 216.088 621.774 225.816 620.174 227.8C619.534 228.696 618.894 228.888 617.806 228.888C616.398 228.888 613.582 228.888 610.382 228.632C611.726 230.68 612.558 233.88 612.686 235.992C616.014 236.12 619.278 236.12 621.39 235.736C623.694 235.352 625.23 234.648 626.766 232.408C628.942 229.336 629.454 219.608 629.966 191.96C629.966 191.064 630.03 188.504 630.03 188.504L622.734 188.504ZM599.054 200.536C598.03 206.232 596.11 211.928 593.358 215.64C594.958 216.536 597.838 218.328 599.118 219.416C601.998 215.128 604.494 208.536 605.774 201.88L599.054 200.536ZM628.302 201.88C630.03 208.088 631.822 216.216 632.398 221.016L639.118 219.288C638.35 214.552 636.302 206.616 634.51 200.536L628.302 201.88ZM609.486 176.984L609.486 190.68C609.486 203.096 608.206 219.8 593.742 231.512C595.534 232.664 598.286 235.16 599.566 236.824C615.31 223.576 616.718 204.824 616.718 190.68L616.718 176.984L609.486 176.984ZM674.638 187.096L671.054 194.392L705.358 194.392L705.358 187.096L674.638 187.096ZM683.086 201.176L683.086 208.152L703.694 208.152L703.694 201.176L683.086 201.176ZM683.022 215.32L683.022 222.488L704.526 222.488L704.526 215.32L683.022 215.32ZM679.182 189.528L679.182 236.76L687.054 236.76L687.054 189.528L679.182 189.528ZM676.11 177.24C673.166 186.52 668.11 195.736 662.478 201.496C664.142 202.712 667.086 205.464 668.302 206.872C674.19 200.216 679.95 189.592 683.534 179.224L676.11 177.24ZM659.214 176.92C655.95 186.072 650.382 195.16 644.494 200.984C645.838 202.904 648.014 207.256 648.718 209.176C655.758 201.88 662.478 190.168 666.638 179.288L659.214 176.92ZM652.75 194.584L652.75 236.696L660.494 236.696L660.494 186.904L660.43 186.84L652.75 194.584Z" fill="#8DCA8D"/>
<path d="M337.34 46.4123C337.34 48.0248 338.577 49.3248 340.115 49.3248H343.252C344.59 49.3248 345.677 48.1873 345.677 46.7873C345.677 45.2623 345.015 44.7248 344.027 44.3748L338.99 42.6248C338.002 42.2748 337.34 41.7373 337.34 40.2123C337.34 38.8123 338.427 37.6748 339.765 37.6748H342.902C344.44 37.6748 345.677 38.9748 345.677 40.5873" stroke="#FFC56F" stroke-width="2" stroke-linecap="round" stroke-linejoin="round"/>
<path d="M341.5 36V51" stroke="#FFC56F" stroke-width="2" stroke-linecap="round" stroke-linejoin="round"/>
<path d="M341.5 56C348.404 56 354 50.4036 354 43.5C354 36.5964 348.404 31 341.5 31C334.596 31 329 36.5964 329 43.5C329 50.4036 334.596 56 341.5 56Z" stroke="#FFC56F" stroke-width="2" stroke-linecap="round" stroke-linejoin="round"/>
<path d="M376 43.5L387 43.5" stroke="#DDDDDD" stroke-width="2" stroke-linecap="round"/>
<path d="M423.073 33.233L425.185 37.4914C425.473 38.0842 426.241 38.6528 426.889 38.7617L430.716 39.4029C433.164 39.8142 433.74 41.6047 431.976 43.371L429.001 46.3713C428.497 46.8794 428.221 47.8593 428.377 48.561L429.228 52.275C429.9 55.2148 428.353 56.352 425.773 54.8155L422.185 52.6742C421.537 52.2871 420.469 52.2871 419.81 52.6742L416.222 54.8155C413.654 56.352 412.094 55.2027 412.766 52.275L413.618 48.561C413.774 47.8593 413.498 46.8794 412.994 46.3713L410.019 43.371C408.267 41.6047 408.831 39.8142 411.278 39.4029L415.106 38.7617C415.742 38.6528 416.51 38.0842 416.798 37.4914L418.91 33.233C420.061 30.9223 421.933 30.9223 423.073 33.233Z" stroke="#4A3AFF" stroke-width="2" stroke-linecap="round" stroke-linejoin="round"/>
<path d="M455 43.5L466 43.5" stroke="#DDDDDD" stroke-width="2" stroke-linecap="round"/>
<path d="M512.001 42.6573C512.001 43.2209 512.001 43.7846 512.001 44.342C511.963 44.6175 511.932 44.8993 511.894 45.1749C511.575 47.3543 510.749 49.3145 509.359 51.018C507.48 53.3289 505.076 54.7631 502.14 55.3079C501.714 55.3893 501.282 55.4332 500.85 55.4958C500.286 55.4958 499.723 55.4958 499.166 55.4958C499.097 55.4833 499.034 55.4582 498.965 55.452C498.477 55.3831 497.989 55.3392 497.513 55.239C494.664 54.619 492.322 53.1724 490.538 50.8677C488.397 48.0996 487.62 44.9557 488.171 41.5112C488.603 38.8308 489.843 36.5575 491.84 34.7225C494.507 32.2675 497.675 31.2279 501.276 31.5661C503.342 31.7602 505.233 32.4804 506.917 33.6954C509.578 35.6118 511.224 38.1795 511.813 41.411C511.894 41.8244 511.944 42.244 512.001 42.6573ZM504.838 52.377C504.775 52.2705 504.707 52.1641 504.663 52.0513C504.431 51.4564 504.149 50.8802 503.993 50.2665C503.642 48.8949 504.087 47.8052 505.27 47.0287C505.809 46.6779 506.391 46.3836 506.967 46.0893C508.05 45.5319 509.071 44.8931 509.859 43.9412C510.06 43.6969 510.179 43.4589 510.129 43.1395C510.085 42.8515 510.079 42.5634 510.047 42.2753C509.816 40.3151 509.064 38.5803 507.818 37.0585C507.781 37.0146 507.775 36.9457 507.749 36.8894C507.098 38.693 506.109 39.6825 504.719 40.6532C504.362 40.9038 503.993 41.1417 503.642 41.3985C503.216 41.7054 503.216 41.7367 503.498 42.1751C503.749 42.5696 504.024 42.9517 504.25 43.3587C504.506 43.8159 504.6 44.3107 504.469 44.8305C504.25 45.7135 503.649 46.2396 502.828 46.5402C501.532 47.0224 500.311 46.7907 499.147 46.1206C498.107 45.5194 497.281 44.6864 496.567 43.7345C495.622 42.4757 494.877 41.1167 494.551 39.5573C494.476 39.1815 494.482 38.787 494.363 38.43C494.063 37.5532 493.349 37.0647 492.573 36.6639C489.329 40.0708 488.804 45.8388 492.216 49.9533C495.628 54.0804 501.175 54.4813 504.838 52.377ZM494.05 35.3237C494.194 35.4239 494.332 35.5178 494.464 35.618C495.459 36.357 496.154 37.2964 496.336 38.5552C496.386 38.8934 496.398 39.2441 496.492 39.5698C497.006 41.2733 497.957 42.7074 499.272 43.9036C499.81 44.3921 500.418 44.7741 501.15 44.8931C501.582 44.962 501.989 44.8931 502.371 44.6864C502.659 44.5298 502.691 44.4171 502.528 44.1416C502.421 43.9537 502.284 43.7783 502.171 43.5904C501.971 43.2585 501.739 42.9329 501.582 42.5822C501.232 41.7868 501.344 41.0353 501.952 40.3965C502.196 40.1397 502.49 39.9205 502.778 39.7076C503.223 39.3819 503.699 39.0876 504.137 38.7557C505.089 38.048 505.746 37.1274 505.978 35.9437C506.103 35.2924 506.165 35.449 505.64 35.1045C503.204 33.495 500.549 33.019 497.707 33.6516C496.379 33.9397 495.165 34.5096 494.05 35.3237ZM509.584 46.7844C508.776 47.2228 507.987 47.6487 507.205 48.0808C506.867 48.2687 506.529 48.4628 506.197 48.6695C505.877 48.8699 505.733 49.1642 505.771 49.54C505.827 50.1913 506.097 50.7612 506.416 51.3374C507.9 50.0974 508.958 48.5881 509.584 46.7844Z" fill="#9BE065"/>
<defs>
<linearGradient id="paint0_linear_1_6996" x1="432" y1="1" x2="432" y2="827" gradientUnits="userSpaceOnUse">
<stop stop-color="#F0EDFF"/>
<stop offset="0.453598" stop-color="#D1CDDE" stop-opacity="0"/>
</linearGradient>
<linearGradient id="paint1_linear_1_6996" x1="432" y1="33.8682" x2="432" y2="794.132" gradientUnits="userSpaceOnUse">
<stop stop-color="#F0EDFF"/>
<stop offset="0.453598" stop-color="#D1CDDE" stop-opacity="0"/>
</linearGradient>
<linearGradient id="paint2_linear_1_6996" x1="432" y1="66.7485" x2="432" y2="761.251" gradientUnits="userSpaceOnUse">
<stop stop-color="#F0EDFF"/>
<stop offset="0.453598" stop-color="#D1CDDE" stop-opacity="0"/>
</linearGradient>
<linearGradient id="paint3_linear_1_6996" x1="432" y1="99.6167" x2="432" y2="728.383" gradientUnits="userSpaceOnUse">
<stop stop-color="#F0EDFF"/>
<stop offset="0.453598" stop-color="#D1CDDE" stop-opacity="0"/>
</linearGradient>
<linearGradient id="paint4_linear_1_6996" x1="432" y1="132.498" x2="432" y2="695.503" gradientUnits="userSpaceOnUse">
<stop stop-color="#F0EDFF"/>
<stop offset="0.453598" stop-color="#D1CDDE" stop-opacity="0"/>
</linearGradient>
<linearGradient id="paint5_linear_1_6996" x1="432" y1="165.365" x2="432" y2="662.634" gradientUnits="userSpaceOnUse">
<stop stop-color="#F0EDFF"/>
<stop offset="0.453598" stop-color="#D1CDDE" stop-opacity="0"/>
</linearGradient>
<linearGradient id="paint6_linear_1_6996" x1="432" y1="198.246" x2="432" y2="629.754" gradientUnits="userSpaceOnUse">
<stop stop-color="#F0EDFF"/>
<stop offset="0.453598" stop-color="#D1CDDE" stop-opacity="0"/>
</linearGradient>
<linearGradient id="paint7_linear_1_6996" x1="432" y1="231.114" x2="432" y2="596.886" gradientUnits="userSpaceOnUse">
<stop stop-color="#F0EDFF"/>
<stop offset="0.453598" stop-color="#D1CDDE" stop-opacity="0"/>
</linearGradient>
<linearGradient id="paint8_linear_1_6996" x1="432" y1="263.994" x2="432" y2="564.005" gradientUnits="userSpaceOnUse">
<stop stop-color="#F0EDFF"/>
<stop offset="0.453598" stop-color="#D1CDDE" stop-opacity="0"/>
</linearGradient>
<linearGradient id="paint9_linear_1_6996" x1="432" y1="296.862" x2="432" y2="531.137" gradientUnits="userSpaceOnUse">
<stop stop-color="#F0EDFF"/>
<stop offset="0.453598" stop-color="#D1CDDE" stop-opacity="0"/>
</linearGradient>
<linearGradient id="paint10_linear_1_6996" x1="432" y1="329.743" x2="432" y2="498.257" gradientUnits="userSpaceOnUse">
<stop stop-color="#F0EDFF"/>
<stop offset="0.453598" stop-color="#D1CDDE" stop-opacity="0"/>
</linearGradient>
<linearGradient id="paint11_linear_1_6996" x1="432" y1="362.611" x2="432" y2="465.389" gradientUnits="userSpaceOnUse">
<stop stop-color="#F0EDFF"/>
<stop offset="0.453598" stop-color="#D1CDDE" stop-opacity="0"/>
</linearGradient>
</defs>
</svg>
