<svg width="39" height="39" viewBox="0 0 39 39" fill="none" xmlns="http://www.w3.org/2000/svg">
<path d="M32.1755 9.97811C33.9244 9.97811 35.3422 8.56031 35.3422 6.81144C35.3422 5.06254 33.9244 3.64478 32.1755 3.64478C30.4266 3.64478 29.0089 5.06254 29.0089 6.81144C29.0089 8.56031 30.4266 9.97811 32.1755 9.97811Z" stroke="#263238" stroke-width="2" stroke-linejoin="round"/>
<path d="M32.1755 35.3114C33.9244 35.3114 35.3422 33.8936 35.3422 32.1447C35.3422 30.3958 33.9244 28.978 32.1755 28.978C30.4266 28.978 29.0089 30.3958 29.0089 32.1447C29.0089 33.8936 30.4266 35.3114 32.1755 35.3114Z" stroke="#263238" stroke-width="2" stroke-linejoin="round"/>
<path d="M6.84219 9.97811C8.59106 9.97811 10.0089 8.56031 10.0089 6.81144C10.0089 5.06254 8.59106 3.64478 6.84219 3.64478C5.09329 3.64478 3.67552 5.06254 3.67552 6.81144C3.67552 8.56031 5.09329 9.97811 6.84219 9.97811Z" stroke="#263238" stroke-width="2" stroke-linejoin="round"/>
<path d="M6.84219 35.3114C8.59106 35.3114 10.0089 33.8936 10.0089 32.1447C10.0089 30.3958 8.59106 28.978 6.84219 28.978C5.09329 28.978 3.67552 30.3958 3.67552 32.1447C3.67552 33.8936 5.09329 35.3114 6.84219 35.3114Z" stroke="#263238" stroke-width="2" stroke-linejoin="round"/>
<path d="M16.3422 6.81128H22.6755" stroke="#263238" stroke-width="2" stroke-linecap="round" stroke-linejoin="round"/>
<path d="M25.8422 13.1448L13.1755 25.8114" stroke="#263238" stroke-width="2" stroke-linecap="round" stroke-linejoin="round"/>
<path d="M32.1755 16.3113V22.6446" stroke="#263238" stroke-width="2" stroke-linecap="round" stroke-linejoin="round"/>
</svg>
