<svg width="581" height="262" viewBox="0 0 581 262" fill="none" xmlns="http://www.w3.org/2000/svg">
<rect width="535.32" height="209.407" rx="16" transform="matrix(0.996138 0.0878005 -0.215127 0.976586 47.7476 0)" fill="#E27F86" fill-opacity="0.12"/>
<rect y="19" width="538.796" height="243" rx="16" fill="#77C5EA" fill-opacity="0.12"/>
<rect x="23" y="49.2588" width="459.621" height="51.1052" rx="9.92046" fill="white"/>
<rect x="23" y="110.896" width="459.621" height="51.1052" rx="9.92046" fill="white"/>
<rect x="23" y="180.259" width="459.621" height="51.1052" rx="9.92046" fill="white"/>
<g clip-path="url(#clip0_343_1446)">
<rect x="69.3662" y="66" width="22" height="22" rx="11" fill="#C3F3F7"/>
<path d="M114.096 76.6353H118.912V78.5233H114.096V76.6353ZM113.024 75.6433V79.5153H120.048V75.6433H113.024ZM114.848 79.1953C114.656 81.0353 114.096 82.3313 112.016 83.0513C112.272 83.2433 112.576 83.6913 112.704 83.9473C115.008 83.0193 115.696 81.4353 115.936 79.1953H114.848ZM118.416 73.0353C118.064 73.8513 117.392 75.0673 116.848 75.8033L117.856 76.1073C118.4 75.3873 119.04 74.3153 119.6 73.3393L118.416 73.0353ZM113.632 73.5153C114.176 74.1873 114.704 75.0993 114.912 75.6913L115.904 75.2113C115.68 74.6033 115.12 73.7393 114.576 73.0833L113.632 73.5153ZM121.952 71.2113V83.5313C121.952 83.7553 121.888 83.8193 121.664 83.8193C121.456 83.8353 120.784 83.8353 120.08 83.8193C120.24 84.1073 120.384 84.6193 120.448 84.9233C121.456 84.9233 122.144 84.9073 122.56 84.7153C122.976 84.5073 123.104 84.1873 123.104 83.5473V71.2113H121.952ZM110.032 73.9153V85.0353H111.2V73.9153H110.032ZM110.256 71.0833C110.96 71.7553 111.76 72.6833 112.112 73.3233L113.088 72.6513C112.704 72.0433 111.872 71.1313 111.168 70.5073L110.256 71.0833ZM114.208 71.2113V72.2833H122.64V71.2113H114.208ZM117.088 79.1633V82.1873C117.088 83.2273 117.344 83.5153 118.432 83.5153C118.64 83.5153 119.68 83.5153 119.888 83.5153C120.72 83.5153 121.008 83.1313 121.12 81.5793C120.832 81.4993 120.4 81.3553 120.192 81.1793C120.144 82.3953 120.08 82.5553 119.76 82.5553C119.536 82.5553 118.72 82.5553 118.576 82.5553C118.208 82.5553 118.144 82.5073 118.144 82.1713V79.1633H117.088ZM131.04 71.7873V72.8113H138.864V71.7873H131.04ZM134.336 70.3153V74.7313H135.536V70.3153H134.336ZM131.664 76.5073C132.496 76.9553 133.488 77.6433 133.968 78.1233L134.56 77.4513C134.048 76.9553 133.04 76.3153 132.224 75.9153L131.664 76.5073ZM130.496 77.9633C131.36 78.4273 132.368 79.1313 132.864 79.6433L133.44 78.9393C132.944 78.4273 131.904 77.7553 131.072 77.3393L130.496 77.9633ZM130.432 74.2513V75.2913H138.816V74.2513H130.432ZM138.432 74.2513V74.4273C138.192 75.3553 137.792 76.4753 137.488 77.1793L138.432 77.4353C138.816 76.6833 139.232 75.4673 139.552 74.3953L138.8 74.2033L138.608 74.2513H138.432ZM130.112 79.7393V80.7953H139.712V79.7393H130.112ZM134.784 75.9313V77.8193C134.784 79.8513 134.352 82.4433 129.84 84.1713C130.096 84.3953 130.432 84.8113 130.576 85.0993C135.408 83.1793 135.952 80.2193 135.952 77.8353V75.9313H134.784ZM135.488 82.0593C136.8 82.9393 138.384 84.2353 139.152 85.0833L139.904 84.2993C139.136 83.4513 137.504 82.2193 136.224 81.3873L135.488 82.0593ZM126.24 71.4513C127.104 72.1873 128.192 73.2433 128.72 73.9153L129.52 73.0193C129.008 72.3793 127.872 71.3873 127.008 70.6833L126.24 71.4513ZM127.456 84.6993C127.68 84.3633 128.08 84.0113 130.592 81.9313C130.448 81.7073 130.256 81.2593 130.128 80.9393L127.504 83.0193L127.216 83.5473L127.456 84.6993ZM127.456 84.7153C127.456 84.2513 128.688 83.1953 128.688 83.1953V75.3233H127.584V82.3313C127.584 83.0993 127.088 83.6433 126.816 83.8673C127.008 84.0433 127.328 84.4593 127.456 84.7153ZM125.216 75.3233V76.4913H128.352V75.3233H125.216ZM149.968 75.7073V76.8273H155.92V75.7073H149.968ZM141.552 71.9793V73.0033H148.608V71.9793H141.552ZM141.376 78.3313V79.3713H148.688V78.3313H141.376ZM141.328 75.6433V76.6673H148.8V75.6433H141.328ZM152.944 76.1553V84.9393H154.112V76.1553H152.944ZM144.512 70.3633V72.5073H145.68V70.3633H144.512ZM144.512 76.4753V85.0033H145.68V76.4753H144.512ZM149.392 71.6113V77.2113C149.392 79.4833 149.168 82.2513 147.12 84.2673C147.408 84.4273 147.84 84.8273 147.984 85.0993C150.24 82.8753 150.528 79.6273 150.528 77.2273V72.2833C150.752 72.2513 150.848 72.1873 150.864 72.0593L149.392 71.6113ZM154.752 70.4913C153.584 71.0673 151.472 71.6273 149.68 72.0113C149.824 72.2513 149.984 72.6673 150.048 72.9233C151.968 72.5873 154.208 72.0433 155.712 71.3713L154.752 70.4913ZM145.568 79.6753L144.912 80.2193C145.504 80.7153 147.008 82.1233 147.52 82.7153L148.224 81.8193C147.824 81.4513 146.08 80.0273 145.568 79.6753ZM142.512 73.2913C142.832 74.0273 143.088 74.9873 143.136 75.6113L144.144 75.3393C144.064 74.7313 143.792 73.7873 143.456 73.0833L142.512 73.2913ZM146.608 73.0513C146.432 73.7233 146.096 74.7153 145.808 75.3553L146.768 75.5793C147.056 74.9873 147.392 74.0913 147.696 73.2913L146.608 73.0513ZM144.528 78.8593C143.76 80.4273 142.304 82.1553 141.008 83.0033C141.28 83.1953 141.632 83.5793 141.824 83.8513C143.104 82.8593 144.576 80.9713 145.392 79.1953L144.528 78.8593ZM169.328 70.3313C166.896 71.0833 162.224 71.5153 158.416 71.6913C158.528 71.9633 158.672 72.4433 158.704 72.7473C162.592 72.5873 167.328 72.1553 170.224 71.3073L169.328 70.3313ZM158.432 74.8433V75.9953H170.912V74.8433H158.432ZM157.36 78.6033V79.7713H171.808V78.6033H157.36ZM163.968 72.0273V83.3393C163.968 83.6753 163.84 83.7873 163.472 83.7873C163.12 83.8033 161.84 83.8193 160.512 83.7713C160.704 84.0913 160.928 84.6353 161.008 84.9713C162.704 84.9873 163.744 84.9553 164.352 84.7633C164.96 84.5713 165.216 84.2033 165.216 83.3553V72.0273H163.968ZM180.096 75.4833V76.6833H186.672V75.4833H180.096ZM173.392 83.0673V84.2673H187.76V83.0673H173.392ZM179.408 70.5393V83.7073H180.672V70.5393H179.408ZM197.056 83.3553V84.4113H202.336V83.3553H197.056ZM197.84 71.9473V72.9873H202.064V71.9473H197.84ZM196.592 79.2273V84.9873H197.696V80.2673H201.728V84.9393H202.88V79.2273H196.592ZM201.632 71.9473V72.1553C200.592 75.4993 197.76 78.0753 194.928 79.1633C195.168 79.3873 195.488 79.8033 195.632 80.0753C198.672 78.7793 201.6 76.1553 202.832 72.2193L202.064 71.8993L201.84 71.9473H201.632ZM198.112 70.2993C197.504 72.2673 196.4 74.1393 195.088 75.3393C195.376 75.5153 195.84 75.8993 196.032 76.1073C197.36 74.7793 198.544 72.7473 199.264 70.5713L198.112 70.2993ZM197.792 72.6033L197.008 73.2593C197.984 75.5633 200.096 78.4593 203.392 79.8833C203.552 79.5793 203.888 79.1153 204.144 78.8913C200.864 77.6433 198.72 74.8913 197.792 72.6033ZM190 77.4033V83.2113H191.008V77.4033H190ZM191.072 72.0273H194.08V74.8433H191.072V72.0273ZM190 70.9713V75.8993H195.2V70.9713H190ZM192.256 75.3713V82.6833H193.344V75.3713H192.256ZM189.168 83.0833L189.392 84.2513C191.072 83.8353 193.376 83.2753 195.568 82.7313L195.456 81.6593C193.152 82.2033 190.752 82.7633 189.168 83.0833ZM192.64 78.2193V79.2913H195.344V78.2193H192.64Z" fill="url(#paint0_linear_343_1446)"/>
<path d="M246.63 81.0093C246.63 80.7843 247.425 80.4393 247.425 80.4393V80.3943C248.925 78.9693 250.47 76.9593 251.745 74.9043L250.755 74.2893C249.645 76.3293 247.98 78.4143 247.455 78.9543C246.96 79.4943 246.6 79.8693 246.255 79.9293C246.39 80.2293 246.57 80.7843 246.63 81.0093ZM246.63 81.0093C246.96 80.8293 247.485 80.6793 251.325 79.8993C251.31 79.6743 251.31 79.2243 251.355 78.9093L247.14 79.6743L246.57 80.0643L246.63 81.0093ZM246.525 77.4093C246.525 77.1693 247.215 76.8243 247.215 76.8243V76.7793C248.31 75.4293 249.42 73.5093 250.245 71.6343L249.165 71.1393C248.535 72.9543 247.395 74.9043 247.035 75.3993C246.72 75.9093 246.435 76.2543 246.15 76.3143C246.285 76.6143 246.465 77.1693 246.525 77.4093ZM246.525 77.4093C246.795 77.2743 247.23 77.1843 249.96 76.8243C249.975 76.5993 250.005 76.1793 250.065 75.8793L247.065 76.1943L246.51 76.5543L246.525 77.4093ZM246.255 82.8843L246.48 84.0093C247.845 83.6493 249.675 83.1843 251.415 82.7193L251.295 81.7143C249.42 82.1643 247.53 82.6293 246.255 82.8843ZM252.015 71.9493V72.9843H258.135V71.9493H252.015ZM257.805 71.9493V72.1443C256.635 74.4843 253.71 76.4043 251.025 77.3043C251.25 77.5293 251.55 77.9643 251.7 78.2493C254.61 77.1693 257.655 75.1743 259.05 72.3093L258.255 71.8893L258.03 71.9493H257.805ZM251.235 83.4843V84.5343H260.085V83.4843H251.235ZM255.105 79.4493V83.8743H256.23V79.4493H255.105ZM252.135 78.7593V79.8093H259.365V78.7593H252.135ZM255.135 75.9693C256.62 76.5993 258.555 77.5743 259.515 78.2343L260.16 77.3043C259.17 76.6743 257.22 75.7443 255.75 75.1743L255.135 75.9693ZM265.875 78.1593V78.3393C265.665 81.9843 265.425 83.3643 265.08 83.7093C264.945 83.8743 264.795 83.8893 264.54 83.8893C264.27 83.8893 263.58 83.8743 262.83 83.7993C263.01 84.0693 263.115 84.4593 263.13 84.7593C263.85 84.7893 264.555 84.8043 264.945 84.7743C265.38 84.7443 265.665 84.6393 265.92 84.3393C266.385 83.8593 266.61 82.4343 266.85 78.6243C266.865 78.4743 266.865 78.1593 266.865 78.1593H265.875ZM261.135 81.5343L261.36 82.4643C262.485 82.1643 263.865 81.7743 265.23 81.3993L265.125 80.5293C263.64 80.9193 262.17 81.3093 261.135 81.5343ZM261.63 71.8293V72.7893H265.59V71.8293H261.63ZM265.26 71.8293C265.17 73.8843 264.9 76.7643 264.66 78.4593L265.65 78.3993C265.845 76.7943 266.1 73.9443 266.235 71.8293H265.26ZM262.26 73.9143C262.17 75.5343 261.975 77.7543 261.795 79.0893H262.755C262.935 77.7993 263.115 75.6093 263.22 73.9743L262.26 73.9143ZM262.14 78.1593V79.0893H266.04V78.1593H262.14ZM271.035 71.6193L270.21 72.1443C271.23 73.8093 273.09 75.8043 274.71 76.9893C274.815 76.6743 275.07 76.1943 275.28 75.9393C273.75 74.9643 271.935 73.1343 271.035 71.6193ZM270.66 71.0343C269.745 73.1343 268.095 74.9793 266.28 76.1193C266.49 76.3443 266.835 76.8093 266.955 77.0193C268.83 75.7143 270.585 73.6893 271.65 71.3643L270.66 71.0343ZM268.665 75.7893V76.7793H273.135V75.7893H268.665ZM267.675 78.3093C268.095 79.4643 268.515 80.9493 268.635 81.9243L269.55 81.6843C269.415 80.7093 268.995 79.2243 268.545 78.0993L267.675 78.3093ZM270.315 77.9343C270.585 79.0743 270.855 80.5593 270.915 81.5343L271.845 81.3843C271.77 80.4093 271.5 78.9543 271.2 77.8143L270.315 77.9343ZM273.705 78.0243C273.21 79.6593 272.25 81.9843 271.485 83.3793L272.31 83.6343C273.105 82.2693 274.05 80.0343 274.74 78.2643L273.705 78.0243ZM267.195 83.2143V84.2043H274.845V83.2143H267.195ZM280.605 72.6843V73.6743H289.59V72.6843H280.605ZM279.96 83.5443V84.5043H290.04V83.5443H279.96ZM281.4 75.0843V83.8143H282.42V75.9543H287.655V83.8143H288.69V75.0843H281.4ZM282.105 77.2293V78.0693H287.895V77.2293H282.105ZM282.075 79.3443V80.1693H288.12V79.3443H282.075ZM282.075 81.4593V82.2993H287.925V81.4593H282.075ZM284.64 71.1543C284.52 72.4143 284.205 74.2443 283.92 75.3543L284.91 75.4593C285.225 74.4093 285.585 72.6543 285.84 71.2293L284.64 71.1543ZM279.615 71.1693C278.82 73.4493 277.53 75.6843 276.135 77.1543C276.33 77.4093 276.66 77.9943 276.765 78.2643C278.31 76.5693 279.735 74.0193 280.665 71.4843L279.615 71.1693ZM278.04 75.0993V84.9393H279.09V74.0493L279.075 74.0343L278.04 75.0993ZM295.59 82.9393V79.0393H291.79V76.9593H295.59V73.1793H297.75V76.9593H301.55V79.0393H297.75V82.9393H295.59ZM308.682 83.9593C307.749 83.9593 306.835 83.8193 305.942 83.5393C305.062 83.2459 304.349 82.8659 303.802 82.3993L304.782 80.0593C305.982 80.9393 307.262 81.3793 308.622 81.3793C309.382 81.3793 309.969 81.1926 310.382 80.8193C310.809 80.4459 311.022 79.9459 311.022 79.3193C311.022 78.6793 310.815 78.1659 310.402 77.7793C310.002 77.3926 309.455 77.1993 308.762 77.1993C307.762 77.1993 306.909 77.5793 306.202 78.3393H304.202V69.6393H313.122V72.1793H307.182V75.3393C307.835 74.9126 308.622 74.6993 309.542 74.6993C310.435 74.6993 311.215 74.8926 311.882 75.2793C312.549 75.6526 313.069 76.1793 313.442 76.8593C313.815 77.5393 314.002 78.3259 314.002 79.2193C314.002 80.1659 313.789 80.9926 313.362 81.6993C312.935 82.4059 312.322 82.9593 311.522 83.3593C310.722 83.7593 309.775 83.9593 308.682 83.9593Z" fill="#F48023"/>
<path d="M91.2333 69.8089L88.6368 67.14C88.5496 67.0504 88.4311 67 88.3076 67C88.1841 67 88.0656 67.0504 87.9784 67.14L77.0122 78.3877C76.9249 78.4773 76.8065 78.5277 76.6829 78.5277C76.5594 78.5277 76.441 78.4773 76.3537 78.3877L73.7573 75.7187C73.67 75.6291 73.5516 75.5787 73.428 75.5787C73.3045 75.5787 73.1861 75.6291 73.0988 75.7187L70.5024 78.3877C70.3208 78.5738 70.3208 78.8755 70.5024 79.0616L76.3537 85.06C76.441 85.1496 76.5594 85.2 76.6829 85.2C76.8065 85.2 76.9249 85.1496 77.0122 85.06L91.2333 70.4762C91.4105 70.2909 91.4105 69.9943 91.2333 69.8089Z" fill="#F48023"/>
</g>
<g clip-path="url(#clip1_343_1446)">
<g clip-path="url(#clip2_343_1446)">
<rect x="67.0776" y="129" width="22" height="22" rx="11" fill="#C3F3F7"/>
</g>
<path d="M89.0282 132.809L86.5458 130.14C86.4623 130.05 86.3491 130 86.231 130C86.1129 130 85.9997 130.05 85.9163 130.14L75.4317 141.388C75.3483 141.477 75.235 141.528 75.1169 141.528C74.9988 141.528 74.8856 141.477 74.8022 141.388L72.3197 138.719C72.2363 138.629 72.1231 138.579 72.005 138.579C71.8869 138.579 71.7736 138.629 71.6902 138.719L69.2078 141.388C69.0342 141.574 69.0342 141.875 69.2078 142.062L74.8022 148.06C74.8856 148.15 74.9988 148.2 75.1169 148.2C75.235 148.2 75.3483 148.15 75.4317 148.06L89.0282 133.476C89.1976 133.291 89.1976 132.994 89.0282 132.809Z" fill="#F48023"/>
<path d="M123.845 138.579C122.997 139.411 121.381 140.163 119.941 140.595C120.181 140.771 120.469 141.075 120.629 141.299C122.149 140.803 123.797 139.971 124.773 138.947L123.845 138.579ZM125.381 140.115C124.293 141.251 122.197 142.163 120.165 142.627C120.389 142.835 120.629 143.187 120.789 143.411C122.933 142.835 125.077 141.827 126.293 140.499L125.381 140.115ZM126.885 141.859C125.445 143.507 122.501 144.531 119.285 144.995C119.525 145.251 119.797 145.667 119.909 145.955C123.301 145.363 126.325 144.211 127.909 142.307L126.885 141.859ZM121.717 131.299C121.061 133.011 119.893 134.675 118.613 135.747C118.885 135.907 119.333 136.275 119.525 136.467C120.821 135.283 122.053 133.475 122.837 131.571L121.717 131.299ZM121.365 133.043L120.757 134.051H127.877V133.043H121.365ZM125.685 133.267C124.597 135.987 121.973 137.555 118.741 138.387C118.965 138.611 119.317 139.091 119.461 139.331C122.773 138.307 125.525 136.579 126.821 133.539L125.685 133.267ZM121.253 133.667L120.517 134.259C121.573 136.243 123.973 138.339 127.733 139.187C127.877 138.899 128.165 138.451 128.389 138.227C124.645 137.523 122.229 135.587 121.253 133.667ZM117.653 133.203V143.363H118.709V133.203H117.653ZM116.405 131.395C115.637 133.875 114.357 136.339 112.965 137.939C113.173 138.243 113.493 138.883 113.589 139.155C115.189 137.299 116.613 134.483 117.525 131.715L116.405 131.395ZM115.125 135.315V146.019H116.277V134.243L116.245 134.211L115.125 135.315ZM130.437 136.995V138.099H134.501V136.995H130.437ZM129.797 132.707V133.827H134.085V138.707H135.237V132.707H129.797ZM129.797 136.995V142.115C129.797 143.475 130.197 143.827 131.621 143.827C131.925 143.827 133.781 143.827 134.101 143.827C135.349 143.827 135.685 143.315 135.829 141.283C135.493 141.203 134.997 141.011 134.741 140.803C134.677 142.435 134.581 142.691 134.005 142.691C133.605 142.691 132.053 142.691 131.749 142.691C131.077 142.691 130.965 142.611 130.965 142.099V136.995H129.797ZM137.493 134.243V135.379H144.085V134.243H137.493ZM137.909 131.315C137.397 133.971 136.437 136.467 135.029 138.051C135.333 138.227 135.861 138.595 136.101 138.803C137.493 137.075 138.533 134.419 139.157 131.523L137.909 131.315ZM141.653 134.691C140.885 140.227 139.013 143.363 134.437 145.011C134.677 145.283 135.045 145.811 135.173 146.083C139.925 144.131 141.973 140.803 142.869 134.835L141.653 134.691ZM137.973 135.267L136.869 135.475C137.845 140.467 139.717 144.275 143.429 146.019C143.621 145.683 144.005 145.219 144.277 144.979C140.709 143.475 138.837 139.811 137.973 135.267ZM148.325 135.955V137.043H157.029V135.955H148.325ZM145.589 138.899V140.035H159.781V138.899H145.589ZM149.797 139.683C149.525 142.291 148.837 144.131 145.237 145.027C145.493 145.267 145.813 145.747 145.941 146.051C149.845 144.963 150.741 142.803 151.077 139.683H149.797ZM153.845 139.587V144.099C153.845 145.379 154.229 145.747 155.701 145.747C156.021 145.747 157.861 145.747 158.181 145.747C159.461 145.747 159.813 145.187 159.941 142.995C159.621 142.899 159.109 142.707 158.853 142.515C158.805 144.355 158.693 144.643 158.085 144.643C157.669 144.643 156.149 144.643 155.829 144.643C155.157 144.643 155.045 144.563 155.045 144.083V139.587H153.845ZM152.021 131.315V133.859H153.285V131.315H152.021ZM145.957 133.027V136.419H147.173V134.163H158.149V136.419H159.413V133.027H145.957ZM164.309 144.515V145.475H173.125V144.515H164.309ZM163.749 141.651V146.019H164.917V142.611H172.501V145.971H173.733V141.651H163.749ZM162.437 133.075V134.019H174.965V133.075H162.437ZM162.005 137.091V138.035H175.461V137.091H162.005ZM163.413 135.091V135.987H173.973V135.091H163.413ZM161.525 139.747V140.707H175.877V139.747H161.525ZM168.037 133.491V140.163H169.269V133.491H168.037ZM164.645 131.635C165.061 132.179 165.509 132.931 165.669 133.411L166.805 133.027C166.597 132.547 166.165 131.827 165.717 131.315L164.645 131.635ZM163.941 138.275C164.309 138.755 164.709 139.443 164.853 139.907L166.005 139.555C165.829 139.107 165.429 138.451 165.013 137.971L163.941 138.275ZM171.509 131.283C171.285 131.811 170.837 132.579 170.501 133.091L171.557 133.347C171.909 132.899 172.357 132.227 172.741 131.555L171.509 131.283ZM172.245 137.987C172.021 138.451 171.589 139.155 171.269 139.603L172.341 139.843C172.693 139.443 173.077 138.851 173.445 138.243L172.245 137.987ZM184.629 132.595C186.101 134.691 189.045 137.219 191.653 138.723C191.877 138.371 192.165 137.955 192.469 137.651C189.845 136.307 186.917 133.827 185.173 131.347H183.925C182.661 133.507 179.877 136.211 176.965 137.859C177.237 138.115 177.573 138.547 177.749 138.819C180.597 137.155 183.301 134.611 184.629 132.595ZM183.989 136.595V146.035H185.253V136.595H183.989ZM199.861 131.795C199.749 133.923 199.749 141.619 193.221 144.947C193.589 145.219 193.989 145.587 194.197 145.891C200.821 142.291 201.061 134.307 201.189 131.795H199.861ZM201.141 132.115L199.989 132.227C200.101 133.699 200.549 142.643 207.333 145.891C207.525 145.555 207.893 145.155 208.245 144.883C201.653 141.859 201.189 133.363 201.141 132.115ZM215.157 132.067V133.043H222.565V132.067H215.157ZM214.965 136.499V137.491H222.853V136.499H214.965ZM214.965 138.723V139.715H222.821V138.723H214.965ZM215.429 144.275V145.267H222.373V144.275H215.429ZM213.653 134.275V135.283H224.069V134.275H213.653ZM214.805 140.947V146.019H215.957V141.923H221.797V145.971H222.997V140.947H214.805ZM213.109 131.347C212.181 133.779 210.613 136.163 208.997 137.683C209.221 137.971 209.557 138.595 209.669 138.867C211.445 137.091 213.157 134.403 214.245 131.699L213.109 131.347ZM211.445 135.475V145.987H212.597V134.355L212.581 134.339L211.445 135.475ZM229.477 141.715V144.371C229.477 145.603 229.893 145.939 231.573 145.939C231.925 145.939 234.341 145.939 234.709 145.939C236.037 145.939 236.389 145.507 236.549 143.731C236.229 143.667 235.733 143.491 235.461 143.299C235.397 144.659 235.285 144.851 234.597 144.851C234.069 144.851 232.053 144.851 231.669 144.851C230.805 144.851 230.661 144.771 230.661 144.355V141.715H229.477ZM231.125 141.155C232.053 141.795 233.093 142.771 233.541 143.475L234.485 142.803C234.005 142.083 232.949 141.155 232.005 140.531L231.125 141.155ZM236.293 142.019C237.461 143.043 238.661 144.483 239.157 145.491L240.181 144.819C239.669 143.795 238.405 142.403 237.253 141.427L236.293 142.019ZM227.285 141.587C226.933 142.755 226.261 144.035 225.285 144.803L226.261 145.491C227.317 144.627 227.941 143.219 228.341 141.971L227.285 141.587ZM229.029 135.795H236.517V137.123H229.029V135.795ZM229.029 138.051H236.517V139.379H229.029V138.051ZM229.029 133.571H236.517V134.883H229.029V133.571ZM227.877 132.611V140.355H237.717V132.611H227.877ZM232.133 131.139C231.989 131.651 231.717 132.403 231.477 132.915L232.549 133.171C232.821 132.707 233.205 132.067 233.525 131.379L232.133 131.139Z" fill="url(#paint1_linear_343_1446)"/>
<path d="M267.336 142.009C267.336 141.784 268.131 141.439 268.131 141.439V141.394C269.631 139.969 271.176 137.959 272.451 135.904L271.461 135.289C270.351 137.329 268.686 139.414 268.161 139.954C267.666 140.494 267.306 140.869 266.961 140.929C267.096 141.229 267.276 141.784 267.336 142.009ZM267.336 142.009C267.666 141.829 268.191 141.679 272.031 140.899C272.016 140.674 272.016 140.224 272.061 139.909L267.846 140.674L267.276 141.064L267.336 142.009ZM267.231 138.409C267.231 138.169 267.921 137.824 267.921 137.824V137.779C269.016 136.429 270.126 134.509 270.951 132.634L269.871 132.139C269.241 133.954 268.101 135.904 267.741 136.399C267.426 136.909 267.141 137.254 266.856 137.314C266.991 137.614 267.171 138.169 267.231 138.409ZM267.231 138.409C267.501 138.274 267.936 138.184 270.666 137.824C270.681 137.599 270.711 137.179 270.771 136.879L267.771 137.194L267.216 137.554L267.231 138.409ZM266.961 143.884L267.186 145.009C268.551 144.649 270.381 144.184 272.121 143.719L272.001 142.714C270.126 143.164 268.236 143.629 266.961 143.884ZM272.721 132.949V133.984H278.841V132.949H272.721ZM278.511 132.949V133.144C277.341 135.484 274.416 137.404 271.731 138.304C271.956 138.529 272.256 138.964 272.406 139.249C275.316 138.169 278.361 136.174 279.756 133.309L278.961 132.889L278.736 132.949H278.511ZM271.941 144.484V145.534H280.791V144.484H271.941ZM275.811 140.449V144.874H276.936V140.449H275.811ZM272.841 139.759V140.809H280.071V139.759H272.841ZM275.841 136.969C277.326 137.599 279.261 138.574 280.221 139.234L280.866 138.304C279.876 137.674 277.926 136.744 276.456 136.174L275.841 136.969ZM286.581 139.159V139.339C286.371 142.984 286.131 144.364 285.786 144.709C285.651 144.874 285.501 144.889 285.246 144.889C284.976 144.889 284.286 144.874 283.536 144.799C283.716 145.069 283.821 145.459 283.836 145.759C284.556 145.789 285.261 145.804 285.651 145.774C286.086 145.744 286.371 145.639 286.626 145.339C287.091 144.859 287.316 143.434 287.556 139.624C287.571 139.474 287.571 139.159 287.571 139.159H286.581ZM281.841 142.534L282.066 143.464C283.191 143.164 284.571 142.774 285.936 142.399L285.831 141.529C284.346 141.919 282.876 142.309 281.841 142.534ZM282.336 132.829V133.789H286.296V132.829H282.336ZM285.966 132.829C285.876 134.884 285.606 137.764 285.366 139.459L286.356 139.399C286.551 137.794 286.806 134.944 286.941 132.829H285.966ZM282.966 134.914C282.876 136.534 282.681 138.754 282.501 140.089H283.461C283.641 138.799 283.821 136.609 283.926 134.974L282.966 134.914ZM282.846 139.159V140.089H286.746V139.159H282.846ZM291.741 132.619L290.916 133.144C291.936 134.809 293.796 136.804 295.416 137.989C295.521 137.674 295.776 137.194 295.986 136.939C294.456 135.964 292.641 134.134 291.741 132.619ZM291.366 132.034C290.451 134.134 288.801 135.979 286.986 137.119C287.196 137.344 287.541 137.809 287.661 138.019C289.536 136.714 291.291 134.689 292.356 132.364L291.366 132.034ZM289.371 136.789V137.779H293.841V136.789H289.371ZM288.381 139.309C288.801 140.464 289.221 141.949 289.341 142.924L290.256 142.684C290.121 141.709 289.701 140.224 289.251 139.099L288.381 139.309ZM291.021 138.934C291.291 140.074 291.561 141.559 291.621 142.534L292.551 142.384C292.476 141.409 292.206 139.954 291.906 138.814L291.021 138.934ZM294.411 139.024C293.916 140.659 292.956 142.984 292.191 144.379L293.016 144.634C293.811 143.269 294.756 141.034 295.446 139.264L294.411 139.024ZM287.901 144.214V145.204H295.551V144.214H287.901ZM301.311 133.684V134.674H310.296V133.684H301.311ZM300.666 144.544V145.504H310.746V144.544H300.666ZM302.106 136.084V144.814H303.126V136.954H308.361V144.814H309.396V136.084H302.106ZM302.811 138.229V139.069H308.601V138.229H302.811ZM302.781 140.344V141.169H308.826V140.344H302.781ZM302.781 142.459V143.299H308.631V142.459H302.781ZM305.346 132.154C305.226 133.414 304.911 135.244 304.626 136.354L305.616 136.459C305.931 135.409 306.291 133.654 306.546 132.229L305.346 132.154ZM300.321 132.169C299.526 134.449 298.236 136.684 296.841 138.154C297.036 138.409 297.366 138.994 297.471 139.264C299.016 137.569 300.441 135.019 301.371 132.484L300.321 132.169ZM298.746 136.099V145.939H299.796V135.049L299.781 135.034L298.746 136.099ZM316.296 143.939V140.039H312.496V137.959H316.296V134.179H318.456V137.959H322.256V140.039H318.456V143.939H316.296ZM329.389 144.959C328.455 144.959 327.542 144.819 326.649 144.539C325.769 144.246 325.055 143.866 324.509 143.399L325.489 141.059C326.689 141.939 327.969 142.379 329.329 142.379C330.089 142.379 330.675 142.193 331.089 141.819C331.515 141.446 331.729 140.946 331.729 140.319C331.729 139.679 331.522 139.166 331.109 138.779C330.709 138.393 330.162 138.199 329.469 138.199C328.469 138.199 327.615 138.579 326.909 139.339H324.909V130.639H333.829V133.179H327.889V136.339C328.542 135.913 329.329 135.699 330.249 135.699C331.142 135.699 331.922 135.893 332.589 136.279C333.255 136.653 333.775 137.179 334.149 137.859C334.522 138.539 334.709 139.326 334.709 140.219C334.709 141.166 334.495 141.993 334.069 142.699C333.642 143.406 333.029 143.959 332.229 144.359C331.429 144.759 330.482 144.959 329.389 144.959Z" fill="#F48023"/>
</g>
<g clip-path="url(#clip3_343_1446)">
<g clip-path="url(#clip4_343_1446)">
<rect x="67.0776" y="198" width="22" height="22" rx="11" fill="#C3F3F7"/>
</g>
<path d="M122.065 205.483V206.683H128.641V205.483H122.065ZM115.361 213.067V214.267H129.729V213.067H115.361ZM121.377 200.539V213.707H122.641V200.539H121.377ZM134.785 200.363C133.889 202.795 132.401 205.195 130.817 206.747C131.041 207.019 131.377 207.659 131.489 207.931C133.233 206.139 134.865 203.435 135.921 200.715L134.785 200.363ZM133.089 204.491V215.003H134.257V203.355L134.241 203.339L133.089 204.491ZM138.113 208.235V209.355H144.049V208.235H138.113ZM143.665 208.235V208.363C142.817 209.403 141.153 211.275 139.793 212.683L140.769 213.291C142.161 211.835 143.793 210.011 144.929 208.683L144.081 208.155L143.889 208.235H143.665ZM139.713 200.395C139.041 203.179 137.921 207.083 137.105 209.355H138.401C139.105 207.195 140.177 203.371 140.881 200.555L139.713 200.395ZM136.113 202.171V203.275H145.057V202.171H136.113ZM135.185 205.195V206.315H145.793V205.195H135.185ZM138.033 211.739C139.553 212.683 141.361 214.107 142.225 215.035L143.121 214.139C142.225 213.243 140.449 211.931 138.897 211.019L138.033 211.739ZM153.985 200.379C153.457 202.731 152.529 205.035 151.345 206.523C151.617 206.699 152.097 207.083 152.305 207.291C153.537 205.659 154.545 203.195 155.169 200.635L153.985 200.379ZM153.713 207.163C153.265 209.083 152.497 210.987 151.505 212.219C151.793 212.363 152.305 212.683 152.545 212.875C153.521 211.531 154.385 209.499 154.881 207.403L153.713 207.163ZM153.841 203.387L153.377 204.507H161.041V203.387H153.841ZM156.321 203.851V213.563C156.321 213.771 156.257 213.835 156.049 213.835C155.825 213.835 155.137 213.851 154.385 213.819C154.561 214.171 154.737 214.699 154.817 215.035C155.809 215.035 156.497 215.003 156.929 214.795C157.377 214.603 157.521 214.251 157.521 213.563V203.851H156.321ZM158.673 207.403C159.553 209.083 160.353 211.339 160.609 212.811L161.745 212.427C161.473 210.939 160.673 208.731 159.745 207.051L158.673 207.403ZM160.689 203.387V203.563C160.529 204.619 160.321 205.963 160.145 206.763L161.185 206.955C161.393 206.091 161.665 204.715 161.889 203.531L161.057 203.355L160.849 203.387H160.689ZM150.769 200.363C149.873 202.795 148.369 205.195 146.785 206.747C147.009 207.019 147.345 207.659 147.473 207.931C149.201 206.139 150.849 203.435 151.905 200.715L150.769 200.363ZM149.105 204.491V215.003H150.257V203.371L150.225 203.355L149.105 204.491ZM164.641 202.875V203.947H168.385V212.251H164.641V213.339H169.505V202.875H164.641ZM163.921 202.875V214.619H165.041V202.875H163.921ZM164.561 207.323V208.395H168.977V207.323H164.561ZM166.369 200.267C166.241 201.099 165.937 202.315 165.665 203.083L166.625 203.323C166.945 202.603 167.345 201.499 167.665 200.507L166.369 200.267ZM171.777 202.827V203.947H176.689V202.827H171.777ZM176.273 202.827V203.083C176.049 210.139 175.793 212.795 175.265 213.371C175.089 213.579 174.897 213.627 174.577 213.627C174.209 213.627 173.249 213.611 172.209 213.531C172.433 213.851 172.577 214.347 172.609 214.699C173.505 214.747 174.449 214.779 174.993 214.715C175.553 214.667 175.921 214.523 176.273 214.059C176.913 213.275 177.137 210.795 177.393 203.451C177.393 203.275 177.393 202.827 177.393 202.827H176.273ZM172.113 200.235C171.601 202.459 170.721 204.667 169.633 206.075C169.921 206.235 170.417 206.571 170.625 206.763C171.729 205.243 172.673 202.891 173.265 200.507L172.113 200.235ZM171.377 206.987C172.257 208.155 173.329 209.739 173.809 210.715L174.833 210.075C174.321 209.131 173.217 207.579 172.305 206.443L171.377 206.987ZM186.993 200.459C186.961 207.499 187.233 212.075 179.441 213.963C179.697 214.219 180.001 214.683 180.145 214.971C188.241 212.907 188.209 207.787 188.225 200.459H186.993ZM179.441 207.643V208.763H193.681V207.643H179.441ZM187.121 211.099C189.313 212.171 191.537 213.595 192.817 214.795L193.617 213.883C192.289 212.715 189.985 211.291 187.761 210.251L187.121 211.099ZM181.601 201.883C182.897 202.363 184.481 203.211 185.265 203.867L185.953 202.875C185.153 202.235 183.553 201.467 182.273 201.035L181.601 201.883ZM180.177 204.811C181.457 205.323 183.041 206.187 183.793 206.859L184.577 205.915C183.761 205.243 182.177 204.427 180.897 203.963L180.177 204.811ZM202.081 200.331C201.425 201.579 200.225 203.147 198.577 204.315C198.865 204.459 199.249 204.763 199.457 205.003C201.169 203.675 202.401 202.027 203.249 200.539L202.081 200.331ZM202.161 201.339L201.425 202.267H206.033V201.339H202.161ZM201.025 204.347H208.129V206.155H201.025V204.347ZM199.921 203.451V207.035H209.297V203.451H199.921ZM203.969 203.819V206.539H205.057V203.819H203.969ZM204.033 206.251C202.865 207.307 200.769 208.235 198.945 208.779C199.169 208.987 199.489 209.403 199.649 209.611C201.473 208.955 203.665 207.851 204.977 206.635L204.033 206.251ZM202.353 207.963C204.993 209.947 205.073 213.067 204.113 213.755C203.825 213.995 203.537 214.027 203.137 214.027C202.817 214.027 202.337 214.011 201.825 213.963C202.017 214.267 202.113 214.715 202.113 215.003C202.577 215.035 203.025 215.035 203.361 215.035C204.001 215.019 204.433 214.923 204.897 214.539C206.273 213.515 206.193 209.659 203.137 207.451L202.353 207.963ZM203.777 208.603C202.769 209.531 200.673 210.603 199.073 211.051C199.313 211.275 199.569 211.627 199.697 211.883C201.329 211.275 203.409 210.107 204.513 209.099L203.777 208.603ZM204.609 210.315C203.393 211.643 200.817 213.083 198.785 213.723C199.025 213.947 199.297 214.331 199.441 214.619C201.521 213.835 204.065 212.283 205.409 210.891L204.609 210.315ZM208.913 207.531C208.257 208.187 207.089 209.115 206.257 209.627L206.961 210.283C207.809 209.771 208.929 208.971 209.761 208.235L208.913 207.531ZM205.809 206.427L204.817 206.619C205.553 210.011 206.977 212.907 209.217 214.331C209.393 214.027 209.761 213.611 210.017 213.387C207.889 212.171 206.481 209.451 205.809 206.427ZM205.649 201.339V201.547C205.361 202.171 204.785 203.035 204.273 203.563C204.481 203.723 204.801 204.059 204.961 204.267C205.585 203.643 206.353 202.667 206.849 201.771L206.113 201.259L205.905 201.339H205.649ZM198.257 200.395C197.489 202.859 196.225 205.323 194.817 206.923C195.025 207.227 195.345 207.867 195.457 208.155C197.041 206.283 198.465 203.467 199.377 200.699L198.257 200.395ZM196.977 204.315V215.019H198.113V203.243L198.081 203.211L196.977 204.315Z" fill="url(#paint2_linear_343_1446)"/>
<path d="M247.462 211.009C247.462 210.784 248.257 210.439 248.257 210.439V210.394C249.757 208.969 251.302 206.959 252.577 204.904L251.587 204.289C250.477 206.329 248.812 208.414 248.287 208.954C247.792 209.494 247.432 209.869 247.087 209.929C247.222 210.229 247.402 210.784 247.462 211.009ZM247.462 211.009C247.792 210.829 248.317 210.679 252.157 209.899C252.142 209.674 252.142 209.224 252.187 208.909L247.972 209.674L247.402 210.064L247.462 211.009ZM247.357 207.409C247.357 207.169 248.047 206.824 248.047 206.824V206.779C249.142 205.429 250.252 203.509 251.077 201.634L249.997 201.139C249.367 202.954 248.227 204.904 247.867 205.399C247.552 205.909 247.267 206.254 246.982 206.314C247.117 206.614 247.297 207.169 247.357 207.409ZM247.357 207.409C247.627 207.274 248.062 207.184 250.792 206.824C250.807 206.599 250.837 206.179 250.897 205.879L247.897 206.194L247.342 206.554L247.357 207.409ZM247.087 212.884L247.312 214.009C248.677 213.649 250.507 213.184 252.247 212.719L252.127 211.714C250.252 212.164 248.362 212.629 247.087 212.884ZM252.847 201.949V202.984H258.967V201.949H252.847ZM258.637 201.949V202.144C257.467 204.484 254.542 206.404 251.857 207.304C252.082 207.529 252.382 207.964 252.532 208.249C255.442 207.169 258.487 205.174 259.882 202.309L259.087 201.889L258.862 201.949H258.637ZM252.067 213.484V214.534H260.917V213.484H252.067ZM255.937 209.449V213.874H257.062V209.449H255.937ZM252.967 208.759V209.809H260.197V208.759H252.967ZM255.967 205.969C257.452 206.599 259.387 207.574 260.347 208.234L260.992 207.304C260.002 206.674 258.052 205.744 256.582 205.174L255.967 205.969ZM266.707 208.159V208.339C266.497 211.984 266.257 213.364 265.912 213.709C265.777 213.874 265.627 213.889 265.372 213.889C265.102 213.889 264.412 213.874 263.662 213.799C263.842 214.069 263.947 214.459 263.962 214.759C264.682 214.789 265.387 214.804 265.777 214.774C266.212 214.744 266.497 214.639 266.752 214.339C267.217 213.859 267.442 212.434 267.682 208.624C267.697 208.474 267.697 208.159 267.697 208.159H266.707ZM261.967 211.534L262.192 212.464C263.317 212.164 264.697 211.774 266.062 211.399L265.957 210.529C264.472 210.919 263.002 211.309 261.967 211.534ZM262.462 201.829V202.789H266.422V201.829H262.462ZM266.092 201.829C266.002 203.884 265.732 206.764 265.492 208.459L266.482 208.399C266.677 206.794 266.932 203.944 267.067 201.829H266.092ZM263.092 203.914C263.002 205.534 262.807 207.754 262.627 209.089H263.587C263.767 207.799 263.947 205.609 264.052 203.974L263.092 203.914ZM262.972 208.159V209.089H266.872V208.159H262.972ZM271.867 201.619L271.042 202.144C272.062 203.809 273.922 205.804 275.542 206.989C275.647 206.674 275.902 206.194 276.112 205.939C274.582 204.964 272.767 203.134 271.867 201.619ZM271.492 201.034C270.577 203.134 268.927 204.979 267.112 206.119C267.322 206.344 267.667 206.809 267.787 207.019C269.662 205.714 271.417 203.689 272.482 201.364L271.492 201.034ZM269.497 205.789V206.779H273.967V205.789H269.497ZM268.507 208.309C268.927 209.464 269.347 210.949 269.467 211.924L270.382 211.684C270.247 210.709 269.827 209.224 269.377 208.099L268.507 208.309ZM271.147 207.934C271.417 209.074 271.687 210.559 271.747 211.534L272.677 211.384C272.602 210.409 272.332 208.954 272.032 207.814L271.147 207.934ZM274.537 208.024C274.042 209.659 273.082 211.984 272.317 213.379L273.142 213.634C273.937 212.269 274.882 210.034 275.572 208.264L274.537 208.024ZM268.027 213.214V214.204H275.677V213.214H268.027ZM281.437 202.684V203.674H290.422V202.684H281.437ZM280.792 213.544V214.504H290.872V213.544H280.792ZM282.232 205.084V213.814H283.252V205.954H288.487V213.814H289.522V205.084H282.232ZM282.937 207.229V208.069H288.727V207.229H282.937ZM282.907 209.344V210.169H288.952V209.344H282.907ZM282.907 211.459V212.299H288.757V211.459H282.907ZM285.472 201.154C285.352 202.414 285.037 204.244 284.752 205.354L285.742 205.459C286.057 204.409 286.417 202.654 286.672 201.229L285.472 201.154ZM280.447 201.169C279.652 203.449 278.362 205.684 276.967 207.154C277.162 207.409 277.492 207.994 277.597 208.264C279.142 206.569 280.567 204.019 281.497 201.484L280.447 201.169ZM278.872 205.099V214.939H279.922V204.049L279.907 204.034L278.872 205.099ZM296.422 212.939V209.039H292.622V206.959H296.422V203.179H298.582V206.959H302.382V209.039H298.582V212.939H296.422ZM309.515 213.959C308.581 213.959 307.668 213.819 306.775 213.539C305.895 213.246 305.181 212.866 304.635 212.399L305.615 210.059C306.815 210.939 308.095 211.379 309.455 211.379C310.215 211.379 310.801 211.193 311.215 210.819C311.641 210.446 311.855 209.946 311.855 209.319C311.855 208.679 311.648 208.166 311.235 207.779C310.835 207.393 310.288 207.199 309.595 207.199C308.595 207.199 307.741 207.579 307.035 208.339H305.035V199.639H313.955V202.179H308.015V205.339C308.668 204.913 309.455 204.699 310.375 204.699C311.268 204.699 312.048 204.893 312.715 205.279C313.381 205.653 313.901 206.179 314.275 206.859C314.648 207.539 314.835 208.326 314.835 209.219C314.835 210.166 314.621 210.993 314.195 211.699C313.768 212.406 313.155 212.959 312.355 213.359C311.555 213.759 310.608 213.959 309.515 213.959Z" fill="#F48023"/>
</g>
<defs>
<linearGradient id="paint0_linear_343_1446" x1="278.497" y1="63.7393" x2="278.497" y2="100.739" gradientUnits="userSpaceOnUse">
<stop stop-color="#56BCEB"/>
<stop offset="1" stop-color="#A770D7"/>
</linearGradient>
<linearGradient id="paint1_linear_343_1446" x1="299.437" y1="124.739" x2="299.437" y2="161.739" gradientUnits="userSpaceOnUse">
<stop stop-color="#56BCEB"/>
<stop offset="1" stop-color="#A770D7"/>
</linearGradient>
<linearGradient id="paint2_linear_343_1446" x1="308.861" y1="193.739" x2="308.861" y2="230.739" gradientUnits="userSpaceOnUse">
<stop stop-color="#56BCEB"/>
<stop offset="1" stop-color="#A770D7"/>
</linearGradient>
<clipPath id="clip0_343_1446">
<rect width="288.775" height="28" fill="white" transform="translate(67 66)"/>
</clipPath>
<clipPath id="clip1_343_1446">
<rect width="317.366" height="28" fill="white" transform="translate(67 127)"/>
</clipPath>
<clipPath id="clip2_343_1446">
<rect width="22" height="22" fill="white" transform="translate(67.0776 129)"/>
</clipPath>
<clipPath id="clip3_343_1446">
<rect width="330.232" height="28" fill="white" transform="translate(67 196)"/>
</clipPath>
<clipPath id="clip4_343_1446">
<rect width="22" height="22" fill="white" transform="translate(67.0776 198)"/>
</clipPath>
</defs>
</svg>
