<svg width="22" height="19" viewBox="0 0 22 19" fill="none" xmlns="http://www.w3.org/2000/svg">
<path d="M21.2333 2.80895L18.6368 0.140018C18.5496 0.0503781 18.4311 0 18.3076 0C18.1841 0 18.0656 0.0503781 17.9784 0.140018L7.01216 11.3877C6.92492 11.4773 6.80647 11.5277 6.68295 11.5277C6.55942 11.5277 6.44097 11.4773 6.35374 11.3877L3.75726 8.71873C3.67002 8.62909 3.55157 8.57871 3.42804 8.57871C3.30452 8.57871 3.18607 8.62909 3.09883 8.71873L0.502353 11.3877C0.32083 11.5738 0.32083 11.8755 0.502353 12.0616L6.35374 18.06C6.44097 18.1496 6.55942 18.2 6.68295 18.2C6.80647 18.2 6.92492 18.1496 7.01216 18.06L21.2333 3.47618C21.4105 3.29086 21.4105 2.99427 21.2333 2.80895Z" fill="#F48023"/>
</svg>
