<svg width="581" height="262" viewBox="0 0 581 262" fill="none" xmlns="http://www.w3.org/2000/svg">
<rect width="535.32" height="209.407" rx="16" transform="matrix(0.996138 0.0878005 -0.215127 0.976586 47.7476 0)" fill="#E27F86" fill-opacity="0.12"/>
<rect y="19" width="538.796" height="243" rx="16" fill="#77C5EA" fill-opacity="0.12"/>
<rect x="23" y="49.2588" width="459.621" height="51.1052" rx="9.92046" fill="white"/>
<rect x="23" y="117" width="459.621" height="51.1052" rx="9.92046" fill="white"/>
<rect x="23" y="180.259" width="459.621" height="51.1052" rx="9.92046" fill="white"/>
<g clip-path="url(#clip0_343_1446)">
<rect x="67" y="66" width="22" height="22" rx="11" fill="#C3F3F7"/>
<path d="M118.52 73.896H123.336V75.784H118.52V73.896ZM117.448 72.904V76.776H124.472V72.904H117.448ZM119.272 76.456C119.08 78.296 118.52 79.592 116.44 80.312C116.696 80.504 117 80.952 117.128 81.208C119.432 80.28 120.12 78.696 120.36 76.456H119.272ZM122.84 70.296C122.488 71.112 121.816 72.328 121.272 73.064L122.28 73.368C122.824 72.648 123.464 71.576 124.024 70.6L122.84 70.296ZM118.056 70.776C118.6 71.448 119.128 72.36 119.336 72.952L120.328 72.472C120.104 71.864 119.544 71 119 70.344L118.056 70.776ZM126.376 68.472V80.792C126.376 81.016 126.312 81.08 126.088 81.08C125.88 81.096 125.208 81.096 124.504 81.08C124.664 81.368 124.808 81.88 124.872 82.184C125.88 82.184 126.568 82.168 126.984 81.976C127.4 81.768 127.528 81.448 127.528 80.808V68.472H126.376ZM114.456 71.176V82.296H115.624V71.176H114.456ZM114.68 68.344C115.384 69.016 116.184 69.944 116.536 70.584L117.512 69.912C117.128 69.304 116.296 68.392 115.592 67.768L114.68 68.344ZM118.632 68.472V69.544H127.064V68.472H118.632ZM121.512 76.424V79.448C121.512 80.488 121.768 80.776 122.856 80.776C123.064 80.776 124.104 80.776 124.312 80.776C125.144 80.776 125.432 80.392 125.544 78.84C125.256 78.76 124.824 78.616 124.616 78.44C124.568 79.656 124.504 79.816 124.184 79.816C123.96 79.816 123.144 79.816 123 79.816C122.632 79.816 122.568 79.768 122.568 79.432V76.424H121.512ZM135.464 69.048V70.072H143.288V69.048H135.464ZM138.76 67.576V71.992H139.96V67.576H138.76ZM136.088 73.768C136.92 74.216 137.912 74.904 138.392 75.384L138.984 74.712C138.472 74.216 137.464 73.576 136.648 73.176L136.088 73.768ZM134.92 75.224C135.784 75.688 136.792 76.392 137.288 76.904L137.864 76.2C137.368 75.688 136.328 75.016 135.496 74.6L134.92 75.224ZM134.856 71.512V72.552H143.24V71.512H134.856ZM142.856 71.512V71.688C142.616 72.616 142.216 73.736 141.912 74.44L142.856 74.696C143.24 73.944 143.656 72.728 143.976 71.656L143.224 71.464L143.032 71.512H142.856ZM134.536 77V78.056H144.136V77H134.536ZM139.208 73.192V75.08C139.208 77.112 138.776 79.704 134.264 81.432C134.52 81.656 134.856 82.072 135 82.36C139.832 80.44 140.376 77.48 140.376 75.096V73.192H139.208ZM139.912 79.32C141.224 80.2 142.808 81.496 143.576 82.344L144.328 81.56C143.56 80.712 141.928 79.48 140.648 78.648L139.912 79.32ZM130.664 68.712C131.528 69.448 132.616 70.504 133.144 71.176L133.944 70.28C133.432 69.64 132.296 68.648 131.432 67.944L130.664 68.712ZM131.88 81.96C132.104 81.624 132.504 81.272 135.016 79.192C134.872 78.968 134.68 78.52 134.552 78.2L131.928 80.28L131.64 80.808L131.88 81.96ZM131.88 81.976C131.88 81.512 133.112 80.456 133.112 80.456V72.584H132.008V79.592C132.008 80.36 131.512 80.904 131.24 81.128C131.432 81.304 131.752 81.72 131.88 81.976ZM129.64 72.584V73.752H132.776V72.584H129.64ZM154.392 72.968V74.088H160.344V72.968H154.392ZM145.976 69.24V70.264H153.032V69.24H145.976ZM145.8 75.592V76.632H153.112V75.592H145.8ZM145.752 72.904V73.928H153.224V72.904H145.752ZM157.368 73.416V82.2H158.536V73.416H157.368ZM148.936 67.624V69.768H150.104V67.624H148.936ZM148.936 73.736V82.264H150.104V73.736H148.936ZM153.816 68.872V74.472C153.816 76.744 153.592 79.512 151.544 81.528C151.832 81.688 152.264 82.088 152.408 82.36C154.664 80.136 154.952 76.888 154.952 74.488V69.544C155.176 69.512 155.272 69.448 155.288 69.32L153.816 68.872ZM159.176 67.752C158.008 68.328 155.896 68.888 154.104 69.272C154.248 69.512 154.408 69.928 154.472 70.184C156.392 69.848 158.632 69.304 160.136 68.632L159.176 67.752ZM149.992 76.936L149.336 77.48C149.928 77.976 151.432 79.384 151.944 79.976L152.648 79.08C152.248 78.712 150.504 77.288 149.992 76.936ZM146.936 70.552C147.256 71.288 147.512 72.248 147.56 72.872L148.568 72.6C148.488 71.992 148.216 71.048 147.88 70.344L146.936 70.552ZM151.032 70.312C150.856 70.984 150.52 71.976 150.232 72.616L151.192 72.84C151.48 72.248 151.816 71.352 152.12 70.552L151.032 70.312ZM148.952 76.12C148.184 77.688 146.728 79.416 145.432 80.264C145.704 80.456 146.056 80.84 146.248 81.112C147.528 80.12 149 78.232 149.816 76.456L148.952 76.12ZM173.752 67.592C171.32 68.344 166.648 68.776 162.84 68.952C162.952 69.224 163.096 69.704 163.128 70.008C167.016 69.848 171.752 69.416 174.648 68.568L173.752 67.592ZM162.856 72.104V73.256H175.336V72.104H162.856ZM161.784 75.864V77.032H176.232V75.864H161.784ZM168.392 69.288V80.6C168.392 80.936 168.264 81.048 167.896 81.048C167.544 81.064 166.264 81.08 164.936 81.032C165.128 81.352 165.352 81.896 165.432 82.232C167.128 82.248 168.168 82.216 168.776 82.024C169.384 81.832 169.64 81.464 169.64 80.616V69.288H168.392ZM184.52 72.744V73.944H191.096V72.744H184.52ZM177.816 80.328V81.528H192.184V80.328H177.816ZM183.832 67.8V80.968H185.096V67.8H183.832ZM201.48 80.616V81.672H206.76V80.616H201.48ZM202.264 69.208V70.248H206.488V69.208H202.264ZM201.016 76.488V82.248H202.12V77.528H206.152V82.2H207.304V76.488H201.016ZM206.056 69.208V69.416C205.016 72.76 202.184 75.336 199.352 76.424C199.592 76.648 199.912 77.064 200.056 77.336C203.096 76.04 206.024 73.416 207.256 69.48L206.488 69.16L206.264 69.208H206.056ZM202.536 67.56C201.928 69.528 200.824 71.4 199.512 72.6C199.8 72.776 200.264 73.16 200.456 73.368C201.784 72.04 202.968 70.008 203.688 67.832L202.536 67.56ZM202.216 69.864L201.432 70.52C202.408 72.824 204.52 75.72 207.816 77.144C207.976 76.84 208.312 76.376 208.568 76.152C205.288 74.904 203.144 72.152 202.216 69.864ZM194.424 74.664V80.472H195.432V74.664H194.424ZM195.496 69.288H198.504V72.104H195.496V69.288ZM194.424 68.232V73.16H199.624V68.232H194.424ZM196.68 72.632V79.944H197.768V72.632H196.68ZM193.592 80.344L193.816 81.512C195.496 81.096 197.8 80.536 199.992 79.992L199.88 78.92C197.576 79.464 195.176 80.024 193.592 80.344ZM197.064 75.48V76.552H199.768V75.48H197.064Z" fill="url(#paint0_linear_343_1446)"/>
<path d="M251.054 78.27C251.054 78.045 251.849 77.7 251.849 77.7V77.655C253.349 76.23 254.894 74.22 256.169 72.165L255.179 71.55C254.069 73.59 252.404 75.675 251.879 76.215C251.384 76.755 251.024 77.13 250.679 77.19C250.814 77.49 250.994 78.045 251.054 78.27ZM251.054 78.27C251.384 78.09 251.909 77.94 255.749 77.16C255.734 76.935 255.734 76.485 255.779 76.17L251.564 76.935L250.994 77.325L251.054 78.27ZM250.949 74.67C250.949 74.43 251.639 74.085 251.639 74.085V74.04C252.734 72.69 253.844 70.77 254.669 68.895L253.589 68.4C252.959 70.215 251.819 72.165 251.459 72.66C251.144 73.17 250.859 73.515 250.574 73.575C250.709 73.875 250.889 74.43 250.949 74.67ZM250.949 74.67C251.219 74.535 251.654 74.445 254.384 74.085C254.399 73.86 254.429 73.44 254.489 73.14L251.489 73.455L250.934 73.815L250.949 74.67ZM250.679 80.145L250.904 81.27C252.269 80.91 254.099 80.445 255.839 79.98L255.719 78.975C253.844 79.425 251.954 79.89 250.679 80.145ZM256.439 69.21V70.245H262.559V69.21H256.439ZM262.229 69.21V69.405C261.059 71.745 258.134 73.665 255.449 74.565C255.674 74.79 255.974 75.225 256.124 75.51C259.034 74.43 262.079 72.435 263.474 69.57L262.679 69.15L262.454 69.21H262.229ZM255.659 80.745V81.795H264.509V80.745H255.659ZM259.529 76.71V81.135H260.654V76.71H259.529ZM256.559 76.02V77.07H263.789V76.02H256.559ZM259.559 73.23C261.044 73.86 262.979 74.835 263.939 75.495L264.584 74.565C263.594 73.935 261.644 73.005 260.174 72.435L259.559 73.23ZM270.299 75.42V75.6C270.089 79.245 269.849 80.625 269.504 80.97C269.369 81.135 269.219 81.15 268.964 81.15C268.694 81.15 268.004 81.135 267.254 81.06C267.434 81.33 267.539 81.72 267.554 82.02C268.274 82.05 268.979 82.065 269.369 82.035C269.804 82.005 270.089 81.9 270.344 81.6C270.809 81.12 271.034 79.695 271.274 75.885C271.289 75.735 271.289 75.42 271.289 75.42H270.299ZM265.559 78.795L265.784 79.725C266.909 79.425 268.289 79.035 269.654 78.66L269.549 77.79C268.064 78.18 266.594 78.57 265.559 78.795ZM266.054 69.09V70.05H270.014V69.09H266.054ZM269.684 69.09C269.594 71.145 269.324 74.025 269.084 75.72L270.074 75.66C270.269 74.055 270.524 71.205 270.659 69.09H269.684ZM266.684 71.175C266.594 72.795 266.399 75.015 266.219 76.35H267.179C267.359 75.06 267.539 72.87 267.644 71.235L266.684 71.175ZM266.564 75.42V76.35H270.464V75.42H266.564ZM275.459 68.88L274.634 69.405C275.654 71.07 277.514 73.065 279.134 74.25C279.239 73.935 279.494 73.455 279.704 73.2C278.174 72.225 276.359 70.395 275.459 68.88ZM275.084 68.295C274.169 70.395 272.519 72.24 270.704 73.38C270.914 73.605 271.259 74.07 271.379 74.28C273.254 72.975 275.009 70.95 276.074 68.625L275.084 68.295ZM273.089 73.05V74.04H277.559V73.05H273.089ZM272.099 75.57C272.519 76.725 272.939 78.21 273.059 79.185L273.974 78.945C273.839 77.97 273.419 76.485 272.969 75.36L272.099 75.57ZM274.739 75.195C275.009 76.335 275.279 77.82 275.339 78.795L276.269 78.645C276.194 77.67 275.924 76.215 275.624 75.075L274.739 75.195ZM278.129 75.285C277.634 76.92 276.674 79.245 275.909 80.64L276.734 80.895C277.529 79.53 278.474 77.295 279.164 75.525L278.129 75.285ZM271.619 80.475V81.465H279.269V80.475H271.619ZM285.029 69.945V70.935H294.014V69.945H285.029ZM284.384 80.805V81.765H294.464V80.805H284.384ZM285.824 72.345V81.075H286.844V73.215H292.079V81.075H293.114V72.345H285.824ZM286.529 74.49V75.33H292.319V74.49H286.529ZM286.499 76.605V77.43H292.544V76.605H286.499ZM286.499 78.72V79.56H292.349V78.72H286.499ZM289.064 68.415C288.944 69.675 288.629 71.505 288.344 72.615L289.334 72.72C289.649 71.67 290.009 69.915 290.264 68.49L289.064 68.415ZM284.039 68.43C283.244 70.71 281.954 72.945 280.559 74.415C280.754 74.67 281.084 75.255 281.189 75.525C282.734 73.83 284.159 71.28 285.089 68.745L284.039 68.43ZM282.464 72.36V82.2H283.514V71.31L283.499 71.295L282.464 72.36Z" fill="#F48023"/>
</g>
<g clip-path="url(#clip1_343_1446)">
<g clip-path="url(#clip2_343_1446)">
<rect x="67.0776" y="133" width="22" height="22" rx="11" fill="#C3F3F7"/>
</g>
<path d="M126.152 144.84C125.304 145.672 123.688 146.424 122.248 146.856C122.488 147.032 122.776 147.336 122.936 147.56C124.456 147.064 126.104 146.232 127.08 145.208L126.152 144.84ZM127.688 146.376C126.6 147.512 124.504 148.424 122.472 148.888C122.696 149.096 122.936 149.448 123.096 149.672C125.24 149.096 127.384 148.088 128.6 146.76L127.688 146.376ZM129.192 148.12C127.752 149.768 124.808 150.792 121.592 151.256C121.832 151.512 122.104 151.928 122.216 152.216C125.608 151.624 128.632 150.472 130.216 148.568L129.192 148.12ZM124.024 137.56C123.368 139.272 122.2 140.936 120.92 142.008C121.192 142.168 121.64 142.536 121.832 142.728C123.128 141.544 124.36 139.736 125.144 137.832L124.024 137.56ZM123.672 139.304L123.064 140.312H130.184V139.304H123.672ZM127.992 139.528C126.904 142.248 124.28 143.816 121.048 144.648C121.272 144.872 121.624 145.352 121.768 145.592C125.08 144.568 127.832 142.84 129.128 139.8L127.992 139.528ZM123.56 139.928L122.824 140.52C123.88 142.504 126.28 144.6 130.04 145.448C130.184 145.16 130.472 144.712 130.696 144.488C126.952 143.784 124.536 141.848 123.56 139.928ZM119.96 139.464V149.624H121.016V139.464H119.96ZM118.712 137.656C117.944 140.136 116.664 142.6 115.272 144.2C115.48 144.504 115.8 145.144 115.896 145.416C117.496 143.56 118.92 140.744 119.832 137.976L118.712 137.656ZM117.432 141.576V152.28H118.584V140.504L118.552 140.472L117.432 141.576ZM132.744 143.256V144.36H136.808V143.256H132.744ZM132.104 138.968V140.088H136.392V144.968H137.544V138.968H132.104ZM132.104 143.256V148.376C132.104 149.736 132.504 150.088 133.928 150.088C134.232 150.088 136.088 150.088 136.408 150.088C137.656 150.088 137.992 149.576 138.136 147.544C137.8 147.464 137.304 147.272 137.048 147.064C136.984 148.696 136.888 148.952 136.312 148.952C135.912 148.952 134.36 148.952 134.056 148.952C133.384 148.952 133.272 148.872 133.272 148.36V143.256H132.104ZM139.8 140.504V141.64H146.392V140.504H139.8ZM140.216 137.576C139.704 140.232 138.744 142.728 137.336 144.312C137.64 144.488 138.168 144.856 138.408 145.064C139.8 143.336 140.84 140.68 141.464 137.784L140.216 137.576ZM143.96 140.952C143.192 146.488 141.32 149.624 136.744 151.272C136.984 151.544 137.352 152.072 137.48 152.344C142.232 150.392 144.28 147.064 145.176 141.096L143.96 140.952ZM140.28 141.528L139.176 141.736C140.152 146.728 142.024 150.536 145.736 152.28C145.928 151.944 146.312 151.48 146.584 151.24C143.016 149.736 141.144 146.072 140.28 141.528ZM150.632 142.216V143.304H159.336V142.216H150.632ZM147.896 145.16V146.296H162.088V145.16H147.896ZM152.104 145.944C151.832 148.552 151.144 150.392 147.544 151.288C147.8 151.528 148.12 152.008 148.248 152.312C152.152 151.224 153.048 149.064 153.384 145.944H152.104ZM156.152 145.848V150.36C156.152 151.64 156.536 152.008 158.008 152.008C158.328 152.008 160.168 152.008 160.488 152.008C161.768 152.008 162.12 151.448 162.248 149.256C161.928 149.16 161.416 148.968 161.16 148.776C161.112 150.616 161 150.904 160.392 150.904C159.976 150.904 158.456 150.904 158.136 150.904C157.464 150.904 157.352 150.824 157.352 150.344V145.848H156.152ZM154.328 137.576V140.12H155.592V137.576H154.328ZM148.264 139.288V142.68H149.48V140.424H160.456V142.68H161.72V139.288H148.264ZM166.616 150.776V151.736H175.432V150.776H166.616ZM166.056 147.912V152.28H167.224V148.872H174.808V152.232H176.04V147.912H166.056ZM164.744 139.336V140.28H177.272V139.336H164.744ZM164.312 143.352V144.296H177.768V143.352H164.312ZM165.72 141.352V142.248H176.28V141.352H165.72ZM163.832 146.008V146.968H178.184V146.008H163.832ZM170.344 139.752V146.424H171.576V139.752H170.344ZM166.952 137.896C167.368 138.44 167.816 139.192 167.976 139.672L169.112 139.288C168.904 138.808 168.472 138.088 168.024 137.576L166.952 137.896ZM166.248 144.536C166.616 145.016 167.016 145.704 167.16 146.168L168.312 145.816C168.136 145.368 167.736 144.712 167.32 144.232L166.248 144.536ZM173.816 137.544C173.592 138.072 173.144 138.84 172.808 139.352L173.864 139.608C174.216 139.16 174.664 138.488 175.048 137.816L173.816 137.544ZM174.552 144.248C174.328 144.712 173.896 145.416 173.576 145.864L174.648 146.104C175 145.704 175.384 145.112 175.752 144.504L174.552 144.248ZM186.936 138.856C188.408 140.952 191.352 143.48 193.96 144.984C194.184 144.632 194.472 144.216 194.776 143.912C192.152 142.568 189.224 140.088 187.48 137.608H186.232C184.968 139.768 182.184 142.472 179.272 144.12C179.544 144.376 179.88 144.808 180.056 145.08C182.904 143.416 185.608 140.872 186.936 138.856ZM186.296 142.856V152.296H187.56V142.856H186.296ZM202.168 138.056C202.056 140.184 202.056 147.88 195.528 151.208C195.896 151.48 196.296 151.848 196.504 152.152C203.128 148.552 203.368 140.568 203.496 138.056H202.168ZM203.448 138.376L202.296 138.488C202.408 139.96 202.856 148.904 209.64 152.152C209.832 151.816 210.2 151.416 210.552 151.144C203.96 148.12 203.496 139.624 203.448 138.376ZM217.464 138.328V139.304H224.872V138.328H217.464ZM217.272 142.76V143.752H225.16V142.76H217.272ZM217.272 144.984V145.976H225.128V144.984H217.272ZM217.736 150.536V151.528H224.68V150.536H217.736ZM215.96 140.536V141.544H226.376V140.536H215.96ZM217.112 147.208V152.28H218.264V148.184H224.104V152.232H225.304V147.208H217.112ZM215.416 137.608C214.488 140.04 212.92 142.424 211.304 143.944C211.528 144.232 211.864 144.856 211.976 145.128C213.752 143.352 215.464 140.664 216.552 137.96L215.416 137.608ZM213.752 141.736V152.248H214.904V140.616L214.888 140.6L213.752 141.736ZM231.784 147.976V150.632C231.784 151.864 232.2 152.2 233.88 152.2C234.232 152.2 236.648 152.2 237.016 152.2C238.344 152.2 238.696 151.768 238.856 149.992C238.536 149.928 238.04 149.752 237.768 149.56C237.704 150.92 237.592 151.112 236.904 151.112C236.376 151.112 234.36 151.112 233.976 151.112C233.112 151.112 232.968 151.032 232.968 150.616V147.976H231.784ZM233.432 147.416C234.36 148.056 235.4 149.032 235.848 149.736L236.792 149.064C236.312 148.344 235.256 147.416 234.312 146.792L233.432 147.416ZM238.6 148.28C239.768 149.304 240.968 150.744 241.464 151.752L242.488 151.08C241.976 150.056 240.712 148.664 239.56 147.688L238.6 148.28ZM229.592 147.848C229.24 149.016 228.568 150.296 227.592 151.064L228.568 151.752C229.624 150.888 230.248 149.48 230.648 148.232L229.592 147.848ZM231.336 142.056H238.824V143.384H231.336V142.056ZM231.336 144.312H238.824V145.64H231.336V144.312ZM231.336 139.832H238.824V141.144H231.336V139.832ZM230.184 138.872V146.616H240.024V138.872H230.184ZM234.44 137.4C234.296 137.912 234.024 138.664 233.784 139.176L234.856 139.432C235.128 138.968 235.512 138.328 235.832 137.64L234.44 137.4Z" fill="url(#paint1_linear_343_1446)"/>
<path d="M269.644 148.27C269.644 148.045 270.439 147.7 270.439 147.7V147.655C271.939 146.23 273.484 144.22 274.759 142.165L273.769 141.55C272.659 143.59 270.994 145.675 270.469 146.215C269.974 146.755 269.614 147.13 269.269 147.19C269.404 147.49 269.584 148.045 269.644 148.27ZM269.644 148.27C269.974 148.09 270.499 147.94 274.339 147.16C274.324 146.935 274.324 146.485 274.369 146.17L270.154 146.935L269.584 147.325L269.644 148.27ZM269.539 144.67C269.539 144.43 270.229 144.085 270.229 144.085V144.04C271.324 142.69 272.434 140.77 273.259 138.895L272.179 138.4C271.549 140.215 270.409 142.165 270.049 142.66C269.734 143.17 269.449 143.515 269.164 143.575C269.299 143.875 269.479 144.43 269.539 144.67ZM269.539 144.67C269.809 144.535 270.244 144.445 272.974 144.085C272.989 143.86 273.019 143.44 273.079 143.14L270.079 143.455L269.524 143.815L269.539 144.67ZM269.269 150.145L269.494 151.27C270.859 150.91 272.689 150.445 274.429 149.98L274.309 148.975C272.434 149.425 270.544 149.89 269.269 150.145ZM275.029 139.21V140.245H281.149V139.21H275.029ZM280.819 139.21V139.405C279.649 141.745 276.724 143.665 274.039 144.565C274.264 144.79 274.564 145.225 274.714 145.51C277.624 144.43 280.669 142.435 282.064 139.57L281.269 139.15L281.044 139.21H280.819ZM274.249 150.745V151.795H283.099V150.745H274.249ZM278.119 146.71V151.135H279.244V146.71H278.119ZM275.149 146.02V147.07H282.379V146.02H275.149ZM278.149 143.23C279.634 143.86 281.569 144.835 282.529 145.495L283.174 144.565C282.184 143.935 280.234 143.005 278.764 142.435L278.149 143.23ZM288.889 145.42V145.6C288.679 149.245 288.439 150.625 288.094 150.97C287.959 151.135 287.809 151.15 287.554 151.15C287.284 151.15 286.594 151.135 285.844 151.06C286.024 151.33 286.129 151.72 286.144 152.02C286.864 152.05 287.569 152.065 287.959 152.035C288.394 152.005 288.679 151.9 288.934 151.6C289.399 151.12 289.624 149.695 289.864 145.885C289.879 145.735 289.879 145.42 289.879 145.42H288.889ZM284.149 148.795L284.374 149.725C285.499 149.425 286.879 149.035 288.244 148.66L288.139 147.79C286.654 148.18 285.184 148.57 284.149 148.795ZM284.644 139.09V140.05H288.604V139.09H284.644ZM288.274 139.09C288.184 141.145 287.914 144.025 287.674 145.72L288.664 145.66C288.859 144.055 289.114 141.205 289.249 139.09H288.274ZM285.274 141.175C285.184 142.795 284.989 145.015 284.809 146.35H285.769C285.949 145.06 286.129 142.87 286.234 141.235L285.274 141.175ZM285.154 145.42V146.35H289.054V145.42H285.154ZM294.049 138.88L293.224 139.405C294.244 141.07 296.104 143.065 297.724 144.25C297.829 143.935 298.084 143.455 298.294 143.2C296.764 142.225 294.949 140.395 294.049 138.88ZM293.674 138.295C292.759 140.395 291.109 142.24 289.294 143.38C289.504 143.605 289.849 144.07 289.969 144.28C291.844 142.975 293.599 140.95 294.664 138.625L293.674 138.295ZM291.679 143.05V144.04H296.149V143.05H291.679ZM290.689 145.57C291.109 146.725 291.529 148.21 291.649 149.185L292.564 148.945C292.429 147.97 292.009 146.485 291.559 145.36L290.689 145.57ZM293.329 145.195C293.599 146.335 293.869 147.82 293.929 148.795L294.859 148.645C294.784 147.67 294.514 146.215 294.214 145.075L293.329 145.195ZM296.719 145.285C296.224 146.92 295.264 149.245 294.499 150.64L295.324 150.895C296.119 149.53 297.064 147.295 297.754 145.525L296.719 145.285ZM290.209 150.475V151.465H297.859V150.475H290.209ZM303.619 139.945V140.935H312.604V139.945H303.619ZM302.974 150.805V151.765H313.054V150.805H302.974ZM304.414 142.345V151.075H305.434V143.215H310.669V151.075H311.704V142.345H304.414ZM305.119 144.49V145.33H310.909V144.49H305.119ZM305.089 146.605V147.43H311.134V146.605H305.089ZM305.089 148.72V149.56H310.939V148.72H305.089ZM307.654 138.415C307.534 139.675 307.219 141.505 306.934 142.615L307.924 142.72C308.239 141.67 308.599 139.915 308.854 138.49L307.654 138.415ZM302.629 138.43C301.834 140.71 300.544 142.945 299.149 144.415C299.344 144.67 299.674 145.255 299.779 145.525C301.324 143.83 302.749 141.28 303.679 138.745L302.629 138.43ZM301.054 142.36V152.2H302.104V141.31L302.089 141.295L301.054 142.36Z" fill="#F48023"/>
</g>
<g clip-path="url(#clip3_343_1446)">
<g clip-path="url(#clip4_343_1446)">
<rect x="67.0776" y="198" width="22" height="22" rx="11" fill="#C3F3F7"/>
</g>
<path d="M122.52 207.744V208.944H129.096V207.744H122.52ZM115.816 215.328V216.528H130.184V215.328H115.816ZM121.832 202.8V215.968H123.096V202.8H121.832ZM135.24 202.624C134.344 205.056 132.856 207.456 131.272 209.008C131.496 209.28 131.832 209.92 131.944 210.192C133.688 208.4 135.32 205.696 136.376 202.976L135.24 202.624ZM133.544 206.752V217.264H134.712V205.616L134.696 205.6L133.544 206.752ZM138.568 210.496V211.616H144.504V210.496H138.568ZM144.12 210.496V210.624C143.272 211.664 141.608 213.536 140.248 214.944L141.224 215.552C142.616 214.096 144.248 212.272 145.384 210.944L144.536 210.416L144.344 210.496H144.12ZM140.168 202.656C139.496 205.44 138.376 209.344 137.56 211.616H138.856C139.56 209.456 140.632 205.632 141.336 202.816L140.168 202.656ZM136.568 204.432V205.536H145.512V204.432H136.568ZM135.64 207.456V208.576H146.248V207.456H135.64ZM138.488 214C140.008 214.944 141.816 216.368 142.68 217.296L143.576 216.4C142.68 215.504 140.904 214.192 139.352 213.28L138.488 214ZM154.44 202.64C153.912 204.992 152.984 207.296 151.8 208.784C152.072 208.96 152.552 209.344 152.76 209.552C153.992 207.92 155 205.456 155.624 202.896L154.44 202.64ZM154.168 209.424C153.72 211.344 152.952 213.248 151.96 214.48C152.248 214.624 152.76 214.944 153 215.136C153.976 213.792 154.84 211.76 155.336 209.664L154.168 209.424ZM154.296 205.648L153.832 206.768H161.496V205.648H154.296ZM156.776 206.112V215.824C156.776 216.032 156.712 216.096 156.504 216.096C156.28 216.096 155.592 216.112 154.84 216.08C155.016 216.432 155.192 216.96 155.272 217.296C156.264 217.296 156.952 217.264 157.384 217.056C157.832 216.864 157.976 216.512 157.976 215.824V206.112H156.776ZM159.128 209.664C160.008 211.344 160.808 213.6 161.064 215.072L162.2 214.688C161.928 213.2 161.128 210.992 160.2 209.312L159.128 209.664ZM161.144 205.648V205.824C160.984 206.88 160.776 208.224 160.6 209.024L161.64 209.216C161.848 208.352 162.12 206.976 162.344 205.792L161.512 205.616L161.304 205.648H161.144ZM151.224 202.624C150.328 205.056 148.824 207.456 147.24 209.008C147.464 209.28 147.8 209.92 147.928 210.192C149.656 208.4 151.304 205.696 152.36 202.976L151.224 202.624ZM149.56 206.752V217.264H150.712V205.632L150.68 205.616L149.56 206.752ZM165.096 205.136V206.208H168.84V214.512H165.096V215.6H169.96V205.136H165.096ZM164.376 205.136V216.88H165.496V205.136H164.376ZM165.016 209.584V210.656H169.432V209.584H165.016ZM166.824 202.528C166.696 203.36 166.392 204.576 166.12 205.344L167.08 205.584C167.4 204.864 167.8 203.76 168.12 202.768L166.824 202.528ZM172.232 205.088V206.208H177.144V205.088H172.232ZM176.728 205.088V205.344C176.504 212.4 176.248 215.056 175.72 215.632C175.544 215.84 175.352 215.888 175.032 215.888C174.664 215.888 173.704 215.872 172.664 215.792C172.888 216.112 173.032 216.608 173.064 216.96C173.96 217.008 174.904 217.04 175.448 216.976C176.008 216.928 176.376 216.784 176.728 216.32C177.368 215.536 177.592 213.056 177.848 205.712C177.848 205.536 177.848 205.088 177.848 205.088H176.728ZM172.568 202.496C172.056 204.72 171.176 206.928 170.088 208.336C170.376 208.496 170.872 208.832 171.08 209.024C172.184 207.504 173.128 205.152 173.72 202.768L172.568 202.496ZM171.832 209.248C172.712 210.416 173.784 212 174.264 212.976L175.288 212.336C174.776 211.392 173.672 209.84 172.76 208.704L171.832 209.248ZM187.448 202.72C187.416 209.76 187.688 214.336 179.896 216.224C180.152 216.48 180.456 216.944 180.6 217.232C188.696 215.168 188.664 210.048 188.68 202.72H187.448ZM179.896 209.904V211.024H194.136V209.904H179.896ZM187.576 213.36C189.768 214.432 191.992 215.856 193.272 217.056L194.072 216.144C192.744 214.976 190.44 213.552 188.216 212.512L187.576 213.36ZM182.056 204.144C183.352 204.624 184.936 205.472 185.72 206.128L186.408 205.136C185.608 204.496 184.008 203.728 182.728 203.296L182.056 204.144ZM180.632 207.072C181.912 207.584 183.496 208.448 184.248 209.12L185.032 208.176C184.216 207.504 182.632 206.688 181.352 206.224L180.632 207.072ZM202.536 202.592C201.88 203.84 200.68 205.408 199.032 206.576C199.32 206.72 199.704 207.024 199.912 207.264C201.624 205.936 202.856 204.288 203.704 202.8L202.536 202.592ZM202.616 203.6L201.88 204.528H206.488V203.6H202.616ZM201.48 206.608H208.584V208.416H201.48V206.608ZM200.376 205.712V209.296H209.752V205.712H200.376ZM204.424 206.08V208.8H205.512V206.08H204.424ZM204.488 208.512C203.32 209.568 201.224 210.496 199.4 211.04C199.624 211.248 199.944 211.664 200.104 211.872C201.928 211.216 204.12 210.112 205.432 208.896L204.488 208.512ZM202.808 210.224C205.448 212.208 205.528 215.328 204.568 216.016C204.28 216.256 203.992 216.288 203.592 216.288C203.272 216.288 202.792 216.272 202.28 216.224C202.472 216.528 202.568 216.976 202.568 217.264C203.032 217.296 203.48 217.296 203.816 217.296C204.456 217.28 204.888 217.184 205.352 216.8C206.728 215.776 206.648 211.92 203.592 209.712L202.808 210.224ZM204.232 210.864C203.224 211.792 201.128 212.864 199.528 213.312C199.768 213.536 200.024 213.888 200.152 214.144C201.784 213.536 203.864 212.368 204.968 211.36L204.232 210.864ZM205.064 212.576C203.848 213.904 201.272 215.344 199.24 215.984C199.48 216.208 199.752 216.592 199.896 216.88C201.976 216.096 204.52 214.544 205.864 213.152L205.064 212.576ZM209.368 209.792C208.712 210.448 207.544 211.376 206.712 211.888L207.416 212.544C208.264 212.032 209.384 211.232 210.216 210.496L209.368 209.792ZM206.264 208.688L205.272 208.88C206.008 212.272 207.432 215.168 209.672 216.592C209.848 216.288 210.216 215.872 210.472 215.648C208.344 214.432 206.936 211.712 206.264 208.688ZM206.104 203.6V203.808C205.816 204.432 205.24 205.296 204.728 205.824C204.936 205.984 205.256 206.32 205.416 206.528C206.04 205.904 206.808 204.928 207.304 204.032L206.568 203.52L206.36 203.6H206.104ZM198.712 202.656C197.944 205.12 196.68 207.584 195.272 209.184C195.48 209.488 195.8 210.128 195.912 210.416C197.496 208.544 198.92 205.728 199.832 202.96L198.712 202.656ZM197.432 206.576V217.28H198.568V205.504L198.536 205.472L197.432 206.576Z" fill="url(#paint2_linear_343_1446)"/>
<path d="M247.917 213.27C247.917 213.045 248.712 212.7 248.712 212.7V212.655C250.212 211.23 251.757 209.22 253.032 207.165L252.042 206.55C250.932 208.59 249.267 210.675 248.742 211.215C248.247 211.755 247.887 212.13 247.542 212.19C247.677 212.49 247.857 213.045 247.917 213.27ZM247.917 213.27C248.247 213.09 248.772 212.94 252.612 212.16C252.597 211.935 252.597 211.485 252.642 211.17L248.427 211.935L247.857 212.325L247.917 213.27ZM247.812 209.67C247.812 209.43 248.502 209.085 248.502 209.085V209.04C249.597 207.69 250.707 205.77 251.532 203.895L250.452 203.4C249.822 205.215 248.682 207.165 248.322 207.66C248.007 208.17 247.722 208.515 247.437 208.575C247.572 208.875 247.752 209.43 247.812 209.67ZM247.812 209.67C248.082 209.535 248.517 209.445 251.247 209.085C251.262 208.86 251.292 208.44 251.352 208.14L248.352 208.455L247.797 208.815L247.812 209.67ZM247.542 215.145L247.767 216.27C249.132 215.91 250.962 215.445 252.702 214.98L252.582 213.975C250.707 214.425 248.817 214.89 247.542 215.145ZM253.302 204.21V205.245H259.422V204.21H253.302ZM259.092 204.21V204.405C257.922 206.745 254.997 208.665 252.312 209.565C252.537 209.79 252.837 210.225 252.987 210.51C255.897 209.43 258.942 207.435 260.337 204.57L259.542 204.15L259.317 204.21H259.092ZM252.522 215.745V216.795H261.372V215.745H252.522ZM256.392 211.71V216.135H257.517V211.71H256.392ZM253.422 211.02V212.07H260.652V211.02H253.422ZM256.422 208.23C257.907 208.86 259.842 209.835 260.802 210.495L261.447 209.565C260.457 208.935 258.507 208.005 257.037 207.435L256.422 208.23ZM267.162 210.42V210.6C266.952 214.245 266.712 215.625 266.367 215.97C266.232 216.135 266.082 216.15 265.827 216.15C265.557 216.15 264.867 216.135 264.117 216.06C264.297 216.33 264.402 216.72 264.417 217.02C265.137 217.05 265.842 217.065 266.232 217.035C266.667 217.005 266.952 216.9 267.207 216.6C267.672 216.12 267.897 214.695 268.137 210.885C268.152 210.735 268.152 210.42 268.152 210.42H267.162ZM262.422 213.795L262.647 214.725C263.772 214.425 265.152 214.035 266.517 213.66L266.412 212.79C264.927 213.18 263.457 213.57 262.422 213.795ZM262.917 204.09V205.05H266.877V204.09H262.917ZM266.547 204.09C266.457 206.145 266.187 209.025 265.947 210.72L266.937 210.66C267.132 209.055 267.387 206.205 267.522 204.09H266.547ZM263.547 206.175C263.457 207.795 263.262 210.015 263.082 211.35H264.042C264.222 210.06 264.402 207.87 264.507 206.235L263.547 206.175ZM263.427 210.42V211.35H267.327V210.42H263.427ZM272.322 203.88L271.497 204.405C272.517 206.07 274.377 208.065 275.997 209.25C276.102 208.935 276.357 208.455 276.567 208.2C275.037 207.225 273.222 205.395 272.322 203.88ZM271.947 203.295C271.032 205.395 269.382 207.24 267.567 208.38C267.777 208.605 268.122 209.07 268.242 209.28C270.117 207.975 271.872 205.95 272.937 203.625L271.947 203.295ZM269.952 208.05V209.04H274.422V208.05H269.952ZM268.962 210.57C269.382 211.725 269.802 213.21 269.922 214.185L270.837 213.945C270.702 212.97 270.282 211.485 269.832 210.36L268.962 210.57ZM271.602 210.195C271.872 211.335 272.142 212.82 272.202 213.795L273.132 213.645C273.057 212.67 272.787 211.215 272.487 210.075L271.602 210.195ZM274.992 210.285C274.497 211.92 273.537 214.245 272.772 215.64L273.597 215.895C274.392 214.53 275.337 212.295 276.027 210.525L274.992 210.285ZM268.482 215.475V216.465H276.132V215.475H268.482ZM281.892 204.945V205.935H290.877V204.945H281.892ZM281.247 215.805V216.765H291.327V215.805H281.247ZM282.687 207.345V216.075H283.707V208.215H288.942V216.075H289.977V207.345H282.687ZM283.392 209.49V210.33H289.182V209.49H283.392ZM283.362 211.605V212.43H289.407V211.605H283.362ZM283.362 213.72V214.56H289.212V213.72H283.362ZM285.927 203.415C285.807 204.675 285.492 206.505 285.207 207.615L286.197 207.72C286.512 206.67 286.872 204.915 287.127 203.49L285.927 203.415ZM280.902 203.43C280.107 205.71 278.817 207.945 277.422 209.415C277.617 209.67 277.947 210.255 278.052 210.525C279.597 208.83 281.022 206.28 281.952 203.745L280.902 203.43ZM279.327 207.36V217.2H280.377V206.31L280.362 206.295L279.327 207.36Z" fill="#F48023"/>
</g>
<defs>
<linearGradient id="paint0_linear_343_1446" x1="282.921" y1="61" x2="282.921" y2="98" gradientUnits="userSpaceOnUse">
<stop stop-color="#56BCEB"/>
<stop offset="1" stop-color="#A770D7"/>
</linearGradient>
<linearGradient id="paint1_linear_343_1446" x1="301.744" y1="131" x2="301.744" y2="168" gradientUnits="userSpaceOnUse">
<stop stop-color="#56BCEB"/>
<stop offset="1" stop-color="#A770D7"/>
</linearGradient>
<linearGradient id="paint2_linear_343_1446" x1="309.315" y1="196" x2="309.315" y2="233" gradientUnits="userSpaceOnUse">
<stop stop-color="#56BCEB"/>
<stop offset="1" stop-color="#A770D7"/>
</linearGradient>
<clipPath id="clip0_343_1446">
<rect width="288.775" height="28" fill="white" transform="translate(67 66)"/>
</clipPath>
<clipPath id="clip1_343_1446">
<rect width="317.366" height="28" fill="white" transform="translate(67 131)"/>
</clipPath>
<clipPath id="clip2_343_1446">
<rect width="22" height="22" fill="white" transform="translate(67.0776 133)"/>
</clipPath>
<clipPath id="clip3_343_1446">
<rect width="330.232" height="28" fill="white" transform="translate(67 196)"/>
</clipPath>
<clipPath id="clip4_343_1446">
<rect width="22" height="22" fill="white" transform="translate(67.0776 198)"/>
</clipPath>
</defs>
</svg>
