<svg width="24" height="24" viewBox="0 0 24 24" fill="none" xmlns="http://www.w3.org/2000/svg">
<path fill-rule="evenodd" clip-rule="evenodd" d="M12.8728 4.09202C12.297 3.96933 11.703 3.96933 11.1272 4.09202C10.5124 4.22303 9.91076 4.55657 8.33226 5.46675L8.1667 5.56222C6.69804 6.40906 6.14432 6.73951 5.7348 7.16964C5.24068 7.68863 4.87636 8.32596 4.67596 9.0267C4.50913 9.61007 4.49996 10.2749 4.49996 12C4.49996 13.7251 4.50913 14.3899 4.67596 14.9733C4.87636 15.674 5.24068 16.3114 5.7348 16.8304C6.14432 17.2605 6.69804 17.5909 8.1667 18.4378L8.33226 18.5333C9.91076 19.4434 10.5124 19.777 11.1272 19.908C11.703 20.0307 12.297 20.0307 12.8728 19.908C13.4876 19.777 14.0892 19.4434 15.6677 18.5332L15.8332 18.4378C17.3019 17.5909 17.8556 17.2605 18.2651 16.8304C18.7593 16.3114 19.1236 15.674 19.324 14.9733C19.4908 14.3899 19.5 13.7251 19.5 12C19.5 10.2749 19.4908 9.61007 19.324 9.0267C19.1236 8.32596 18.7593 7.68863 18.2651 7.16964C17.8556 6.73951 17.3019 6.40906 15.8332 5.56222L15.6677 5.46675C14.0892 4.55657 13.4876 4.22303 12.8728 4.09202ZM10.7103 2.13594C11.5609 1.95469 12.439 1.95469 13.2896 2.13594C14.252 2.34101 15.1412 2.85404 16.5164 3.64745C16.5659 3.67599 16.616 3.70489 16.6667 3.73415L16.8323 3.82961C16.8785 3.85629 16.9242 3.88262 16.9694 3.90862C18.2538 4.64891 19.08 5.12508 19.7136 5.79055C20.4329 6.546 20.9586 7.46865 21.2469 8.47678C21.5005 9.3635 21.5003 10.3283 21.5 11.8426C21.5 11.8944 21.5 11.9469 21.5 12C21.5 12.0531 21.5 12.1056 21.5 12.1574C21.5003 13.6717 21.5005 14.6365 21.2469 15.5232C20.9586 16.5314 20.4329 17.454 19.7136 18.2094C19.08 18.8749 18.2538 19.3511 16.9694 20.0914C16.9242 20.1174 16.8785 20.1437 16.8323 20.1704L16.6667 20.2659C16.616 20.2951 16.5659 20.324 16.5164 20.3525C15.1412 21.146 14.252 21.659 13.2896 21.8641C12.439 22.0453 11.5609 22.0453 10.7103 21.8641C9.74798 21.659 8.85874 21.146 7.48351 20.3525C7.43405 20.324 7.38396 20.2951 7.33322 20.2659L7.83274 19.3996L7.33322 20.2659L7.16766 20.1704C7.12139 20.1437 7.07569 20.1174 7.03057 20.0914C5.7461 19.3511 4.91989 18.8749 4.28631 18.2094C3.56707 17.454 3.04136 16.5314 2.75305 15.5232C2.49946 14.6365 2.49965 13.6717 2.49994 12.1574C2.49995 12.1056 2.49996 12.0531 2.49996 12C2.49996 11.9469 2.49995 11.8944 2.49994 11.8426C2.49965 10.3283 2.49946 9.3635 2.75305 8.47678C3.04136 7.46865 3.56706 6.546 4.28631 5.79055C4.91989 5.12508 5.74611 4.64891 7.03058 3.90863C7.07571 3.88262 7.12139 3.85629 7.16766 3.82961L7.33322 3.73415C7.38396 3.70489 7.43406 3.67599 7.48352 3.64745C8.85874 2.85404 9.74798 2.34101 10.7103 2.13594ZM8.34371 12C8.34371 9.96741 9.95745 8.2771 12 8.2771C14.0425 8.2771 15.6562 9.96741 15.6562 12C15.6562 14.0326 14.0425 15.7229 12 15.7229C9.95745 15.7229 8.34371 14.0326 8.34371 12ZM12 10.2771C11.1085 10.2771 10.3437 11.025 10.3437 12C10.3437 12.975 11.1085 13.7229 12 13.7229C12.8915 13.7229 13.6562 12.975 13.6562 12C13.6562 11.025 12.8915 10.2771 12 10.2771Z" fill="#F5B544"/>
</svg>
