<svg width="17" height="16" viewBox="0 0 17 16" fill="none" xmlns="http://www.w3.org/2000/svg">
<g clip-path="url(#clip0_264_928)">
<path d="M5.83756 10.8984C5.57589 10.6485 5.71229 10.719 5.08118 10.5577C4.79482 10.4843 4.5431 10.3435 4.31546 10.1747L2.94934 13.373C2.81715 13.6826 3.06406 14.019 3.41395 14.0064L5.00048 13.9486L6.09169 15.0492C6.33257 15.2918 6.75533 15.2162 6.88751 14.9066L8.45477 11.2373C8.12838 11.411 7.76614 11.5128 7.39157 11.5128C6.80441 11.5128 6.25278 11.2946 5.83756 10.8984V10.8984ZM14.4396 13.373L13.0735 10.1747C12.8458 10.3437 12.5941 10.4843 12.3077 10.5577C11.6733 10.7198 11.8124 10.6491 11.5514 10.8984C11.1361 11.2946 10.5842 11.5128 9.99704 11.5128C9.62247 11.5128 9.26024 11.4107 8.93384 11.2373L10.5011 14.9066C10.6333 15.2162 11.0563 15.2918 11.2969 15.0492L12.3884 13.9486L13.975 14.0064C14.3249 14.019 14.5718 13.6823 14.4396 13.373V13.373ZM10.8323 10.2477C11.2924 9.80064 11.3451 9.83916 12.0003 9.66867C12.4185 9.5597 12.7455 9.242 12.8576 8.83546C13.0828 8.01892 13.0244 8.11754 13.6389 7.52008C13.9452 7.22251 14.0647 6.78865 13.9527 6.38211C13.7278 5.56615 13.7275 5.68 13.9527 4.86318C14.0647 4.45663 13.9452 4.02278 13.6389 3.7252C13.0244 3.12775 13.0828 3.22608 12.8576 2.40983C12.7455 2.00328 12.4185 1.68558 12.0003 1.57662C11.1608 1.35782 11.262 1.41503 10.6468 0.817293C10.3406 0.519717 9.89407 0.403275 9.47583 0.512242C8.63664 0.730752 8.75377 0.731039 7.91308 0.512242C7.49485 0.403275 7.04831 0.51943 6.74208 0.817293C6.12752 1.41475 6.22869 1.35782 5.38891 1.57662C4.97067 1.68558 4.64367 2.00328 4.53166 2.40983C4.30673 3.22608 4.36484 3.12775 3.75028 3.7252C3.44406 4.02278 3.32422 4.45663 3.43653 4.86318C3.66146 5.67856 3.66176 5.56471 3.43653 6.38182C3.32452 6.78836 3.44406 7.22222 3.75028 7.52008C4.36484 8.11754 4.30643 8.01892 4.53166 8.83546C4.64367 9.242 4.97067 9.5597 5.38891 9.66867C6.06278 9.84405 6.11307 9.81645 6.5566 10.2477C6.95496 10.635 7.57554 10.7043 8.0543 10.4151C8.24575 10.299 8.46784 10.2374 8.69461 10.2374C8.92138 10.2374 9.14346 10.299 9.33491 10.4151C9.81337 10.7043 10.434 10.635 10.8323 10.2477ZM5.85382 5.53136C5.85382 4.00667 7.12569 2.77066 8.69446 2.77066C10.2632 2.77066 11.5351 4.00667 11.5351 5.53136C11.5351 7.05604 10.2632 8.29206 8.69446 8.29206C7.12569 8.29206 5.85382 7.05604 5.85382 5.53136V5.53136Z" fill="#F48023"/>
</g>
<defs>
<clipPath id="clip0_264_928">
<rect width="15.4167" height="14.7207" fill="white" transform="translate(0.986115 0.47229)"/>
</clipPath>
</defs>
</svg>
