<svg width="18" height="18" viewBox="0 0 18 18" fill="none" xmlns="http://www.w3.org/2000/svg">
<g clip-path="url(#clip0_264_834)">
<path d="M17.25 16.5H3.75C3.15326 16.5 2.58097 16.2629 2.15901 15.841C1.73705 15.419 1.5 14.8467 1.5 14.25V0.75C1.5 0.551088 1.42098 0.360322 1.28033 0.21967C1.13968 0.0790176 0.948912 0 0.75 0C0.551088 0 0.360322 0.0790176 0.21967 0.21967C0.0790176 0.360322 0 0.551088 0 0.75L0 14.25C0.00119089 15.2442 0.396661 16.1973 1.09966 16.9003C1.80267 17.6033 2.7558 17.9988 3.75 18H17.25C17.4489 18 17.6397 17.921 17.7803 17.7803C17.921 17.6397 18 17.4489 18 17.25C18 17.0511 17.921 16.8603 17.7803 16.7197C17.6397 16.579 17.4489 16.5 17.25 16.5Z" fill="#9FA6B2"/>
<path d="M4.50012 15C4.69903 15 4.8898 14.921 5.03045 14.7803C5.1711 14.6397 5.25012 14.4489 5.25012 14.25V9C5.25012 8.80109 5.1711 8.61032 5.03045 8.46967C4.8898 8.32902 4.69903 8.25 4.50012 8.25C4.30121 8.25 4.11044 8.32902 3.96979 8.46967C3.82914 8.61032 3.75012 8.80109 3.75012 9V14.25C3.75012 14.4489 3.82914 14.6397 3.96979 14.7803C4.11044 14.921 4.30121 15 4.50012 15Z" fill="#9FA6B2"/>
<path d="M7.49988 7.5V14.25C7.49988 14.4489 7.5789 14.6397 7.71955 14.7803C7.8602 14.921 8.05097 15 8.24988 15C8.4488 15 8.63956 14.921 8.78022 14.7803C8.92087 14.6397 8.99989 14.4489 8.99989 14.25V7.5C8.99989 7.30109 8.92087 7.11032 8.78022 6.96967C8.63956 6.82902 8.4488 6.75 8.24988 6.75C8.05097 6.75 7.8602 6.82902 7.71955 6.96967C7.5789 7.11032 7.49988 7.30109 7.49988 7.5Z" fill="#9FA6B2"/>
<path d="M11.25 9.75V14.25C11.25 14.4489 11.329 14.6397 11.4697 14.7803C11.6103 14.921 11.8011 15 12 15C12.1989 15 12.3897 14.921 12.5303 14.7803C12.671 14.6397 12.75 14.4489 12.75 14.25V9.75C12.75 9.55109 12.671 9.36032 12.5303 9.21967C12.3897 9.07902 12.1989 9 12 9C11.8011 9 11.6103 9.07902 11.4697 9.21967C11.329 9.36032 11.25 9.55109 11.25 9.75Z" fill="#9FA6B2"/>
<path d="M15.0001 6.74988V14.2499C15.0001 14.4488 15.0791 14.6396 15.2198 14.7802C15.3604 14.9209 15.5512 14.9999 15.7501 14.9999C15.949 14.9999 16.1398 14.9209 16.2805 14.7802C16.4211 14.6396 16.5001 14.4488 16.5001 14.2499V6.74988C16.5001 6.55097 16.4211 6.3602 16.2805 6.21955C16.1398 6.0789 15.949 5.99988 15.7501 5.99988C15.5512 5.99988 15.3604 6.0789 15.2198 6.21955C15.0791 6.3602 15.0001 6.55097 15.0001 6.74988Z" fill="#9FA6B2"/>
<path d="M4.49984 6.74994C4.69874 6.7499 4.88947 6.67085 5.03009 6.53019L7.71959 3.84069C7.86254 3.70451 8.05241 3.62855 8.24984 3.62855C8.44727 3.62855 8.63714 3.70451 8.78009 3.84069L10.4091 5.46969C10.831 5.8915 11.4032 6.12846 11.9998 6.12846C12.5965 6.12846 13.1687 5.8915 13.5906 5.46969L17.7801 1.28019C17.9167 1.13874 17.9923 0.949286 17.9906 0.752638C17.9889 0.555991 17.91 0.367881 17.771 0.228825C17.6319 0.0897691 17.4438 0.0108924 17.2471 0.00918363C17.0505 0.00747481 16.861 0.0830706 16.7196 0.219689L12.5301 4.40844C12.3894 4.54904 12.1987 4.62803 11.9998 4.62803C11.801 4.62803 11.6102 4.54904 11.4696 4.40844L9.84059 2.78019C9.41865 2.35838 8.84646 2.12142 8.24984 2.12142C7.65322 2.12142 7.08103 2.35838 6.65909 2.78019L3.96959 5.46969C3.86473 5.57458 3.79333 5.7082 3.7644 5.85367C3.73548 5.99913 3.75033 6.14991 3.80708 6.28693C3.86383 6.42396 3.95994 6.54108 4.08325 6.62349C4.20655 6.7059 4.35153 6.74991 4.49984 6.74994V6.74994Z" fill="#9FA6B2"/>
</g>
<defs>
<clipPath id="clip0_264_834">
<rect width="18" height="18" fill="white"/>
</clipPath>
</defs>
</svg>
