<svg width="14" height="14" viewBox="0 0 14 14" fill="none" xmlns="http://www.w3.org/2000/svg">
<path d="M2 0C0.895431 0 0 0.89543 0 2V4C0 5.10457 0.89543 6 2 6H4C5.10457 6 6 5.10457 6 4V2C6 0.895431 5.10457 0 4 0H2Z" fill="#9FA6B2"/>
<path d="M2 8C0.895431 8 0 8.89543 0 10V12C0 13.1046 0.89543 14 2 14H4C5.10457 14 6 13.1046 6 12V10C6 8.89543 5.10457 8 4 8H2Z" fill="#9FA6B2"/>
<path d="M8 2C8 0.89543 8.89543 0 10 0H12C13.1046 0 14 0.895431 14 2V4C14 5.10457 13.1046 6 12 6H10C8.89543 6 8 5.10457 8 4V2Z" fill="#9FA6B2"/>
<path d="M11 8C11.5523 8 12 8.44771 12 9V10H13C13.5523 10 14 10.4477 14 11C14 11.5523 13.5523 12 13 12H12V13C12 13.5523 11.5523 14 11 14C10.4477 14 10 13.5523 10 13V12H9C8.44771 12 8 11.5523 8 11C8 10.4477 8.44772 10 9 10H10V9C10 8.44771 10.4477 8 11 8Z" fill="#9FA6B2"/>
</svg>
