<svg width="12" height="12" viewBox="0 0 12 12" fill="none" xmlns="http://www.w3.org/2000/svg">
<path d="M6.25 12C5.38982 12 4.59435 11.7832 3.86358 11.3496C3.13281 10.916 2.55619 10.3242 2.13371 9.57422C1.71124 8.82422 1.5 8.00781 1.5 7.125C1.5 6.78125 1.54948 6.4707 1.64844 6.19336C1.7474 5.91602 1.86919 5.66797 2.01382 5.44922C2.15845 5.23047 2.30308 4.99219 2.44772 4.73438C2.59235 4.47656 2.71414 4.13672 2.8131 3.71484C2.91206 3.29297 2.96154 2.80469 2.96154 2.25C2.96154 2.32812 3.0015 2.4043 3.08143 2.47852C3.16136 2.55273 3.25651 2.62695 3.36689 2.70117C3.47726 2.77539 3.59906 2.90625 3.73227 3.09375C3.86548 3.28125 3.97396 3.5 4.05769 3.75C4.17949 4.13281 4.3774 4.47852 4.65144 4.78711C4.92548 5.0957 5.21474 5.25 5.51923 5.25C5.91506 5.25 6.2519 5.01953 6.52975 4.55859C6.80759 4.09766 7.01312 3.47656 7.14633 2.69531C7.27955 1.91406 7.34615 1.01562 7.34615 0C7.46034 0.34375 7.63542 0.703125 7.87139 1.07812C8.10737 1.45312 8.35667 1.79297 8.61929 2.09766C8.88191 2.40234 9.15785 2.75 9.44712 3.14062C9.73638 3.53125 9.99329 3.91211 10.2178 4.2832C10.4424 4.6543 10.6289 5.08789 10.7773 5.58398C10.9258 6.08008 11 6.59375 11 7.125C11 8.00781 10.7888 8.82422 10.3663 9.57422C9.94381 10.3242 9.36719 10.916 8.63642 11.3496C7.90565 11.7832 7.11018 12 6.25 12ZM7.71154 4.5C7.32332 5.5625 6.95793 6.3125 6.61538 6.75C6.47075 6.9375 6.28996 7.10547 6.07302 7.25391C5.85607 7.40234 5.65815 7.52148 5.47927 7.61133C5.30038 7.70117 5.1272 7.80273 4.95974 7.91602C4.79227 8.0293 4.66096 8.17383 4.56581 8.34961C4.47065 8.52539 4.42308 8.74219 4.42308 9C4.42308 9.47656 4.60387 9.8457 4.96544 10.1074C5.32702 10.3691 5.75521 10.5 6.25 10.5C6.98077 10.5 7.58974 10.3027 8.07692 9.9082C8.5641 9.51367 8.80769 8.97656 8.80769 8.29688C8.80769 7.77344 8.76583 7.32227 8.68209 6.94336C8.59836 6.56445 8.50321 6.2832 8.39663 6.09961C8.29006 5.91602 8.16827 5.68164 8.03125 5.39648C7.89423 5.11133 7.78766 4.8125 7.71154 4.5Z" fill="white"/>
</svg>
