<svg width="107" height="101" viewBox="0 0 107 101" fill="none" xmlns="http://www.w3.org/2000/svg">
<path fill-rule="evenodd" clip-rule="evenodd" d="M67.7553 26.9976C67.6801 27.0565 67.598 27.1216 67.5078 27.1938L62 30.2056H49.1779C42.9571 30.2056 37.6898 31.8521 34.5 33.5C31.2407 35.2431 29.2431 37.7407 27.5 41C25.7569 44.2593 24.2056 48.7741 24.2056 55.1779V60.8221C24.2056 67.2258 24.7569 71.7407 26.5 75C28.2431 78.2593 31.2407 81.2569 34.5 83C37.7593 84.7431 42.0962 86.5 48.5 86.5H63.5H80.5C86.9038 86.5 89.5092 84.7431 92.7685 83C96.0277 81.2569 99.7569 78.2593 101.5 75C103.243 71.7407 104.5 67.2258 104.5 60.8221V55.1779C104.5 48.7741 104.243 45.4908 102.5 42.2315C101.5 38.5 98 35.5 95.5 33.5C92.2407 31.7569 86.4038 30.2056 80 30.2056L83 28C86.9108 28.4794 92.0844 28.7949 94.7221 30.2056C98.6333 32.2973 101.703 35.3667 103.794 39.2778C105.886 43.1889 107 47.5861 107 55.1779V60.8221C107 68.4138 105.886 72.811 103.794 76.7221C101.703 80.6332 98.6333 83.7027 94.7221 85.7944C90.811 87.8861 86.4139 89 78.8221 89H49.1779C41.5861 89 37.189 87.8861 33.2779 85.7944C29.3667 83.7027 26.2973 80.6332 24.2056 76.7221C22.1139 72.811 21 68.4138 21 60.8221V55.1779C21 47.5861 22.1139 43.1889 24.2056 39.2778C26.2973 35.3667 29.3667 32.2973 33.2779 30.2056C37.189 28.1139 41.5861 27 49.1779 27L67.7553 26.9976Z" fill="#CE3D4F" fill-opacity="0.41"/>
<path opacity="0.1" fill-rule="evenodd" clip-rule="evenodd" d="M44.8504 32H82.1496C89.3997 32 92.0288 32.7123 94.6794 34.0497C97.3299 35.3872 99.4101 37.3499 100.828 39.8507C102.245 42.3516 103 44.8322 103 51.6729V69.3271C103 76.1678 102.245 78.6484 100.828 81.1493C99.4101 83.6501 97.3299 85.6128 94.6794 86.9503C92.0288 88.2877 89.3997 89 82.1496 89H44.8504C37.6003 89 34.9712 88.2877 32.3207 86.9503C29.6701 85.6128 27.5899 83.6501 26.1724 81.1493C24.7549 78.6484 24 76.1678 24 69.3271V51.6729C24 44.8322 24.7549 42.3516 26.1724 39.8507C27.5899 37.3499 29.6701 35.3872 32.3207 34.0497C34.9712 32.7123 37.6003 32 44.8504 32Z" fill="#CE3D4F" fill-opacity="0.41"/>
<path fill-rule="evenodd" clip-rule="evenodd" d="M57.0294 100.744V89H44L57.0294 100.744Z" fill="#919191"/>
<path d="M33 8C35.2091 8 37 6.20914 37 4C37 1.79086 35.2091 0 33 0C30.7909 0 29 1.79086 29 4C29 6.20914 30.7909 8 33 8Z" fill="#CE3D4F" fill-opacity="0.41"/>
<path d="M52 21C53.1046 21 54 20.1046 54 19C54 17.8954 53.1046 17 52 17C50.8954 17 50 17.8954 50 19C50 20.1046 50.8954 21 52 21Z" fill="#CE3D4F" fill-opacity="0.41"/>
<path d="M7.5 32C11.6421 32 15 28.6421 15 24.5C15 20.3579 11.6421 17 7.5 17C3.35786 17 0 20.3579 0 24.5C0 28.6421 3.35786 32 7.5 32Z" fill="#919191"/>
</svg>
