<svg width="149" height="101" viewBox="0 0 149 101" fill="none" xmlns="http://www.w3.org/2000/svg">
<path fill-rule="evenodd" clip-rule="evenodd" d="M58.4108 27C58.5227 27.0589 58.6448 27.124 58.7792 27.1962L66.5 30.2079H87.0013C96.2602 30.2079 101.649 30.757 106.5 32.5C111.351 34.243 116 36.5 119 39.2798C121.594 42.5389 125.5 48 124.5 55.1792V60.8232C124.5 67.2267 121.594 73.4635 119 76.7226C116.406 79.9818 112.851 80.757 108 82.5C103.149 84.243 96.5325 85.7945 87.0013 85.7945H38C28.4688 85.7945 23.125 84.243 18.274 82.5C13.423 80.757 8.54783 77.0282 5.95349 73.7691C3.35915 70.5099 3 67.2267 3 60.8232V53.5C3 47.0965 5.90566 42.5389 8.5 39.2798C11.0943 36.0207 15.649 33.7452 20.5 32.0022C25.351 30.2592 31.4005 30.2079 40.9317 30.2079V32.0018L32.2756 27.3519C26.4549 27.8314 22.1999 28.7973 18.274 30.2079C12.4528 32.2995 7.88432 35.3688 4.77111 39.2798C1.6579 43.1907 0 47.5878 0 55.1792V60.8232C0 68.4147 1.6579 72.8117 4.77111 76.7226C7.88432 80.6336 12.4528 83.7029 18.274 85.7945C24.0952 87.8861 30.6398 89 41.9392 89H86.0608C97.3602 89 103.905 87.8861 109.726 85.7945C115.547 83.7029 120.116 80.6336 123.229 76.7226C126.342 72.8117 128 68.4147 128 60.8232V55.1792C128 47.5878 126.342 43.1907 123.229 39.2798C120.116 35.3688 115.547 32.2995 109.726 30.2079C103.905 28.1163 97.3602 27.0024 86.0608 27.0024L58.4108 27Z" fill="#CE3D4F" fill-opacity="0.41"/>
<path opacity="0.1" fill-rule="evenodd" clip-rule="evenodd" d="M92.3837 32H37.6153C26.9695 32 23.1091 32.6498 19.2172 33.8699C15.3252 35.0901 12.2708 36.8806 10.1894 39.1621C8.10796 41.4436 6.99951 43.7066 6.99951 49.9472V66.0528C6.99951 72.2934 8.10796 74.5564 10.1894 76.8379C12.2708 79.1194 15.3252 80.9099 19.2172 82.1301C23.1091 83.3502 26.9695 84 37.6153 84H92.3837C103.029 84 106.89 83.3502 110.782 82.1301C114.674 80.9099 117.728 79.1194 119.81 76.8379C121.891 74.5564 123 72.2934 123 66.0528V49.9472C123 43.7066 121.891 41.4436 119.81 39.1621C117.728 36.8806 114.674 35.0901 110.782 33.8699C106.89 32.6498 103.029 32 92.3837 32Z" fill="#CE3D4F" fill-opacity="0.41"/>
<path fill-rule="evenodd" clip-rule="evenodd" d="M78.9701 100.744V89H91.9995L78.9701 100.744Z" fill="#919191"/>
<path d="M116 8C113.79 8 112 6.20914 112 4C112 1.79086 113.79 0 116 0C118.209 0 120 1.79086 120 4C120 6.20914 118.209 8 116 8Z" fill="#CE3D4F" fill-opacity="0.41"/>
<path d="M96.9995 21C95.8949 21 94.9995 20.1046 94.9995 19C94.9995 17.8954 95.8949 17 96.9995 17C98.1041 17 98.9995 17.8954 98.9995 19C98.9995 20.1046 98.1041 21 96.9995 21Z" fill="#CE3D4F" fill-opacity="0.41"/>
<path d="M141.5 32C137.357 32 134 28.6421 134 24.5C134 20.3579 137.357 17 141.5 17C145.642 17 149 20.3579 149 24.5C149 28.6421 145.642 32 141.5 32Z" fill="#919191"/>
</svg>
