<svg width="149" height="101" viewBox="0 0 149 101" fill="none" xmlns="http://www.w3.org/2000/svg">
<path fill-rule="evenodd" clip-rule="evenodd" d="M90.5892 27C90.4773 27.0589 90.3552 27.124 90.2208 27.1962L82.5 30.2079H61.9987C52.7398 30.2079 47.351 30.757 42.5 32.5C37.649 34.243 33 36.5 30 39.2798C27.4057 42.5389 23.5 48 24.5 55.1792V60.8232C24.5 67.2267 27.4057 73.4635 30 76.7226C32.5943 79.9818 36.149 80.757 41 82.5C45.851 84.243 52.4675 85.7945 61.9987 85.7945H111C120.531 85.7945 125.875 84.243 130.726 82.5C135.577 80.757 140.452 77.0282 143.047 73.7691C145.641 70.5099 146 67.2267 146 60.8232V53.5C146 47.0965 143.094 42.5389 140.5 39.2798C137.906 36.0207 133.351 33.7452 128.5 32.0022C123.649 30.2592 117.6 30.2079 108.068 30.2079V32.0018L116.724 27.3519C122.545 27.8314 126.8 28.7973 130.726 30.2079C136.547 32.2995 141.116 35.3688 144.229 39.2798C147.342 43.1907 149 47.5878 149 55.1792V60.8232C149 68.4147 147.342 72.8117 144.229 76.7226C141.116 80.6336 136.547 83.7029 130.726 85.7945C124.905 87.8861 118.36 89 107.061 89H62.9392C51.6398 89 45.0952 87.8861 39.274 85.7945C33.4528 83.7029 28.8843 80.6336 25.7711 76.7226C22.6579 72.8117 21 68.4147 21 60.8232V55.1792C21 47.5878 22.6579 43.1907 25.7711 39.2798C28.8843 35.3688 33.4528 32.2995 39.274 30.2079C45.0952 28.1163 51.6398 27.0024 62.9392 27.0024L90.5892 27Z" fill="#8E6BCE" fill-opacity="0.41"/>
<path opacity="0.1" fill-rule="evenodd" clip-rule="evenodd" d="M56.6158 32H111.384C122.03 32 125.89 32.6498 129.782 33.8699C133.674 35.0901 136.729 36.8806 138.81 39.1621C140.892 41.4436 142 43.7066 142 49.9472V66.0528C142 72.2934 140.892 74.5564 138.81 76.8379C136.729 79.1194 133.674 80.9099 129.782 82.1301C125.89 83.3502 122.03 84 111.384 84H56.6158C45.97 84 42.1096 83.3502 38.2177 82.1301C34.3257 80.9099 31.2713 79.1194 29.1899 76.8379C27.1084 74.5564 26 72.2934 26 66.0528V49.9472C26 43.7066 27.1084 41.4436 29.1899 39.1621C31.2713 36.8806 34.3257 35.0901 38.2177 33.8699C42.1096 32.6498 45.97 32 56.6158 32Z" fill="#8E6BCE" fill-opacity="0.41"/>
<path fill-rule="evenodd" clip-rule="evenodd" d="M70.0294 100.744V89H57L70.0294 100.744Z" fill="#919191"/>
<path d="M33 8C35.2091 8 37 6.20914 37 4C37 1.79086 35.2091 0 33 0C30.7909 0 29 1.79086 29 4C29 6.20914 30.7909 8 33 8Z" fill="#8E6BCE" fill-opacity="0.41"/>
<path d="M52 21C53.1046 21 54 20.1046 54 19C54 17.8954 53.1046 17 52 17C50.8954 17 50 17.8954 50 19C50 20.1046 50.8954 21 52 21Z" fill="#8E6BCE" fill-opacity="0.41"/>
<path d="M7.5 32C11.6421 32 15 28.6421 15 24.5C15 20.3579 11.6421 17 7.5 17C3.35786 17 0 20.3579 0 24.5C0 28.6421 3.35786 32 7.5 32Z" fill="#919191"/>
</svg>
