<svg width="107" height="101" viewBox="0 0 107 101" fill="none" xmlns="http://www.w3.org/2000/svg">
<path fill-rule="evenodd" clip-rule="evenodd" d="M39.2447 26.9976C39.3199 27.0565 39.402 27.1216 39.4922 27.1938L45 30.2056H57.8221C64.0429 30.2056 69.3102 31.8521 72.5 33.5C75.7593 35.2431 77.7569 37.7407 79.5 41C81.2431 44.2593 82.7944 48.7741 82.7944 55.1779V60.8221C82.7944 67.2258 82.2431 71.7407 80.5 75C78.7569 78.2593 75.7593 81.2569 72.5 83C69.2407 84.7431 64.9038 86.5 58.5 86.5H43.5H26.5C20.0962 86.5 17.4908 84.7431 14.2315 83C10.9723 81.2569 7.24307 78.2593 5.5 75C3.75693 71.7407 2.5 67.2258 2.5 60.8221V55.1779C2.5 48.7741 2.75693 45.4908 4.5 42.2315C5.5 38.5 9 35.5 11.5 33.5C14.7593 31.7569 20.5962 30.2056 27 30.2056L24 28C20.0892 28.4794 14.9156 28.7949 12.2779 30.2056C8.36674 32.2973 5.29728 35.3667 3.20559 39.2778C1.1139 43.1889 0 47.5861 0 55.1779V60.8221C0 68.4138 1.1139 72.811 3.20559 76.7221C5.29728 80.6332 8.36674 83.7027 12.2779 85.7944C16.189 87.8861 20.5861 89 28.1779 89H57.8221C65.4139 89 69.811 87.8861 73.7221 85.7944C77.6333 83.7027 80.7027 80.6332 82.7944 76.7221C84.8861 72.811 86 68.4138 86 60.8221V55.1779C86 47.5861 84.8861 43.1889 82.7944 39.2778C80.7027 35.3667 77.6333 32.2973 73.7221 30.2056C69.811 28.1139 65.4139 27 57.8221 27L39.2447 26.9976Z" fill="#8E6BCE" fill-opacity="0.41"/>
<path opacity="0.1" fill-rule="evenodd" clip-rule="evenodd" d="M62.1496 32H24.8504C17.6003 32 14.9712 32.7123 12.3206 34.0497C9.6701 35.3872 7.58994 37.3499 6.17241 39.8507C4.75488 42.3516 4 44.8322 4 51.6729V69.3271C4 76.1678 4.75488 78.6484 6.17241 81.1493C7.58994 83.6501 9.6701 85.6128 12.3206 86.9503C14.9712 88.2877 17.6003 89 24.8504 89H62.1496C69.3997 89 72.0288 88.2877 74.6793 86.9503C77.3299 85.6128 79.4101 83.6501 80.8276 81.1493C82.2451 78.6484 83 76.1678 83 69.3271V51.6729C83 44.8322 82.2451 42.3516 80.8276 39.8507C79.4101 37.3499 77.3299 35.3872 74.6793 34.0497C72.0288 32.7123 69.3997 32 62.1496 32Z" fill="#8E6BCE" fill-opacity="0.41"/>
<path fill-rule="evenodd" clip-rule="evenodd" d="M49.9706 100.744V89H63L49.9706 100.744Z" fill="#919191"/>
<path d="M74 8C71.7909 8 70 6.20914 70 4C70 1.79086 71.7909 0 74 0C76.2091 0 78 1.79086 78 4C78 6.20914 76.2091 8 74 8Z" fill="#8E6BCE" fill-opacity="0.41"/>
<path d="M55 21C53.8954 21 53 20.1046 53 19C53 17.8954 53.8954 17 55 17C56.1046 17 57 17.8954 57 19C57 20.1046 56.1046 21 55 21Z" fill="#8E6BCE" fill-opacity="0.41"/>
<path d="M99.5 32C95.3579 32 92 28.6421 92 24.5C92 20.3579 95.3579 17 99.5 17C103.642 17 107 20.3579 107 24.5C107 28.6421 103.642 32 99.5 32Z" fill="#919191"/>
</svg>
