<svg width="222" height="103" viewBox="0 0 222 103" fill="none" xmlns="http://www.w3.org/2000/svg">
<path fill-rule="evenodd" clip-rule="evenodd" d="M130.733 29.5555C130.558 29.6145 130.367 29.6796 130.158 29.7517L115.5 33.3519H87.53C73.063 33.3519 56.5 32.3292 49 33.3519C38 34.8519 36.5537 37.5928 32.5 40.8519C28.4463 44.1111 26.5 51.3312 26.5 57.7348V63.3787C26.5 69.7823 28.4463 78.0928 32.5 81.3519C36.5537 84.611 39.9203 85.6089 47.5 87.3519C55.0797 89.0949 71.6075 88.8519 86.5 88.8519H158.044C172.937 88.8519 191.92 88.243 199.5 86.5C207.08 84.757 208.946 84.611 213 81.3519C217.054 78.0928 219 75.4445 219 68.5V60C219 53.5965 219.054 45.2591 215 42C210.946 38.7409 208.58 36.3008 201 34.5578C193.42 32.8148 171.674 33.3515 158.044 34.5574L171.569 29.9075C180.664 30.3869 189.553 30.7034 196 31.0555C205.553 31.0555 211.136 34.6446 216 38.5555C220.864 42.4665 222 50.1433 222 57.7348V63.3787C222 70.9702 220.864 79.1446 216 83.0555C211.136 86.9665 210.096 87.9639 201 90.0555C191.904 92.1471 174.125 91.5555 156.47 91.5555H87.53C69.8747 91.5555 54.5956 92.1471 45.5 90.0555C36.4044 87.9639 34.3193 87.7955 29.4549 83.8845C24.5905 79.9736 22 70.9702 22 63.3787V57.7348C22 50.1433 24.5906 41.1402 29.4549 37.2292C34.3193 33.3183 34.4043 33.147 43.4999 31.0554C52.5955 28.9638 69.8747 29.558 87.53 29.558L130.733 29.5555Z" fill="#8E6BCE" fill-opacity="0.41"/>
<path opacity="0.1" fill-rule="evenodd" clip-rule="evenodd" d="M76.6148 32H167.159C184.759 32 199.354 32.8548 205.788 34.1923C212.222 35.5298 212.154 35.528 215.595 38.0288C219.036 40.5297 217.774 44.8322 217.774 51.6729V69.3271C217.774 76.1678 215.942 78.6484 212.501 81.1493C209.059 83.6501 204.01 85.6128 197.576 86.9503C191.141 88.2877 184.759 89 167.159 89H76.6148C59.0149 89 52.6328 88.2877 46.1985 86.9503C39.7643 85.6128 34.7147 83.6501 31.2736 81.1493C27.8325 78.6484 26 76.1678 26 69.3271V51.6729C26 44.8322 27.8325 42.3516 31.2736 39.8507C34.7147 37.3499 39.7643 35.3872 46.1985 34.0497C52.6328 32.7123 59.0149 32 76.6148 32Z" fill="#8E6BCE" fill-opacity="0.41"/>
<path fill-rule="evenodd" clip-rule="evenodd" d="M82.0294 102.744V91H69L82.0294 102.744Z" fill="#919191"/>
<path d="M33 8C35.2091 8 37 6.20914 37 4C37 1.79086 35.2091 0 33 0C30.7909 0 29 1.79086 29 4C29 6.20914 30.7909 8 33 8Z" fill="#8E6BCE" fill-opacity="0.41"/>
<path d="M52 21C53.1046 21 54 20.1046 54 19C54 17.8954 53.1046 17 52 17C50.8954 17 50 17.8954 50 19C50 20.1046 50.8954 21 52 21Z" fill="#8E6BCE" fill-opacity="0.41"/>
<path d="M7.5 32C11.6421 32 15 28.6421 15 24.5C15 20.3579 11.6421 17 7.5 17C3.35786 17 0 20.3579 0 24.5C0 28.6421 3.35786 32 7.5 32Z" fill="#919191"/>
</svg>
