<svg width="196" height="95" viewBox="0 0 196 95" fill="none" xmlns="http://www.w3.org/2000/svg">
<path fill-rule="evenodd" clip-rule="evenodd" d="M58.8219 20.5386C43.1087 20.5386 34.5004 21.4448 26.0004 23.0386C18.0004 24.5386 11.4643 27.6275 7.13495 31.5386C2.80564 35.4497 0.500117 41.1247 0.500117 48.7165V54.3607C0.500117 61.9524 2.00036 70.0386 6.50037 74.0386C11.5004 77.5386 15.405 79.4469 23.5001 81.5386C31.5952 83.6303 43.1087 82.5386 58.8219 82.5386H120.178C135.892 82.5386 146.905 83.6303 155 81.5386C163.096 79.4469 168.171 77.9497 172.5 74.0386C176.83 70.1275 178.5 61.9524 178.5 54.3607V48.7165C178.5 41.1247 177.83 35.4497 173.5 31.5386C170.136 26.9321 165.096 25.1303 157 23.0386C148.905 20.9469 135.892 20.5386 120.178 20.5386H58.8219ZM121.486 23.0386C134.741 23.0386 150.255 24.295 157 26.0381C163.746 27.7812 165.892 29.2788 169.5 32.5381C173.108 35.7973 175 41.1343 175 47.5381V54.3607C175 60.7644 173.108 69.2788 169.5 72.5381C165.892 75.7973 161.746 76.795 155 78.5381C148.255 80.2812 134.741 79.5381 121.486 79.5381H58.8219C45.5676 79.5381 33.5004 80.5381 26.0004 79.5381C18.5004 78.5381 13.0004 74.5381 8.50012 71.5381C4.50012 68.8716 3.00012 60.7644 3.00012 54.3607V47.0381C3.00012 40.6343 6.69203 35.8065 10.5001 33.0381C14.1079 29.7788 19.2545 27.7812 26.0004 26.0381C32.7463 24.295 44.2597 23.0386 57.514 23.0386H121.486Z" fill="#DE4368" fill-opacity="0.2"/>
<path opacity="0.1" fill-rule="evenodd" clip-rule="evenodd" d="M139.162 0.0384131H66.8378C51.8562 0.0384131 39.4385 -0.379033 31.4999 1.53835C23.5613 3.45572 20.4999 4.03828 14.9999 8.53835C12.4999 13.5383 9.99987 18.9412 9.99987 25.7071V30.3697C9.99987 37.1356 10.7542 44.9532 14.9999 48.5384C19.2455 52.1236 23.5613 54.121 31.4999 56.0384C39.4385 57.9558 51.8562 56.0384 66.8378 56.0384H139.162C154.144 56.0384 166.561 57.9558 174.5 56.0384C182 56.0384 185.754 53.1235 190 49.5383C194.246 45.9532 196 37.1356 196 30.3697V25.7071C196 18.9412 195.246 12.6235 191 9.03835C186.754 5.45316 181.921 1.53835 172.5 1.53835C164.561 -0.379033 154.144 0.0384131 139.162 0.0384131Z" fill="#DE4368" fill-opacity="0.21"/>
<path fill-rule="evenodd" clip-rule="evenodd" d="M106 94.2828V82.5386H118.907L106 94.2828Z" fill="#594545" fill-opacity="0.54"/>
</svg>
