<svg width="222" height="103" viewBox="0 0 222 103" fill="none" xmlns="http://www.w3.org/2000/svg">
<path fill-rule="evenodd" clip-rule="evenodd" d="M91.2671 29.5555C91.4419 29.6145 91.6328 29.6796 91.8427 29.7517L106.5 33.3519H134.47C148.937 33.3519 165.5 32.3292 173 33.3519C184 34.8519 185.447 37.5928 189.5 40.8519C193.554 44.1111 195.5 51.3312 195.5 57.7348V63.3787C195.5 69.7823 193.554 78.0928 189.5 81.3519C185.447 84.611 182.08 85.6089 174.5 87.3519C166.921 89.0949 150.393 88.8519 135.5 88.8519H63.9561C49.0635 88.8519 30.0799 88.243 22.5002 86.5C14.9206 84.757 13.0539 84.611 9.00024 81.3519C4.94659 78.0928 3.00024 75.4445 3.00024 68.5V60C3.00024 53.5965 2.94659 45.2591 7.00024 42C11.0539 38.7409 13.4206 36.3008 21.0002 34.5578C28.5799 32.8148 50.3261 33.3515 63.9561 34.5574L50.4308 29.9075C41.3361 30.3869 32.4471 30.7034 26.0002 31.0555C16.4471 31.0555 10.8646 34.6446 6.00024 38.5555C1.13586 42.4665 0.000244141 50.1433 0.000244141 57.7348V63.3787C0.000244141 70.9702 1.13586 79.1446 6.00024 83.0555C10.8646 86.9665 11.9046 87.9639 21.0002 90.0555C30.0959 92.1471 47.875 91.5555 65.5303 91.5555H134.47C152.126 91.5555 167.405 92.1471 176.5 90.0555C185.596 87.9639 187.681 87.7955 192.545 83.8845C197.41 79.9736 200 70.9702 200 63.3787V57.7348C200 50.1433 197.41 41.1402 192.545 37.2292C187.681 33.3183 187.596 33.147 178.5 31.0554C169.405 28.9638 152.126 29.558 134.47 29.558L91.2671 29.5555Z" fill="#00B578" fill-opacity="0.41"/>
<path opacity="0.1" fill-rule="evenodd" clip-rule="evenodd" d="M145.385 32H54.8405C37.2406 32 22.6458 32.8548 16.2115 34.1923C9.77728 35.5298 9.84598 35.528 6.40491 38.0288C2.96383 40.5297 4.22565 44.8322 4.22565 51.6729V69.3271C4.22565 76.1678 6.05815 78.6484 9.49922 81.1493C12.9403 83.6501 17.9899 85.6128 24.4242 86.9503C30.8584 88.2877 37.2406 89 54.8405 89H145.385C162.985 89 169.367 88.2877 175.801 86.9503C182.235 85.6128 187.285 83.6501 190.726 81.1493C194.167 78.6484 196 76.1678 196 69.3271V51.6729C196 44.8322 194.167 42.3516 190.726 39.8507C187.285 37.3499 182.235 35.3872 175.801 34.0497C169.367 32.7123 162.985 32 145.385 32Z" fill="#00B578" fill-opacity="0.41"/>
<path fill-rule="evenodd" clip-rule="evenodd" d="M139.971 102.744V91H153L139.971 102.744Z" fill="#919191"/>
<path d="M189 8C186.791 8 185 6.20914 185 4C185 1.79086 186.791 0 189 0C191.209 0 193 1.79086 193 4C193 6.20914 191.209 8 189 8Z" fill="#00B578" fill-opacity="0.41"/>
<path d="M170 21C168.895 21 168 20.1046 168 19C168 17.8954 168.895 17 170 17C171.105 17 172 17.8954 172 19C172 20.1046 171.105 21 170 21Z" fill="#00B578" fill-opacity="0.41"/>
<path d="M214.5 32C210.358 32 207 28.6421 207 24.5C207 20.3579 210.358 17 214.5 17C218.642 17 222 20.3579 222 24.5C222 28.6421 218.642 32 214.5 32Z" fill="#919191"/>
</svg>
