<svg width="159" height="96" viewBox="0 0 159 96" fill="none" xmlns="http://www.w3.org/2000/svg">
<path fill-rule="evenodd" clip-rule="evenodd" d="M116.882 22C128.092 22 134.585 23.1139 140.361 25.2056C146.136 27.2973 150.669 30.3667 153.757 34.2779C156.846 38.189 158.491 42.5861 158.491 50.1779V55.8221C158.491 63.4139 156.846 67.811 153.757 71.7221C150.669 75.6333 146.136 78.7027 140.361 80.7944C134.585 82.8861 128.092 84 116.882 84H73.1085C61.8982 84 55.4052 82.8861 49.6299 80.7944C43.8546 78.7027 39.3221 75.6333 36.2335 71.7221C33.1448 67.811 31.5 63.4139 31.5 55.8221V50.1779C31.5 42.5861 33.1448 38.189 36.2335 34.2779C39.3221 30.3667 43.8546 27.2973 49.6299 25.2056C55.4052 23.1139 61.8982 22 73.1085 22H116.882ZM70.5 25.2056C61.0439 25.2056 54.4426 27.2569 49.6299 29C44.8172 30.7431 42.0739 33.2407 39.5 36.5C36.9261 39.7593 35.5 45.0962 35.5 51.5V56C35.5 62.4038 36.9261 66.7407 39.5 70C42.0739 73.2593 44.8172 75.7569 49.6299 77.5C52.6299 78.5865 62.3246 80.7944 72 80.7944H118C127.456 80.7944 133.687 79.2431 138.5 77.5C143.313 75.7569 147.926 73.2593 150.5 70C153.074 66.7407 155 62.4038 155 56V50.1779C155 43.7741 154.074 39.7593 151.5 36.5C148.926 33.2407 142.289 28.7431 137.476 27C132.663 25.2569 127.456 25.2056 118 25.2056H95.4907H70.5Z" fill="#1F72C4" fill-opacity="0.12"/>
<path opacity="0.1" fill-rule="evenodd" clip-rule="evenodd" d="M37.9033 0L86.134 0C96.1248 0 102.124 1.02108 107.418 2.93846C112.712 4.85584 116.867 7.66951 119.698 11.2547C122.53 14.8399 124.037 18.9028 124.037 25.6687V30.3313C124.037 37.0972 122.53 41.1601 119.698 44.7453C116.867 48.3305 112.712 51.1442 107.418 53.0615C102.124 54.9789 96.1248 56 86.134 56H37.9033C27.9126 56 21.9131 54.9789 16.6191 53.0615C11.3251 51.1442 7.1703 48.3305 4.33903 44.7453C1.50777 41.1601 0 37.0972 0 30.3313L0 25.6687C0 18.9028 1.50777 14.8399 4.33903 11.2547C7.1703 7.66951 11.3251 4.85584 16.6191 2.93846C21.9131 1.02108 27.9126 0 37.9033 0Z" fill="#1F72C4" fill-opacity="0.12"/>
<path fill-rule="evenodd" clip-rule="evenodd" d="M75 96V84H62L75 96Z" fill="#594545" fill-opacity="0.45"/>
</svg>
