<svg width="196" height="95" viewBox="0 0 196 95" fill="none" xmlns="http://www.w3.org/2000/svg">
<path fill-rule="evenodd" clip-rule="evenodd" d="M137.178 20.5386C152.891 20.5386 161.5 21.4448 170 23.0386C178 24.5386 184.536 27.6275 188.865 31.5386C193.194 35.4497 195.5 41.1247 195.5 48.7165V54.3607C195.5 61.9524 194 70.0386 189.5 74.0386C184.5 77.5386 180.595 79.4469 172.5 81.5386C164.405 83.6303 152.891 82.5386 137.178 82.5386H75.8217C60.1085 82.5386 49.0948 83.6303 40.9998 81.5386C32.9047 79.4469 27.8291 77.9497 23.4998 74.0386C19.1705 70.1275 17.5 61.9524 17.5 54.3607V48.7165C17.5 41.1247 18.1705 35.4497 22.4998 31.5386C25.8647 26.9321 30.9047 25.1303 38.9998 23.0386C47.0948 20.9469 60.1085 20.5386 75.8217 20.5386H137.178ZM74.5139 23.0386C61.2595 23.0386 45.7457 24.295 38.9998 26.0381C32.2538 27.7812 30.1078 29.2788 26.5 32.5381C22.8922 35.7973 21 41.1343 21 47.5381V54.3607C21 60.7644 22.8922 69.2788 26.5 72.5381C30.1078 75.7973 34.2538 76.795 40.9998 78.5381C47.7457 80.2812 61.2595 79.5381 74.5139 79.5381H137.178C150.433 79.5381 162.5 80.5381 170 79.5381C177.5 78.5381 183 74.5381 187.5 71.5381C191.5 68.8716 193 60.7644 193 54.3607V47.0381C193 40.6343 189.308 35.8065 185.5 33.0381C181.892 29.7788 176.746 27.7812 170 26.0381C163.254 24.295 151.74 23.0386 138.486 23.0386H74.5139Z" fill="#1F72C4" fill-opacity="0.12"/>
<path opacity="0.1" fill-rule="evenodd" clip-rule="evenodd" d="M56.8379 0.0384131H129.162C144.144 0.0384131 156.561 -0.379033 164.5 1.53835C172.439 3.45572 175.5 4.03828 181 8.53835C183.5 13.5383 186 18.9412 186 25.7071V30.3697C186 37.1356 185.246 44.9532 181 48.5384C176.754 52.1236 172.439 54.121 164.5 56.0384C156.561 57.9558 144.144 56.0384 129.162 56.0384H56.8379C41.8563 56.0384 29.4386 57.9558 21.5 56.0384C14 56.0384 10.2456 53.1235 6 49.5383C1.75438 45.9532 0 37.1356 0 30.3697V25.7071C0 18.9412 0.754377 12.6235 5 9.03835C9.24562 5.45316 14.0789 1.53835 23.5 1.53835C31.4386 -0.379033 41.8563 0.0384131 56.8379 0.0384131Z" fill="#1F72C4" fill-opacity="0.12"/>
<path fill-rule="evenodd" clip-rule="evenodd" d="M90.0004 94.2828V82.5386H77.0928L90.0004 94.2828Z" fill="#594545" fill-opacity="0.54"/>
</svg>
