<svg width="106" height="96" viewBox="0 0 106 96" fill="none" xmlns="http://www.w3.org/2000/svg">
<path fill-rule="evenodd" clip-rule="evenodd" d="M27.9146 22C20.3937 22 16.0376 23.1139 12.1631 25.2056C8.28852 27.2973 5.24773 30.3667 3.17559 34.2779C1.10345 38.189 -4.05757e-05 42.5861 -4.05757e-05 50.1779V55.8221C-4.05757e-05 63.4139 1.10345 67.811 3.17559 71.7221C5.24773 75.6333 8.28852 78.7027 12.1631 80.7944C16.0376 82.8861 20.3937 84 27.9146 84H57.2817C64.8025 84 69.1586 82.8861 73.0332 80.7944C76.9077 78.7027 79.9485 75.6333 82.0207 71.7221C84.0928 67.811 85.1963 63.4139 85.1963 55.8221V50.1779C85.1963 42.5861 84.0928 38.189 82.0207 34.2779C79.9485 30.3667 76.9077 27.2973 73.0332 25.2056C69.1586 23.1139 64.8025 22 57.2817 22H27.9146ZM57.9077 25.2056C64.2516 25.2056 68.7712 26.7569 72 28.5C75.2288 30.2431 77.7732 32.7407 79.5 36C81.2268 39.2593 83 43.7741 83 50.1779V55.454C83 61.8578 81.2268 67.2407 79.5 70.5C77.7732 73.7593 75.2288 76.2569 72 78C68.7712 79.7431 63.6256 80.7944 57.2817 80.7944H27.2886C20.9446 80.7944 15.3919 79.7431 12.1631 78C8.93428 76.2569 5.68936 72.2593 3.96258 69C2.2358 65.7407 2.49993 62.2259 2.49993 55.8221V49.5C2.49993 43.0962 3.77315 39.2593 5.49993 36C7.22672 32.7407 10.8697 30.2431 14.0985 28.5C17.3273 26.7569 20.9446 25.2056 27.2886 25.2056H43.5H57.9077Z" fill="#FC9A26" fill-opacity="0.21"/>
<path opacity="0.1" fill-rule="evenodd" clip-rule="evenodd" d="M80.5712 0L48.2138 0C41.5112 0 37.4862 1.02108 33.9345 2.93846C30.3828 4.85584 27.5955 7.66951 25.696 11.2547C23.7965 14.8399 22.785 18.9028 22.785 25.6687V30.3313C22.785 37.0972 23.7965 41.1601 25.696 44.7453C27.5955 48.3305 30.3828 51.1442 33.9345 53.0615C37.4862 54.9789 41.5112 56 48.2138 56H80.5712C87.2738 56 91.2988 54.9789 94.8505 53.0615C98.4022 51.1442 101.19 48.3305 103.089 44.7453C104.988 41.1601 106 37.0972 106 30.3313V25.6687C106 18.9028 104.988 14.8399 103.089 11.2547C101.19 7.66951 98.4022 4.85584 94.8505 2.93846C91.2988 1.02108 87.2738 0 80.5712 0Z" fill="#BA7617" fill-opacity="0.31"/>
<path fill-rule="evenodd" clip-rule="evenodd" d="M49.503 95.7442V84H62.4106L49.503 95.7442Z" fill="#594545" fill-opacity="0.48"/>
</svg>
