<svg width="159" height="96" viewBox="0 0 159 96" fill="none" xmlns="http://www.w3.org/2000/svg">
<path fill-rule="evenodd" clip-rule="evenodd" d="M42.1173 22C30.907 22 24.414 23.1139 18.6387 25.2056C12.8634 27.2973 8.33092 30.3667 5.24226 34.2779C2.1536 38.189 0.508775 42.5861 0.508775 50.1779V55.8221C0.508775 63.4139 2.1536 67.811 5.24226 71.7221C8.33092 75.6333 12.8634 78.7027 18.6387 80.7944C24.414 82.8861 30.907 84 42.1173 84H85.891C97.1013 84 103.594 82.8861 109.37 80.7944C115.145 78.7027 119.677 75.6333 122.766 71.7221C125.855 67.811 127.5 63.4139 127.5 55.8221V50.1779C127.5 42.5861 125.855 38.189 122.766 34.2779C119.677 30.3667 115.145 27.2973 109.37 25.2056C103.594 23.1139 97.1013 22 85.891 22H42.1173ZM88.4995 25.2056C97.9556 25.2056 104.557 27.2569 109.37 29C114.182 30.7431 116.926 33.2407 119.5 36.5C122.073 39.7593 123.5 45.0962 123.5 51.5V56C123.5 62.4038 122.073 66.7407 119.5 70C116.926 73.2593 114.182 75.7569 109.37 77.5C106.37 78.5865 96.6749 80.7944 86.9995 80.7944H40.9994C31.5434 80.7944 25.3122 79.2431 20.4994 77.5C15.6867 75.7569 11.0733 73.2593 8.49943 70C5.92554 66.7407 3.99942 62.4038 3.99942 56V50.1779C3.99942 43.7741 4.92554 39.7593 7.49943 36.5C10.0733 33.2407 16.7108 28.7431 21.5236 27C26.3363 25.2569 31.5434 25.2056 40.9994 25.2056H63.5087H88.4995Z" fill="#FC9A26" fill-opacity="0.21"/>
<path opacity="0.1" fill-rule="evenodd" clip-rule="evenodd" d="M121.097 0L72.8659 0C62.8751 0 56.8756 1.02108 51.5816 2.93846C46.2876 4.85584 42.1328 7.66951 39.3016 11.2547C36.4703 14.8399 34.9625 18.9028 34.9625 25.6687V30.3313C34.9625 37.0972 36.4703 41.1601 39.3016 44.7453C42.1328 48.3305 46.2876 51.1442 51.5816 53.0615C56.8756 54.9789 62.8751 56 72.8659 56H121.097C131.087 56 137.087 54.9789 142.381 53.0615C147.675 51.1442 151.83 48.3305 154.661 44.7453C157.492 41.1601 159 37.0972 159 30.3313V25.6687C159 18.9028 157.492 14.8399 154.661 11.2547C151.83 7.66951 147.675 4.85584 142.381 2.93846C137.087 1.02108 131.087 0 121.097 0Z" fill="#BA7617" fill-opacity="0.31"/>
<path fill-rule="evenodd" clip-rule="evenodd" d="M83.9995 96V84H96.9995L83.9995 96Z" fill="#594545" fill-opacity="0.45"/>
</svg>
