<svg width="73" height="140" viewBox="0 0 73 140" fill="none" xmlns="http://www.w3.org/2000/svg">
<path opacity="0.05" d="M3.932 139.02L2.912 129.228L38 124.74L30.248 132.696C30.656 130.248 31.064 127.528 31.472 124.536C31.88 121.408 32.22 118.552 32.492 115.968C32.764 113.384 32.9 111.616 32.9 110.664V23.556L39.02 26.82L5.564 42.732L0.260001 34.572L41.672 0.91199L50.036 3.35999C49.9 8.66399 49.696 14.58 49.424 21.108C49.152 27.5 48.948 33.484 48.812 39.06C48.676 44.5 48.608 48.512 48.608 51.096V104.544C48.608 107.672 48.676 110.8 48.812 113.928C49.084 117.056 49.356 120.184 49.628 123.312C50.036 126.44 50.444 129.568 50.852 132.696L43.304 125.352L72.884 127.392L71.456 138H39.428C38.748 138 36.98 138 34.124 138C31.268 138.136 27.936 138.272 24.128 138.408C20.32 138.544 16.58 138.612 12.908 138.612C9.236 138.748 6.244 138.884 3.932 139.02Z" fill="black"/>
</svg>
