<svg width="90" height="137" viewBox="0 0 90 137" fill="none" xmlns="http://www.w3.org/2000/svg">
<path opacity="0.05" d="M83.92 136.612L59.032 136H3.748L0.892001 121.72C12.452 110.024 22.04 100.164 29.656 92.14C37.408 83.98 43.596 77.112 48.22 71.536C52.98 65.96 56.516 61.268 58.828 57.46C61.276 53.516 62.908 49.98 63.724 46.852C64.54 43.588 64.948 40.188 64.948 36.652C64.948 29.308 62.704 23.324 58.216 18.7C53.864 13.94 48.152 11.56 41.08 11.56C36.32 11.56 32.036 12.24 28.228 13.6C24.556 14.824 20.34 17.068 15.58 20.332L21.7 10.54C21.292 12.444 20.748 14.62 20.068 17.068C19.524 19.516 19.048 21.76 18.64 23.8C18.368 25.704 18.232 27.064 18.232 27.88L18.64 37.264L8.032 37.672L5.176 8.29599C12.112 5.57599 18.3 3.67199 23.74 2.58399C29.316 1.49599 35.64 0.951988 42.712 0.951988C55.224 0.951988 65.016 3.80799 72.088 9.52C79.296 15.232 82.9 23.256 82.9 33.592C82.9 39.984 81.812 46.104 79.636 51.952C77.46 57.8 73.72 64.124 68.416 70.924C63.112 77.724 55.836 85.68 46.588 94.792C37.476 103.904 25.848 114.92 11.704 127.84L11.296 121.924H57.808C59.032 121.924 61.004 121.788 63.724 121.516C66.58 121.244 69.64 120.972 72.904 120.7C76.168 120.292 79.092 119.884 81.676 119.476L72.292 126.82C73.244 124.508 74.196 122.264 75.148 120.088C76.1 117.912 76.984 115.736 77.8 113.56L78.82 103.768L89.428 104.584L87.592 132.532L83.92 136.612Z" fill="black"/>
</svg>
