<svg width="82" height="158" viewBox="0 0 82 158" fill="none" xmlns="http://www.w3.org/2000/svg">
<path opacity="0.05" d="M3.668 157.42L0.2 147.016C12.984 144.84 24.068 141.508 33.452 137.02C42.972 132.532 50.316 127.296 55.484 121.312C60.788 115.192 63.44 108.8 63.44 102.136C63.44 94.52 60.788 88.4 55.484 83.776C50.18 79.016 43.312 76.636 34.88 76.636C31.888 76.636 29.1 76.704 26.516 76.84C23.932 76.976 21.96 77.112 20.6 77.248L17.744 67.864C31.344 66.368 41.408 63.104 47.936 58.072C54.464 52.904 57.728 45.968 57.728 37.264C57.728 28.832 55.756 22.44 51.812 18.088C47.868 13.6 42.292 11.356 35.084 11.356C30.596 11.356 26.992 11.968 24.272 13.192C21.688 14.28 18.288 16.388 14.072 19.516L20.396 9.11199C19.988 11.016 19.444 13.192 18.764 15.64C18.22 18.088 17.744 20.332 17.336 22.372C17.064 24.276 16.928 25.636 16.928 26.452L17.336 35.428L6.524 36.04L3.872 6.868C10.264 4.69199 15.84 3.19599 20.6 2.37999C25.496 1.42799 30.528 0.951988 35.696 0.951988C48.616 0.951988 58.544 3.80799 65.48 9.52C72.416 15.096 75.884 23.256 75.884 34C75.884 42.296 73.3 49.572 68.132 55.828C62.964 61.948 55.688 66.504 46.304 69.496L45.488 66.028C53.376 67.66 59.972 70.108 65.276 73.372C70.58 76.636 74.592 80.648 77.312 85.408C80.168 90.168 81.596 95.676 81.596 101.932C81.596 108.868 79.692 115.396 75.884 121.516C72.212 127.636 66.908 133.144 59.972 138.04C53.036 142.936 44.808 147.016 35.288 150.28C25.768 153.68 15.228 156.06 3.668 157.42Z" fill="black"/>
</svg>
