<svg width="96" height="153" viewBox="0 0 96 153" fill="none" xmlns="http://www.w3.org/2000/svg">
<path opacity="0.05" d="M8.4 109.588L0.0360008 99.592L73.476 0.243995L86.94 10.036C83.268 13.98 79.324 18.264 75.108 22.888C71.028 27.376 67.356 31.388 64.092 34.924C60.964 38.46 58.992 40.84 58.176 42.064L16.356 105.304L13.296 99.796L64.908 98.98V109.588H8.4ZM40.428 152.02L39.408 142.228L67.152 137.74L58.584 145.696C59.4 142.024 60.216 138.08 61.032 133.864C61.848 129.512 62.256 126.044 62.256 123.46V68.992L76.74 63.892V116.728C76.74 120.536 76.944 125.16 77.352 130.6C77.896 135.904 78.44 140.936 78.984 145.696L71.436 138.352L95.1 140.392L93.672 151H68.784C67.152 151 64.636 151.068 61.236 151.204C57.972 151.34 54.436 151.476 50.628 151.612C46.956 151.748 43.556 151.884 40.428 152.02ZM73.68 109.588V98.164L95.508 96.736V109.588H73.68Z" fill="black"/>
</svg>
