<svg width="79" height="158" viewBox="0 0 79 158" fill="none" xmlns="http://www.w3.org/2000/svg">
<path opacity="0.05" d="M3.564 157.42L0.0960002 147.016C10.976 145.52 20.904 142.936 29.88 139.264C38.992 135.728 46.268 130.9 51.708 124.78C57.284 118.66 60.072 111.112 60.072 102.136C60.072 93.296 57.42 86.564 52.116 81.94C46.812 77.316 39.332 75.004 29.676 75.004C27.092 75.004 24.236 75.208 21.108 75.616C17.98 75.888 14.24 76.568 9.888 77.656L2.544 73.984L5.808 6.664L9.684 2.992H23.148L72.72 0.951988L73.944 13.396L30.492 18.292H18.048L15.396 69.292L12.336 65.008C14.784 64.328 17.708 63.716 21.108 63.172C24.644 62.492 28.52 62.152 32.736 62.152C46.472 62.152 57.488 65.348 65.784 71.74C74.08 78.132 78.228 87.652 78.228 100.3C78.228 111.588 74.896 121.244 68.232 129.268C61.568 137.292 52.592 143.616 41.304 148.24C30.152 153 17.572 156.06 3.564 157.42Z" fill="black"/>
</svg>
