<svg width="22" height="23" viewBox="0 0 22 23" fill="none" xmlns="http://www.w3.org/2000/svg">
<path d="M6.41665 1.9165C3.88534 1.9165 1.83331 4.06181 1.83331 6.70817V16.2915C1.83331 18.9379 3.88534 21.0832 6.41665 21.0832H15.5833C18.1146 21.0832 20.1666 18.9379 20.1666 16.2915V11.4998C20.1666 10.9706 19.7562 10.5415 19.25 10.5415C18.7437 10.5415 18.3333 10.9706 18.3333 11.4998V16.2915C18.3333 17.8793 17.1021 19.1665 15.5833 19.1665H6.41665C4.89786 19.1665 3.66665 17.8793 3.66665 16.2915V6.70817C3.66665 5.12035 4.89786 3.83317 6.41665 3.83317H11C11.5062 3.83317 11.9166 3.40411 11.9166 2.87484C11.9166 2.34556 11.5062 1.9165 11 1.9165H6.41665Z" fill="white"/>
<path fill-rule="evenodd" clip-rule="evenodd" d="M18.5232 3.63491C17.4058 2.46675 15.5942 2.46675 14.4768 3.63491L7.96089 10.447C7.60845 10.8155 7.35843 11.2771 7.23754 11.7827L6.44404 15.101C6.36594 15.4275 6.45747 15.773 6.68515 16.011C6.91283 16.2491 7.24328 16.3448 7.55566 16.2631L10.7297 15.4335C11.2132 15.3072 11.6548 15.0458 12.0073 14.6773L18.5232 7.8652C19.6406 6.69703 19.6406 4.80307 18.5232 3.63491ZM15.7732 4.9902C16.1746 4.57054 16.8254 4.57054 17.2268 4.9902C17.6282 5.40986 17.6282 6.09025 17.2268 6.50991L10.7109 13.322C10.5934 13.4448 10.4462 13.532 10.285 13.5741L8.59317 14.0163L9.01614 12.2475C9.05643 12.079 9.13977 11.9251 9.25725 11.8023L15.7732 4.9902Z" fill="white"/>
</svg>
