<svg width="26" height="26" viewBox="0 0 26 26" fill="none" xmlns="http://www.w3.org/2000/svg">
<path d="M9.4725 10.525H10.525C10.8041 10.525 11.0719 10.4142 11.2692 10.2168C11.4666 10.0194 11.5775 9.75168 11.5775 9.47253C11.5775 9.19339 11.4666 8.92568 11.2692 8.7283C11.0719 8.53091 10.8041 8.42003 10.525 8.42003H9.4725C9.19336 8.42003 8.92565 8.53091 8.72826 8.7283C8.53088 8.92568 8.41999 9.19339 8.41999 9.47253C8.41999 9.75168 8.53088 10.0194 8.72826 10.2168C8.92565 10.4142 9.19336 10.525 9.4725 10.525ZM9.4725 12.6301C9.19336 12.6301 8.92565 12.7409 8.72826 12.9383C8.53088 13.1357 8.41999 13.4034 8.41999 13.6826C8.41999 13.9617 8.53088 14.2294 8.72826 14.4268C8.92565 14.6242 9.19336 14.7351 9.4725 14.7351H15.7875C16.0667 14.7351 16.3344 14.6242 16.5318 14.4268C16.7292 14.2294 16.84 13.9617 16.84 13.6826C16.84 13.4034 16.7292 13.1357 16.5318 12.9383C16.3344 12.7409 16.0667 12.6301 15.7875 12.6301H9.4725ZM21.0501 9.40938C21.0391 9.31269 21.0179 9.21744 20.9869 9.12521V9.03048C20.9363 8.92226 20.8688 8.82278 20.787 8.73578L14.4719 2.42073C14.3849 2.33886 14.2854 2.27136 14.1772 2.22076C14.1458 2.21629 14.1139 2.21629 14.0825 2.22076C13.9756 2.15944 13.8575 2.12008 13.7352 2.10498H7.36748C6.53006 2.10498 5.72693 2.43765 5.13478 3.0298C4.54263 3.62195 4.20996 4.42508 4.20996 5.2625V19.9976C4.20996 20.835 4.54263 21.6382 5.13478 22.2303C5.72693 22.8225 6.53006 23.1551 7.36748 23.1551H17.8926C18.73 23.1551 19.5331 22.8225 20.1253 22.2303C20.7174 21.6382 21.0501 20.835 21.0501 19.9976V9.47253C21.0501 9.47253 21.0501 9.47253 21.0501 9.40938ZM14.735 5.69403L17.461 8.42003H15.7875C15.5084 8.42003 15.2407 8.30914 15.0433 8.11175C14.8459 7.91437 14.735 7.64666 14.735 7.36752V5.69403ZM18.9451 19.9976C18.9451 20.2768 18.8342 20.5445 18.6368 20.7418C18.4394 20.9392 18.1717 21.0501 17.8926 21.0501H7.36748C7.08834 21.0501 6.82063 20.9392 6.62325 20.7418C6.42586 20.5445 6.31498 20.2768 6.31498 19.9976V5.2625C6.31498 4.98336 6.42586 4.71565 6.62325 4.51827C6.82063 4.32088 7.08834 4.21 7.36748 4.21H12.63V7.36752C12.63 8.20495 12.9627 9.00807 13.5548 9.60022C14.147 10.1924 14.9501 10.525 15.7875 10.525H18.9451V19.9976ZM15.7875 16.8401H9.4725C9.19336 16.8401 8.92565 16.951 8.72826 17.1484C8.53088 17.3457 8.41999 17.6135 8.41999 17.8926C8.41999 18.1717 8.53088 18.4394 8.72826 18.6368C8.92565 18.8342 9.19336 18.9451 9.4725 18.9451H15.7875C16.0667 18.9451 16.3344 18.8342 16.5318 18.6368C16.7292 18.4394 16.84 18.1717 16.84 17.8926C16.84 17.6135 16.7292 17.3457 16.5318 17.1484C16.3344 16.951 16.0667 16.8401 15.7875 16.8401Z" fill="#091B3D" fill-opacity="0.4"/>
</svg>
