<svg width="18" height="22" viewBox="0 0 18 22" fill="none" xmlns="http://www.w3.org/2000/svg">
<path d="M5.4725 8.52504H6.525C6.80415 8.52504 7.07186 8.41415 7.26924 8.21677C7.46662 8.01938 7.57751 7.75168 7.57751 7.47253C7.57751 7.19339 7.46662 6.92568 7.26924 6.7283C7.07186 6.53091 6.80415 6.42003 6.525 6.42003H5.4725C5.19336 6.42003 4.92565 6.53091 4.72826 6.7283C4.53088 6.92568 4.41999 7.19339 4.41999 7.47253C4.41999 7.75168 4.53088 8.01938 4.72826 8.21677C4.92565 8.41415 5.19336 8.52504 5.4725 8.52504ZM5.4725 10.6301C5.19336 10.6301 4.92565 10.7409 4.72826 10.9383C4.53088 11.1357 4.41999 11.4034 4.41999 11.6826C4.41999 11.9617 4.53088 12.2294 4.72826 12.4268C4.92565 12.6242 5.19336 12.7351 5.4725 12.7351H11.7875C12.0667 12.7351 12.3344 12.6242 12.5318 12.4268C12.7292 12.2294 12.84 11.9617 12.84 11.6826C12.84 11.4034 12.7292 11.1357 12.5318 10.9383C12.3344 10.7409 12.0667 10.6301 11.7875 10.6301H5.4725ZM17.0501 7.40938C17.0391 7.31269 17.0179 7.21744 16.9869 7.12521V7.03048C16.9363 6.92226 16.8688 6.82278 16.787 6.73578L10.4719 0.420733C10.3849 0.338865 10.2854 0.271362 10.1772 0.220756C10.1458 0.216294 10.1139 0.216294 10.0825 0.220756C9.97556 0.159439 9.85748 0.120078 9.73515 0.10498H3.36748C2.53006 0.10498 1.72693 0.437647 1.13478 1.0298C0.542628 1.62195 0.209961 2.42508 0.209961 3.2625V17.9976C0.209961 18.835 0.542628 19.6382 1.13478 20.2303C1.72693 20.8225 2.53006 21.1551 3.36748 21.1551H13.8926C14.73 21.1551 15.5331 20.8225 16.1253 20.2303C16.7174 19.6382 17.0501 18.835 17.0501 17.9976V7.47253C17.0501 7.47253 17.0501 7.47253 17.0501 7.40938ZM10.735 3.69403L13.461 6.42003H11.7875C11.5084 6.42003 11.2407 6.30914 11.0433 6.11175C10.8459 5.91437 10.735 5.64666 10.735 5.36752V3.69403ZM14.9451 17.9976C14.9451 18.2768 14.8342 18.5445 14.6368 18.7418C14.4394 18.9392 14.1717 19.0501 13.8926 19.0501H3.36748C3.08834 19.0501 2.82063 18.9392 2.62325 18.7418C2.42586 18.5445 2.31498 18.2768 2.31498 17.9976V3.2625C2.31498 2.98336 2.42586 2.71565 2.62325 2.51827C2.82063 2.32088 3.08834 2.21 3.36748 2.21H8.63002V5.36752C8.63002 6.20495 8.96269 7.00807 9.55484 7.60022C10.147 8.19237 10.9501 8.52504 11.7875 8.52504H14.9451V17.9976ZM11.7875 14.8401H5.4725C5.19336 14.8401 4.92565 14.951 4.72826 15.1484C4.53088 15.3457 4.41999 15.6135 4.41999 15.8926C4.41999 16.1717 4.53088 16.4394 4.72826 16.6368C4.92565 16.8342 5.19336 16.9451 5.4725 16.9451H11.7875C12.0667 16.9451 12.3344 16.8342 12.5318 16.6368C12.7292 16.4394 12.84 16.1717 12.84 15.8926C12.84 15.6135 12.7292 15.3457 12.5318 15.1484C12.3344 14.951 12.0667 14.8401 11.7875 14.8401Z" fill="#F5B544"/>
</svg>
