<svg width="32" height="32" viewBox="0 0 32 32" fill="none" xmlns="http://www.w3.org/2000/svg">
<path fill-rule="evenodd" clip-rule="evenodd" d="M15.1793 5.72875C14.6845 6.10896 14.0905 6.70316 13.175 7.62517L7.6134 13.2263V19.5166C7.6134 22.2561 9.19239 24.6845 11.5616 25.8199C11.5175 25.2755 11.5456 24.7243 11.6475 24.1811L11.6733 24.0438C11.9804 22.4079 13.1869 21.0839 14.7917 20.6387C15.5825 20.4193 16.4177 20.4193 17.2085 20.6387C18.8133 21.0839 20.0198 22.4079 20.3269 24.0438L20.3526 24.1811C20.4546 24.7243 20.4826 25.2755 20.4386 25.8199C22.8078 24.6843 24.3868 22.2561 24.3868 19.5166V13.2263L18.8251 7.62517C17.9097 6.70316 17.3157 6.10896 16.8209 5.72875C16.3563 5.37187 16.1407 5.33341 16.0001 5.33341C15.8594 5.33341 15.6438 5.37187 15.1793 5.72875ZM27.0534 15.9119C27.5722 16.4345 28.417 16.4379 28.9395 15.9191C29.4621 15.4003 29.465 14.5561 28.9462 14.0335L20.6554 5.68379C19.8197 4.84197 19.0997 4.11684 18.4457 3.61424C17.745 3.07591 16.9641 2.66675 16.0001 2.66675C15.0361 2.66675 14.2551 3.07591 13.5545 3.61424C12.9004 4.11684 12.1805 4.84197 11.3447 5.6838C11.3241 5.70455 11.3034 5.72537 11.2827 5.74625L3.05394 14.0335C2.53508 14.5561 2.53808 15.4003 3.06062 15.9191C3.58316 16.4379 4.42738 16.435 4.94623 15.9125L4.94674 19.5166C4.94674 23.9885 8.00383 27.8822 12.3425 28.9071C14.7482 29.4755 17.2519 29.4755 19.6577 28.9071C23.9963 27.8822 27.0534 23.9885 27.0534 19.5166V15.9119ZM17.5611 26.5743C17.7915 25.971 17.8518 25.3126 17.7317 24.6731L17.7059 24.5358C17.585 23.8914 17.1122 23.3794 16.4955 23.2082C16.1711 23.1183 15.829 23.1183 15.5046 23.2082C14.8879 23.3794 14.4151 23.8914 14.2942 24.5358L14.2685 24.6731C14.1483 25.3126 14.2086 25.971 14.439 26.5743C15.4761 26.6975 16.5241 26.6975 17.5611 26.5743Z" fill="#F5B544"/>
</svg>
