<svg width="20" height="21" viewBox="0 0 20 21" fill="none" xmlns="http://www.w3.org/2000/svg">
<path fill-rule="evenodd" clip-rule="evenodd" d="M15.5892 5.2774C15.9147 5.60284 15.9147 6.13048 15.5892 6.45591L5.58921 16.4559C5.26378 16.7814 4.73614 16.7814 4.4107 16.4559C4.08527 16.1305 4.08527 15.6028 4.4107 15.2774L14.4107 5.2774C14.7361 4.95197 15.2638 4.95197 15.5892 5.2774Z" fill="#2772F0"/>
<path fill-rule="evenodd" clip-rule="evenodd" d="M4.4107 5.2774C4.73614 4.95197 5.26378 4.95197 5.58921 5.2774L15.5892 15.2774C15.9147 15.6028 15.9147 16.1305 15.5892 16.4559C15.2638 16.7814 14.7361 16.7814 14.4107 16.4559L4.4107 6.45591C4.08527 6.13048 4.08527 5.60284 4.4107 5.2774Z" fill="#2772F0"/>
</svg>
