<svg width="17" height="20" viewBox="0 0 17 20" fill="none" xmlns="http://www.w3.org/2000/svg">
<path d="M12.8591 8.6C12.8591 7.64522 12.3593 6.72955 11.4697 6.05442C10.5801 5.37928 9.37354 5 8.11545 5C6.85736 5 5.6508 5.37928 4.76119 6.05442C3.87159 6.72955 3.37182 7.64522 3.37182 8.6C3.37182 12.8 1 14 1 14H15.2309C15.2309 14 12.8591 12.8 12.8591 8.6Z" stroke="#808080" stroke-width="1.34409" stroke-linecap="round" stroke-linejoin="round"/>
<path d="M9.55151 17.7383C9.4114 17.9458 9.21029 18.1181 8.96831 18.2378C8.72634 18.3576 8.452 18.4206 8.17276 18.4206C7.89352 18.4206 7.61918 18.3576 7.37721 18.2378C7.13523 18.1181 6.93412 17.9458 6.79401 17.7383" stroke="#808080" stroke-width="1.34409" stroke-linecap="round" stroke-linejoin="round"/>
<circle cx="11.8888" cy="5.04032" r="4.36828" fill="#E6521F" stroke="white" stroke-width="1.34409"/>
</svg>
