<svg width="25" height="25" viewBox="0 0 25 25" fill="none" xmlns="http://www.w3.org/2000/svg">
<path fill-rule="evenodd" clip-rule="evenodd" d="M14.9028 0.38895C15.1609 0.572984 15.3198 0.911916 15.3198 1.27857V23.2214C15.3198 23.5881 15.1609 23.927 14.9028 24.111C14.6447 24.2951 14.3263 24.2964 14.0672 24.1145L6.44627 18.7643H3.31977C1.62438 18.7643 0.25 17.0758 0.25 14.9929V9.50714C0.25 7.42424 1.62438 5.73571 3.31977 5.73571H6.44627L14.0672 0.385521C14.3263 0.203609 14.6447 0.204916 14.9028 0.38895ZM5.8314 7.79286H3.31977C2.54914 7.79286 1.92442 8.56037 1.92442 9.50714V14.9929C1.92442 15.9396 2.54914 16.7071 3.31977 16.7071H5.8314V7.79286ZM7.50581 17.1388L13.6453 21.449V3.05099L7.50581 7.36119V17.1388ZM19.2569 2.19777C19.5574 1.76608 20.0859 1.71546 20.4373 2.0847C22.7696 4.53559 24.25 8.18094 24.25 12.25C24.25 16.321 22.7681 19.9679 20.4339 22.4188C20.0824 22.7879 19.5539 22.737 19.2535 22.3052C18.9531 21.8733 18.9946 21.2241 19.3461 20.855C21.3239 18.7782 22.5756 15.6942 22.5756 12.25C22.5756 8.80741 21.3251 5.72473 19.3489 3.64799C18.9975 3.27875 18.9563 2.62946 19.2569 2.19777ZM16.846 5.14312C17.1319 4.69665 17.6583 4.61944 18.0217 4.97067C19.7736 6.66391 20.9012 9.29547 20.9012 12.25C20.9012 15.2032 19.7746 17.8337 18.0241 19.527C17.6608 19.8784 17.1344 19.8015 16.8484 19.3552C16.5623 18.9088 16.625 18.2621 16.9883 17.9107C18.3529 16.5907 19.2267 14.546 19.2267 12.25C19.2267 9.95296 18.3521 7.90748 16.9864 6.58748C16.623 6.23625 16.5602 5.58959 16.846 5.14312Z" fill="#000928"/>
</svg>
