<svg width="27" height="28" viewBox="0 0 27 28" fill="none" xmlns="http://www.w3.org/2000/svg">
<g clip-path="url(#clip0_876_325)">
<path fill-rule="evenodd" clip-rule="evenodd" d="M14.25 2.25C14.5714 2.25 14.8688 2.43247 15.0318 2.72966L27.1248 24.7837C27.2897 25.0845 27.2919 25.4571 27.1303 25.7601C26.9688 26.0631 26.6684 26.25 26.343 26.25H2.15698C1.83163 26.25 1.5312 26.0631 1.36968 25.7601C1.20815 25.4571 1.21026 25.0845 1.37522 24.7837L13.4682 2.72966C13.6312 2.43247 13.9286 2.25 14.25 2.25ZM3.74275 24.3041H24.7572L14.25 5.14198L3.74275 24.3041ZM12.8107 13.0562C12.7154 12.1359 13.3869 11.3311 14.25 11.3311C15.1131 11.3311 15.7846 12.1359 15.6893 13.0562L15.2368 17.4251C15.1059 18.6885 13.394 18.6884 13.2632 17.4251L12.8107 13.0562Z" fill="#000928"/>
<path d="M15.4593 20.7365C15.4593 21.453 14.9179 22.0338 14.25 22.0338C13.5821 22.0338 13.0407 21.453 13.0407 20.7365C13.0407 20.02 13.5821 19.4392 14.25 19.4392C14.9179 19.4392 15.4593 20.02 15.4593 20.7365Z" fill="#000928"/>
<path fill-rule="evenodd" clip-rule="evenodd" d="M14.25 22.0338C14.9179 22.0338 15.4593 21.453 15.4593 20.7365C15.4593 20.02 14.9179 19.4392 14.25 19.4392C13.5821 19.4392 13.0407 20.02 13.0407 20.7365C13.0407 21.453 13.5821 22.0338 14.25 22.0338Z" fill="#000928"/>
</g>
<defs>
<clipPath id="clip0_876_325">
<rect width="27" height="28" fill="white"/>
</clipPath>
</defs>
</svg>
