<svg width="40" height="40" viewBox="0 0 40 40" fill="none" xmlns="http://www.w3.org/2000/svg">
<path fill-rule="evenodd" clip-rule="evenodd" d="M17.2369 11.347C15.8455 10.8855 14.3233 10.8852 12.9237 11.3409C10.6491 12.0815 8.87472 13.9364 8.25059 16.2501L8.18216 16.5038C7.75147 18.1003 7.67232 19.7721 7.95026 21.4026L7.98016 21.578C7.99285 21.6525 8.0073 21.7263 8.02346 21.7993C8.15277 22.3833 7.85009 22.9771 7.30146 23.2157C6.683 23.4846 6.25 24.1044 6.25 24.8267C6.25 25.6644 6.83641 26.3796 7.64335 26.5448L8.11293 26.6409C8.95862 26.814 9.80916 26.9548 10.6628 27.0635C10.7751 26.8686 10.9069 26.6833 11.0574 26.5105C11.5108 25.99 12.3004 25.9355 12.821 26.3889C13.0944 26.627 13.2393 26.9579 13.2494 27.2938C14.4158 27.3533 15.5843 27.3533 16.7506 27.2938C16.7608 26.9579 16.9056 26.627 17.179 26.3889C17.6996 25.9355 18.4891 25.99 18.9426 26.5105C19.093 26.6833 19.2249 26.8686 19.3372 27.0635C20.1909 26.9548 21.0414 26.814 21.8871 26.6409L22.3566 26.5448C23.1636 26.3796 23.75 25.6644 23.75 24.8267C23.75 24.104 23.3166 23.484 22.6976 23.2153C22.1462 22.976 21.8434 22.3781 21.9764 21.7919C21.995 21.7104 22.0114 21.6278 22.0256 21.5442L22.0572 21.3584L23.2895 21.5685L22.0572 21.3584C22.331 19.7529 22.2596 18.1072 21.8481 16.5317L21.7566 16.1814C21.1613 13.9023 19.4588 12.0841 17.2369 11.347ZM17.095 29.7788C15.6995 29.8583 14.3005 29.8583 12.905 29.7788C13.1309 30.3245 13.6042 30.7354 14.1845 30.8741L14.4295 30.9328C14.8046 31.0224 15.1954 31.0224 15.5705 30.9328L15.8155 30.8741C16.3958 30.7354 16.8691 30.3245 17.095 29.7788ZM10.2628 29.5326C10.2658 29.5471 10.2688 29.5618 10.272 29.5763L10.3626 29.9924C10.7185 31.6269 11.9759 32.9164 13.603 33.3055L13.8479 33.3641C14.6054 33.5452 15.3946 33.5452 16.1521 33.3641L16.397 33.3055C18.0241 32.9164 19.2815 31.6269 19.6374 29.9924L19.728 29.5764C19.7311 29.5618 19.7343 29.5471 19.7372 29.5326C20.6246 29.4176 21.5089 29.2701 22.3883 29.0901L22.8579 28.994C24.8357 28.5894 26.25 26.8441 26.25 24.8267C26.25 23.445 25.593 22.2169 24.5751 21.44C24.8436 19.5925 24.7393 17.7083 24.267 15.8999L24.1754 15.5496C23.3671 12.4551 21.0534 9.97906 18.024 8.97416C16.1205 8.34269 14.0511 8.34469 12.1497 8.96375C9.07824 9.9638 6.68265 12.4636 5.83686 15.599L5.76844 15.8526C5.27726 17.6735 5.16127 19.5744 5.42593 21.4392C4.40749 22.216 3.75 23.4445 3.75 24.8267C3.75 26.8441 5.16426 28.5894 7.14218 28.994L7.61175 29.0901C8.49113 29.2701 9.37539 29.4176 10.2628 29.5326Z" fill="#091B3D"/>
<circle cx="29.9546" cy="8.5" r="4.5" fill="#E6521F"/>
</svg>
