<svg width="10" height="10" viewBox="0 0 10 10" fill="none" xmlns="http://www.w3.org/2000/svg">
<path d="M9.6336 7.86798C10.1221 8.35657 10.1221 9.14621 9.6336 9.63479C9.39181 9.88155 9.07106 10 8.75031 10C8.42956 10 8.10881 9.87662 7.86701 9.63479L5 6.76743L2.13299 9.63479C1.89119 9.88155 1.57044 10 1.24969 10C0.928942 10 0.608191 9.87662 0.366395 9.63479C-0.122132 9.14621 -0.122132 8.35657 0.366395 7.86798L3.23341 5.00062L0.366395 2.13325C-0.122132 1.64466 -0.122132 0.855028 0.366395 0.36644C0.854922 -0.122147 1.64446 -0.122147 2.13299 0.36644L5 3.23381L7.86701 0.36644C8.35554 -0.122147 9.14508 -0.122147 9.6336 0.36644C10.1221 0.855028 10.1221 1.64466 9.6336 2.13325L6.76659 5.00062L9.6336 7.86798Z" fill="#F48023"/>
</svg>
