<svg width="25" height="21" viewBox="0 0 25 21" fill="none" xmlns="http://www.w3.org/2000/svg">
<path d="M16.9986 9.08337C17.6143 8.91318 18.2301 8.82683 18.829 8.82683C19.754 8.82683 20.5257 9.02974 21.1242 9.27822C20.5472 7.25063 19.1613 3.75207 16.4004 3.35808C16.1447 3.32158 15.9352 3.1441 15.8654 2.90519L15.262 0.83329C15.2112 0.658073 15.2413 0.470519 15.3454 0.318463C15.4495 0.166406 15.6168 0.0649513 15.8043 0.0402798C16.0081 0.0135944 16.2158 0 16.4217 0C19.7356 0 23.0175 3.32057 24.4024 8.07511C25.2154 10.8645 25.4537 15.0581 23.4513 17.6977C22.3307 19.1747 20.6959 19.9635 18.5922 20.0423C18.5836 20.0425 18.5752 20.0428 18.5665 20.0428C15.9709 20.0428 13.6692 18.3646 12.969 15.9622C12.5507 14.5259 12.7398 13.0197 13.5019 11.7199C14.2558 10.4348 15.4975 9.498 16.9986 9.08337Z" fill="#7C76BB"/>
<path d="M0.750642 11.7202C1.50458 10.4348 2.74629 9.498 4.24736 9.08337C4.8631 8.91319 5.47884 8.82683 6.07754 8.82683C7.00246 8.82683 7.7745 9.02975 8.37293 9.27822C7.796 7.25063 6.41006 3.75207 3.64893 3.35808C3.39324 3.32158 3.18397 3.1441 3.11395 2.90519L2.51054 0.83329C2.45966 0.658073 2.48982 0.47052 2.59393 0.318463C2.69778 0.166406 2.86509 0.0649513 3.05285 0.0402799C3.25635 0.0135944 3.46405 0 3.67017 0C6.9841 0 10.266 3.32057 11.6512 8.07511C12.4639 10.8645 12.7023 15.0581 10.6995 17.6982C9.57924 19.175 7.94417 19.964 5.84073 20.0425C5.83208 20.0428 5.82369 20.043 5.81477 20.043C3.21937 20.043 0.917428 18.3649 0.217245 15.9624C-0.200504 14.5262 -0.0111675 13.0197 0.750642 11.7202Z" fill="#7C76BB"/>
</svg>
