<svg width="28" height="30" viewBox="0 0 28 30" fill="none" xmlns="http://www.w3.org/2000/svg">
<path d="M8.96151 13.827C8.27189 13.6142 7.58227 13.5063 6.91144 13.5063C5.87553 13.5063 5.01115 13.7599 4.34091 14.0705C4.98707 11.536 6.53931 7.16279 9.63146 6.6703C9.91783 6.62467 10.1525 6.40282 10.2306 6.10418L10.9064 3.51428C10.9634 3.29526 10.9296 3.06081 10.813 2.87074C10.6964 2.68067 10.5091 2.55385 10.2991 2.52301C10.0708 2.48965 9.83823 2.47266 9.60767 2.47266C5.89609 2.47266 2.22034 6.62341 0.669276 12.5666C-0.241216 16.0534 -0.508196 21.2955 1.73455 24.595C2.98956 26.4413 4.82054 27.4272 7.17666 27.5257C7.18635 27.526 7.19575 27.5264 7.20544 27.5264C10.1126 27.5264 12.6904 25.4286 13.4746 22.4256C13.9431 20.6303 13.7313 18.7475 12.8778 17.1227C12.0334 15.5162 10.6427 14.3453 8.96151 13.827Z" fill="#7C76BB" fill-opacity="0.31"/>
<path d="M27.1593 17.123C26.3149 15.5162 24.9242 14.3453 23.243 13.827C22.5534 13.6142 21.8637 13.5063 21.1932 13.5063C20.1573 13.5063 19.2926 13.7599 18.6224 14.0705C19.2685 11.536 20.8208 7.16279 23.9132 6.6703C24.1996 6.62467 24.434 6.40282 24.5124 6.10418L25.1882 3.51428C25.2452 3.29526 25.2114 3.06081 25.0948 2.87074C24.9785 2.68067 24.7911 2.55385 24.5808 2.52301C24.3529 2.48965 24.1203 2.47266 23.8894 2.47266C20.1779 2.47266 16.5021 6.62341 14.9508 12.5666C14.0406 16.0534 13.7736 21.2955 16.0166 24.5957C17.2713 26.4416 19.1026 27.4279 21.4584 27.526C21.4681 27.5264 21.4775 27.5267 21.4875 27.5267C24.3943 27.5267 26.9725 25.429 27.7567 22.4259C28.2246 20.6306 28.0125 18.7475 27.1593 17.123Z" fill="#7C76BB" fill-opacity="0.31"/>
</svg>
