<svg width="20" height="24" viewBox="0 0 20 24" fill="none" xmlns="http://www.w3.org/2000/svg">
<path d="M6.50008 9.66683H7.66675C7.97617 9.66683 8.27291 9.54391 8.49171 9.32512C8.7105 9.10633 8.83342 8.80958 8.83342 8.50016C8.83342 8.19074 8.7105 7.894 8.49171 7.6752C8.27291 7.45641 7.97617 7.3335 7.66675 7.3335H6.50008C6.19066 7.3335 5.89392 7.45641 5.67512 7.6752C5.45633 7.894 5.33342 8.19074 5.33342 8.50016C5.33342 8.80958 5.45633 9.10633 5.67512 9.32512C5.89392 9.54391 6.19066 9.66683 6.50008 9.66683ZM6.50008 12.0002C6.19066 12.0002 5.89392 12.1231 5.67512 12.3419C5.45633 12.5607 5.33342 12.8574 5.33342 13.1668C5.33342 13.4762 5.45633 13.773 5.67512 13.9918C5.89392 14.2106 6.19066 14.3335 6.50008 14.3335H13.5001C13.8095 14.3335 14.1062 14.2106 14.325 13.9918C14.5438 13.773 14.6667 13.4762 14.6667 13.1668C14.6667 12.8574 14.5438 12.5607 14.325 12.3419C14.1062 12.1231 13.8095 12.0002 13.5001 12.0002H6.50008ZM19.3334 8.43016C19.3213 8.32299 19.2978 8.2174 19.2634 8.11516V8.01016C19.2073 7.89021 19.1325 7.77994 19.0417 7.6835L12.0417 0.683496C11.9453 0.592748 11.835 0.517924 11.7151 0.461829C11.6803 0.456883 11.6449 0.456883 11.6101 0.461829C11.4916 0.393861 11.3607 0.350231 11.2251 0.333496H4.16675C3.23849 0.333496 2.34825 0.702245 1.69187 1.35862C1.0355 2.015 0.666748 2.90524 0.666748 3.8335V20.1668C0.666748 21.0951 1.0355 21.9853 1.69187 22.6417C2.34825 23.2981 3.23849 23.6668 4.16675 23.6668H15.8334C16.7617 23.6668 17.6519 23.2981 18.3083 22.6417C18.9647 21.9853 19.3334 21.0951 19.3334 20.1668V8.50016C19.3334 8.50016 19.3334 8.50016 19.3334 8.43016ZM12.3334 4.31183L15.3551 7.3335H13.5001C13.1907 7.3335 12.8939 7.21058 12.6751 6.99179C12.4563 6.77299 12.3334 6.47625 12.3334 6.16683V4.31183ZM17.0001 20.1668C17.0001 20.4762 16.8772 20.773 16.6584 20.9918C16.4396 21.2106 16.1428 21.3335 15.8334 21.3335H4.16675C3.85733 21.3335 3.56058 21.2106 3.34179 20.9918C3.123 20.773 3.00008 20.4762 3.00008 20.1668V3.8335C3.00008 3.52408 3.123 3.22733 3.34179 3.00854C3.56058 2.78975 3.85733 2.66683 4.16675 2.66683H10.0001V6.16683C10.0001 7.09509 10.3688 7.98533 11.0252 8.6417C11.6816 9.29808 12.5718 9.66683 13.5001 9.66683H17.0001V20.1668ZM13.5001 16.6668H6.50008C6.19066 16.6668 5.89392 16.7897 5.67512 17.0085C5.45633 17.2273 5.33342 17.5241 5.33342 17.8335C5.33342 18.1429 5.45633 18.4397 5.67512 18.6585C5.89392 18.8772 6.19066 19.0002 6.50008 19.0002H13.5001C13.8095 19.0002 14.1062 18.8772 14.325 18.6585C14.5438 18.4397 14.6667 18.1429 14.6667 17.8335C14.6667 17.5241 14.5438 17.2273 14.325 17.0085C14.1062 16.7897 13.8095 16.6668 13.5001 16.6668Z" fill="#2D6FED" fill-opacity="0.75"/>
</svg>
