<svg width="16" height="20" viewBox="0 0 16 20" fill="none" xmlns="http://www.w3.org/2000/svg">
<path d="M9.5858 0C10.1162 0 10.6249 0.21071 11 0.58579L15.4142 5C15.7893 5.37507 16 5.88378 16 6.41421V18C16 19.1046 15.1046 20 14 20H2C0.89543 20 0 19.1046 0 18V2C0 0.89543 0.89543 0 2 0H9.5858ZM8 2H2V18H14V8H9.5C8.72033 8 8.07955 7.40511 8.00687 6.64446L8 6.5V2ZM10.0637 10.6489C10.2576 10.1318 10.834 9.8698 11.3511 10.0637C11.8313 10.2437 12.0915 10.7536 11.9709 11.2395L11.9363 11.3511L10.53 15.1014C10.1886 16.0117 8.94209 16.0513 8.522 15.2201L8.47 15.1014L8 13.848L7.53 15.1014C7.18862 16.0117 5.94211 16.0513 5.52204 15.2201L5.47004 15.1014L4.06367 11.3511C3.86975 10.834 4.13176 10.2576 4.64888 10.0637C5.12906 9.88365 5.66037 10.0967 5.88908 10.5421L5.93633 10.6489L6.5 12.152L6.97 10.8986C7.31138 9.98828 8.55791 9.9487 8.978 10.7799L9.03 10.8986L9.5 12.152L10.0637 10.6489ZM10 2.41421V6H13.5858L10 2.41421Z" fill="white"/>
</svg>
