<svg width="13" height="13" viewBox="0 0 13 13" fill="none" xmlns="http://www.w3.org/2000/svg">
<path d="M12.5983 1.87232L11.0307 0.0933296C10.978 0.0335798 10.9065 0 10.832 0C10.7574 0 10.6859 0.0335798 10.6332 0.0933296L4.01243 7.59051C3.95977 7.65026 3.88825 7.68384 3.81368 7.68384C3.7391 7.68384 3.66759 7.65026 3.61492 7.59051L2.04731 5.81152C1.99465 5.75177 1.92313 5.71819 1.84856 5.71819C1.77398 5.71819 1.70247 5.75177 1.6498 5.81152L0.0821943 7.59051C-0.0273981 7.71456 -0.0273981 7.91565 0.0821943 8.0397L3.61492 12.038C3.66759 12.0977 3.7391 12.1313 3.81368 12.1313C3.88825 12.1313 3.95977 12.0977 4.01243 12.038L12.5983 2.31707C12.7053 2.19354 12.7053 1.99585 12.5983 1.87232Z" fill="#4E2D92"/>
</svg>
