<svg width="19" height="18" viewBox="0 0 19 18" fill="none" xmlns="http://www.w3.org/2000/svg">
<path d="M5.96106 7.79969C5.50234 7.65356 5.04361 7.57941 4.59738 7.57941C3.90831 7.57941 3.33334 7.75365 2.88751 7.96701C3.31732 6.22596 4.34985 3.22182 6.4067 2.88351C6.59719 2.85217 6.75329 2.69977 6.80526 2.49462L7.2548 0.715528C7.2927 0.565073 7.27024 0.404025 7.19267 0.273457C7.11511 0.14289 6.99047 0.0557723 6.85078 0.0345874C6.69898 0.0116732 6.54424 0 6.39088 0C3.92199 0 1.47694 2.8513 0.445193 6.93392C-0.160453 9.32911 -0.338044 12.9301 1.1538 15.1967C1.98861 16.4649 3.20655 17.1422 4.7738 17.2099C4.78025 17.2101 4.7865 17.2103 4.79295 17.2103C6.72672 17.2103 8.44148 15.7693 8.96311 13.7064C9.27473 12.4731 9.13387 11.1798 8.56612 10.0637C8.00443 8.9601 7.07936 8.15573 5.96106 7.79969Z" fill="#7C76BB" fill-opacity="0.31"/>
<path d="M18.0662 10.0639C17.5045 8.9601 16.5794 8.15573 15.4611 7.79969C15.0024 7.65356 14.5437 7.57941 14.0976 7.57941C13.4086 7.57941 12.8334 7.75365 12.3876 7.96701C12.8174 6.22596 13.8499 3.22182 15.907 2.88351C16.0974 2.85217 16.2534 2.69977 16.3055 2.49462L16.7551 0.715528C16.793 0.565073 16.7705 0.404025 16.6929 0.273457C16.6156 0.14289 16.4909 0.0557723 16.351 0.0345874C16.1994 0.0116732 16.0447 0 15.8911 0C13.4223 0 10.9772 2.8513 9.94526 6.93392C9.33981 9.32911 9.16222 12.9301 10.6543 15.1971C11.4889 16.4651 12.707 17.1426 14.2741 17.2101C14.2805 17.2103 14.2868 17.2105 14.2934 17.2105C16.227 17.2105 17.9419 15.7695 18.4636 13.7066C18.7748 12.4733 18.6337 11.1798 18.0662 10.0639Z" fill="#7C76BB" fill-opacity="0.31"/>
</svg>
