<svg width="35" height="33" viewBox="0 0 35 33" fill="none" xmlns="http://www.w3.org/2000/svg">
<path d="M29.399 22.7448C29.83 22.6278 30.261 22.5684 30.6803 22.5684C31.3278 22.5684 31.868 22.7079 32.2869 22.8788C31.8831 21.4848 30.9129 19.0795 28.9803 18.8087C28.8013 18.7836 28.6546 18.6616 28.6058 18.4973L28.1834 17.0729C28.1478 16.9524 28.1689 16.8235 28.2418 16.7189C28.3147 16.6144 28.4318 16.5447 28.563 16.5277C28.7057 16.5093 28.8511 16.5 28.9952 16.5C31.3149 16.5 33.6123 18.7829 34.5817 22.0516C35.1508 23.9693 35.3176 26.8525 33.9159 28.6672C33.1315 29.6826 31.9871 30.2249 30.5146 30.2791C30.5085 30.2792 30.5026 30.2794 30.4966 30.2794C28.6796 30.2794 27.0684 29.1257 26.5783 27.474C26.2855 26.4866 26.4179 25.4511 26.9513 24.5575C27.4791 23.6739 28.3483 23.0299 29.399 22.7448Z" fill="#7C76BB"/>
<path d="M18.0252 24.5576C18.553 23.6739 19.4222 23.0299 20.4729 22.7448C20.9039 22.6278 21.3349 22.5684 21.754 22.5684C22.4015 22.5684 22.9419 22.708 23.3608 22.8788C22.957 21.4848 21.9868 19.0795 20.054 18.8087C19.875 18.7836 19.7285 18.6616 19.6795 18.4973L19.2571 17.0729C19.2215 16.9524 19.2426 16.8235 19.3155 16.7189C19.3882 16.6144 19.5053 16.5447 19.6368 16.5277C19.7792 16.5093 19.9246 16.5 20.0689 16.5C22.3886 16.5 24.686 18.7829 25.6556 22.0516C26.2245 23.9693 26.3913 26.8525 24.9894 28.6675C24.2052 29.6828 23.0607 30.2252 21.5883 30.2792C21.5822 30.2794 21.5763 30.2796 21.5701 30.2796C19.7533 30.2796 18.142 29.1258 17.6518 27.4742C17.3594 26.4868 17.4919 25.4511 18.0252 24.5576Z" fill="#7C76BB"/>
</svg>
