<svg width="24" height="24" viewBox="0 0 24 24" fill="none" xmlns="http://www.w3.org/2000/svg">
<path fill-rule="evenodd" clip-rule="evenodd" d="M14 2V7.5C14 8.32843 14.6716 9 15.5 9H21V16C21 17.1046 20.1046 18 19 18H17V20C17 21.1046 16.1046 22 15 22H6C4.89543 22 4 21.1046 4 20L4 8C4 6.89543 4.89543 6 6 6H8V4C8 2.89543 8.89543 2 10 2H14ZM8 8H6L6 20H15L15 18H10C8.89543 18 8 17.1046 8 16V8ZM16 2.04336C16.3759 2.12295 16.7241 2.30991 17 2.58579L20.4142 6C20.6901 6.27588 20.8771 6.62406 20.9566 7H16V2.04336Z" fill="#091B3D" fill-opacity="0.6"/>
</svg>
