<svg width="24" height="24" viewBox="0 0 24 24" fill="none" xmlns="http://www.w3.org/2000/svg">
<path fill-rule="evenodd" clip-rule="evenodd" d="M10.8759 5.99446C11.3089 5.83376 11.7761 5.75 12.25 5.75C12.7239 5.75 13.1911 5.83376 13.6241 5.99446C14.057 6.15515 14.4437 6.38827 14.7646 6.67584C15.0853 6.96323 15.3331 7.2984 15.4997 7.65896C15.5187 7.6999 15.5365 7.74113 15.5533 7.78259H8.94669C8.96348 7.74113 8.98134 7.6999 9.00026 7.65896C9.16692 7.2984 9.4147 6.96322 9.73539 6.67584C10.0563 6.38827 10.443 6.15515 10.8759 5.99446ZM17.3152 6.81982C17.4586 7.13007 17.5675 7.45264 17.6405 7.78259H21.25C21.8023 7.78259 22.25 8.23031 22.25 8.78259C22.25 9.33488 21.8023 9.78259 21.25 9.78259H20.25V13.9258C20.25 15.5947 20.0152 17.2551 19.5526 18.8577C18.845 21.3089 16.8056 23.141 14.2983 23.5647L14.1406 23.5914C12.8889 23.8029 11.611 23.8029 10.3594 23.5914L10.2016 23.5647C7.6944 23.141 5.65498 21.3088 4.94738 18.8576C4.48478 17.2551 4.25 15.5947 4.25 13.9259V9.78259H3.25C2.69772 9.78259 2.25 9.33488 2.25 8.78259C2.25 8.23031 2.69772 7.78259 3.25 7.78259H6.85947C6.93245 7.45264 7.04141 7.13007 7.18482 6.81982C7.47045 6.20186 7.88561 5.64794 8.40065 5.18639C8.91547 4.72504 9.52089 4.36409 10.1799 4.11946C10.8389 3.87485 11.5421 3.75 12.25 3.75C12.9579 3.75 13.6611 3.87485 14.3201 4.11946C14.9791 4.36409 15.5845 4.72504 16.0994 5.1864C16.6144 5.64794 17.0295 6.20186 17.3152 6.81982ZM6.25 13.9259V9.78259H18.25V13.9258C18.25 15.4071 18.0416 16.8808 17.6311 18.3029C17.1346 20.0227 15.7075 21.2982 13.9651 21.5927L13.8073 21.6193C12.7763 21.7936 11.7237 21.7936 10.6926 21.6193L10.5349 21.5927C8.7925 21.2982 7.36537 20.0227 6.86892 18.3029C6.4584 16.8808 6.25 15.4071 6.25 13.9259ZM11.25 13.75C11.25 13.1977 10.8023 12.75 10.25 12.75C9.69772 12.75 9.25 13.1977 9.25 13.75V17.75C9.25 18.3023 9.69772 18.75 10.25 18.75C10.8023 18.75 11.25 18.3023 11.25 17.75V13.75ZM15.25 13.75C15.25 13.1977 14.8023 12.75 14.25 12.75C13.6977 12.75 13.25 13.1977 13.25 13.75V17.75C13.25 18.3023 13.6977 18.75 14.25 18.75C14.8023 18.75 15.25 18.3023 15.25 17.75V13.75Z" fill="black"/>
</svg>
