<svg width="24" height="24" viewBox="0 0 24 24" fill="none" xmlns="http://www.w3.org/2000/svg">
<path fill-rule="evenodd" clip-rule="evenodd" d="M10.3511 2.69335C10.8707 2.50051 11.4313 2.4 12 2.4C12.5687 2.4 13.1293 2.50051 13.6489 2.69335C14.1684 2.88618 14.6324 3.16592 15.0175 3.511C15.4024 3.85587 15.6997 4.25807 15.8996 4.69075C15.9224 4.73987 15.9438 4.78935 15.964 4.8391H8.03603C8.05618 4.78935 8.07761 4.73987 8.10032 4.69075C8.30031 4.25807 8.59765 3.85586 8.98247 3.511C9.36755 3.16592 9.83161 2.88618 10.3511 2.69335ZM18.0782 3.68378C18.2503 4.05608 18.381 4.44316 18.4686 4.8391H22.8C23.4628 4.8391 24 5.37637 24 6.0391C24 6.70185 23.4628 7.2391 22.8 7.2391H21.6V12.2109C21.6 14.2136 21.3182 16.2061 20.7631 18.1292C19.914 21.0707 17.4667 23.2692 14.458 23.7776L14.2687 23.8097C12.7667 24.0634 11.2332 24.0634 9.73128 23.8097L9.54197 23.7776C6.53328 23.2692 4.08598 21.0705 3.23686 18.1291C2.68174 16.2061 2.4 14.2136 2.4 12.2111V7.2391H1.2C0.537264 7.2391 0 6.70185 0 6.0391C0 5.37637 0.537264 4.8391 1.2 4.8391H5.53136C5.61894 4.44316 5.74969 4.05608 5.92178 3.68378C6.26454 2.94223 6.76273 2.27753 7.38078 1.72367C7.99856 1.17005 8.72507 0.736907 9.51592 0.443351C10.3067 0.14982 11.1505 0 12 0C12.8495 0 13.6933 0.14982 14.4841 0.443351C15.2749 0.736907 16.0014 1.17005 16.6193 1.72368C17.2373 2.27753 17.7354 2.94223 18.0782 3.68378ZM4.8 7.2391H19.2V12.2109C19.2 13.9885 18.9499 15.7569 18.4573 17.4635C17.8615 19.5272 16.149 21.0578 14.0581 21.4112L13.8688 21.4431C12.6316 21.6523 11.3684 21.6523 10.1311 21.4431L9.94188 21.4112C7.851 21.0578 6.13845 19.5272 5.54271 17.4635C5.05008 15.7569 4.8 13.9885 4.8 12.2111V7.2391ZM10.8 12C10.8 11.3372 10.2628 10.8 9.6 10.8C8.93727 10.8 8.4 11.3372 8.4 12V16.8C8.4 17.4627 8.93727 18 9.6 18C10.2628 18 10.8 17.4627 10.8 16.8V12ZM15.6 12C15.6 11.3372 15.0628 10.8 14.4 10.8C13.7372 10.8 13.2 11.3372 13.2 12V16.8C13.2 17.4627 13.7372 18 14.4 18C15.0628 18 15.6 17.4627 15.6 16.8V12Z" fill="#2772F0"/>
</svg>
