<svg width="25" height="25" viewBox="0 0 25 25" fill="none" xmlns="http://www.w3.org/2000/svg">
<path d="M22.5 7.62612C22.5008 7.49452 22.4756 7.36406 22.4258 7.24222C22.376 7.12038 22.3027 7.00957 22.21 6.91613L17.97 2.67613C17.8766 2.58344 17.7658 2.51012 17.6439 2.46035C17.5221 2.41059 17.3916 2.38536 17.26 2.38613C17.1284 2.38536 16.9979 2.41059 16.8761 2.46035C16.7543 2.51012 16.6435 2.58344 16.55 2.67613L13.72 5.50612L2.79002 16.4361C2.69734 16.5296 2.62401 16.6404 2.57425 16.7622C2.52448 16.8841 2.49926 17.0145 2.50002 17.1461V21.3861C2.50002 21.6513 2.60537 21.9057 2.79291 22.0932C2.98045 22.2808 3.2348 22.3861 3.50002 22.3861H7.74002C7.87994 22.3937 8.01991 22.3719 8.15084 22.3219C8.28176 22.2719 8.40073 22.195 8.50002 22.0961L19.37 11.1661L22.21 8.38613C22.3013 8.28921 22.3757 8.17766 22.43 8.05613C22.4397 7.97642 22.4397 7.89583 22.43 7.81612C22.4347 7.76958 22.4347 7.72267 22.43 7.67613L22.5 7.62612ZM7.33002 20.3861H4.50002V17.5561L14.43 7.62612L17.26 10.4561L7.33002 20.3861ZM18.67 9.04612L15.84 6.21613L17.26 4.80613L20.08 7.62612L18.67 9.04612Z" fill="#2772F0"/>
</svg>
