<svg width="32" height="32" viewBox="0 0 32 32" fill="none" xmlns="http://www.w3.org/2000/svg">
<path fill-rule="evenodd" clip-rule="evenodd" d="M15.1792 5.72875C14.6844 6.10896 14.0904 6.70316 13.1749 7.62517L7.61328 13.2263V19.5166C7.61328 22.2561 9.19227 24.6845 11.5614 25.8199C11.5174 25.2755 11.5454 24.7243 11.6474 24.1811L11.6732 24.0438C11.9803 22.4079 13.1868 21.0839 14.7916 20.6387C15.5824 20.4193 16.4176 20.4193 17.2084 20.6387C18.8132 21.0839 20.0197 22.4079 20.3268 24.0438L20.3525 24.1811C20.4545 24.7243 20.4825 25.2755 20.4385 25.8199C22.8077 24.6843 24.3866 22.2561 24.3866 19.5166V13.2263L18.825 7.62517C17.9096 6.70316 17.3156 6.10896 16.8208 5.72875C16.3562 5.37187 16.1406 5.33341 16 5.33341C15.8593 5.33341 15.6437 5.37187 15.1792 5.72875ZM27.0533 15.9119C27.5721 16.4345 28.4169 16.4379 28.9394 15.9191C29.462 15.4003 29.4649 14.5561 28.9461 14.0335L20.6553 5.68379C19.8196 4.84197 19.0996 4.11684 18.4456 3.61424C17.7449 3.07591 16.964 2.66675 16 2.66675C15.036 2.66675 14.255 3.07591 13.5544 3.61424C12.9003 4.11684 12.1804 4.84197 11.3446 5.6838C11.324 5.70455 11.3033 5.72537 11.2826 5.74625L3.05381 14.0335C2.53496 14.5561 2.53796 15.4003 3.06049 15.9191C3.58304 16.4379 4.42725 16.435 4.94611 15.9125L4.94661 19.5166C4.94661 23.9885 8.00371 27.8822 12.3424 28.9071C14.7481 29.4755 17.2518 29.4755 19.6576 28.9071C23.9962 27.8822 27.0533 23.9885 27.0533 19.5166V15.9119ZM17.561 26.5743C17.7914 25.971 17.8517 25.3126 17.7316 24.6731L17.7058 24.5358C17.5849 23.8914 17.1121 23.3794 16.4954 23.2082C16.171 23.1183 15.8289 23.1183 15.5045 23.2082C14.8878 23.3794 14.415 23.8914 14.2941 24.5358L14.2684 24.6731C14.1482 25.3126 14.2085 25.971 14.4389 26.5743C15.476 26.6975 16.524 26.6975 17.561 26.5743Z" fill="#F5B544"/>
</svg>
