<svg width="42" height="42" viewBox="0 0 42 42" fill="none" xmlns="http://www.w3.org/2000/svg">
<path fill-rule="evenodd" clip-rule="evenodd" d="M19.9227 7.51887C19.2733 8.0179 18.4937 8.79779 17.2921 10.0079L9.99248 17.3595V25.6154C9.99248 29.211 12.0649 32.3983 15.1744 33.8886C15.1167 33.174 15.1534 32.4506 15.2873 31.7376L15.3211 31.5574C15.7242 29.4103 17.3077 27.6726 19.414 27.0882C20.4519 26.8002 21.5481 26.8002 22.586 27.0882C24.6923 27.6726 26.2759 29.4103 26.6789 31.5574L26.7127 31.7376C26.8466 32.4506 26.8833 33.174 26.8256 33.8886C29.9352 32.3981 32.0075 29.211 32.0075 25.6154V17.3594L24.7079 10.0079C23.5064 8.79779 22.7267 8.0179 22.0773 7.51887C21.4676 7.05047 21.1846 7 21 7C20.8154 7 20.5324 7.05047 19.9227 7.51887ZM35.5075 20.8843C36.1884 21.5701 37.2972 21.5747 37.9831 20.8938C38.6689 20.2128 38.6727 19.1047 37.9918 18.4189L27.1101 7.45986C26.0132 6.35498 25.0682 5.40325 24.2099 4.74358C23.2902 4.03702 22.2653 3.5 21 3.5C19.7348 3.5 18.7098 4.03702 17.7902 4.74358C16.9317 5.40325 15.9868 6.35498 14.8898 7.45988C14.8628 7.48711 14.8357 7.51445 14.8084 7.54185L4.00818 18.4189C3.32719 19.1047 3.33113 20.2128 4.01695 20.8938C4.70279 21.5747 5.81082 21.5708 6.49182 20.885L6.49248 25.6154C6.49248 31.4848 10.5049 36.5953 16.1994 37.9405C19.3569 38.6865 22.6431 38.6865 25.8006 37.9405C31.4951 36.5953 35.5075 31.4848 35.5075 25.6154V20.8843ZM23.0489 34.8787C23.3513 34.0868 23.4304 33.2227 23.2727 32.3834L23.239 32.2031C23.0802 31.3574 22.4597 30.6854 21.6503 30.4607C21.2245 30.3427 20.7755 30.3427 20.3497 30.4607C19.5403 30.6854 18.9198 31.3574 18.7611 32.2031L18.7273 32.3834C18.5696 33.2227 18.6487 34.0868 18.9511 34.8787C20.3123 35.0404 21.6878 35.0404 23.0489 34.8787Z" fill="#F5B544"/>
</svg>
