<svg width="28" height="28" viewBox="0 0 28 28" fill="none" xmlns="http://www.w3.org/2000/svg">
<path fill-rule="evenodd" clip-rule="evenodd" d="M23.3333 21.0001C23.9777 21.0001 24.5 21.5224 24.5 22.1667C24.5 22.7651 24.0496 23.2582 23.4694 23.3256L23.3333 23.3334H8.49691C7.85258 23.3334 7.33025 22.8111 7.33025 22.1667C7.33025 21.5684 7.78063 21.0753 8.36086 21.0079L8.49691 21.0001H23.3333ZM23.3329 12.8334C23.9772 12.8334 24.4995 13.3557 24.4995 14.0001C24.4995 14.5984 24.0492 15.0915 23.4689 15.1589L23.3329 15.1667H4.66667C4.02233 15.1667 3.5 14.6444 3.5 14.0001C3.5 13.4018 3.95038 12.9087 4.53061 12.8413L4.66667 12.8334H23.3329ZM23.3333 4.66675C23.9777 4.66675 24.5 5.18908 24.5 5.83341C24.5 6.43172 24.0496 6.92484 23.4694 6.99223L23.3333 7.00008H15.1339C14.4896 7.00008 13.9672 6.47775 13.9672 5.83341C13.9672 5.23511 14.4176 4.74199 14.9978 4.6746L15.1339 4.66675H23.3333Z" fill="#F5B544"/>
</svg>
