<svg width="26" height="26" viewBox="0 0 26 26" fill="none" xmlns="http://www.w3.org/2000/svg">
<path d="M10.6937 6.4999H7.57373V4.1599C7.57373 4.0169 7.69073 3.8999 7.83373 3.8999H10.4337C10.5767 3.8999 10.6937 4.0169 10.6937 4.1599V6.4999Z" fill="#9BBFCE"/>
<path d="M18.4262 6.4999H15.3062V4.1599C15.3062 4.0169 15.4232 3.8999 15.5662 3.8999H18.1662C18.3092 3.8999 18.4262 4.0169 18.4262 4.1599V6.4999Z" fill="#9BBFCE"/>
<path d="M10.6937 5.1063H7.57373V4.0767C7.57373 3.9779 7.65433 3.8999 7.75053 3.8999H10.5169C10.6157 3.8999 10.6937 3.9779 10.6937 4.0767V5.1063Z" fill="#C7DEE5"/>
<path d="M18.4262 5.1063H15.3062V4.0767C15.3062 3.9779 15.3842 3.8999 15.483 3.8999H18.2494C18.3482 3.8999 18.4262 3.9779 18.4262 4.0767V5.1063Z" fill="#C7DEE5"/>
<path d="M21.0599 22.1H4.9399C4.3653 22.1 3.8999 21.6346 3.8999 21.06V7.54C3.8999 6.9654 4.3653 6.5 4.9399 6.5H21.0599C21.6345 6.5 22.0999 6.9654 22.0999 7.54V21.06C22.0999 21.6346 21.6345 22.1 21.0599 22.1Z" fill="#F5B544"/>
<path d="M21.0599 6.5H4.9399C4.3653 6.5 3.8999 6.9654 3.8999 7.54V7.9924H19.9263C20.2097 7.9924 20.4411 8.2238 20.4411 8.5072V22.1H21.0599C21.6345 22.1 22.0999 21.6346 22.0999 21.06V7.54C22.0999 6.9654 21.6345 6.5 21.0599 6.5Z" fill="#F5B544"/>
<path d="M21.0599 22.1V21.58H4.93988C4.79428 21.58 4.66688 21.5228 4.57328 21.4266C4.47708 21.333 4.41988 21.2056 4.41988 21.06V7.53998C4.41988 7.39438 4.47708 7.26698 4.57328 7.17338C4.66688 7.07718 4.79428 7.01998 4.93988 7.01998H21.0599C21.2055 7.01998 21.3329 7.07718 21.4265 7.17338C21.5227 7.26698 21.5799 7.39438 21.5799 7.53998V21.06C21.5799 21.2056 21.5227 21.333 21.4265 21.4266C21.3329 21.5228 21.2055 21.58 21.0599 21.58V22.1V22.62C21.9205 22.62 22.6199 21.9206 22.6199 21.06V7.53998C22.6199 6.67938 21.9205 5.97998 21.0599 5.97998H4.93988C4.07928 5.97998 3.37988 6.67938 3.37988 7.53998V21.06C3.37988 21.9206 4.07928 22.62 4.93988 22.62H21.0599V22.1Z" fill="#1E3D70"/>
<path d="M10.6937 6.49988V5.97988H8.09371V4.15988H7.83371V4.41988C7.97671 4.41988 8.09371 4.30288 8.09371 4.15988H7.83371V4.41988H10.4337V4.15988H10.1737C10.1737 4.30288 10.2907 4.41988 10.4337 4.41988V4.15988H10.1737V6.49988H10.6937V5.97988V6.49988H11.2137V4.15988C11.2137 3.72828 10.8653 3.37988 10.4337 3.37988H7.83371C7.40211 3.37988 7.05371 3.72828 7.05371 4.15988V7.01988H11.2137V6.49988H10.6937Z" fill="#1E3D70"/>
<path d="M18.4261 6.49988V5.97988H15.8261V4.15988H15.5661V4.41988C15.7091 4.41988 15.8261 4.30288 15.8261 4.15988H15.5661V4.41988H18.1661V4.15988H17.9061C17.9061 4.30288 18.0231 4.41988 18.1661 4.41988V4.15988H17.9061V6.49988H18.4261V5.97988V6.49988H18.9461V4.15988C18.9461 3.72828 18.5977 3.37988 18.1661 3.37988H15.5661C15.1345 3.37988 14.7861 3.72828 14.7861 4.15988V7.01988H18.9461V6.49988H18.4261Z" fill="#1E3D70"/>
<path d="M16.2 13H9.8C9.36 13 9 13.45 9 14C9 14.55 9.36 15 9.8 15H16.2C16.64 15 17 14.55 17 14C17 13.45 16.644 13 16.2 13Z" fill="#1E3D70"/>
</svg>
