<svg width="20" height="20" viewBox="0 0 20 20" fill="none" xmlns="http://www.w3.org/2000/svg">
<path fill-rule="evenodd" clip-rule="evenodd" d="M10.8728 2.09202C10.297 1.96933 9.703 1.96933 9.1272 2.09202C8.5124 2.22303 7.91078 2.55657 6.33228 3.46675L6.16672 3.56222C4.69806 4.40906 4.14434 4.73951 3.73482 5.16964C3.2407 5.68863 2.87638 6.32596 2.67598 7.0267C2.50915 7.61007 2.49998 8.2749 2.49998 10C2.49998 11.7251 2.50915 12.3899 2.67598 12.9733C2.87638 13.674 3.2407 14.3114 3.73482 14.8304C4.14434 15.2605 4.69806 15.5909 6.16672 16.4378L6.33228 16.5333C7.91078 17.4434 8.5124 17.777 9.1272 17.908C9.703 18.0307 10.297 18.0307 10.8728 17.908C11.4876 17.777 12.0892 17.4434 13.6677 16.5332L13.8332 16.4378C15.3019 15.5909 15.8556 15.2605 16.2651 14.8304C16.7593 14.3114 17.1236 13.674 17.324 12.9733C17.4908 12.3899 17.5 11.7251 17.5 10C17.5 8.2749 17.4908 7.61007 17.324 7.0267C17.1236 6.32596 16.7593 5.68863 16.2651 5.16964C15.8556 4.73951 15.3019 4.40906 13.8332 3.56222L13.6677 3.46675C12.0892 2.55657 11.4876 2.22303 10.8728 2.09202ZM8.7103 0.135937C9.5609 -0.0453125 10.439 -0.0453125 11.2896 0.135937C12.252 0.341008 13.1412 0.854037 14.5164 1.64745C14.5659 1.67599 14.616 1.70489 14.6667 1.73415L14.8323 1.82961C14.8785 1.85629 14.9242 1.88262 14.9694 1.90862C16.2538 2.64891 17.08 3.12508 17.7136 3.79055C18.4329 4.546 18.9586 5.46865 19.2469 6.47678C19.5005 7.3635 19.5003 8.3283 19.5 9.8426C19.5 9.8944 19.5 9.9469 19.5 10C19.5 10.0531 19.5 10.1056 19.5 10.1574C19.5003 11.6717 19.5005 12.6365 19.2469 13.5232C18.9586 14.5314 18.4329 15.454 17.7136 16.2094C17.08 16.8749 16.2538 17.3511 14.9694 18.0914C14.9242 18.1174 14.8785 18.1437 14.8323 18.1704L14.6667 18.2659C14.616 18.2951 14.5659 18.324 14.5164 18.3525C13.1412 19.146 12.252 19.659 11.2896 19.8641C10.439 20.0453 9.5609 20.0453 8.7103 19.8641C7.748 19.659 6.85876 19.146 5.48353 18.3525C5.43407 18.324 5.38398 18.2951 5.33324 18.2659L5.83276 17.3996L5.33324 18.2659L5.16768 18.1704C5.12141 18.1437 5.07571 18.1174 5.03059 18.0914C3.74612 17.3511 2.91991 16.8749 2.28633 16.2094C1.56709 15.454 1.04138 14.5314 0.75307 13.5232C0.49948 12.6365 0.49967 11.6717 0.49996 10.1574C0.49997 10.1056 0.49998 10.0531 0.49998 10C0.49998 9.9469 0.49997 9.8944 0.49996 9.8426C0.49967 8.3283 0.49948 7.3635 0.75307 6.47678C1.04138 5.46865 1.56708 4.546 2.28633 3.79055C2.91991 3.12508 3.74613 2.64891 5.0306 1.90863C5.07573 1.88262 5.12141 1.85629 5.16768 1.82961L5.33324 1.73415C5.38398 1.70489 5.43408 1.67599 5.48354 1.64745C6.85876 0.854037 7.748 0.341008 8.7103 0.135937ZM6.34373 10C6.34373 7.96741 7.95747 6.2771 10 6.2771C12.0425 6.2771 13.6562 7.96741 13.6562 10C13.6562 12.0326 12.0425 13.7229 10 13.7229C7.95747 13.7229 6.34373 12.0326 6.34373 10ZM10 8.2771C9.1085 8.2771 8.3437 9.025 8.3437 10C8.3437 10.975 9.1085 11.7229 10 11.7229C10.8915 11.7229 11.6562 10.975 11.6562 10C11.6562 9.025 10.8915 8.2771 10 8.2771Z" fill="#091B3D" fill-opacity="0.4"/>
</svg>
