<svg width="101" height="100" viewBox="0 0 101 100" fill="none" xmlns="http://www.w3.org/2000/svg">
<path d="M50.14 66.77C59.4018 66.77 66.91 59.2618 66.91 50C66.91 40.7382 59.4018 33.23 50.14 33.23C40.8782 33.23 33.37 40.7382 33.37 50C33.37 59.2618 40.8782 66.77 50.14 66.77Z" fill="#FAB627"/>
<path d="M50.14 33.23C48.87 33.23 47.63 33.38 46.44 33.65C53.92 35.34 59.51 42.01 59.51 50C59.51 57.99 53.92 64.66 46.44 66.35C47.63 66.62 48.87 66.77 50.14 66.77C59.4 66.77 66.91 59.26 66.91 50C66.91 40.74 59.41 33.23 50.14 33.23Z" fill="#FFCD7D"/>
<path d="M66.91 50H64.91C64.91 54.08 63.26 57.76 60.58 60.44C57.9 63.12 54.22 64.76 50.14 64.77C46.06 64.77 42.38 63.12 39.7 60.44C37.02 57.76 35.38 54.08 35.37 50C35.37 45.92 37.02 42.24 39.7 39.56C42.38 36.88 46.06 35.24 50.14 35.23C54.22 35.23 57.9 36.88 60.58 39.56C63.26 42.24 64.9 45.92 64.91 50H66.91H68.91C68.91 39.63 60.51 31.23 50.14 31.23C39.77 31.23 31.37 39.63 31.37 50C31.37 60.37 39.77 68.77 50.14 68.77C60.51 68.77 68.91 60.37 68.91 50H66.91Z" fill="#1E3D70"/>
<path d="M48.14 16.6699V25.1199C48.14 26.2199 49.04 27.1199 50.14 27.1199C51.24 27.1199 52.14 26.2199 52.14 25.1199V16.6699C52.14 15.5699 51.24 14.6699 50.14 14.6699C49.04 14.6699 48.14 15.5699 48.14 16.6699Z" fill="#1E3D70"/>
<path d="M48.14 74.88V83.33C48.14 84.43 49.04 85.33 50.14 85.33C51.24 85.33 52.14 84.43 52.14 83.33V74.88C52.14 73.78 51.24 72.88 50.14 72.88C49.04 72.88 48.14 73.78 48.14 74.88Z" fill="#1E3D70"/>
<path d="M72.3 25.0201L66.33 30.9901C65.55 31.7701 65.55 33.0401 66.33 33.8201C67.11 34.6001 68.38 34.6001 69.16 33.8201L75.13 27.8501C75.91 27.0701 75.91 25.8001 75.13 25.0201C74.35 24.2401 73.08 24.2401 72.3 25.0201Z" fill="#1E3D70"/>
<path d="M31.14 66.18L25.17 72.15C24.39 72.93 24.39 74.2 25.17 74.98C25.95 75.76 27.22 75.76 28 74.98L33.9699 69.01C34.7499 68.23 34.7499 66.96 33.9699 66.18C33.1799 65.4 31.92 65.4 31.14 66.18Z" fill="#1E3D70"/>
<path d="M83.47 48H75.02C73.92 48 73.02 48.9 73.02 50C73.02 51.1 73.92 52 75.02 52H83.47C84.57 52 85.47 51.1 85.47 50C85.47 48.9 84.58 48 83.47 48Z" fill="#1E3D70"/>
<path d="M25.26 48H16.81C15.71 48 14.81 48.9 14.81 50C14.81 51.1 15.71 52 16.81 52H25.26C26.36 52 27.26 51.1 27.26 50C27.26 48.9 26.37 48 25.26 48Z" fill="#1E3D70"/>
<path d="M75.13 72.15L69.16 66.18C68.38 65.4 67.11 65.4 66.33 66.18C65.55 66.96 65.55 68.23 66.33 69.01L72.3 74.98C73.08 75.76 74.35 75.76 75.13 74.98C75.91 74.2 75.91 72.93 75.13 72.15Z" fill="#1E3D70"/>
<path d="M33.96 30.9901L27.99 25.0201C27.21 24.2401 25.94 24.2401 25.16 25.0201C24.38 25.8001 24.38 27.0701 25.16 27.8501L31.13 33.8201C31.91 34.6001 33.18 34.6001 33.96 33.8201C34.75 33.0401 34.75 31.7701 33.96 30.9901Z" fill="#1E3D70"/>
</svg>
