<svg width="24" height="25" viewBox="0 0 24 25" fill="none" xmlns="http://www.w3.org/2000/svg">
<path d="M11 6.44312C11.5523 6.44312 12 6.89084 12 7.44312C12 7.9954 11.5523 8.44312 11 8.44312H5L5 19.4431H16V13.4431C16 12.8908 16.4477 12.4431 17 12.4431C17.5523 12.4431 18 12.8908 18 13.4431V19.4431C18 20.5477 17.1046 21.4431 16 21.4431H5C3.89543 21.4431 3 20.5477 3 19.4431L3 8.44312C3 7.33855 3.89543 6.44312 5 6.44312H11ZM20 3.44312C20.5523 3.44312 21 3.89084 21 4.44312V9.44312C21 9.9954 20.5523 10.4431 20 10.4431C19.4477 10.4431 19 9.9954 19 9.44312V6.85733L10.7071 15.1502C10.3166 15.5407 9.68342 15.5407 9.29289 15.1502C8.90237 14.7597 8.90237 14.1265 9.29289 13.736L17.5858 5.44312H15C14.4477 5.44312 14 4.99541 14 4.44312C14 3.89084 14.4477 3.44312 15 3.44312H20Z" fill="#2772F0"/>
</svg>
