<svg width="25" height="25" viewBox="0 0 25 25" fill="none" xmlns="http://www.w3.org/2000/svg">
<path d="M20.3923 14.8923C21.2207 14.8923 21.8923 15.5639 21.8923 16.3923V20.3923C21.8923 21.773 20.773 22.8923 19.3923 22.8923H5.39233C4.01162 22.8923 2.89233 21.773 2.89233 20.3923V16.3923C2.89233 15.5639 3.5639 14.8923 4.39233 14.8923C5.22076 14.8923 5.89233 15.5639 5.89233 16.3923V19.8923H18.8923V16.3923C18.8923 15.5639 19.5639 14.8923 20.3923 14.8923ZM13.6297 3.51318L17.6956 7.57904C18.2814 8.16483 18.2814 9.11457 17.6956 9.70036C17.1098 10.2861 16.1601 10.2861 15.5743 9.70036L13.8923 8.01838V16.3923C13.8923 17.2207 13.2207 17.8923 12.3923 17.8923C11.5639 17.8923 10.8923 17.2207 10.8923 16.3923V8.01838L9.21035 9.70036C8.62456 10.2861 7.67482 10.2861 7.08903 9.70036C6.50324 9.11457 6.50324 8.16483 7.08903 7.57904L11.1549 3.51318C11.8383 2.82976 12.9463 2.82976 13.6297 3.51318Z" fill="#A0C9FF"/>
</svg>
