<svg width="107" height="101" viewBox="0 0 107 101" fill="none" xmlns="http://www.w3.org/2000/svg">
<path fill-rule="evenodd" clip-rule="evenodd" d="M78.8221 27C86.4139 27 90.811 28.1139 94.7221 30.2056C98.6333 32.2973 101.703 35.3667 103.794 39.2779C105.886 43.189 107 47.5861 107 55.1779V60.8221C107 68.4139 105.886 72.811 103.794 76.7221C101.703 80.6333 98.6333 83.7027 94.7221 85.7944C90.811 87.8861 86.4139 89 78.8221 89H49.1779C41.5861 89 37.189 87.8861 33.2779 85.7944C29.3667 83.7027 26.2973 80.6333 24.2056 76.7221C22.1139 72.811 21 68.4139 21 60.8221V55.1779C21 47.5861 22.1139 43.189 24.2056 39.2779C26.2973 35.3667 29.3667 32.2973 33.2779 30.2056C37.189 28.1139 41.5861 27 49.1779 27H78.8221ZM48.546 32C42.1422 32 38.4908 32.9283 35.2315 34.6713C31.9723 36.4144 29.4144 38.9723 27.6713 42.2315C25.9283 45.4908 25 49.1422 25 55.546V60.454C25 66.8578 25.9283 70.5092 27.6713 73.7685C29.4144 77.0277 31.9723 79.5856 35.2315 81.3287C38.4908 83.0717 42.1422 84 48.546 84H79.454C85.8578 84 89.5092 83.0717 92.7685 81.3287C96.0277 79.5856 98.5856 77.0277 100.329 73.7685C102.072 70.5092 103 66.8578 103 60.454V55.546C103 49.1422 102.072 45.4908 100.329 42.2315C98.5856 38.9723 96.0277 36.4144 92.7685 34.6713C89.5092 32.9283 85.8578 32 79.454 32H48.546Z" fill="#00B578"/>
<path opacity="0.1" fill-rule="evenodd" clip-rule="evenodd" d="M52.9472 32H85.0528C91.2934 32 93.5564 32.6498 95.8379 33.8699C98.1194 35.0901 99.9099 36.8806 101.13 39.1621C102.35 41.4436 103 43.7066 103 49.9472V66.0528C103 72.2934 102.35 74.5564 101.13 76.8379C99.9099 79.1194 98.1194 80.9099 95.8379 82.1301C93.5564 83.3502 91.2934 84 85.0528 84H52.9472C46.7066 84 44.4436 83.3502 42.1621 82.1301C39.8806 80.9099 38.0901 79.1194 36.8699 76.8379C35.6498 74.5564 35 72.2934 35 66.0528V49.9472C35 43.7066 35.6498 41.4436 36.8699 39.1621C38.0901 36.8806 39.8806 35.0901 42.1621 33.8699C44.4436 32.6498 46.7066 32 52.9472 32Z" fill="#00B578"/>
<path fill-rule="evenodd" clip-rule="evenodd" d="M57.0294 100.744V89H44L57.0294 100.744Z" fill="#919191"/>
<path fill-rule="evenodd" clip-rule="evenodd" d="M33 8C35.2091 8 37 6.20914 37 4C37 1.79086 35.2091 0 33 0C30.7909 0 29 1.79086 29 4C29 6.20914 30.7909 8 33 8ZM52 21C53.1046 21 54 20.1046 54 19C54 17.8954 53.1046 17 52 17C50.8954 17 50 17.8954 50 19C50 20.1046 50.8954 21 52 21ZM15 24.5C15 28.6421 11.6421 32 7.5 32C3.35786 32 0 28.6421 0 24.5C0 20.3579 3.35786 17 7.5 17C11.6421 17 15 20.3579 15 24.5Z" fill="#919191"/>
</svg>
