<svg width="208" height="99" viewBox="0 0 208 99" fill="none" xmlns="http://www.w3.org/2000/svg">
<path opacity="0.1" fill-rule="evenodd" clip-rule="evenodd" d="M51.0755 0L116.067 0C129.53 0 137.615 1.02108 144.748 2.93846C151.882 4.85584 157.481 7.66951 161.296 11.2547C165.111 14.8399 167.143 18.9028 167.143 25.6687V30.3313C167.143 37.0972 165.111 41.1601 161.296 44.7453C157.481 48.3305 151.882 51.1442 144.748 53.0615C137.615 54.9789 129.53 56 116.067 56H51.0755C37.6128 56 29.5283 54.9789 22.3945 53.0615C15.2608 51.1442 9.66213 48.3305 5.84694 44.7453C2.03174 41.1601 0 37.0972 0 30.3313L0 25.6687C0 18.9028 2.03174 14.8399 5.84694 11.2547C9.66213 7.66951 15.2608 4.85584 22.3945 2.93846C29.5283 1.02108 37.6128 0 51.0755 0Z" fill="#DE4368"/>
<path fill-rule="evenodd" clip-rule="evenodd" d="M149.585 25C165.323 25 174.439 26.1139 182.547 28.2056C190.655 30.2973 197.018 33.3667 201.354 37.2779C205.691 41.189 208 45.5861 208 53.1779V58.8221C208 66.4139 205.691 70.811 201.354 74.7221C197.018 78.6333 190.655 81.7027 182.547 83.7944C174.439 85.8861 165.323 87 149.585 87H88.1296C72.3911 87 63.2754 85.8861 55.1673 83.7944C47.0592 81.7027 40.696 78.6333 36.3597 74.7221C32.0235 70.811 29.7142 66.4139 29.7142 58.8221V53.1779C29.7142 45.5861 32.0235 41.189 36.3597 37.2779C40.696 33.3667 47.0592 30.2973 55.1673 28.2056C63.2754 26.1139 72.3911 25 88.1296 25H149.585Z" fill="url(#paint0_linear_451_108)"/>
<path fill-rule="evenodd" clip-rule="evenodd" d="M97.4803 98.7442V87H79.238L97.4803 98.7442Z" fill="url(#paint1_linear_451_108)"/>
<defs>
<linearGradient id="paint0_linear_451_108" x1="29.7142" y1="56" x2="208" y2="56" gradientUnits="userSpaceOnUse">
<stop stop-color="#FECAB2"/>
<stop offset="1" stop-color="#CE3D4F"/>
</linearGradient>
<linearGradient id="paint1_linear_451_108" x1="79.238" y1="92.8721" x2="97.4803" y2="92.8721" gradientUnits="userSpaceOnUse">
<stop stop-color="#FECAB2"/>
<stop offset="1" stop-color="#CE3D4F"/>
</linearGradient>
</defs>
</svg>
