<svg width="145" height="101" viewBox="0 0 145 101" fill="none" xmlns="http://www.w3.org/2000/svg">
<path fill-rule="evenodd" clip-rule="evenodd" d="M104.371 27C115.318 27 121.658 28.1139 127.297 30.2056C132.936 32.2973 137.362 35.3667 140.378 39.2779C143.394 43.189 145 47.5861 145 55.1779V60.8221C145 68.4139 143.394 72.811 140.378 76.7221C137.362 80.6333 132.936 83.7027 127.297 85.7944C121.658 87.8861 115.318 89 104.371 89H61.6286C50.6823 89 44.3422 87.8861 38.7029 85.7944C33.0637 83.7027 28.6379 80.6333 25.622 76.7221C22.6061 72.811 21 68.4139 21 60.8221V55.1779C21 47.5861 22.6061 43.189 25.622 39.2779C28.6379 35.3667 33.0637 32.2973 38.7029 30.2056C44.3422 28.1139 50.6823 27 61.6286 27H104.371Z" fill="url(#paint0_linear_451_112)"/>
<path fill-rule="evenodd" clip-rule="evenodd" d="M57.0294 100.744V89H44L57.0294 100.744Z" fill="#919191"/>
<path fill-rule="evenodd" clip-rule="evenodd" d="M33 0C35.2091 0 37 1.79086 37 4C37 6.20914 35.2091 8 33 8C30.7909 8 29 6.20914 29 4C29 1.79086 30.7909 0 33 0ZM33 2C31.8954 2 31 2.89543 31 4C31 5.10457 31.8954 6 33 6C34.1046 6 35 5.10457 35 4C35 2.89543 34.1046 2 33 2Z" fill="#1F72C4"/>
<path d="M52 21C53.1046 21 54 20.1046 54 19C54 17.8954 53.1046 17 52 17C50.8954 17 50 17.8954 50 19C50 20.1046 50.8954 21 52 21Z" fill="#1F72C4"/>
<path fill-rule="evenodd" clip-rule="evenodd" d="M7.5 17C11.6421 17 15 20.3579 15 24.5C15 28.6421 11.6421 32 7.5 32C3.35786 32 0 28.6421 0 24.5C0 20.3579 3.35786 17 7.5 17ZM7.5 20C5.01472 20 3 22.0147 3 24.5C3 26.9853 5.01472 29 7.5 29C9.98528 29 12 26.9853 12 24.5C12 22.0147 9.98528 20 7.5 20Z" fill="#919191"/>
<defs>
<linearGradient id="paint0_linear_451_112" x1="21" y1="58" x2="145" y2="58" gradientUnits="userSpaceOnUse">
<stop stop-color="#C3F3F7"/>
<stop offset="1" stop-color="#1F72C4"/>
</linearGradient>
</defs>
</svg>
