<svg width="158" height="96" viewBox="0 0 158 96" fill="none" xmlns="http://www.w3.org/2000/svg">
<path fill-rule="evenodd" clip-rule="evenodd" d="M41.6086 22C30.3983 22 23.9053 23.1139 18.13 25.2056C12.3547 27.2973 7.82222 30.3667 4.73356 34.2779C1.6449 38.189 7.34329e-05 42.5861 7.34329e-05 50.1779V55.8221C7.34329e-05 63.4139 1.6449 67.811 4.73356 71.7221C7.82222 75.6333 12.3547 78.7027 18.13 80.7944C23.9053 82.8861 30.3983 84 41.6086 84H85.3822C96.5925 84 103.086 82.8861 108.861 80.7944C114.636 78.7027 119.169 75.6333 122.257 71.7221C125.346 67.811 126.991 63.4139 126.991 55.8221V50.1779C126.991 42.5861 125.346 38.189 122.257 34.2779C119.169 30.3667 114.636 27.2973 108.861 25.2056C103.086 23.1139 96.5925 22 85.3822 22H41.6086ZM86.3153 27C95.7714 27 101.163 27.9283 105.976 29.6713C110.789 31.4144 114.566 33.9723 117.14 37.2315C119.713 40.4908 121.084 44.1422 121.084 50.546V55.454C121.084 61.8578 119.713 65.5092 117.14 68.7685C114.566 72.0277 110.789 74.5856 105.976 76.3287C101.163 78.0717 95.7714 79 86.3153 79H40.6755C31.2194 79 25.8276 78.0717 21.0149 76.3287C16.2021 74.5856 12.4251 72.0277 9.85119 68.7685C7.27731 65.5092 5.90662 61.8578 5.90662 55.454V50.546C5.90662 44.1422 7.27731 40.4908 9.85119 37.2315C12.4251 33.9723 16.2021 31.4144 21.0149 29.6713C25.8276 27.9283 31.2194 27 40.6755 27H86.3153Z" fill="#FC9A26"/>
<path opacity="0.1" fill-rule="evenodd" clip-rule="evenodd" d="M120.097 0L71.866 0C61.8752 0 55.8757 1.02108 50.5817 2.93846C45.2877 4.85584 41.1329 7.66951 38.3017 11.2547C35.4704 14.8399 33.9626 18.9028 33.9626 25.6687V30.3313C33.9626 37.0972 35.4704 41.1601 38.3017 44.7453C41.1329 48.3305 45.2877 51.1442 50.5817 53.0615C55.8757 54.9789 61.8752 56 71.866 56H120.097C130.087 56 136.087 54.9789 141.381 53.0615C146.675 51.1442 150.83 48.3305 153.661 44.7453C156.492 41.1601 158 37.0972 158 30.3313V25.6687C158 18.9028 156.492 14.8399 153.661 11.2547C150.83 7.66951 146.675 4.85584 141.381 2.93846C136.087 1.02108 130.087 0 120.097 0Z" fill="#BA7617"/>
<path fill-rule="evenodd" clip-rule="evenodd" d="M73.7884 95.7442V84H93.0281L73.7884 95.7442Z" fill="#594545"/>
</svg>
