<svg width="199" height="96" viewBox="0 0 199 96" fill="none" xmlns="http://www.w3.org/2000/svg">
<path fill-rule="evenodd" clip-rule="evenodd" d="M58.3218 22C42.6085 22 33.5074 23.1139 25.4123 25.2056C17.3172 27.2973 10.9641 30.3667 6.63482 34.2779C2.30552 38.189 -2.86102e-06 42.5861 -2.86102e-06 50.1779V55.8221C-2.86102e-06 63.4139 2.30552 67.811 6.63482 71.7221C10.9641 75.6333 17.3172 78.7027 25.4123 80.7944C33.5074 82.8861 42.6085 84 58.3218 84H119.678C135.391 84 144.493 82.8861 152.588 80.7944C160.683 78.7027 167.036 75.6333 171.365 71.7221C175.694 67.811 178 63.4139 178 55.8221V50.1779C178 42.5861 175.694 38.189 171.365 34.2779C167.036 30.3667 160.683 27.2973 152.588 25.2056C144.493 23.1139 135.391 22 119.678 22H58.3218ZM120.986 27C134.24 27 141.798 27.9283 148.544 29.6713C155.29 31.4144 160.584 33.9723 164.192 37.2315C167.8 40.4908 169.721 44.1422 169.721 50.546V55.454C169.721 61.8578 167.8 65.5092 164.192 68.7685C160.584 72.0277 155.29 74.5856 148.544 76.3287C141.798 78.0717 134.24 79 120.986 79H57.0139C43.7595 79 36.2019 78.0717 29.456 76.3287C22.7101 74.5856 17.4158 72.0277 13.8081 68.7685C10.2003 65.5092 8.27907 61.8578 8.27907 55.454V50.546C8.27907 44.1422 10.2003 40.4908 13.8081 37.2315C17.4158 33.9723 22.7101 31.4144 29.456 29.6713C36.2019 27.9283 43.7595 27 57.0139 27H120.986Z" fill="#FC9A26"/>
<path opacity="0.1" fill-rule="evenodd" clip-rule="evenodd" d="M146.746 0L80.2542 0C66.4808 0 58.2098 1.02108 50.9113 2.93846C43.6129 4.85584 37.8851 7.66951 33.9819 11.2547C30.0786 14.8399 28 18.9028 28 25.6687V30.3313C28 37.0972 30.0786 41.1601 33.9819 44.7453C37.8851 48.3305 43.6129 51.1442 50.9113 53.0615C58.2098 54.9789 66.4808 56 80.2542 56H146.746C160.519 56 168.79 54.9789 176.089 53.0615C183.387 51.1442 189.115 48.3305 193.018 44.7453C196.921 41.1601 199 37.0972 199 30.3313V25.6687C199 18.9028 196.921 14.8399 193.018 11.2547C189.115 7.66951 183.387 4.85584 176.089 2.93846C168.79 1.02108 160.519 0 146.746 0Z" fill="#BA7617"/>
<path fill-rule="evenodd" clip-rule="evenodd" d="M103 95.7442V84H115.908L103 95.7442Z" fill="#594545"/>
</svg>
