<svg width="149" height="101" viewBox="0 0 149 101" fill="none" xmlns="http://www.w3.org/2000/svg">
<path fill-rule="evenodd" clip-rule="evenodd" d="M107.061 27C118.36 27 124.905 28.1139 130.726 30.2056C136.547 32.2973 141.116 35.3667 144.229 39.2779C147.342 43.189 149 47.5861 149 55.1779V60.8221C149 68.4139 147.342 72.811 144.229 76.7221C141.116 80.6333 136.547 83.7027 130.726 85.7944C124.905 87.8861 118.36 89 107.061 89H62.9392C51.6398 89 45.0952 87.8861 39.274 85.7944C33.4528 83.7027 28.8843 80.6333 25.7711 76.7221C22.6579 72.811 21 68.4139 21 60.8221V55.1779C21 47.5861 22.6579 43.189 25.7711 39.2779C28.8843 35.3667 33.4528 32.2973 39.274 30.2056C45.0952 28.1139 51.6398 27 62.9392 27H107.061ZM61.9987 32C52.4675 32 47.0328 32.9283 42.1818 34.6713C37.3308 36.4144 33.5238 38.9723 30.9294 42.2315C28.3351 45.4908 26.9535 49.1422 26.9535 55.546V60.454C26.9535 66.8578 28.3351 70.5092 30.9294 73.7685C33.5238 77.0277 37.3308 79.5856 42.1818 81.3287C47.0328 83.0717 52.4675 84 61.9987 84H108.001C117.532 84 122.967 83.0717 127.818 81.3287C132.669 79.5856 136.476 77.0277 139.071 73.7685C141.665 70.5092 143.047 66.8578 143.047 60.454V55.546C143.047 49.1422 141.665 45.4908 139.071 42.2315C136.476 38.9723 132.669 36.4144 127.818 34.6713C122.967 32.9283 117.532 32 108.001 32H61.9987Z" fill="#00B578"/>
<path opacity="0.1" fill-rule="evenodd" clip-rule="evenodd" d="M58.1437 32H113.856C124.686 32 128.613 32.6498 132.572 33.8699C136.531 35.0901 139.638 36.8806 141.755 39.1621C143.872 41.4436 145 43.7066 145 49.9472V66.0528C145 72.2934 143.872 74.5564 141.755 76.8379C139.638 79.1194 136.531 80.9099 132.572 82.1301C128.613 83.3502 124.686 84 113.856 84H58.1437C47.3143 84 43.3874 83.3502 39.4283 82.1301C35.4693 80.9099 32.3622 79.1194 30.2449 76.8379C28.1276 74.5564 27 72.2934 27 66.0528V49.9472C27 43.7066 28.1276 41.4436 30.2449 39.1621C32.3622 36.8806 35.4693 35.0901 39.4283 33.8699C43.3874 32.6498 47.3143 32 58.1437 32Z" fill="#00B578"/>
<path fill-rule="evenodd" clip-rule="evenodd" d="M71.0294 100.744V89H58L71.0294 100.744Z" fill="#919191"/>
<path fill-rule="evenodd" clip-rule="evenodd" d="M33 8C35.2091 8 37 6.20914 37 4C37 1.79086 35.2091 0 33 0C30.7909 0 29 1.79086 29 4C29 6.20914 30.7909 8 33 8ZM52 21C53.1046 21 54 20.1046 54 19C54 17.8954 53.1046 17 52 17C50.8954 17 50 17.8954 50 19C50 20.1046 50.8954 21 52 21ZM15 24.5C15 28.6421 11.6421 32 7.5 32C3.35786 32 0 28.6421 0 24.5C0 20.3579 3.35786 17 7.5 17C11.6421 17 15 20.3579 15 24.5Z" fill="#919191"/>
</svg>
