<svg width="213" height="101" viewBox="0 0 213 101" fill="none" xmlns="http://www.w3.org/2000/svg">
<path fill-rule="evenodd" clip-rule="evenodd" d="M150.091 27C167.04 27 176.857 28.1139 185.589 30.2056C194.321 32.2973 201.174 35.3667 205.843 39.2779C210.513 43.189 213 47.5861 213 55.1779V60.8221C213 68.4139 210.513 72.811 205.843 76.7221C201.174 80.6333 194.321 83.7027 185.589 85.7944C176.857 87.8861 167.04 89 150.091 89H83.9089C66.9597 89 57.1428 87.8861 48.411 85.7944C39.6792 83.7027 32.8265 80.6333 28.1567 76.7221C23.4869 72.811 21 68.4139 21 60.8221V55.1779C21 47.5861 23.4869 43.189 28.1567 39.2779C32.8265 35.3667 39.6792 32.2973 48.411 30.2056C57.1428 28.1139 66.9597 27 83.9089 27H150.091ZM82.4981 32C68.2013 32 60.0492 32.9283 52.7728 34.6713C45.4963 36.4144 39.7856 38.9723 35.8941 42.2315C32.0026 45.4908 29.9302 49.1422 29.9302 55.546V60.454C29.9302 66.8578 32.0026 70.5092 35.8941 73.7685C39.7856 77.0277 45.4963 79.5856 52.7728 81.3287C60.0492 83.0717 68.2013 84 82.4981 84H151.502C165.799 84 173.951 83.0717 181.227 81.3287C188.504 79.5856 194.214 77.0277 198.106 73.7685C201.997 70.5092 204.07 66.8578 204.07 60.454V55.546C204.07 49.1422 201.997 45.4908 198.106 42.2315C194.214 38.9723 188.504 36.4144 181.227 34.6713C173.951 32.9283 165.799 32 151.502 32H82.4981Z" fill="#00B578"/>
<path opacity="0.1" fill-rule="evenodd" clip-rule="evenodd" d="M74.2434 32H158.757C175.184 32 181.141 32.6498 187.147 33.8699C193.153 35.0901 197.866 36.8806 201.078 39.1621C204.29 41.4436 206 43.7066 206 49.9472V66.0528C206 72.2934 204.29 74.5564 201.078 76.8379C197.866 79.1194 193.153 80.9099 187.147 82.1301C181.141 83.3502 175.184 84 158.757 84H74.2434C57.8158 84 51.8588 83.3502 45.8531 82.1301C39.8475 80.9099 35.1342 79.1194 31.9223 76.8379C28.7105 74.5564 27 72.2934 27 66.0528V49.9472C27 43.7066 28.7105 41.4436 31.9223 39.1621C35.1342 36.8806 39.8475 35.0901 45.8531 33.8699C51.8588 32.6498 57.8158 32 74.2434 32Z" fill="#00B578"/>
<path fill-rule="evenodd" clip-rule="evenodd" d="M83.0294 100.744V89H70L83.0294 100.744Z" fill="#919191"/>
<path fill-rule="evenodd" clip-rule="evenodd" d="M33 8C35.2091 8 37 6.20914 37 4C37 1.79086 35.2091 0 33 0C30.7909 0 29 1.79086 29 4C29 6.20914 30.7909 8 33 8ZM52 21C53.1046 21 54 20.1046 54 19C54 17.8954 53.1046 17 52 17C50.8954 17 50 17.8954 50 19C50 20.1046 50.8954 21 52 21ZM15 24.5C15 28.6421 11.6421 32 7.5 32C3.35786 32 0 28.6421 0 24.5C0 20.3579 3.35786 17 7.5 17C11.6421 17 15 20.3579 15 24.5Z" fill="#919191"/>
</svg>
