<svg width="159" height="101" viewBox="0 0 159 101" fill="none" xmlns="http://www.w3.org/2000/svg">
<path fill-rule="evenodd" clip-rule="evenodd" d="M96.0259 27C95.9052 27.0589 95.7735 27.124 95.6287 27.1962L85.9884 32.0018L65.2018 32.0022C55.2195 32.0022 49.4051 32.8782 44.2866 34.526L43.8367 34.6734C38.6067 36.4164 34.5022 38.9742 31.7052 42.2334C28.9081 45.4925 27.4186 49.1438 27.4186 55.5473V60.4551C27.4186 66.8586 28.9081 70.5099 31.7052 73.7691C34.5022 77.0282 38.6067 79.586 43.8367 81.329C49.0666 83.072 54.9259 84.0002 65.2018 84.0002H114.798C125.074 84.0002 130.933 83.072 136.163 81.329C141.393 79.586 145.498 77.0282 148.295 73.7691C151.092 70.5099 152.581 66.8586 152.581 60.4551V55.5473C152.581 49.1438 151.092 45.4925 148.295 42.2334C145.498 38.9742 141.393 36.4164 136.163 34.6734C130.933 32.9304 125.074 32.0022 114.798 32.0022L114.87 32.0018L124.203 27.3519C130.478 27.8314 135.066 28.7973 139.298 30.2079C145.574 32.2995 150.5 35.3688 153.856 39.2798C157.213 43.1907 159 47.5878 159 55.1792V60.8232C159 68.4147 157.213 72.8117 153.856 76.7226C150.5 80.6336 145.574 83.7029 139.298 85.7945C133.022 87.8861 125.966 89 113.784 89H66.2157C54.0336 89 46.9776 87.8861 40.7017 85.7945C34.4257 83.7029 29.5003 80.6336 26.1439 76.7226C22.7874 72.8117 21 68.4147 21 60.8232V55.1792C21 47.5878 22.7874 43.1907 26.1439 39.2798C29.5003 35.3688 34.4257 32.2995 40.7017 30.2079C46.9776 28.1163 54.0336 27.0024 66.2157 27.0024L96.0259 27Z" fill="#8E6BCE"/>
<path opacity="0.1" fill-rule="evenodd" clip-rule="evenodd" d="M65.6158 32H120.384C131.03 32 134.89 32.6498 138.782 33.8699C142.674 35.0901 145.729 36.8806 147.81 39.1621C149.892 41.4436 151 43.7066 151 49.9472V66.0528C151 72.2934 149.892 74.5564 147.81 76.8379C145.729 79.1194 142.674 80.9099 138.782 82.1301C134.89 83.3502 131.03 84 120.384 84H65.6158C54.97 84 51.1096 83.3502 47.2177 82.1301C43.3257 80.9099 40.2713 79.1194 38.1899 76.8379C36.1084 74.5564 35 72.2934 35 66.0528V49.9472C35 43.7066 36.1084 41.4436 38.1899 39.1621C40.2713 36.8806 43.3257 35.0901 47.2177 33.8699C51.1096 32.6498 54.97 32 65.6158 32Z" fill="#8E6BCE"/>
<path fill-rule="evenodd" clip-rule="evenodd" d="M71.0294 100.744V89H58L71.0294 100.744Z" fill="#919191"/>
<path d="M33 8C35.2091 8 37 6.20914 37 4C37 1.79086 35.2091 0 33 0C30.7909 0 29 1.79086 29 4C29 6.20914 30.7909 8 33 8Z" fill="#8E6BCE"/>
<path d="M52 21C53.1046 21 54 20.1046 54 19C54 17.8954 53.1046 17 52 17C50.8954 17 50 17.8954 50 19C50 20.1046 50.8954 21 52 21Z" fill="#8E6BCE"/>
<path d="M7.5 32C11.6421 32 15 28.6421 15 24.5C15 20.3579 11.6421 17 7.5 17C3.35786 17 0 20.3579 0 24.5C0 28.6421 3.35786 32 7.5 32Z" fill="#919191"/>
</svg>
