<svg width="221" height="101" viewBox="0 0 221 101" fill="none" xmlns="http://www.w3.org/2000/svg">
<path fill-rule="evenodd" clip-rule="evenodd" d="M129.733 27C129.558 27.0589 129.367 27.124 129.158 27.1962L115.186 32.0018L85.0605 32.0022C70.5935 32.0022 62.1668 32.8782 54.7487 34.526L54.0966 34.6734C46.5169 36.4164 40.5684 38.9742 36.5147 42.2334C32.4611 45.4925 30.3023 49.1438 30.3023 55.5473V60.4551C30.3023 66.8586 32.4611 70.5099 36.5147 73.7691C40.5684 77.0282 46.5169 79.586 54.0966 81.329C61.6763 83.072 70.168 84.0002 85.0605 84.0002H156.939C171.832 84.0002 180.324 83.072 187.903 81.329C195.483 79.586 201.432 77.0282 205.485 73.7691C209.539 70.5099 211.698 66.8586 211.698 60.4551V55.5473C211.698 49.1438 209.539 45.4925 205.485 42.2334C201.432 38.9742 195.483 36.4164 187.903 34.6734C180.324 32.9304 171.832 32.0022 156.939 32.0022L157.044 32.0018L170.569 27.3519C179.664 27.8314 186.313 28.7973 192.447 30.2079C201.542 32.2995 208.681 35.3688 213.545 39.2798C218.41 43.1907 221 47.5878 221 55.1792V60.8232C221 68.4147 218.41 72.8117 213.545 76.7226C208.681 80.6336 201.542 83.7029 192.447 85.7945C183.351 87.8861 173.125 89 155.47 89H86.53C68.8747 89 58.6487 87.8861 49.5531 85.7945C40.4575 83.7029 33.3193 80.6336 28.4549 76.7226C23.5905 72.8117 21 68.4147 21 60.8232V55.1792C21 47.5878 23.5905 43.1907 28.4549 39.2798C33.3193 35.3688 40.4575 32.2995 49.5531 30.2079C58.6487 28.1163 68.8747 27.0024 86.53 27.0024L129.733 27Z" fill="#8E6BCE"/>
<path opacity="0.1" fill-rule="evenodd" clip-rule="evenodd" d="M81.4516 32H164.548C180.701 32 186.558 32.6498 192.463 33.8699C198.368 35.0901 203.002 36.8806 206.16 39.1621C209.318 41.4436 211 43.7066 211 49.9472V66.0528C211 72.2934 209.318 74.5564 206.16 76.8379C203.002 79.1194 198.368 80.9099 192.463 82.1301C186.558 83.3502 180.701 84 164.548 84H81.4516C65.2993 84 59.4422 83.3502 53.5371 82.1301C47.6321 80.9099 42.9979 79.1194 39.8398 76.8379C36.6818 74.5564 35 72.2934 35 66.0528V49.9472C35 43.7066 36.6818 41.4436 39.8398 39.1621C42.9979 36.8806 47.6321 35.0901 53.5371 33.8699C59.4422 32.6498 65.2993 32 81.4516 32Z" fill="#8E6BCE"/>
<path fill-rule="evenodd" clip-rule="evenodd" d="M82.0294 100.744V89H69L82.0294 100.744Z" fill="#919191"/>
<path d="M33 8C35.2091 8 37 6.20914 37 4C37 1.79086 35.2091 0 33 0C30.7909 0 29 1.79086 29 4C29 6.20914 30.7909 8 33 8Z" fill="#8E6BCE"/>
<path d="M52 21C53.1046 21 54 20.1046 54 19C54 17.8954 53.1046 17 52 17C50.8954 17 50 17.8954 50 19C50 20.1046 50.8954 21 52 21Z" fill="#8E6BCE"/>
<path d="M7.5 32C11.6421 32 15 28.6421 15 24.5C15 20.3579 11.6421 17 7.5 17C3.35786 17 0 20.3579 0 24.5C0 28.6421 3.35786 32 7.5 32Z" fill="#919191"/>
</svg>
