<svg width="113" height="101" viewBox="0 0 113 101" fill="none" xmlns="http://www.w3.org/2000/svg">
<path fill-rule="evenodd" clip-rule="evenodd" d="M82.4547 27C90.6843 27 95.4509 28.1139 99.6906 30.2056C103.93 32.2973 107.258 35.3667 109.525 39.2779C111.792 43.189 113 47.5861 113 55.1779V60.8221C113 68.4139 111.792 72.811 109.525 76.7221C107.258 80.6333 103.93 83.7027 99.6906 85.7944C95.4509 87.8861 90.6843 89 82.4547 89H50.3201C42.0905 89 37.3239 87.8861 33.0842 85.7944C28.8445 83.7027 25.5172 80.6333 23.2498 76.7221C20.9824 72.811 19.7749 68.4139 19.7749 60.8221V55.1779C19.7749 47.5861 20.9824 43.189 23.2498 39.2779C25.5172 35.3667 28.8445 32.2973 33.0842 30.2056C37.3239 28.1139 42.0905 27 50.3201 27H82.4547Z" fill="url(#paint0_linear_435_151)"/>
<path fill-rule="evenodd" clip-rule="evenodd" d="M53.7027 100.744V89H41.4333L53.7027 100.744Z" fill="#919191"/>
<path fill-rule="evenodd" clip-rule="evenodd" d="M31.075 0C33.1553 0 34.8417 1.79086 34.8417 4C34.8417 6.20914 33.1553 8 31.075 8C28.9947 8 27.3083 6.20914 27.3083 4C27.3083 1.79086 28.9947 0 31.075 0ZM31.075 2C30.0349 2 29.1917 2.89543 29.1917 4C29.1917 5.10457 30.0349 6 31.075 6C32.1152 6 32.9583 5.10457 32.9583 4C32.9583 2.89543 32.1152 2 31.075 2Z" fill="#1F72C4"/>
<path d="M48.9666 21C50.0067 21 50.8499 20.1046 50.8499 19C50.8499 17.8954 50.0067 17 48.9666 17C47.9264 17 47.0833 17.8954 47.0833 19C47.0833 20.1046 47.9264 21 48.9666 21Z" fill="#1F72C4"/>
<path fill-rule="evenodd" clip-rule="evenodd" d="M7.0625 17C10.963 17 14.125 20.3579 14.125 24.5C14.125 28.6421 10.963 32 7.0625 32C3.16199 32 0 28.6421 0 24.5C0 20.3579 3.16199 17 7.0625 17ZM7.0625 20C4.72219 20 2.825 22.0147 2.825 24.5C2.825 26.9853 4.72219 29 7.0625 29C9.40281 29 11.3 26.9853 11.3 24.5C11.3 22.0147 9.40281 20 7.0625 20Z" fill="#919191"/>
<defs>
<linearGradient id="paint0_linear_435_151" x1="19.7749" y1="58" x2="113" y2="58" gradientUnits="userSpaceOnUse">
<stop stop-color="#C3F3F7"/>
<stop offset="1" stop-color="#1F72C4"/>
</linearGradient>
</defs>
</svg>
