<svg width="149" height="101" viewBox="0 0 149 101" fill="none" xmlns="http://www.w3.org/2000/svg">
<path fill-rule="evenodd" clip-rule="evenodd" d="M90.5892 27C90.4773 27.0589 90.3552 27.124 90.2209 27.1962L81.2791 32.0018L61.9987 32.0022C52.7398 32.0022 47.3467 32.8782 42.5991 34.526L42.1818 34.6734C37.3308 36.4164 33.5238 38.9742 30.9294 42.2334C28.3351 45.4925 26.9535 49.1438 26.9535 55.5473V60.4551C26.9535 66.8586 28.3351 70.5099 30.9294 73.7691C33.5238 77.0282 37.3308 79.586 42.1818 81.329C47.0328 83.072 52.4675 84.0002 61.9987 84.0002H108.001C117.532 84.0002 122.967 83.072 127.818 81.329C132.669 79.586 136.476 77.0282 139.071 73.7691C141.665 70.5099 143.047 66.8586 143.047 60.4551V55.5473C143.047 49.1438 141.665 45.4925 139.071 42.2334C136.476 38.9742 132.669 36.4164 127.818 34.6734C122.967 32.9304 117.532 32.0022 108.001 32.0022L108.068 32.0018L116.724 27.3519C122.545 27.8314 126.8 28.7973 130.726 30.2079C136.547 32.2995 141.116 35.3688 144.229 39.2798C147.342 43.1907 149 47.5878 149 55.1792V60.8232C149 68.4147 147.342 72.8117 144.229 76.7226C141.116 80.6336 136.547 83.7029 130.726 85.7945C124.905 87.8861 118.36 89 107.061 89H62.9392C51.6398 89 45.0952 87.8861 39.274 85.7945C33.4528 83.7029 28.8843 80.6336 25.7711 76.7226C22.6579 72.8117 21 68.4147 21 60.8232V55.1792C21 47.5878 22.6579 43.1907 25.7711 39.2798C28.8843 35.3688 33.4528 32.2995 39.274 30.2079C45.0952 28.1163 51.6398 27.0024 62.9392 27.0024L90.5892 27Z" fill="#CE3D4F"/>
<path opacity="0.1" fill-rule="evenodd" clip-rule="evenodd" d="M63.2404 32H113.76C123.579 32 127.14 32.6498 130.73 33.8699C134.32 35.0901 137.138 36.8806 139.058 39.1621C140.978 41.4436 142 43.7066 142 49.9472V66.0528C142 72.2934 140.978 74.5564 139.058 76.8379C137.138 79.1194 134.32 80.9099 130.73 82.1301C127.14 83.3502 123.579 84 113.76 84H63.2404C53.4206 84 49.8597 83.3502 46.2697 82.1301C42.6798 80.9099 39.8623 79.1194 37.9424 76.8379C36.0224 74.5564 35 72.2934 35 66.0528V49.9472C35 43.7066 36.0224 41.4436 37.9424 39.1621C39.8623 36.8806 42.6798 35.0901 46.2697 33.8699C49.8597 32.6498 53.4206 32 63.2404 32Z" fill="#CE3D4F"/>
<path fill-rule="evenodd" clip-rule="evenodd" d="M70.0294 100.744V89H57L70.0294 100.744Z" fill="#919191"/>
<path d="M33 8C35.2091 8 37 6.20914 37 4C37 1.79086 35.2091 0 33 0C30.7909 0 29 1.79086 29 4C29 6.20914 30.7909 8 33 8Z" fill="#CE3D4F"/>
<path d="M52 21C53.1046 21 54 20.1046 54 19C54 17.8954 53.1046 17 52 17C50.8954 17 50 17.8954 50 19C50 20.1046 50.8954 21 52 21Z" fill="#CE3D4F"/>
<path d="M7.5 32C11.6421 32 15 28.6421 15 24.5C15 20.3579 11.6421 17 7.5 17C3.35786 17 0 20.3579 0 24.5C0 28.6421 3.35786 32 7.5 32Z" fill="#919191"/>
</svg>
