<svg width="221" height="101" viewBox="0 0 221 101" fill="none" xmlns="http://www.w3.org/2000/svg">
<path fill-rule="evenodd" clip-rule="evenodd" d="M129.358 27C129.183 27.0589 128.991 27.124 128.78 27.1962L114.751 32.0018L84.5019 32.0022C69.9755 32.0022 61.5141 32.8782 54.0655 34.526L53.4108 34.6734C45.8 36.4164 39.827 38.9742 35.7567 42.2334C31.6864 45.4925 29.5188 49.1438 29.5188 55.5473V60.4551C29.5188 66.8586 31.6864 70.5099 35.7567 73.7691C39.827 77.0282 45.8 79.586 53.4108 81.329C61.0216 83.072 69.5482 84.0002 84.5019 84.0002H156.676C171.63 84.0002 180.157 83.072 187.767 81.329C195.378 79.586 201.351 77.0282 205.421 73.7691C209.492 70.5099 211.659 66.8586 211.659 60.4551V55.5473C211.659 49.1438 209.492 45.4925 205.421 42.2334C201.351 38.9742 195.378 36.4164 187.767 34.6734C180.157 32.9304 171.63 32.0022 156.676 32.0022L156.781 32.0018L170.362 27.3519C179.494 27.8314 186.17 28.7973 192.329 30.2079C201.462 32.2995 208.63 35.3688 213.514 39.2798C218.399 43.1907 221 47.5878 221 55.1792V60.8232C221 68.4147 218.399 72.8117 213.514 76.7226C208.63 80.6336 201.462 83.7029 192.329 85.7945C183.197 87.8861 172.929 89 155.201 89H85.9775C68.2497 89 57.9817 87.8861 48.8487 85.7945C39.7157 83.7029 32.5481 80.6336 27.6637 76.7226C22.7793 72.8117 20.1782 68.4147 20.1782 60.8232V55.1792C20.1782 47.5878 22.7793 43.1907 27.6637 39.2798C32.5481 35.3688 39.7157 32.2995 48.8487 30.2079C57.9817 28.1163 68.2497 27.0024 85.9775 27.0024L129.358 27Z" fill="#CE3D4F"/>
<path opacity="0.1" fill-rule="evenodd" clip-rule="evenodd" d="M81.0539 32H165.889C182.38 32 188.359 32.6498 194.388 33.8699C200.417 35.0901 205.148 36.8806 208.372 39.1621C211.596 41.4436 213.313 43.7066 213.313 49.9472V66.0528C213.313 72.2934 211.596 74.5564 208.372 76.8379C205.148 79.1194 200.417 80.9099 194.388 82.1301C188.359 83.3502 182.38 84 165.889 84H81.0539C64.5637 84 58.584 83.3502 52.5554 82.1301C46.5268 80.9099 41.7956 79.1194 38.5715 76.8379C35.3473 74.5564 33.6304 72.2934 33.6304 66.0528V49.9472C33.6304 43.7066 35.3473 41.4436 38.5715 39.1621C41.7956 36.8806 46.5268 35.0901 52.5554 33.8699C58.584 32.6498 64.5637 32 81.0539 32Z" fill="#CE3D4F"/>
<path fill-rule="evenodd" clip-rule="evenodd" d="M86.5195 100.744V89H74L86.5195 100.744Z" fill="#919191"/>
<path d="M31.7087 8C33.8314 8 35.5522 6.20914 35.5522 4C35.5522 1.79086 33.8314 0 31.7087 0C29.586 0 27.8652 1.79086 27.8652 4C27.8652 6.20914 29.586 8 31.7087 8Z" fill="#CE3D4F"/>
<path d="M49.9652 21C51.0265 21 51.8869 20.1046 51.8869 19C51.8869 17.8954 51.0265 17 49.9652 17C48.9038 17 48.0435 17.8954 48.0435 19C48.0435 20.1046 48.9038 21 49.9652 21Z" fill="#CE3D4F"/>
<path d="M7.20652 32C11.1866 32 14.413 28.6421 14.413 24.5C14.413 20.3579 11.1866 17 7.20652 17C3.22647 17 0 20.3579 0 24.5C0 28.6421 3.22647 32 7.20652 32Z" fill="#919191"/>
</svg>
