<svg width="105" height="101" viewBox="0 0 105 101" fill="none" xmlns="http://www.w3.org/2000/svg">
<path fill-rule="evenodd" clip-rule="evenodd" d="M38.8902 26.9976C38.9636 27.0565 39.0437 27.1216 39.1317 27.1938L44.9936 31.9996L57.633 32C63.7027 32 67.2382 32.8759 70.3505 34.5239L70.6241 34.6713C73.8042 36.4144 76.3 38.9723 78.0007 42.2315C79.7014 45.4908 80.6072 49.1422 80.6072 55.546V60.454C80.6072 66.8577 79.7014 70.5092 78.0007 73.7684C76.3 77.0277 73.8042 79.5856 70.6241 81.3287C67.444 83.0717 63.8812 84 57.633 84H27.4756C21.2274 84 17.6646 83.0717 14.4845 81.3287C11.3044 79.5856 8.80865 77.0277 7.10791 73.7684C5.40717 70.5092 4.50146 66.8577 4.50146 60.454V55.546C4.50146 49.1422 5.40717 45.4908 7.10791 42.2315C8.80865 38.9723 11.3044 36.4144 14.4845 34.6713C17.6646 32.9282 21.2274 32 27.4756 32L27.4317 31.9996L21.7571 27.3495C17.9413 27.829 15.152 28.7949 12.5783 30.2056C8.76215 32.2973 5.76723 35.3667 3.72634 39.2778C1.68546 43.1889 0.598603 47.5861 0.598603 55.1779V60.8221C0.598603 68.4138 1.68546 72.811 3.72634 76.7221C5.76723 80.6332 8.76215 83.7027 12.5783 85.7944C16.3944 87.8861 20.6848 89 28.0922 89H57.0164C64.4238 89 68.7142 87.8861 72.5303 85.7944C76.3465 83.7027 79.3414 80.6332 81.3823 76.7221C83.4232 72.811 84.51 68.4138 84.51 60.8221V55.1779C84.51 47.5861 83.4232 43.1889 81.3823 39.2778C79.3414 35.3667 76.3465 32.2973 72.5303 30.2056C68.7142 28.1139 64.4238 27 57.0164 27L38.8902 26.9976Z" fill="#8E6BCE"/>
<path opacity="0.1" fill-rule="evenodd" clip-rule="evenodd" d="M53.3388 32H22.0129C15.9238 32 13.7158 32.6498 11.4897 33.8699C9.26361 35.0901 7.51658 36.8806 6.32606 39.1621C5.13554 41.4436 4.50155 43.7066 4.50155 49.9472V66.0528C4.50155 72.2934 5.13554 74.5564 6.32606 76.8379C7.51658 79.1194 9.26361 80.9099 11.4897 82.1301C13.7158 83.3502 15.9238 84 22.0129 84H53.3388C59.4278 84 61.6359 83.3502 63.862 82.1301C66.088 80.9099 67.8351 79.1194 69.0256 76.8379C70.2161 74.5564 70.8501 72.2934 70.8501 66.0528V49.9472C70.8501 43.7066 70.2161 41.4436 69.0256 39.1621C67.8351 36.8806 66.088 35.0901 63.862 33.8699C61.6359 32.6498 59.4278 32 53.3388 32Z" fill="#8E6BCE"/>
<path fill-rule="evenodd" clip-rule="evenodd" d="M49.3561 100.744V89H62.0691L49.3561 100.744Z" fill="#919191"/>
<path d="M72.8017 8C70.6462 8 68.8989 6.20914 68.8989 4C68.8989 1.79086 70.6462 0 72.8017 0C74.9572 0 76.7046 1.79086 76.7046 4C76.7046 6.20914 74.9572 8 72.8017 8Z" fill="#8E6BCE"/>
<path d="M54.2634 21C53.1857 21 52.312 20.1046 52.312 19C52.312 17.8954 53.1857 17 54.2634 17C55.3412 17 56.2148 17.8954 56.2148 19C56.2148 20.1046 55.3412 21 54.2634 21Z" fill="#8E6BCE"/>
<path d="M97.6824 32C93.6409 32 90.3645 28.6421 90.3645 24.5C90.3645 20.3579 93.6409 17 97.6824 17C101.724 17 105 20.3579 105 24.5C105 28.6421 101.724 32 97.6824 32Z" fill="#919191"/>
</svg>
