<svg width="156" height="101" viewBox="0 0 156 101" fill="none" xmlns="http://www.w3.org/2000/svg">
<path fill-rule="evenodd" clip-rule="evenodd" d="M61.7708 27C61.8885 27.0589 62.017 27.124 62.1583 27.1962L71.5645 32.0018L91.8463 32.0022C101.586 32.0022 107.259 32.8782 112.254 34.526L112.693 34.6734C117.796 36.4164 121.8 38.9742 124.529 42.2334C127.259 45.4925 128.712 49.1438 128.712 55.5473V60.4551C128.712 66.8586 127.259 70.5099 124.529 73.7691C121.8 77.0282 117.796 79.586 112.693 81.329C107.59 83.072 101.873 84.0002 91.8463 84.0002H43.4543C33.4281 84.0002 27.7111 83.072 22.6081 81.329C17.5052 79.586 13.5003 77.0282 10.7712 73.7691C8.04215 70.5099 6.5888 66.8586 6.5888 60.4551V55.5473C6.5888 49.1438 8.04215 45.4925 10.7712 42.2334C13.5003 38.9742 17.5052 36.4164 22.6081 34.6734C27.7111 32.9304 33.4281 32.0022 43.4543 32.0022L43.3839 32.0018L34.2781 27.3519C28.1551 27.8314 23.6791 28.7973 19.5493 30.2079C13.4257 32.2995 8.61992 35.3688 5.345 39.2798C2.07009 43.1907 0.326076 47.5878 0.326076 55.1792V60.8232C0.326076 68.4147 2.07009 72.8117 5.345 76.7226C8.61992 80.6336 13.4257 83.7029 19.5493 85.7945C25.6728 87.8861 32.5574 89 44.4437 89H90.857C102.743 89 109.628 87.8861 115.751 85.7945C121.875 83.7029 126.681 80.6336 129.956 76.7226C133.231 72.8117 134.975 68.4147 134.975 60.8232V55.1792C134.975 47.5878 133.231 43.1907 129.956 39.2798C126.681 35.3688 121.875 32.2995 115.751 30.2079C109.628 28.1163 102.743 27.0024 90.857 27.0024L61.7708 27Z" fill="#8E6BCE"/>
<path opacity="0.1" fill-rule="evenodd" clip-rule="evenodd" d="M91.4424 32H38.0041C27.6169 32 23.8502 32.6498 20.0528 33.8699C16.2554 35.0901 13.2752 36.8806 11.2443 39.1621C9.2134 41.4436 8.13188 43.7066 8.13188 49.9472V66.0528C8.13188 72.2934 9.2134 74.5564 11.2443 76.8379C13.2752 79.1194 16.2554 80.9099 20.0528 82.1301C23.8502 83.3502 27.6169 84 38.0041 84H91.4424C101.83 84 105.596 83.3502 109.394 82.1301C113.191 80.9099 116.171 79.1194 118.202 76.8379C120.233 74.5564 121.315 72.2934 121.315 66.0528V49.9472C121.315 43.7066 120.233 41.4436 118.202 39.1621C116.171 36.8806 113.191 35.0901 109.394 33.8699C105.596 32.6498 101.83 32 91.4424 32Z" fill="#8E6BCE"/>
<path fill-rule="evenodd" clip-rule="evenodd" d="M86.1603 100.744V89H98.8733L86.1603 100.744Z" fill="#919191"/>
<path d="M123.266 8C121.111 8 119.363 6.20914 119.363 4C119.363 1.79086 121.111 0 123.266 0C125.422 0 127.169 1.79086 127.169 4C127.169 6.20914 125.422 8 123.266 8Z" fill="#8E6BCE"/>
<path d="M104.728 21C103.65 21 102.777 20.1046 102.777 19C102.777 17.8954 103.65 17 104.728 17C105.806 17 106.679 17.8954 106.679 19C106.679 20.1046 105.806 21 104.728 21Z" fill="#8E6BCE"/>
<path d="M148.147 32C144.105 32 140.829 28.6421 140.829 24.5C140.829 20.3579 144.105 17 148.147 17C152.189 17 155.465 20.3579 155.465 24.5C155.465 28.6421 152.189 32 148.147 32Z" fill="#919191"/>
</svg>
