<svg width="216" height="101" viewBox="0 0 216 101" fill="none" xmlns="http://www.w3.org/2000/svg">
<path fill-rule="evenodd" clip-rule="evenodd" d="M89.0503 27C89.221 27.0589 89.4072 27.124 89.612 27.1962L103.244 32.0018L132.638 32.0022C146.754 32.0022 154.976 32.8782 162.214 34.526L162.85 34.6734C170.246 36.4164 176.05 38.9742 180.005 42.2334C183.96 45.4925 186.066 49.1438 186.066 55.5473V60.4551C186.066 66.8586 183.96 70.5099 180.005 73.7691C176.05 77.0282 170.246 79.586 162.85 81.329C155.454 83.072 147.169 84.0002 132.638 84.0002H62.5048C47.9739 84.0002 39.6885 83.072 32.2929 81.329C24.8973 79.586 19.0932 77.0282 15.138 73.7691C11.1828 70.5099 9.07645 66.8586 9.07645 60.4551V55.5473C9.07645 49.1438 11.1828 45.4925 15.138 42.2334C19.0932 38.9742 24.8973 36.4164 32.2929 34.6734C39.6885 32.9304 47.9739 32.0022 62.5048 32.0022L62.4026 32.0018L49.2059 27.3519C40.332 27.8314 33.845 28.7973 27.8597 30.2079C18.985 32.2995 12.0201 35.3688 7.27385 39.2798C2.5276 43.1907 4.19617e-05 47.5878 4.19617e-05 55.1792V60.8232C4.19617e-05 68.4147 2.5276 72.8117 7.27385 76.7226C12.0201 80.6336 18.985 83.7029 27.8597 85.7945C36.7345 87.8861 46.7121 89 63.9386 89H131.204C148.431 89 158.408 87.8861 167.283 85.7945C176.158 83.7029 183.123 80.6336 187.869 76.7226C192.615 72.8117 195.143 68.4147 195.143 60.8232V55.1792C195.143 47.5878 192.615 43.1907 187.869 39.2798C183.123 35.3688 176.158 32.2995 167.283 30.2079C158.408 28.1163 148.431 27.0024 131.204 27.0024L89.0503 27Z" fill="#8E6BCE"/>
<path opacity="0.1" fill-rule="evenodd" clip-rule="evenodd" d="M136.159 32H55.0807C39.3208 32 33.6058 32.6498 27.8442 33.8699C22.0826 35.0901 17.5609 36.8806 14.4795 39.1621C11.3982 41.4436 9.75726 43.7066 9.75726 49.9472V66.0528C9.75726 72.2934 11.3982 74.5564 14.4795 76.8379C17.5609 79.1194 22.0826 80.9099 27.8442 82.1301C33.6058 83.3502 39.3208 84 55.0807 84H136.159C151.919 84 157.634 83.3502 163.396 82.1301C169.158 80.9099 173.679 79.1194 176.761 76.8379C179.842 74.5564 181.483 72.2934 181.483 66.0528V49.9472C181.483 43.7066 179.842 41.4436 176.761 39.1621C173.679 36.8806 169.158 35.0901 163.396 33.8699C157.634 32.6498 151.919 32 136.159 32Z" fill="#8E6BCE"/>
<path fill-rule="evenodd" clip-rule="evenodd" d="M135.596 100.744V89H148.309L135.596 100.744Z" fill="#919191"/>
<path d="M183.435 8C181.279 8 179.532 6.20914 179.532 4C179.532 1.79086 181.279 0 183.435 0C185.59 0 187.337 1.79086 187.337 4C187.337 6.20914 185.59 8 183.435 8Z" fill="#8E6BCE"/>
<path d="M164.896 21C163.818 21 162.945 20.1046 162.945 19C162.945 17.8954 163.818 17 164.896 17C165.974 17 166.848 17.8954 166.848 19C166.848 20.1046 165.974 21 164.896 21Z" fill="#8E6BCE"/>
<path d="M208.315 32C204.274 32 200.997 28.6421 200.997 24.5C200.997 20.3579 204.274 17 208.315 17C212.357 17 215.633 20.3579 215.633 24.5C215.633 28.6421 212.357 32 208.315 32Z" fill="#919191"/>
</svg>
