<svg width="105" height="101" viewBox="0 0 105 101" fill="none" xmlns="http://www.w3.org/2000/svg">
<path fill-rule="evenodd" clip-rule="evenodd" d="M38.641 26.9976C38.7146 27.0565 38.795 27.1216 38.8834 27.1938L44.7673 31.9996L57.4544 32C63.5471 32 67.0959 32.8759 70.2199 34.5239L70.4945 34.6713C73.6867 36.4144 76.1918 38.9723 77.899 42.2315C79.6061 45.4908 80.5153 49.1422 80.5153 55.546V60.454C80.5153 66.8577 79.6061 70.5092 77.899 73.7684C76.1918 77.0277 73.6867 79.5856 70.4945 81.3287C67.3024 83.0717 63.7263 84 57.4544 84H27.1833C20.9115 84 17.3353 83.0717 14.1432 81.3287C10.9511 79.5856 8.44587 77.0277 6.73871 73.7684C5.03155 70.5092 4.12242 66.8577 4.12242 60.454V55.546C4.12242 49.1422 5.03155 45.4908 6.73871 42.2315C8.44587 38.9723 10.9511 36.4144 14.1432 34.6713C17.3353 32.9282 20.9115 32 27.1833 32L27.1392 31.9996L21.4432 27.3495C17.613 27.829 14.8131 28.7949 12.2297 30.2056C8.39919 32.2973 5.39297 35.3667 3.34438 39.2778C1.2958 43.1889 0.204842 47.5861 0.204842 55.1779V60.8221C0.204842 68.4138 1.2958 72.811 3.34438 76.7221C5.39297 80.6332 8.39919 83.7027 12.2297 85.7944C16.0602 87.8861 20.3668 89 27.8022 89H56.8355C64.2709 89 68.5775 87.8861 72.408 85.7944C76.2385 83.7027 79.2447 80.6332 81.2933 76.7221C83.3419 72.811 84.4329 68.4138 84.4329 60.8221V55.1779C84.4329 47.5861 83.3419 43.1889 81.2933 39.2778C79.2447 35.3667 76.2385 32.2973 72.408 30.2056C68.5775 28.1139 64.2709 27 56.8355 27L38.641 26.9976Z" fill="#CE3D4F"/>
<path opacity="0.1" fill-rule="evenodd" clip-rule="evenodd" d="M53.1438 32H21.6997C15.5876 32 13.3713 32.6498 11.1368 33.8699C8.90232 35.0901 7.14869 36.8806 5.95368 39.1621C4.75867 41.4436 4.12228 43.7066 4.12228 49.9472V66.0528C4.12228 72.2934 4.75867 74.5564 5.95368 76.8379C7.14869 79.1194 8.90232 80.9099 11.1368 82.1301C13.3713 83.3502 15.5876 84 21.6997 84H53.1438C59.2558 84 61.4722 83.3502 63.7067 82.1301C65.9412 80.9099 67.6948 79.1194 68.8898 76.8379C70.0848 74.5564 70.7212 72.2934 70.7212 66.0528V49.9472C70.7212 43.7066 70.0848 41.4436 68.8898 39.1621C67.6948 36.8806 65.9412 35.0901 63.7067 33.8699C61.4722 32.6498 59.2558 32 53.1438 32Z" fill="#CE3D4F"/>
<path fill-rule="evenodd" clip-rule="evenodd" d="M49.1456 100.744V89H61.9065L49.1456 100.744Z" fill="#919191"/>
<path d="M72.6798 8C70.5162 8 68.7622 6.20914 68.7622 4C68.7622 1.79086 70.5162 0 72.6798 0C74.8435 0 76.5974 1.79086 76.5974 4C76.5974 6.20914 74.8435 8 72.6798 8Z" fill="#CE3D4F"/>
<path d="M54.0715 21C52.9897 21 52.1127 20.1046 52.1127 19C52.1127 17.8954 52.9897 17 54.0715 17C55.1533 17 56.0303 17.8954 56.0303 19C56.0303 20.1046 55.1533 21 54.0715 21Z" fill="#CE3D4F"/>
<path d="M97.6545 32C93.5977 32 90.3091 28.6421 90.3091 24.5C90.3091 20.3579 93.5977 17 97.6545 17C101.711 17 105 20.3579 105 24.5C105 28.6421 101.711 32 97.6545 32Z" fill="#919191"/>
</svg>
