<svg width="147" height="101" viewBox="0 0 147 101" fill="none" xmlns="http://www.w3.org/2000/svg">
<path fill-rule="evenodd" clip-rule="evenodd" d="M57.4904 27C57.6 27.0589 57.7196 27.124 57.8512 27.1962L66.6087 32.0018L85.4918 32.0022C94.5599 32.0022 99.8419 32.8782 104.492 34.526L104.9 34.6734C109.651 36.4164 113.38 38.9742 115.921 42.2334C118.462 45.4925 119.815 49.1438 119.815 55.5473V60.4551C119.815 66.8586 118.462 70.5099 115.921 73.7691C113.38 77.0282 109.651 79.586 104.9 81.329C100.149 83.072 94.8266 84.0002 85.4918 84.0002H40.4371C31.1023 84.0002 25.7796 83.072 21.0285 81.329C16.2775 79.586 12.5488 77.0282 10.0079 73.7691C7.46706 70.5099 6.11394 66.8586 6.11394 60.4551V55.5473C6.11394 49.1438 7.46706 45.4925 10.0079 42.2334C12.5488 38.9742 16.2775 36.4164 21.0285 34.6734C25.7796 32.9304 31.1023 32.0022 40.4371 32.0022L40.3715 32.0018L31.8937 27.3519C26.1929 27.8314 22.0256 28.7973 18.1806 30.2079C12.4794 32.2995 8.00498 35.3688 4.95592 39.2798C1.90686 43.1907 0.28312 47.5878 0.28312 55.1792V60.8232C0.28312 68.4147 1.90686 72.8117 4.95592 76.7226C8.00498 80.6336 12.4794 83.7029 18.1806 85.7945C23.8819 87.8861 30.2916 89 41.3582 89H84.5707C95.6372 89 102.047 87.8861 107.748 85.7945C113.45 83.7029 117.924 80.6336 120.973 76.7226C124.022 72.8117 125.646 68.4147 125.646 60.8232V55.1792C125.646 47.5878 124.022 43.1907 120.973 39.2798C117.924 35.3688 113.45 32.2995 107.748 30.2079C102.047 28.1163 95.6372 27.0024 84.5707 27.0024L57.4904 27Z" fill="#CE3D4F"/>
<path opacity="0.1" fill-rule="evenodd" clip-rule="evenodd" d="M84.2755 32H34.7973C25.1798 32 21.6923 32.6498 18.1763 33.8699C14.6603 35.0901 11.9009 36.8806 10.0205 39.1621C8.14012 41.4436 7.13875 43.7066 7.13875 49.9472V66.0528C7.13875 72.2934 8.14012 74.5564 10.0205 76.8379C11.9009 79.1194 14.6603 80.9099 18.1763 82.1301C21.6923 83.3502 25.1798 84 34.7973 84H84.2755C93.893 84 97.3805 83.3502 100.897 82.1301C104.413 80.9099 107.172 79.1194 109.052 76.8379C110.933 74.5564 111.934 72.2934 111.934 66.0528V49.9472C111.934 43.7066 110.933 41.4436 109.052 39.1621C107.172 36.8806 104.413 35.0901 100.897 33.8699C97.3805 32.6498 93.893 32 84.2755 32Z" fill="#CE3D4F"/>
<path fill-rule="evenodd" clip-rule="evenodd" d="M77.6263 100.744V89H90.3872L77.6263 100.744Z" fill="#919191"/>
<path d="M113.893 8C111.729 8 109.975 6.20914 109.975 4C109.975 1.79086 111.729 0 113.893 0C116.056 0 117.81 1.79086 117.81 4C117.81 6.20914 116.056 8 113.893 8Z" fill="#CE3D4F"/>
<path d="M95.2844 21C94.2026 21 93.3256 20.1046 93.3256 19C93.3256 17.8954 94.2026 17 95.2844 17C96.3662 17 97.2432 17.8954 97.2432 19C97.2432 20.1046 96.3662 21 95.2844 21Z" fill="#CE3D4F"/>
<path d="M138.867 32C134.811 32 131.522 28.6421 131.522 24.5C131.522 20.3579 134.811 17 138.867 17C142.924 17 146.213 20.3579 146.213 24.5C146.213 28.6421 142.924 32 138.867 32Z" fill="#919191"/>
</svg>
