<svg width="217" height="101" viewBox="0 0 217 101" fill="none" xmlns="http://www.w3.org/2000/svg">
<path fill-rule="evenodd" clip-rule="evenodd" d="M89.7537 27C89.9257 27.0589 90.1134 27.124 90.3198 27.1962L104.06 32.0018L133.686 32.0022C147.913 32.0022 156.2 32.8782 163.495 34.526L164.136 34.6734C171.59 36.4164 177.44 38.9742 181.427 42.2334C185.413 45.4925 187.536 49.1438 187.536 55.5473V60.4551C187.536 66.8586 185.413 70.5099 181.427 73.7691C177.44 77.0282 171.59 79.586 164.136 81.329C156.682 83.072 148.331 84.0002 133.686 84.0002H62.9985C48.3529 84.0002 40.002 83.072 32.548 81.329C25.094 79.586 19.2441 77.0282 15.2576 73.7691C11.2712 70.5099 9.14825 66.8586 9.14825 60.4551V55.5473C9.14825 49.1438 11.2712 45.4925 15.2576 42.2334C19.2441 38.9742 25.094 36.4164 32.548 34.6734C40.002 32.9304 48.3529 32.0022 62.9985 32.0022L62.8956 32.0018L49.5946 27.3519C40.6506 27.8314 34.1124 28.7973 28.0799 30.2079C19.1351 32.2995 12.1151 35.3688 7.33141 39.2798C2.54768 43.1907 0.00015974 47.5878 0.00015974 55.1792V60.8232C0.00015974 68.4147 2.54768 72.8117 7.33141 76.7226C12.1151 80.6336 19.1351 83.7029 28.0799 85.7945C37.0247 87.8861 47.0811 89 64.4437 89H132.241C149.603 89 159.66 87.8861 168.604 85.7945C177.549 83.7029 184.569 80.6336 189.353 76.7226C194.137 72.8117 196.684 68.4147 196.684 60.8232V55.1792C196.684 47.5878 194.137 43.1907 189.353 39.2798C184.569 35.3688 177.549 32.2995 168.604 30.2079C159.66 28.1163 149.603 27.0024 132.241 27.0024L89.7537 27Z" fill="#CE3D4F"/>
<path opacity="0.1" fill-rule="evenodd" clip-rule="evenodd" d="M137.063 32H53.9751C37.8247 32 31.9681 32.6498 26.0638 33.8699C20.1594 35.0901 15.5256 36.8806 12.368 39.1621C9.21028 41.4436 7.52869 43.7066 7.52869 49.9472V66.0528C7.52869 72.2934 9.21028 74.5564 12.368 76.8379C15.5256 79.1194 20.1594 80.9099 26.0638 82.1301C31.9681 83.3502 37.8247 84 53.9751 84H137.063C153.213 84 159.07 83.3502 164.974 82.1301C170.878 80.9099 175.512 79.1194 178.67 76.8379C181.827 74.5564 183.509 72.2934 183.509 66.0528V49.9472C183.509 43.7066 181.827 41.4436 178.67 39.1621C175.512 36.8806 170.878 35.0901 164.974 33.8699C159.07 32.6498 153.213 32 137.063 32Z" fill="#CE3D4F"/>
<path fill-rule="evenodd" clip-rule="evenodd" d="M131.71 100.744V89H143.971L131.71 100.744Z" fill="#919191"/>
<path d="M185.391 8C183.312 8 181.627 6.20914 181.627 4C181.627 1.79086 183.312 0 185.391 0C187.47 0 189.156 1.79086 189.156 4C189.156 6.20914 187.47 8 185.391 8Z" fill="#CE3D4F"/>
<path d="M167.511 21C166.471 21 165.629 20.1046 165.629 19C165.629 17.8954 166.471 17 167.511 17C168.55 17 169.393 17.8954 169.393 19C169.393 20.1046 168.55 21 167.511 21Z" fill="#CE3D4F"/>
<path d="M209.388 32C205.49 32 202.33 28.6421 202.33 24.5C202.33 20.3579 205.49 17 209.388 17C213.287 17 216.447 20.3579 216.447 24.5C216.447 28.6421 213.287 32 209.388 32Z" fill="#919191"/>
</svg>
