<svg width="107" height="101" viewBox="0 0 107 101" fill="none" xmlns="http://www.w3.org/2000/svg">
<path fill-rule="evenodd" clip-rule="evenodd" d="M28.1779 27C20.5861 27 16.1889 28.1139 12.2778 30.2056C8.36673 32.2973 5.29726 35.3667 3.20557 39.2779C1.11388 43.189 -2.0504e-05 47.5861 -2.0504e-05 55.1779V60.8221C-2.0504e-05 68.4139 1.11388 72.811 3.20557 76.7221C5.29726 80.6333 8.36673 83.7027 12.2778 85.7944C16.1889 87.8861 20.5861 89 28.1779 89H57.8221C65.4139 89 69.811 87.8861 73.7221 85.7944C77.6333 83.7027 80.7027 80.6333 82.7944 76.7221C84.8861 72.811 86 68.4139 86 60.8221V55.1779C86 47.5861 84.8861 43.189 82.7944 39.2779C80.7027 35.3667 77.6333 32.2973 73.7221 30.2056C69.811 28.1139 65.4139 27 57.8221 27H28.1779ZM58.454 32C64.8578 32 68.5092 32.9283 71.7685 34.6713C75.0277 36.4144 77.5856 38.9723 79.3287 42.2315C81.0717 45.4908 82 49.1422 82 55.546V60.454C82 66.8578 81.0717 70.5092 79.3287 73.7685C77.5856 77.0277 75.0277 79.5856 71.7685 81.3287C68.5092 83.0717 64.8578 84 58.454 84H27.546C21.1422 84 17.4908 83.0717 14.2315 81.3287C10.9723 79.5856 8.41438 77.0277 6.67131 73.7685C4.92824 70.5092 3.99998 66.8578 3.99998 60.454V55.546C3.99998 49.1422 4.92824 45.4908 6.67131 42.2315C8.41438 38.9723 10.9723 36.4144 14.2315 34.6713C17.4908 32.9283 21.1422 32 27.546 32H58.454Z" fill="#00B578"/>
<path opacity="0.1" fill-rule="evenodd" clip-rule="evenodd" d="M54.0527 32H21.9471C15.7065 32 13.4435 32.6498 11.162 33.8699C8.88051 35.0901 7.08999 36.8806 5.86984 39.1621C4.64969 41.4436 3.99991 43.7066 3.99991 49.9472V66.0528C3.99991 72.2934 4.64969 74.5564 5.86984 76.8379C7.08999 79.1194 8.88051 80.9099 11.162 82.1301C13.4435 83.3502 15.7065 84 21.9471 84H54.0527C60.2934 84 62.5564 83.3502 64.8379 82.1301C67.1193 80.9099 68.9099 79.1194 70.13 76.8379C71.3502 74.5564 71.9999 72.2934 71.9999 66.0528V49.9472C71.9999 43.7066 71.3502 41.4436 70.13 39.1621C68.9099 36.8806 67.1193 35.0901 64.8379 33.8699C62.5564 32.6498 60.2934 32 54.0527 32Z" fill="#00B578"/>
<path fill-rule="evenodd" clip-rule="evenodd" d="M49.9706 100.744V89H63L49.9706 100.744Z" fill="#919191"/>
<path fill-rule="evenodd" clip-rule="evenodd" d="M73.9999 8C71.7908 8 69.9999 6.20914 69.9999 4C69.9999 1.79086 71.7908 0 73.9999 0C76.2091 0 77.9999 1.79086 77.9999 4C77.9999 6.20914 76.2091 8 73.9999 8ZM55.0001 21C53.8955 21 53.0001 20.1046 53.0001 19C53.0001 17.8954 53.8955 17 55.0001 17C56.1047 17 57.0001 17.8954 57.0001 19C57.0001 20.1046 56.1047 21 55.0001 21ZM92 24.5C92 28.6421 95.3579 32 99.5 32C103.642 32 107 28.6421 107 24.5C107 20.3579 103.642 17 99.5 17C95.3579 17 92 20.3579 92 24.5Z" fill="#919191"/>
</svg>
