<svg width="149" height="101" viewBox="0 0 149 101" fill="none" xmlns="http://www.w3.org/2000/svg">
<path fill-rule="evenodd" clip-rule="evenodd" d="M41.9392 27C30.6398 27 24.0952 28.1139 18.274 30.2056C12.4528 32.2973 7.88427 35.3667 4.77106 39.2779C1.65785 43.189 -5.07832e-05 47.5861 -5.07832e-05 55.1779V60.8221C-5.07832e-05 68.4139 1.65785 72.811 4.77106 76.7221C7.88427 80.6333 12.4528 83.7027 18.274 85.7944C24.0952 87.8861 30.6398 89 41.9392 89H86.0608C97.3602 89 103.905 87.8861 109.726 85.7944C115.547 83.7027 120.116 80.6333 123.229 76.7221C126.342 72.811 128 68.4139 128 60.8221V55.1779C128 47.5861 126.342 43.189 123.229 39.2779C120.116 35.3667 115.547 32.2973 109.726 30.2056C103.905 28.1139 97.3602 27 86.0608 27H41.9392ZM87.0013 32C96.5325 32 101.967 32.9283 106.818 34.6713C111.669 36.4144 115.476 38.9723 118.071 42.2315C120.665 45.4908 122.047 49.1422 122.047 55.546V60.454C122.047 66.8578 120.665 70.5092 118.071 73.7685C115.476 77.0277 111.669 79.5856 106.818 81.3287C101.967 83.0717 96.5325 84 87.0013 84H40.9987C31.4675 84 26.0328 83.0717 21.1818 81.3287C16.3308 79.5856 12.5237 77.0277 9.92937 73.7685C7.33503 70.5092 5.95344 66.8578 5.95344 60.454V55.546C5.95344 49.1422 7.33503 45.4908 9.92937 42.2315C12.5237 38.9723 16.3308 36.4144 21.1818 34.6713C26.0328 32.9283 31.4675 32 40.9987 32H87.0013Z" fill="#00B578"/>
<path opacity="0.1" fill-rule="evenodd" clip-rule="evenodd" d="M90.8564 32H35.1438C24.3144 32 20.3874 32.6498 16.4284 33.8699C12.4693 35.0901 9.36227 36.8806 7.24495 39.1621C5.12763 41.4436 4.00007 43.7066 4.00007 49.9472V66.0528C4.00007 72.2934 5.12763 74.5564 7.24495 76.8379C9.36227 79.1194 12.4693 80.9099 16.4284 82.1301C20.3874 83.3502 24.3144 84 35.1438 84H90.8564C101.686 84 105.613 83.3502 109.572 82.1301C113.531 80.9099 116.638 79.1194 118.755 76.8379C120.873 74.5564 122 72.2934 122 66.0528V49.9472C122 43.7066 120.873 41.4436 118.755 39.1621C116.638 36.8806 113.531 35.0901 109.572 33.8699C105.613 32.6498 101.686 32 90.8564 32Z" fill="#00B578"/>
<path fill-rule="evenodd" clip-rule="evenodd" d="M77.9705 100.744V89H90.9999L77.9705 100.744Z" fill="#919191"/>
<path fill-rule="evenodd" clip-rule="evenodd" d="M116 8C113.791 8 112 6.20914 112 4C112 1.79086 113.791 0 116 0C118.209 0 120 1.79086 120 4C120 6.20914 118.209 8 116 8ZM97 21C95.8954 21 95 20.1046 95 19C95 17.8954 95.8954 17 97 17C98.1045 17 99 17.8954 99 19C99 20.1046 98.1045 21 97 21ZM134 24.5C134 28.6421 137.358 32 141.5 32C145.642 32 149 28.6421 149 24.5C149 20.3579 145.642 17 141.5 17C137.358 17 134 20.3579 134 24.5Z" fill="#919191"/>
</svg>
