<svg width="213" height="101" viewBox="0 0 213 101" fill="none" xmlns="http://www.w3.org/2000/svg">
<path fill-rule="evenodd" clip-rule="evenodd" d="M62.9087 27C45.9596 27 36.1427 28.1139 27.4109 30.2056C18.6791 32.2973 11.8263 35.3667 7.15654 39.2779C2.48672 43.189 -0.000132084 47.5861 -0.000132084 55.1779V60.8221C-0.000132084 68.4139 2.48672 72.811 7.15654 76.7221C11.8263 80.6333 18.6791 83.7027 27.4109 85.7944C36.1427 87.8861 45.9596 89 62.9087 89H129.091C146.04 89 155.857 87.8861 164.589 85.7944C173.321 83.7027 180.173 80.6333 184.843 76.7221C189.513 72.811 192 68.4139 192 60.8221V55.1779C192 47.5861 189.513 43.189 184.843 39.2779C180.173 35.3667 173.321 32.2973 164.589 30.2056C155.857 28.1139 146.04 27 129.091 27H62.9087ZM130.502 32C144.799 32 152.951 32.9283 160.227 34.6713C167.504 36.4144 173.214 38.9723 177.106 42.2315C180.997 45.4908 183.07 49.1422 183.07 55.546V60.454C183.07 66.8578 180.997 70.5092 177.106 73.7685C173.214 77.0277 167.504 79.5856 160.227 81.3287C152.951 83.0717 144.799 84 130.502 84H61.498C47.2011 84 39.0491 83.0717 31.7726 81.3287C24.4961 79.5856 18.7855 77.0277 14.894 73.7685C11.0025 70.5092 8.9301 66.8578 8.9301 60.454V55.546C8.9301 49.1422 11.0025 45.4908 14.894 42.2315C18.7855 38.9723 24.4961 36.4144 31.7726 34.6713C39.0491 32.9283 47.2011 32 61.498 32H130.502Z" fill="#00B578"/>
<path opacity="0.1" fill-rule="evenodd" clip-rule="evenodd" d="M138.757 32H54.2432C37.8156 32 31.8586 32.6498 25.8529 33.8699C19.8473 35.0901 15.134 36.8806 11.9221 39.1621C8.71027 41.4436 6.99981 43.7066 6.99981 49.9472V66.0528C6.99981 72.2934 8.71027 74.5564 11.9221 76.8379C15.134 79.1194 19.8473 80.9099 25.8529 82.1301C31.8586 83.3502 37.8156 84 54.2432 84H138.757C155.184 84 161.141 83.3502 167.147 82.1301C173.152 80.9099 177.866 79.1194 181.078 76.8379C184.289 74.5564 186 72.2934 186 66.0528V49.9472C186 43.7066 184.289 41.4436 181.078 39.1621C177.866 36.8806 173.152 35.0901 167.147 33.8699C161.141 32.6498 155.184 32 138.757 32Z" fill="#00B578"/>
<path fill-rule="evenodd" clip-rule="evenodd" d="M129.97 100.744V89H143L129.97 100.744Z" fill="#919191"/>
<path fill-rule="evenodd" clip-rule="evenodd" d="M180 8C177.791 8 176 6.20914 176 4C176 1.79086 177.791 0 180 0C182.209 0 184 1.79086 184 4C184 6.20914 182.209 8 180 8ZM161 21C159.895 21 159 20.1046 159 19C159 17.8954 159.895 17 161 17C162.105 17 163 17.8954 163 19C163 20.1046 162.105 21 161 21ZM198 24.5C198 28.6421 201.358 32 205.5 32C209.642 32 213 28.6421 213 24.5C213 20.3579 209.642 17 205.5 17C201.358 17 198 20.3579 198 24.5Z" fill="#919191"/>
</svg>
