<svg width="106" height="96" viewBox="0 0 106 96" fill="none" xmlns="http://www.w3.org/2000/svg">
<path fill-rule="evenodd" clip-rule="evenodd" d="M78.0854 22C85.6062 22 89.9623 23.1139 93.8369 25.2056C97.7114 27.2973 100.752 30.3667 102.824 34.2779C104.896 38.189 106 42.5861 106 50.1779V55.8221C106 63.4139 104.896 67.811 102.824 71.7221C100.752 75.6333 97.7114 78.7027 93.8369 80.7944C89.9623 82.8861 85.6062 84 78.0854 84H48.7183C41.1975 84 36.8414 82.8861 32.9668 80.7944C29.0923 78.7027 26.0515 75.6333 23.9793 71.7221C21.9072 67.811 20.8037 63.4139 20.8037 55.8221V50.1779C20.8037 42.5861 21.9072 38.189 23.9793 34.2779C26.0515 30.3667 29.0923 27.2973 32.9668 25.2056C36.8414 23.1139 41.1975 22 48.7183 22H78.0854ZM48.0923 27C41.7484 27 38.131 27.9283 34.9022 29.6713C31.6735 31.4144 29.1395 33.9723 27.4127 37.2315C25.6859 40.4908 24.7663 44.1422 24.7663 50.546V55.454C24.7663 61.8578 25.6859 65.5092 27.4127 68.7685C29.1395 72.0277 31.6735 74.5856 34.9022 76.3287C38.131 78.0717 41.7484 79 48.0923 79H78.7114C85.0553 79 88.6726 78.0717 91.9014 76.3287C95.1302 74.5856 97.6642 72.0277 99.391 68.7685C101.118 65.5092 102.037 61.8578 102.037 55.454V50.546C102.037 44.1422 101.118 40.4908 99.391 37.2315C97.6642 33.9723 95.1302 31.4144 91.9014 29.6713C88.6726 27.9283 85.0553 27 78.7114 27H48.0923Z" fill="#FC9A26"/>
<path opacity="0.1" fill-rule="evenodd" clip-rule="evenodd" d="M25.4288 0L57.7861 0C64.4888 0 68.5138 1.02108 72.0654 2.93846C75.6171 4.85584 78.4045 7.66951 80.304 11.2547C82.2034 14.8399 83.215 18.9028 83.215 25.6687V30.3313C83.215 37.0972 82.2034 41.1601 80.304 44.7453C78.4045 48.3305 75.6171 51.1442 72.0654 53.0615C68.5138 54.9789 64.4888 56 57.7861 56H25.4288C18.7262 56 14.7012 54.9789 11.1495 53.0615C7.59783 51.1442 4.81046 48.3305 2.911 44.7453C1.01154 41.1601 0 37.0972 0 30.3313L0 25.6687C0 18.9028 1.01154 14.8399 2.911 11.2547C4.81046 7.66951 7.59783 4.85584 11.1495 2.93846C14.7012 1.02108 18.7262 0 25.4288 0Z" fill="#BA7617"/>
<path fill-rule="evenodd" clip-rule="evenodd" d="M56.4964 95.7442V84H43.5887L56.4964 95.7442Z" fill="#594545"/>
</svg>
