<svg width="158" height="96" viewBox="0 0 158 96" fill="none" xmlns="http://www.w3.org/2000/svg">
<path fill-rule="evenodd" clip-rule="evenodd" d="M116.391 22C127.602 22 134.095 23.1139 139.87 25.2056C145.645 27.2973 150.178 30.3667 153.266 34.2779C156.355 38.189 158 42.5861 158 50.1779V55.8221C158 63.4139 156.355 67.811 153.266 71.7221C150.178 75.6333 145.645 78.7027 139.87 80.7944C134.095 82.8861 127.602 84 116.391 84H72.6178C61.4075 84 54.9145 82.8861 49.1392 80.7944C43.3639 78.7027 38.8314 75.6333 35.7428 71.7221C32.6541 67.811 31.0093 63.4139 31.0093 55.8221V50.1779C31.0093 42.5861 32.6541 38.189 35.7428 34.2779C38.8314 30.3667 43.3639 27.2973 49.1392 25.2056C54.9145 23.1139 61.4075 22 72.6178 22H116.391ZM71.6847 27C62.2286 27 56.8368 27.9283 52.0241 29.6713C47.2113 31.4144 43.4343 33.9723 40.8604 37.2315C38.2865 40.4908 36.9158 44.1422 36.9158 50.546V55.454C36.9158 61.8578 38.2865 65.5092 40.8604 68.7685C43.4343 72.0277 47.2113 74.5856 52.0241 76.3287C56.8368 78.0717 62.2286 79 71.6847 79H117.324C126.781 79 132.172 78.0717 136.985 76.3287C141.798 74.5856 145.575 72.0277 148.149 68.7685C150.723 65.5092 152.093 61.8578 152.093 55.454V50.546C152.093 44.1422 150.723 40.4908 148.149 37.2315C145.575 33.9723 141.798 31.4144 136.985 29.6713C132.172 27.9283 126.781 27 117.324 27H71.6847Z" fill="#FC9A26"/>
<path opacity="0.1" fill-rule="evenodd" clip-rule="evenodd" d="M37.9033 0L86.134 0C96.1248 0 102.124 1.02108 107.418 2.93846C112.712 4.85584 116.867 7.66951 119.698 11.2547C122.53 14.8399 124.037 18.9028 124.037 25.6687V30.3313C124.037 37.0972 122.53 41.1601 119.698 44.7453C116.867 48.3305 112.712 51.1442 107.418 53.0615C102.124 54.9789 96.1248 56 86.134 56H37.9033C27.9126 56 21.9131 54.9789 16.6191 53.0615C11.3251 51.1442 7.1703 48.3305 4.33903 44.7453C1.50777 41.1601 0 37.0972 0 30.3313L0 25.6687C0 18.9028 1.50777 14.8399 4.33903 11.2547C7.1703 7.66951 11.3251 4.85584 16.6191 2.93846C21.9131 1.02108 27.9126 0 37.9033 0Z" fill="#BA7617"/>
<path fill-rule="evenodd" clip-rule="evenodd" d="M84.2116 95.7442V84H64.9719L84.2116 95.7442Z" fill="#594545"/>
</svg>
