<svg width="199" height="96" viewBox="0 0 199 96" fill="none" xmlns="http://www.w3.org/2000/svg">
<path fill-rule="evenodd" clip-rule="evenodd" d="M140.678 22C156.391 22 165.493 23.1139 173.588 25.2056C181.683 27.2973 188.036 30.3667 192.365 34.2779C196.694 38.189 199 42.5861 199 50.1779V55.8221C199 63.4139 196.694 67.811 192.365 71.7221C188.036 75.6333 181.683 78.7027 173.588 80.7944C165.493 82.8861 156.391 84 140.678 84H79.3217C63.6085 84 54.5074 82.8861 46.4123 80.7944C38.3172 78.7027 31.9641 75.6333 27.6348 71.7221C23.3055 67.811 21 63.4139 21 55.8221V50.1779C21 42.5861 23.3055 38.189 27.6348 34.2779C31.9641 30.3667 38.3172 27.2973 46.4123 25.2056C54.5074 23.1139 63.6085 22 79.3217 22H140.678ZM78.0139 27C64.7595 27 57.2019 27.9283 50.456 29.6713C43.7101 31.4144 38.4158 33.9723 34.8081 37.2315C31.2003 40.4908 29.2791 44.1422 29.2791 50.546V55.454C29.2791 61.8578 31.2003 65.5092 34.8081 68.7685C38.4158 72.0277 43.7101 74.5856 50.456 76.3287C57.2019 78.0717 64.7595 79 78.0139 79H141.986C155.24 79 162.798 78.0717 169.544 76.3287C176.29 74.5856 181.584 72.0277 185.192 68.7685C188.8 65.5092 190.721 61.8578 190.721 55.454V50.546C190.721 44.1422 188.8 40.4908 185.192 37.2315C181.584 33.9723 176.29 31.4144 169.544 29.6713C162.798 27.9283 155.24 27 141.986 27H78.0139Z" fill="#FC9A26"/>
<path opacity="0.1" fill-rule="evenodd" clip-rule="evenodd" d="M52.2542 0L118.746 0C132.519 0 140.79 1.02108 148.089 2.93846C155.387 4.85584 161.115 7.66951 165.018 11.2547C168.921 14.8399 171 18.9028 171 25.6687V30.3313C171 37.0972 168.921 41.1601 165.018 44.7453C161.115 48.3305 155.387 51.1442 148.089 53.0615C140.79 54.9789 132.519 56 118.746 56H52.2542C38.4808 56 30.2098 54.9789 22.9113 53.0615C15.6129 51.1442 9.8851 48.3305 5.98186 44.7453C2.07863 41.1601 0 37.0972 0 30.3313L0 25.6687C0 18.9028 2.07863 14.8399 5.98186 11.2547C9.8851 7.66951 15.6129 4.85584 22.9113 2.93846C30.2098 1.02108 38.4808 0 52.2542 0Z" fill="#BA7617"/>
<path fill-rule="evenodd" clip-rule="evenodd" d="M96.0001 95.7442V84H83.0925L96.0001 95.7442Z" fill="#594545"/>
</svg>
