<svg width="113" height="101" viewBox="0 0 113 101" fill="none" xmlns="http://www.w3.org/2000/svg">
<path fill-rule="evenodd" clip-rule="evenodd" d="M30.5455 27C22.316 27 17.5494 28.1139 13.3097 30.2056C9.07 32.2973 5.74266 35.3667 3.47524 39.2779C1.20783 43.189 0.000348091 47.5861 0.000348091 55.1779V60.8221C0.000348091 68.4139 1.20783 72.811 3.47524 76.7221C5.74266 80.6333 9.07 83.7027 13.3097 85.7944C17.5494 87.8861 22.316 89 30.5455 89H62.6801C70.9097 89 75.6763 87.8861 79.916 85.7944C84.1557 83.7027 87.483 80.6333 89.7504 76.7221C92.0179 72.811 93.2253 68.4139 93.2253 60.8221V55.1779C93.2253 47.5861 92.0179 43.189 89.7504 39.2779C87.483 35.3667 84.1557 32.2973 79.916 30.2056C75.6763 28.1139 70.9097 27 62.6801 27H30.5455Z" fill="url(#paint0_linear_451_286)"/>
<path fill-rule="evenodd" clip-rule="evenodd" d="M59.2976 100.744V89H71.5669L59.2976 100.744Z" fill="#919191"/>
<path fill-rule="evenodd" clip-rule="evenodd" d="M81.925 0C79.8447 0 78.1583 1.79086 78.1583 4C78.1583 6.20914 79.8447 8 81.925 8C84.0053 8 85.6917 6.20914 85.6917 4C85.6917 1.79086 84.0053 0 81.925 0ZM81.925 2C82.9651 2 83.8083 2.89543 83.8083 4C83.8083 5.10457 82.9651 6 81.925 6C80.8848 6 80.0417 5.10457 80.0417 4C80.0417 2.89543 80.8848 2 81.925 2Z" fill="#1F72C4"/>
<path d="M64.0334 21C62.9933 21 62.1501 20.1046 62.1501 19C62.1501 17.8954 62.9933 17 64.0334 17C65.0736 17 65.9167 17.8954 65.9167 19C65.9167 20.1046 65.0736 21 64.0334 21Z" fill="#1F72C4"/>
<path fill-rule="evenodd" clip-rule="evenodd" d="M105.938 17C102.037 17 98.875 20.3579 98.875 24.5C98.875 28.6421 102.037 32 105.938 32C109.838 32 113 28.6421 113 24.5C113 20.3579 109.838 17 105.938 17ZM105.938 20C108.278 20 110.175 22.0147 110.175 24.5C110.175 26.9853 108.278 29 105.938 29C103.597 29 101.7 26.9853 101.7 24.5C101.7 22.0147 103.597 20 105.938 20Z" fill="#919191"/>
<defs>
<linearGradient id="paint0_linear_451_286" x1="93.2253" y1="58" x2="0.000343323" y2="58" gradientUnits="userSpaceOnUse">
<stop stop-color="#C3F3F7"/>
<stop offset="1" stop-color="#1F72C4"/>
</linearGradient>
</defs>
</svg>
