<svg width="145" height="101" viewBox="0 0 145 101" fill="none" xmlns="http://www.w3.org/2000/svg">
<path fill-rule="evenodd" clip-rule="evenodd" d="M40.6289 27C29.6826 27 23.3425 28.1139 17.7032 30.2056C12.0639 32.2973 7.63818 35.3667 4.62226 39.2779C1.60634 43.189 0.000246525 47.5861 0.000246525 55.1779V60.8221C0.000246525 68.4139 1.60634 72.811 4.62226 76.7221C7.63818 80.6333 12.0639 83.7027 17.7032 85.7944C23.3425 87.8861 29.6826 89 40.6289 89H83.3716C94.3179 89 100.658 87.8861 106.297 85.7944C111.937 83.7027 116.362 80.6333 119.378 76.7221C122.394 72.811 124 68.4139 124 60.8221V55.1779C124 47.5861 122.394 43.189 119.378 39.2779C116.362 35.3667 111.937 32.2973 106.297 30.2056C100.658 28.1139 94.3179 27 83.3716 27H40.6289Z" fill="url(#paint0_linear_451_292)"/>
<path fill-rule="evenodd" clip-rule="evenodd" d="M87.9706 100.744V89H101L87.9706 100.744Z" fill="#919191"/>
<path fill-rule="evenodd" clip-rule="evenodd" d="M112 0C109.791 0 108 1.79086 108 4C108 6.20914 109.791 8 112 8C114.209 8 116 6.20914 116 4C116 1.79086 114.209 0 112 0ZM112 2C113.105 2 114 2.89543 114 4C114 5.10457 113.105 6 112 6C110.895 6 110 5.10457 110 4C110 2.89543 110.895 2 112 2Z" fill="#1F72C4"/>
<path d="M93 21C91.8954 21 91 20.1046 91 19C91 17.8954 91.8954 17 93 17C94.1046 17 95 17.8954 95 19C95 20.1046 94.1046 21 93 21Z" fill="#1F72C4"/>
<path fill-rule="evenodd" clip-rule="evenodd" d="M137.5 17C133.358 17 130 20.3579 130 24.5C130 28.6421 133.358 32 137.5 32C141.642 32 145 28.6421 145 24.5C145 20.3579 141.642 17 137.5 17ZM137.5 20C139.985 20 142 22.0147 142 24.5C142 26.9853 139.985 29 137.5 29C135.015 29 133 26.9853 133 24.5C133 22.0147 135.015 20 137.5 20Z" fill="#919191"/>
<defs>
<linearGradient id="paint0_linear_451_292" x1="124" y1="58" x2="0.000244141" y2="58" gradientUnits="userSpaceOnUse">
<stop stop-color="#C3F3F7"/>
<stop offset="1" stop-color="#1F72C4"/>
</linearGradient>
</defs>
</svg>
