<svg width="212" height="101" viewBox="0 0 212 101" fill="none" xmlns="http://www.w3.org/2000/svg">
<path fill-rule="evenodd" clip-rule="evenodd" d="M61.1265 27C44.6576 27 35.1188 28.1139 26.6344 30.2056C18.1501 32.2973 11.4915 35.3667 6.95396 39.2779C2.41646 43.189 6.7234e-05 47.5861 6.7234e-05 55.1779V60.8221C6.7234e-05 68.4139 2.41646 72.811 6.95396 76.7221C11.4915 80.6333 18.1501 83.7027 26.6344 85.7944C35.1188 87.8861 44.6576 89 61.1265 89H125.434C141.903 89 151.441 87.8861 159.926 85.7944C168.41 83.7027 175.069 80.6333 179.606 76.7221C184.144 72.811 186.56 68.4139 186.56 60.8221V55.1779C186.56 47.5861 184.144 43.189 179.606 39.2779C175.069 35.3667 168.41 32.2973 159.926 30.2056C151.441 28.1139 141.903 27 125.434 27H61.1265Z" fill="url(#paint0_linear_451_298)"/>
<path fill-rule="evenodd" clip-rule="evenodd" d="M116.175 100.744V89H131.959L116.175 100.744Z" fill="#919191"/>
<path fill-rule="evenodd" clip-rule="evenodd" d="M172.023 0C169.347 0 167.177 1.79086 167.177 4C167.177 6.20914 169.347 8 172.023 8C174.699 8 176.869 6.20914 176.869 4C176.869 1.79086 174.699 0 172.023 0ZM172.023 2C173.361 2 174.446 2.89543 174.446 4C174.446 5.10457 173.361 6 172.023 6C170.685 6 169.6 5.10457 169.6 4C169.6 2.89543 170.685 2 172.023 2Z" fill="#1F72C4"/>
<path d="M149.006 21C147.668 21 146.583 20.1046 146.583 19C146.583 17.8954 147.668 17 149.006 17C150.344 17 151.428 17.8954 151.428 19C151.428 20.1046 150.344 21 149.006 21Z" fill="#1F72C4"/>
<path fill-rule="evenodd" clip-rule="evenodd" d="M202.914 17C197.896 17 193.829 20.3579 193.829 24.5C193.829 28.6421 197.896 32 202.914 32C207.932 32 212 28.6421 212 24.5C212 20.3579 207.932 17 202.914 17ZM202.914 20C205.925 20 208.366 22.0147 208.366 24.5C208.366 26.9853 205.925 29 202.914 29C199.904 29 197.463 26.9853 197.463 24.5C197.463 22.0147 199.904 20 202.914 20Z" fill="#919191"/>
<defs>
<linearGradient id="paint0_linear_451_298" x1="186.56" y1="58" x2="6.10352e-05" y2="58" gradientUnits="userSpaceOnUse">
<stop stop-color="#C3F3F7"/>
<stop offset="1" stop-color="#1F72C4"/>
</linearGradient>
</defs>
</svg>
