<svg width="103" height="99" viewBox="0 0 103 99" fill="none" xmlns="http://www.w3.org/2000/svg">
<path opacity="0.1" fill-rule="evenodd" clip-rule="evenodd" d="M78.4509 0L47.2131 0C40.7423 0 36.8566 1.02108 33.4278 2.93846C29.999 4.85584 27.308 7.66951 25.4743 11.2547C23.6405 14.8399 22.664 18.9028 22.664 25.6687V30.3313C22.664 37.0972 23.6405 41.1601 25.4743 44.7453C27.308 48.3305 29.999 51.1442 33.4278 53.0615C36.8566 54.9789 40.7423 56 47.2131 56H78.4509C84.9217 56 88.8074 54.9789 92.2362 53.0615C95.665 51.1442 98.356 48.3305 100.19 44.7453C102.023 41.1601 103 37.0972 103 30.3313V25.6687C103 18.9028 102.023 14.8399 100.19 11.2547C98.356 7.66951 95.665 4.85584 92.2362 2.93846C88.8074 1.02108 84.9217 0 78.4509 0Z" fill="#DE4368"/>
<path fill-rule="evenodd" clip-rule="evenodd" d="M27.6161 25C20.3554 25 16.1501 26.1139 12.4095 28.2056C8.66902 30.2973 5.73344 33.3667 3.73299 37.2779C1.73254 41.189 0.667227 45.5861 0.667227 53.1779V58.8221C0.667227 66.4139 1.73254 70.811 3.73299 74.7221C5.73344 78.6333 8.66902 81.7027 12.4095 83.7944C16.1501 85.8861 20.3554 87 27.6161 87H55.9672C63.2278 87 67.4332 85.8861 71.1737 83.7944C74.9142 81.7027 77.8498 78.6333 79.8502 74.7221C81.8507 70.811 82.916 66.4139 82.916 58.8221V53.1779C82.916 45.5861 81.8507 41.189 79.8502 37.2779C77.8498 33.3667 74.9142 30.2973 71.1737 28.2056C67.4332 26.1139 63.2278 25 55.9672 25H27.6161Z" fill="url(#paint0_linear_451_304)"/>
<path fill-rule="evenodd" clip-rule="evenodd" d="M48.4584 98.7442V87H60.9194L48.4584 98.7442Z" fill="url(#paint1_linear_451_304)"/>
<defs>
<linearGradient id="paint0_linear_451_304" x1="82.916" y1="56" x2="0.667229" y2="56" gradientUnits="userSpaceOnUse">
<stop stop-color="#FECAB2"/>
<stop offset="1" stop-color="#CE3D4F"/>
</linearGradient>
<linearGradient id="paint1_linear_451_304" x1="60.9194" y1="92.8721" x2="48.4584" y2="92.8721" gradientUnits="userSpaceOnUse">
<stop stop-color="#FECAB2"/>
<stop offset="1" stop-color="#CE3D4F"/>
</linearGradient>
</defs>
</svg>
