<svg width="154" height="99" viewBox="0 0 154 99" fill="none" xmlns="http://www.w3.org/2000/svg">
<path opacity="0.1" fill-rule="evenodd" clip-rule="evenodd" d="M116.675 0L69.8186 0C60.1125 0 54.2839 1.02108 49.1407 2.93846C43.9975 4.85584 39.9611 7.66951 37.2104 11.2547C34.4598 14.8399 32.995 18.9028 32.995 25.6687V30.3313C32.995 37.0972 34.4598 41.1601 37.2104 44.7453C39.9611 48.3305 43.9975 51.1442 49.1407 53.0615C54.2839 54.9789 60.1125 56 69.8186 56H116.675C126.382 56 132.21 54.9789 137.353 53.0615C142.497 51.1442 146.533 48.3305 149.284 44.7453C152.034 41.1601 153.499 37.0972 153.499 30.3313V25.6687C153.499 18.9028 152.034 14.8399 149.284 11.2547C146.533 7.66951 142.497 4.85584 137.353 2.93846C132.21 1.02108 126.382 0 116.675 0Z" fill="#DE4368"/>
<path fill-rule="evenodd" clip-rule="evenodd" d="M40.4227 25C29.5317 25 23.2236 26.1139 17.6129 28.2056C12.0021 30.2973 7.59872 33.3667 4.59805 37.2779C1.59737 41.189 -0.000601053 45.5861 -0.000601053 53.1779V58.8221C-0.000601053 66.4139 1.59737 70.811 4.59805 74.7221C7.59872 78.6333 12.0021 81.7027 17.6129 83.7944C23.2236 85.8861 29.5317 87 40.4227 87H82.9493C93.8403 87 100.148 85.8861 105.759 83.7944C111.37 81.7027 115.773 78.6333 118.774 74.7221C121.775 70.811 123.373 66.4139 123.373 58.8221V53.1779C123.373 45.5861 121.775 41.189 118.774 37.2779C115.773 33.3667 111.37 30.2973 105.759 28.2056C100.148 26.1139 93.8403 25 82.9493 25H40.4227Z" fill="url(#paint0_linear_451_308)"/>
<path fill-rule="evenodd" clip-rule="evenodd" d="M71.6863 98.7442V87H90.3779L71.6863 98.7442Z" fill="url(#paint1_linear_451_308)"/>
<defs>
<linearGradient id="paint0_linear_451_308" x1="123.373" y1="56" x2="-0.000602722" y2="56" gradientUnits="userSpaceOnUse">
<stop stop-color="#FECAB2"/>
<stop offset="1" stop-color="#CE3D4F"/>
</linearGradient>
<linearGradient id="paint1_linear_451_308" x1="90.3779" y1="92.8721" x2="71.6863" y2="92.8721" gradientUnits="userSpaceOnUse">
<stop stop-color="#FECAB2"/>
<stop offset="1" stop-color="#CE3D4F"/>
</linearGradient>
</defs>
</svg>
