<svg width="210" height="99" viewBox="0 0 210 99" fill="none" xmlns="http://www.w3.org/2000/svg">
<path opacity="0.1" fill-rule="evenodd" clip-rule="evenodd" d="M158.027 0L92.823 0C79.3164 0 71.2055 1.02108 64.0485 2.93846C56.8914 4.85584 51.2745 7.66951 47.4469 11.2547C43.6192 14.8399 41.5809 18.9028 41.5809 25.6687V30.3313C41.5809 37.0972 43.6192 41.1601 47.4469 44.7453C51.2745 48.3305 56.8914 51.1442 64.0485 53.0615C71.2055 54.9789 79.3164 56 92.823 56H158.027C171.534 56 179.644 54.9789 186.801 53.0615C193.958 51.1442 199.575 48.3305 203.403 44.7453C207.231 41.1601 209.269 37.0972 209.269 30.3313V25.6687C209.269 18.9028 207.231 14.8399 203.403 11.2547C199.575 7.66951 193.958 4.85584 186.801 2.93846C179.644 1.02108 171.534 0 158.027 0Z" fill="#DE4368"/>
<path fill-rule="evenodd" clip-rule="evenodd" d="M59.1961 25C43.4063 25 34.2608 26.1139 26.1263 28.2056C17.9917 30.2973 11.6077 33.3667 7.25727 37.2779C2.90687 41.189 0.590116 45.5861 0.590116 53.1779V58.8221C0.590116 66.4139 2.90687 70.811 7.25727 74.7221C11.6077 78.6333 17.9917 81.7027 26.1263 83.7944C34.2608 85.8861 43.4063 87 59.1961 87H120.852C136.641 87 145.787 85.8861 153.921 83.7944C162.056 81.7027 168.44 78.6333 172.79 74.7221C177.141 70.811 179.458 66.4139 179.458 58.8221V53.1779C179.458 45.5861 177.141 41.189 172.79 37.2779C168.44 33.3667 162.056 30.2973 153.921 28.2056C145.787 26.1139 136.641 25 120.852 25H59.1961Z" fill="url(#paint0_linear_451_312)"/>
<path fill-rule="evenodd" clip-rule="evenodd" d="M111.471 98.7442V87H129.772L111.471 98.7442Z" fill="url(#paint1_linear_451_312)"/>
<defs>
<linearGradient id="paint0_linear_451_312" x1="179.458" y1="56" x2="0.590118" y2="56" gradientUnits="userSpaceOnUse">
<stop stop-color="#FECAB2"/>
<stop offset="1" stop-color="#CE3D4F"/>
</linearGradient>
<linearGradient id="paint1_linear_451_312" x1="129.772" y1="92.8721" x2="111.471" y2="92.8721" gradientUnits="userSpaceOnUse">
<stop stop-color="#FECAB2"/>
<stop offset="1" stop-color="#CE3D4F"/>
</linearGradient>
</defs>
</svg>
