<svg width="106" height="96" viewBox="0 0 106 96" fill="none" xmlns="http://www.w3.org/2000/svg">
<path fill-rule="evenodd" clip-rule="evenodd" d="M27.9146 22C20.3938 22 16.0377 23.1139 12.1631 25.2056C8.28858 27.2973 5.2478 30.3667 3.17566 34.2779C1.10352 38.189 3.05176e-05 42.5861 3.05176e-05 50.1779V55.8221C3.05176e-05 63.4139 1.10352 67.811 3.17566 71.7221C5.2478 75.6333 8.28858 78.7027 12.1631 80.7944C16.0377 82.8861 20.3938 84 27.9146 84H57.2817C64.8025 84 69.1586 82.8861 73.0332 80.7944C76.9077 78.7027 79.9485 75.6333 82.0207 71.7221C84.0928 67.811 85.1963 63.4139 85.1963 55.8221V50.1779C85.1963 42.5861 84.0928 38.189 82.0207 34.2779C79.9485 30.3667 76.9077 27.2973 73.0332 25.2056C69.1586 23.1139 64.8025 22 57.2817 22H27.9146ZM57.9077 27C64.2516 27 67.869 27.9283 71.0977 29.6713C74.3265 31.4144 76.8605 33.9723 78.5873 37.2315C80.3141 40.4908 81.2337 44.1422 81.2337 50.546V55.454C81.2337 61.8578 80.3141 65.5092 78.5873 68.7685C76.8605 72.0277 74.3265 74.5856 71.0977 76.3287C67.869 78.0717 64.2516 79 57.9077 79H27.2886C20.9447 79 17.3274 78.0717 14.0986 76.3287C10.8698 74.5856 8.33578 72.0277 6.60901 68.7685C4.88223 65.5092 3.96265 61.8578 3.96265 55.454V50.546C3.96265 44.1422 4.88223 40.4908 6.60901 37.2315C8.33578 33.9723 10.8698 31.4144 14.0986 29.6713C17.3274 27.9283 20.9447 27 27.2886 27H57.9077Z" fill="#FC9A26"/>
<path opacity="0.1" fill-rule="evenodd" clip-rule="evenodd" d="M80.5712 0L48.2139 0C41.5112 0 37.4862 1.02108 33.9346 2.93846C30.3829 4.85584 27.5955 7.66951 25.696 11.2547C23.7966 14.8399 22.785 18.9028 22.785 25.6687V30.3313C22.785 37.0972 23.7966 41.1601 25.696 44.7453C27.5955 48.3305 30.3829 51.1442 33.9346 53.0615C37.4862 54.9789 41.5112 56 48.2139 56H80.5712C87.2738 56 91.2988 54.9789 94.8505 53.0615C98.4022 51.1442 101.19 48.3305 103.089 44.7453C104.988 41.1601 106 37.0972 106 30.3313V25.6687C106 18.9028 104.988 14.8399 103.089 11.2547C101.19 7.66951 98.4022 4.85584 94.8505 2.93846C91.2988 1.02108 87.2738 0 80.5712 0Z" fill="#BA7617"/>
<path fill-rule="evenodd" clip-rule="evenodd" d="M49.5036 95.7442V84H62.4113L49.5036 95.7442Z" fill="#594545"/>
</svg>
