<svg width="102" height="99" viewBox="0 0 102 99" fill="none" xmlns="http://www.w3.org/2000/svg">
<path opacity="0.1" fill-rule="evenodd" clip-rule="evenodd" d="M24.4692 0L55.6055 0C62.0552 0 65.9283 1.02108 69.346 2.93846C72.7636 4.85584 75.4458 7.66951 77.2736 11.2547C79.1014 14.8399 80.0748 18.9028 80.0748 25.6687V30.3313C80.0748 37.0972 79.1014 41.1601 77.2736 44.7453C75.4458 48.3305 72.7636 51.1442 69.346 53.0615C65.9283 54.9789 62.0552 56 55.6055 56H24.4692C18.0195 56 14.1464 54.9789 10.7288 53.0615C7.31112 51.1442 4.62893 48.3305 2.80115 44.7453C0.973367 41.1601 0 37.0972 0 30.3313L0 25.6687C0 18.9028 0.973367 14.8399 2.80115 11.2547C4.62893 7.66951 7.31112 4.85584 10.7288 2.93846C14.1464 1.02108 18.0195 0 24.4692 0Z" fill="#DE4368"/>
<path fill-rule="evenodd" clip-rule="evenodd" d="M75.1387 25C82.3757 25 86.5674 26.1139 90.2957 28.2056C94.0241 30.2973 96.9501 33.3667 98.9441 37.2779C100.938 41.189 102 45.5861 102 53.1779V58.8221C102 66.4139 100.938 70.811 98.9441 74.7221C96.9501 78.6333 94.0241 81.7027 90.2957 83.7944C86.5674 85.8861 82.3757 87 75.1387 87H46.8798C39.6427 87 35.451 85.8861 31.7227 83.7944C27.9943 81.7027 25.0683 78.6333 23.0744 74.7221C21.0804 70.811 20.0186 66.4139 20.0186 58.8221V53.1779C20.0186 45.5861 21.0804 41.189 23.0744 37.2779C25.0683 33.3667 27.9943 30.2973 31.7227 28.2056C35.451 26.1139 39.6427 25 46.8798 25H75.1387Z" fill="url(#paint0_linear_437_158)"/>
<path fill-rule="evenodd" clip-rule="evenodd" d="M54.3646 98.7442V87H41.9441L54.3646 98.7442Z" fill="url(#paint1_linear_437_158)"/>
<defs>
<linearGradient id="paint0_linear_437_158" x1="20.0186" y1="56" x2="102" y2="56" gradientUnits="userSpaceOnUse">
<stop stop-color="#FECAB2"/>
<stop offset="1" stop-color="#CE3D4F"/>
</linearGradient>
<linearGradient id="paint1_linear_437_158" x1="41.9441" y1="92.8721" x2="54.3646" y2="92.8721" gradientUnits="userSpaceOnUse">
<stop stop-color="#FECAB2"/>
<stop offset="1" stop-color="#CE3D4F"/>
</linearGradient>
</defs>
</svg>
