<svg width="212" height="101" viewBox="0 0 212 101" fill="none" xmlns="http://www.w3.org/2000/svg">
<path fill-rule="evenodd" clip-rule="evenodd" d="M150.873 27C167.342 27 176.881 28.1139 185.366 30.2056C193.85 32.2973 200.509 35.3667 205.046 39.2779C209.584 43.189 212 47.5861 212 55.1779V60.8221C212 68.4139 209.584 72.811 205.046 76.7221C200.509 80.6333 193.85 83.7027 185.366 85.7944C176.881 87.8861 167.342 89 150.873 89H86.5664C70.0975 89 60.5587 87.8861 52.0743 85.7944C43.5899 83.7027 36.9313 80.6333 32.3938 76.7221C27.8563 72.811 25.4399 68.4139 25.4399 60.8221V55.1779C25.4399 47.5861 27.8563 43.189 32.3938 39.2779C36.9313 35.3667 43.5899 32.2973 52.0743 30.2056C60.5587 28.1139 70.0975 27 86.5664 27H150.873Z" fill="url(#paint0_linear_451_102)"/>
<path fill-rule="evenodd" clip-rule="evenodd" d="M95.8249 100.744V89H80.0408L95.8249 100.744Z" fill="#919191"/>
<path fill-rule="evenodd" clip-rule="evenodd" d="M39.9771 0C42.6533 0 44.8228 1.79086 44.8228 4C44.8228 6.20914 42.6533 8 39.9771 8C37.3008 8 35.1313 6.20914 35.1313 4C35.1313 1.79086 37.3008 0 39.9771 0ZM39.9771 2C38.639 2 37.5542 2.89543 37.5542 4C37.5542 5.10457 38.639 6 39.9771 6C41.3152 6 42.3999 5.10457 42.3999 4C42.3999 2.89543 41.3152 2 39.9771 2Z" fill="#1F72C4"/>
<path d="M62.9944 21C64.3325 21 65.4172 20.1046 65.4172 19C65.4172 17.8954 64.3325 17 62.9944 17C61.6563 17 60.5715 17.8954 60.5715 19C60.5715 20.1046 61.6563 21 62.9944 21Z" fill="#1F72C4"/>
<path fill-rule="evenodd" clip-rule="evenodd" d="M9.08571 17C14.1036 17 18.1714 20.3579 18.1714 24.5C18.1714 28.6421 14.1036 32 9.08571 32C4.06781 32 0 28.6421 0 24.5C0 20.3579 4.06781 17 9.08571 17ZM9.08571 20C6.07497 20 3.63429 22.0147 3.63429 24.5C3.63429 26.9853 6.07497 29 9.08571 29C12.0965 29 14.5371 26.9853 14.5371 24.5C14.5371 22.0147 12.0965 20 9.08571 20Z" fill="#919191"/>
<defs>
<linearGradient id="paint0_linear_451_102" x1="25.4399" y1="58" x2="212" y2="58" gradientUnits="userSpaceOnUse">
<stop stop-color="#C3F3F7"/>
<stop offset="1" stop-color="#1F72C4"/>
</linearGradient>
</defs>
</svg>
