<svg width="20" height="18" viewBox="0 0 20 18" fill="none" xmlns="http://www.w3.org/2000/svg">
<path fill-rule="evenodd" clip-rule="evenodd" d="M1.18162 1.9807C-0.393867 4.09812 -0.393874 7.08868 1.1816 9.20612L6.3157 16.1062C8.19309 18.6293 11.8069 18.6293 13.6843 16.1062L18.8184 9.20613C20.3939 7.08868 20.3939 4.09811 18.8184 1.98068L18.6809 1.80464C16.6181 -0.714663 12.509 -0.482842 10.1297 1.79563L10 1.92458L9.87029 1.79563C7.43695 -0.534626 3.19417 -0.724143 1.18162 1.9807ZM17.2138 3.17459C18.2621 4.58341 18.2621 6.6034 17.2138 8.01223L12.0797 14.9123C11.0021 16.3606 8.99791 16.3606 7.92025 14.9123L2.78617 8.01223C1.73794 6.60341 1.73794 4.5834 2.78618 3.17458C4.20165 1.27222 7.77893 1.77085 9.14071 4.05862C9.52842 4.70997 10.4716 4.70997 10.8593 4.05862C12.2211 1.77085 15.7983 1.27222 17.2138 3.17459Z" fill="#F5B544"/>
</svg>
