<svg width="55" height="55" viewBox="0 0 55 55" fill="none" xmlns="http://www.w3.org/2000/svg">
<path fill-rule="evenodd" clip-rule="evenodd" d="M19.7396 28.9088L14.6949 22.3392L22.63 19.9953L27.3067 13.1577L31.9834 19.9953L39.9184 22.3392L34.8737 28.9088L35.101 37.1949L27.3067 34.4177L19.5123 37.1949L19.7396 28.9088Z" fill="#F5B544"/>
<path fill-rule="evenodd" clip-rule="evenodd" d="M51.5044 31.4014L54.542 23.525C54.6686 23.1969 54.6252 22.8276 54.4263 22.5377C54.2274 22.2478 53.8983 22.0745 53.5468 22.0745H48.4255C48.9895 21.3151 49.1517 20.3292 48.8586 19.4274C48.5608 18.5118 47.8323 17.8024 46.9099 17.5299L36.0905 14.3342L29.7137 5.01085C29.1695 4.21533 28.2697 3.74023 27.3068 3.74023C26.3438 3.74023 25.4439 4.21522 24.8998 5.01085L18.523 14.3342L7.70367 17.5299C6.78132 17.8024 6.05268 18.5118 5.75498 19.4274C5.46186 20.3292 5.62399 21.3152 6.18794 22.0745H1.06666C0.715083 22.0745 0.386016 22.2479 0.187083 22.5377C-0.0117439 22.8276 -0.0551572 23.1969 0.0714561 23.525L3.109 31.4014L0.0714561 39.2778C-0.0551572 39.6059 -0.0117439 39.9752 0.187083 40.2651C0.386016 40.5551 0.715083 40.7283 1.06666 40.7283H12.8303L12.7853 42.3702C12.7588 43.3348 13.2088 44.2488 13.989 44.8152C14.7676 45.3806 15.7733 45.5252 16.6797 45.2024L23.3585 42.8227L21.248 48.7397H18.8358C18.2468 48.7397 17.7692 49.2172 17.7692 49.8064C17.7692 50.3955 18.2468 50.873 18.8358 50.873H35.7775C36.3665 50.873 36.8442 50.3955 36.8442 49.8064C36.8442 49.2172 36.3665 48.7397 35.7775 48.7397H33.3654L31.2561 42.8231L37.9338 45.2024C38.2523 45.3159 38.583 45.3716 38.9119 45.3716C39.5188 45.3716 40.1193 45.1818 40.6244 44.8152C41.4046 44.2488 41.8546 43.3348 41.8281 42.3702L41.7831 40.7283H53.5467C53.8982 40.7283 54.2273 40.555 54.4262 40.2651C54.6251 39.9752 54.6685 39.6059 54.5419 39.2778L51.5044 31.4014ZM49.6293 30.3347H42.0832L46.7878 24.2079H51.9922L49.6293 30.3347ZM7.82559 24.2079L12.5302 30.3347H4.9841L2.62132 24.2079H7.82559ZM2.62122 38.595L4.98399 32.4681H13.0568L12.8887 38.595H2.62122ZM31.1006 48.7397H23.5128L25.9532 41.8981L27.3067 41.4159L28.6616 41.8986L31.1006 48.7397ZM39.3711 43.0889C39.2707 43.1618 39 43.3175 38.6498 43.1929L27.6647 39.2788C27.549 39.2375 27.4278 39.2169 27.3068 39.2169C27.1856 39.2169 27.0645 39.2375 26.9488 39.2788L15.9637 43.1929C15.6137 43.3176 15.3427 43.1618 15.2424 43.0889C15.1414 43.0155 14.9075 42.8044 14.9179 42.4288L15.2384 30.7508C15.2451 30.5059 15.1673 30.2662 15.0182 30.0719L7.90836 20.8128C7.67967 20.5151 7.74506 20.206 7.78378 20.087C7.82228 19.9685 7.9505 19.6815 8.30794 19.5759L19.4912 16.2726C19.7266 16.2031 19.9309 16.0545 20.0694 15.8518L26.6606 6.21522C26.8716 5.90685 27.1827 5.87357 27.3068 5.87357C27.4308 5.87357 27.742 5.90685 27.9529 6.21522L34.5441 15.8518C34.6827 16.0544 34.8869 16.2031 35.1223 16.2726L46.3056 19.5759C46.663 19.6815 46.7912 19.9685 46.8298 20.087C46.8685 20.206 46.9339 20.5152 46.7052 20.8129L39.5955 30.0719C39.4464 30.2662 39.3685 30.5059 39.3754 30.7508L39.6959 42.4288C39.7059 42.8044 39.4721 43.0155 39.3711 43.0889ZM41.7246 38.595L41.5565 32.4681H49.6293L51.9921 38.595H41.7246Z" fill="#2772F0"/>
<path fill-rule="evenodd" clip-rule="evenodd" d="M29.1794 24.2672C29.1794 23.6781 28.7018 23.2006 28.1127 23.2006H26.5007C25.9117 23.2006 25.434 23.6781 25.434 24.2672C25.434 24.7664 25.777 25.1854 26.2401 25.3018V27.7037C25.7771 27.82 25.434 28.2391 25.434 28.7383C25.434 29.3274 25.9117 29.8049 26.5007 29.8049H28.1127C28.7018 29.8049 29.1794 29.3274 29.1794 28.7383C29.1794 28.2391 28.8365 27.8201 28.3733 27.7037V25.3018C28.8365 25.1854 29.1794 24.7664 29.1794 24.2672Z" fill="#2772F0"/>
</svg>
