<svg width="327" height="180" viewBox="0 0 327 180" fill="none" xmlns="http://www.w3.org/2000/svg">
<path d="M86.5479 41.7348C84.6612 43.5338 82.1383 44.9378 78.9792 45.947C75.864 46.9122 72.3978 47.3949 68.5805 47.3949C64.5439 47.3949 61.0996 46.8464 58.2476 45.7495C55.4395 44.6526 53.3115 43.1389 51.8636 41.2083C50.4595 39.2777 49.7575 37.062 49.7575 34.561C49.7575 31.7968 50.5692 29.4494 52.1927 27.5189C53.86 25.5883 56.0318 24.2501 58.7083 23.5042C56.5145 22.6705 54.8033 21.3542 53.5748 19.5553C52.3462 17.7125 51.732 15.5625 51.732 13.1055C51.732 10.78 52.3901 8.67394 53.7064 6.78726C55.0666 4.85669 57.0849 3.34296 59.7613 2.24605C62.4817 1.10526 65.7505 0.534865 69.5677 0.534865C72.3758 0.534865 75.0962 0.863938 77.7287 1.52208C80.4052 2.13635 82.6868 3.03582 84.5735 4.22048L83.0597 8.10355C79.0231 5.82198 74.5916 4.68119 69.7652 4.68119C65.5092 4.68119 62.2404 5.4929 59.9588 7.11633C57.7211 8.73976 56.6022 10.8458 56.6022 13.4345C56.6022 16.0232 57.5017 18.0196 59.3006 19.4237C61.1434 20.8277 63.7322 21.5297 67.0668 21.5297H78.5185V25.7419H66.8693C63.0959 25.7419 60.1124 26.4658 57.9185 27.9138C55.7247 29.3178 54.6278 31.4239 54.6278 34.232C54.6278 36.9962 55.8125 39.19 58.1818 40.8134C60.595 42.4369 64.127 43.2486 68.7779 43.2486C72.0248 43.2486 75.0523 42.7879 77.8604 41.8665C80.6685 40.9451 82.95 39.6726 84.7051 38.0492L86.5479 41.7348ZM112.881 47L101.89 32.5208L90.8336 47H85.5684L99.2578 29.23L86.2265 12.3815H91.4917L101.89 25.9393L112.289 12.3815H117.423L104.391 29.23L118.212 47H112.881ZM141.194 12.1182C144.44 12.1182 147.38 12.8641 150.013 14.3559C152.645 15.8039 154.708 17.8661 156.199 20.5425C157.691 23.219 158.437 26.2684 158.437 29.6907C158.437 33.157 157.691 36.2283 156.199 38.9048C154.708 41.5813 152.645 43.6654 150.013 45.1572C147.424 46.6051 144.484 47.3291 141.194 47.3291C138.385 47.3291 135.841 46.7587 133.559 45.6179C131.321 44.4332 129.479 42.722 128.031 40.4844V59.768H123.358V12.3815H127.833V19.2262C129.237 16.9446 131.08 15.1896 133.362 13.9611C135.687 12.7325 138.298 12.1182 141.194 12.1182ZM140.865 43.1828C143.278 43.1828 145.472 42.6343 147.446 41.5374C149.42 40.3966 150.956 38.7951 152.053 36.7329C153.194 34.6707 153.764 32.3233 153.764 29.6907C153.764 27.0582 153.194 24.7327 152.053 22.7144C150.956 20.6522 149.42 19.0507 147.446 17.9099C145.472 16.7691 143.278 16.1987 140.865 16.1987C138.407 16.1987 136.192 16.7691 134.217 17.9099C132.287 19.0507 130.751 20.6522 129.61 22.7144C128.513 24.7327 127.965 27.0582 127.965 29.6907C127.965 32.3233 128.513 34.6707 129.61 36.7329C130.751 38.7951 132.287 40.3966 134.217 41.5374C136.192 42.6343 138.407 43.1828 140.865 43.1828ZM169.805 19.1604C170.902 16.835 172.526 15.0799 174.676 13.8952C176.87 12.7106 179.568 12.1182 182.771 12.1182V16.6595L181.652 16.5936C178.01 16.5936 175.158 17.7125 173.096 19.9502C171.034 22.1879 170.003 25.325 170.003 29.3617V47H165.33V12.3815H169.805V19.1604ZM203.086 43.1828C205.236 43.1828 207.21 42.8098 209.009 42.0639C210.852 41.2741 212.41 40.1333 213.682 38.6415L216.315 41.669C214.779 43.5118 212.871 44.9159 210.589 45.8812C208.307 46.8464 205.784 47.3291 203.02 47.3291C199.466 47.3291 196.307 46.5832 193.543 45.0914C190.779 43.5557 188.629 41.4496 187.093 38.7732C185.557 36.0967 184.79 33.0692 184.79 29.6907C184.79 26.3123 185.514 23.2848 186.961 20.6083C188.453 17.9319 190.494 15.8477 193.082 14.3559C195.671 12.8641 198.611 12.1182 201.901 12.1182C204.973 12.1182 207.737 12.8203 210.194 14.2243C212.695 15.6284 214.669 17.5809 216.117 20.0818C217.609 22.5828 218.399 25.4347 218.487 28.6377L190.055 34.1661C190.932 36.9742 192.512 39.19 194.793 40.8134C197.119 42.393 199.883 43.1828 203.086 43.1828ZM201.901 16.1329C199.488 16.1329 197.316 16.7033 195.386 17.8441C193.499 18.941 192.007 20.4986 190.91 22.517C189.857 24.4914 189.331 26.773 189.331 29.3617C189.331 30.0198 189.353 30.5025 189.397 30.8096L213.814 26.0709C213.287 23.1751 211.949 20.8058 209.799 18.963C207.649 17.0763 205.017 16.1329 201.901 16.1329ZM234.645 47.3291C231.837 47.3291 229.139 46.9342 226.55 46.1444C224.005 45.3108 222.009 44.2797 220.561 43.0511L222.667 39.3655C224.115 40.5063 225.936 41.4496 228.13 42.1955C230.323 42.8976 232.605 43.2486 234.974 43.2486C238.133 43.2486 240.459 42.7659 241.951 41.8006C243.486 40.7915 244.254 39.3874 244.254 37.5885C244.254 36.3161 243.837 35.3289 243.004 34.6268C242.17 33.8809 241.117 33.3325 239.845 32.9815C238.572 32.5866 236.883 32.2136 234.777 31.8626C231.969 31.3361 229.709 30.8096 227.998 30.2831C226.287 29.7127 224.817 28.7693 223.588 27.4531C222.404 26.1368 221.811 24.3159 221.811 21.9904C221.811 19.0946 223.018 16.7253 225.431 14.8825C227.844 13.0396 231.201 12.1182 235.501 12.1182C237.739 12.1182 239.976 12.4254 242.214 13.0396C244.452 13.61 246.294 14.3779 247.742 15.3432L245.702 19.0946C242.85 17.1202 239.45 16.1329 235.501 16.1329C232.517 16.1329 230.258 16.6595 228.722 17.7125C227.23 18.7655 226.484 20.1476 226.484 21.8588C226.484 23.1751 226.901 24.2281 227.735 25.0179C228.612 25.8077 229.687 26.4 230.96 26.7949C232.232 27.1459 233.987 27.5189 236.225 27.9138C238.989 28.4403 241.205 28.9668 242.872 29.4933C244.539 30.0198 245.965 30.9193 247.15 32.1917C248.335 33.4641 248.927 35.2192 248.927 37.4569C248.927 40.4844 247.655 42.8976 245.11 44.6965C242.609 46.4515 239.121 47.3291 234.645 47.3291ZM264.213 47.3291C261.405 47.3291 258.706 46.9342 256.118 46.1444C253.573 45.3108 251.577 44.2797 250.129 43.0511L252.235 39.3655C253.683 40.5063 255.503 41.4496 257.697 42.1955C259.891 42.8976 262.173 43.2486 264.542 43.2486C267.701 43.2486 270.027 42.7659 271.518 41.8006C273.054 40.7915 273.822 39.3874 273.822 37.5885C273.822 36.3161 273.405 35.3289 272.571 34.6268C271.738 33.8809 270.685 33.3325 269.412 32.9815C268.14 32.5866 266.451 32.2136 264.345 31.8626C261.537 31.3361 259.277 30.8096 257.566 30.2831C255.855 29.7127 254.385 28.7693 253.156 27.4531C251.971 26.1368 251.379 24.3159 251.379 21.9904C251.379 19.0946 252.586 16.7253 254.999 14.8825C257.412 13.0396 260.769 12.1182 265.069 12.1182C267.306 12.1182 269.544 12.4254 271.782 13.0396C274.019 13.61 275.862 14.3779 277.31 15.3432L275.27 19.0946C272.418 17.1202 269.017 16.1329 265.069 16.1329C262.085 16.1329 259.825 16.6595 258.29 17.7125C256.798 18.7655 256.052 20.1476 256.052 21.8588C256.052 23.1751 256.469 24.2281 257.302 25.0179C258.18 25.8077 259.255 26.4 260.527 26.7949C261.8 27.1459 263.555 27.5189 265.793 27.9138C268.557 28.4403 270.772 28.9668 272.44 29.4933C274.107 30.0198 275.533 30.9193 276.718 32.1917C277.902 33.4641 278.495 35.2192 278.495 37.4569C278.495 40.4844 277.222 42.8976 274.677 44.6965C272.177 46.4515 268.688 47.3291 264.213 47.3291ZM38.8274 66.9298V99.6396C38.8274 106.221 37.1162 111.245 33.6939 114.711C30.2715 118.177 25.5329 119.911 19.4779 119.911C15.7045 119.911 12.3041 119.296 9.27664 118.068C6.29304 116.883 3.79208 115.15 1.77377 112.868L4.01147 109.117C7.91647 113.417 13.0719 115.567 19.4779 115.567C24.2166 115.567 27.8144 114.25 30.2715 111.618C32.7286 108.985 33.9571 105.036 33.9571 99.7713V93.5847C30.9735 98.806 25.9936 101.417 19.0172 101.417C13.3133 101.417 8.85981 99.7932 5.65683 96.5463C2.45385 93.2556 0.852364 88.5389 0.852364 82.3962V66.9298H5.72265V82.1987C5.72265 87.069 6.92925 90.7766 9.34245 93.3214C11.7557 95.8224 15.1341 97.0729 19.4779 97.0729C24.0411 97.0729 27.595 95.7566 30.1399 93.124C32.6847 90.4475 33.9571 86.4548 33.9571 81.1457V66.9298H38.8274ZM63.9743 113.329C60.6396 113.329 57.6341 112.583 54.9576 111.091C52.2812 109.556 50.1751 107.45 48.6394 104.773C47.1038 102.097 46.3359 99.0692 46.3359 95.6907C46.3359 92.3123 47.1038 89.2848 48.6394 86.6083C50.1751 83.9319 52.2812 81.8477 54.9576 80.3559C57.6341 78.8641 60.6396 78.1182 63.9743 78.1182C67.3089 78.1182 70.3144 78.8641 72.9909 80.3559C75.6673 81.8477 77.7515 83.9319 79.2432 86.6083C80.7789 89.2848 81.5468 92.3123 81.5468 95.6907C81.5468 99.0692 80.7789 102.097 79.2432 104.773C77.7515 107.45 75.6673 109.556 72.9909 111.091C70.3144 112.583 67.3089 113.329 63.9743 113.329ZM63.9743 109.183C66.4313 109.183 68.6252 108.634 70.5557 107.537C72.5302 106.397 74.0658 104.795 75.1627 102.733C76.2597 100.671 76.8081 98.3233 76.8081 95.6907C76.8081 93.0582 76.2597 90.7108 75.1627 88.6486C74.0658 86.5864 72.5302 85.0068 70.5557 83.9099C68.6252 82.7691 66.4313 82.1987 63.9743 82.1987C61.5172 82.1987 59.3014 82.7691 57.327 83.9099C55.3964 85.0068 53.8607 86.5864 52.7199 88.6486C51.623 90.7108 51.0746 93.0582 51.0746 95.6907C51.0746 98.3233 51.623 100.671 52.7199 102.733C53.8607 104.795 55.3964 106.397 57.327 107.537C59.3014 108.634 61.5172 109.183 63.9743 109.183ZM119.65 78.3815V113H115.175V106.682C113.946 108.788 112.257 110.433 110.107 111.618C107.957 112.759 105.5 113.329 102.736 113.329C98.2167 113.329 94.6408 112.079 92.0082 109.578C89.4195 107.033 88.1251 103.325 88.1251 98.455V78.3815H92.798V97.9943C92.798 101.636 93.6975 104.4 95.4964 106.287C97.2953 108.174 99.8621 109.117 103.197 109.117C106.838 109.117 109.712 108.02 111.818 105.826C113.924 103.589 114.978 100.495 114.978 96.5463V78.3815H119.65ZM134.581 85.1604C135.677 82.835 137.301 81.0799 139.451 79.8952C141.645 78.7106 144.343 78.1182 147.546 78.1182V82.6595L146.427 82.5936C142.785 82.5936 139.933 83.7125 137.871 85.9502C135.809 88.1879 134.778 91.325 134.778 95.3617V113H130.105V78.3815H134.581V85.1604ZM169.468 66.9298H188.225C193.095 66.9298 197.395 67.917 201.125 69.8914C204.854 71.822 207.75 74.5423 209.812 78.0524C211.874 81.5187 212.906 85.4895 212.906 89.9649C212.906 94.4403 211.874 98.433 209.812 101.943C207.75 105.409 204.854 108.13 201.125 110.104C197.395 112.035 193.095 113 188.225 113H169.468V66.9298ZM187.962 108.788C191.998 108.788 195.531 107.998 198.558 106.419C201.585 104.795 203.933 102.579 205.6 99.7713C207.267 96.9193 208.101 93.6505 208.101 89.9649C208.101 86.2793 207.267 83.0324 205.6 80.2243C203.933 77.3723 201.585 75.1566 198.558 73.577C195.531 71.9536 191.998 71.1419 187.962 71.1419H174.338V108.788H187.962ZM251.813 78.3815V113H247.338V106.155C245.934 108.481 244.069 110.258 241.744 111.486C239.462 112.715 236.873 113.329 233.978 113.329C230.731 113.329 227.791 112.583 225.158 111.091C222.526 109.6 220.464 107.515 218.972 104.839C217.48 102.163 216.734 99.1131 216.734 95.6907C216.734 92.2684 217.48 89.219 218.972 86.5425C220.464 83.8661 222.526 81.8039 225.158 80.3559C227.791 78.8641 230.731 78.1182 233.978 78.1182C236.786 78.1182 239.309 78.7106 241.546 79.8952C243.828 81.036 245.693 82.7253 247.141 84.963V78.3815H251.813ZM234.372 109.183C236.786 109.183 238.958 108.634 240.888 107.537C242.863 106.397 244.398 104.795 245.495 102.733C246.636 100.671 247.206 98.3233 247.206 95.6907C247.206 93.0582 246.636 90.7108 245.495 88.6486C244.398 86.5864 242.863 85.0068 240.888 83.9099C238.958 82.7691 236.786 82.1987 234.372 82.1987C231.915 82.1987 229.7 82.7691 227.725 83.9099C225.795 85.0068 224.259 86.5864 223.118 88.6486C222.021 90.7108 221.473 93.0582 221.473 95.6907C221.473 98.3233 222.021 100.671 223.118 102.733C224.259 104.795 225.795 106.397 227.725 107.537C229.7 108.634 231.915 109.183 234.372 109.183ZM262.195 78.3815H266.867V113H262.195V78.3815ZM264.564 70.8128C263.599 70.8128 262.787 70.4837 262.129 69.8256C261.471 69.1675 261.142 68.3777 261.142 67.4563C261.142 66.5787 261.471 65.8109 262.129 65.1528C262.787 64.4946 263.599 64.1655 264.564 64.1655C265.529 64.1655 266.341 64.4946 266.999 65.1528C267.657 65.767 267.986 66.5129 267.986 67.3905C267.986 68.3557 267.657 69.1675 266.999 69.8256C266.341 70.4837 265.529 70.8128 264.564 70.8128ZM286.977 113.329C283.862 113.329 281.449 112.452 279.738 110.696C278.07 108.941 277.237 106.506 277.237 103.391V64.1655H281.91V102.996C281.91 105.058 282.392 106.638 283.358 107.735C284.323 108.788 285.771 109.314 287.701 109.314C288.93 109.314 289.983 109.117 290.86 108.722L291.19 112.605C289.829 113.088 288.425 113.329 286.977 113.329ZM326.11 78.3815V108.788C326.11 114.667 324.772 119.011 322.096 121.819C319.419 124.671 315.383 126.097 309.986 126.097C306.958 126.097 304.084 125.614 301.364 124.649C298.688 123.728 296.516 122.433 294.848 120.766L297.218 117.212C298.71 118.704 300.552 119.867 302.746 120.7C304.94 121.534 307.287 121.951 309.788 121.951C313.781 121.951 316.721 120.92 318.607 118.858C320.494 116.839 321.438 113.68 321.438 109.38V105.366C320.209 107.384 318.52 108.941 316.37 110.038C314.264 111.135 311.872 111.684 309.196 111.684C304.677 111.684 301.101 110.433 298.468 107.932C295.879 105.387 294.585 101.68 294.585 96.8096V78.3815H299.258V96.3489C299.258 99.9906 300.157 102.755 301.956 104.642C303.755 106.528 306.322 107.472 309.657 107.472C313.298 107.472 316.172 106.375 318.278 104.181C320.384 101.943 321.438 98.8499 321.438 94.901V78.3815H326.11Z" fill="black"/>
<path d="M110.156 132.93H120.818V170.312H143.919V179H110.156V132.93Z" fill="#F48023"/>
<path d="M146.52 143.592H156.787V179H146.52V143.592ZM151.653 138.656C149.767 138.656 148.231 138.107 147.046 137.01C145.862 135.913 145.269 134.553 145.269 132.93C145.269 131.306 145.862 129.946 147.046 128.849C148.231 127.752 149.767 127.204 151.653 127.204C153.54 127.204 155.076 127.73 156.26 128.783C157.445 129.836 158.037 131.153 158.037 132.732C158.037 134.443 157.445 135.869 156.26 137.01C155.076 138.107 153.54 138.656 151.653 138.656Z" fill="#E27F86"/>
<path d="M173.687 144.381H182.769V152.279H173.95V179H163.683V142.802C163.683 138.765 164.868 135.562 167.237 133.193C169.65 130.824 173.029 129.639 177.372 129.639C178.908 129.639 180.356 129.815 181.716 130.166C183.12 130.473 184.283 130.933 185.204 131.548L182.506 138.985C181.321 138.151 179.939 137.734 178.36 137.734C175.244 137.734 173.687 139.445 173.687 142.868V144.381Z" fill="#4AC06F"/>
<path d="M203.117 171.3C204.959 171.3 206.583 171.036 207.987 170.51C209.435 169.94 210.773 169.062 212.002 167.877L217.464 173.801C214.13 177.618 209.259 179.527 202.853 179.527C198.861 179.527 195.329 178.759 192.257 177.223C189.186 175.643 186.817 173.472 185.149 170.707C183.482 167.943 182.648 164.806 182.648 161.296C182.648 157.83 183.46 154.714 185.083 151.95C186.751 149.142 189.01 146.97 191.862 145.435C194.758 143.855 198.005 143.065 201.603 143.065C204.981 143.065 208.053 143.789 210.817 145.237C213.581 146.641 215.775 148.703 217.398 151.424C219.066 154.1 219.899 157.281 219.899 160.967L193.705 166.035C194.451 167.79 195.614 169.106 197.193 169.983C198.817 170.861 200.791 171.3 203.117 171.3ZM201.603 150.831C199.014 150.831 196.908 151.665 195.285 153.332C193.661 155 192.806 157.303 192.718 160.243L209.961 156.886C209.479 155.043 208.492 153.574 207 152.477C205.508 151.38 203.709 150.831 201.603 150.831Z" fill="#77C5EA"/>
</svg>
