<svg width="26" height="28" viewBox="0 0 26 28" fill="none" xmlns="http://www.w3.org/2000/svg">
<g clip-path="url(#clip0_257_418)">
<path d="M11.924 3.00784L11.9164 21.0188C11.9164 21.3283 12.0306 21.625 12.2337 21.8438C12.4369 22.0626 12.7124 22.1855 12.9998 22.1855C13.2871 22.1855 13.5626 22.0626 13.7658 21.8438C13.969 21.625 14.0831 21.3283 14.0831 21.0188L14.0907 3.02768L17.2453 6.42617C17.4485 6.64489 17.724 6.76776 18.0113 6.76776C18.2985 6.76776 18.574 6.64489 18.7772 6.42617V6.42617C18.9803 6.20739 19.0944 5.9107 19.0944 5.60134C19.0944 5.29198 18.9803 4.99529 18.7772 4.77651L15.2986 1.02568C14.9968 0.700433 14.6384 0.442424 14.244 0.266392C13.8495 0.0903604 13.4267 -0.000244141 12.9998 -0.000244141C12.5728 -0.000244141 12.15 0.0903604 11.7556 0.266392C11.3611 0.442424 11.0027 0.700433 10.7009 1.02568L7.22234 4.77301C7.01924 4.99179 6.90515 5.28848 6.90515 5.59784C6.90515 5.9072 7.01924 6.20389 7.22234 6.42268V6.42268C7.42549 6.64139 7.70099 6.76426 7.98825 6.76426C8.27551 6.76426 8.55102 6.64139 8.75417 6.42268L11.924 3.00784Z" fill="#77C5EA"/>
<path d="M23.8333 19.8327V24.4993C23.8333 24.8088 23.7192 25.1055 23.516 25.3243C23.3129 25.5431 23.0373 25.666 22.75 25.666H3.25C2.96268 25.666 2.68713 25.5431 2.48397 25.3243C2.2808 25.1055 2.16667 24.8088 2.16667 24.4993V19.8327C2.16667 19.5233 2.05253 19.2265 1.84937 19.0077C1.6462 18.7889 1.37065 18.666 1.08333 18.666V18.666C0.796015 18.666 0.520465 18.7889 0.317301 19.0077C0.114137 19.2265 0 19.5233 0 19.8327L0 24.4993C0 25.4276 0.34241 26.3178 0.951903 26.9742C1.5614 27.6306 2.38805 27.9993 3.25 27.9993H22.75C23.612 27.9993 24.4386 27.6306 25.0481 26.9742C25.6576 26.3178 26 25.4276 26 24.4993V19.8327C26 19.5233 25.8859 19.2265 25.6827 19.0077C25.4795 18.7889 25.204 18.666 24.9167 18.666C24.6293 18.666 24.3538 18.7889 24.1506 19.0077C23.9475 19.2265 23.8333 19.5233 23.8333 19.8327Z" fill="#77C5EA"/>
</g>
<defs>
<clipPath id="clip0_257_418">
<rect width="26" height="28" fill="white"/>
</clipPath>
</defs>
</svg>
