<svg width="29" height="26" viewBox="0 0 29 26" fill="none" xmlns="http://www.w3.org/2000/svg">
<g clip-path="url(#clip0_130_238)">
<path d="M27.7917 23.8333H6.04167C5.08026 23.8333 4.15822 23.4909 3.4784 22.8814C2.79859 22.2719 2.41667 21.4453 2.41667 20.5833V1.08333C2.41667 0.796016 2.28936 0.520465 2.06275 0.317301C1.83615 0.114137 1.5288 0 1.20833 0C0.887863 0 0.580519 0.114137 0.353913 0.317301C0.127306 0.520465 0 0.796016 0 1.08333L0 20.5833C0.00191866 22.0194 0.639066 23.3961 1.77168 24.4116C2.9043 25.427 4.43991 25.9983 6.04167 26H27.7917C28.1121 26 28.4195 25.8859 28.6461 25.6827C28.8727 25.4795 29 25.204 29 24.9167C29 24.6293 28.8727 24.3538 28.6461 24.1506C28.4195 23.9475 28.1121 23.8333 27.7917 23.8333Z" fill="#FF884D"/>
<path d="M7.25008 21.6665C7.57055 21.6665 7.87789 21.5524 8.1045 21.3492C8.3311 21.146 8.45841 20.8705 8.45841 20.5832V12.9998C8.45841 12.7125 8.3311 12.437 8.1045 12.2338C7.87789 12.0306 7.57055 11.9165 7.25008 11.9165C6.92961 11.9165 6.62227 12.0306 6.39566 12.2338C6.16905 12.437 6.04175 12.7125 6.04175 12.9998V20.5832C6.04175 20.8705 6.16905 21.146 6.39566 21.3492C6.62227 21.5524 6.92961 21.6665 7.25008 21.6665Z" fill="#FF884D"/>
<path d="M12.0833 10.8333V20.5833C12.0833 20.8706 12.2106 21.1462 12.4372 21.3493C12.6638 21.5525 12.9711 21.6666 13.2916 21.6666C13.6121 21.6666 13.9194 21.5525 14.146 21.3493C14.3726 21.1462 14.4999 20.8706 14.4999 20.5833V10.8333C14.4999 10.546 14.3726 10.2705 14.146 10.0673C13.9194 9.86414 13.6121 9.75 13.2916 9.75C12.9711 9.75 12.6638 9.86414 12.4372 10.0673C12.2106 10.2705 12.0833 10.546 12.0833 10.8333Z" fill="#FF884D"/>
<path d="M18.125 14.0833V20.5833C18.125 20.8706 18.2523 21.1462 18.4789 21.3493C18.7055 21.5525 19.0129 21.6666 19.3333 21.6666C19.6538 21.6666 19.9612 21.5525 20.1878 21.3493C20.4144 21.1462 20.5417 20.8706 20.5417 20.5833V14.0833C20.5417 13.796 20.4144 13.5205 20.1878 13.3173C19.9612 13.1141 19.6538 13 19.3333 13C19.0129 13 18.7055 13.1141 18.4789 13.3173C18.2523 13.5205 18.125 13.796 18.125 14.0833Z" fill="#FF884D"/>
<path d="M24.167 9.74984V20.5832C24.167 20.8705 24.2943 21.146 24.5209 21.3492C24.7475 21.5524 25.0549 21.6665 25.3753 21.6665C25.6958 21.6665 26.0032 21.5524 26.2298 21.3492C26.4564 21.146 26.5837 20.8705 26.5837 20.5832V9.74984C26.5837 9.46252 26.4564 9.18697 26.2298 8.98381C26.0032 8.78064 25.6958 8.6665 25.3753 8.6665C25.0549 8.6665 24.7475 8.78064 24.5209 8.98381C24.2943 9.18697 24.167 9.46252 24.167 9.74984Z" fill="#FF884D"/>
<path d="M7.24982 9.74987C7.57027 9.74981 7.87756 9.63563 8.10412 9.43246L12.4372 5.54762C12.6675 5.35091 12.9734 5.24119 13.2915 5.24119C13.6096 5.24119 13.9155 5.35091 14.1458 5.54762L16.7703 7.90062C17.4501 8.5099 18.3719 8.85218 19.3332 8.85218C20.2944 8.85218 21.2162 8.5099 21.896 7.90062L28.6458 1.84912C28.8659 1.6448 28.9877 1.37115 28.9849 1.0871C28.9822 0.803057 28.8551 0.531343 28.6311 0.330485C28.407 0.129626 28.104 0.0156928 27.7871 0.0132245C27.4703 0.0107563 27.1651 0.11995 26.9372 0.317288L20.1874 6.3677C19.9609 6.5708 19.6536 6.68489 19.3332 6.68489C19.0127 6.68489 18.7055 6.5708 18.4789 6.3677L15.8544 4.01579C15.1746 3.40651 14.2527 3.06423 13.2915 3.06423C12.3303 3.06423 11.4084 3.40651 10.7286 4.01579L6.39553 7.90062C6.2266 8.05213 6.11155 8.24514 6.06495 8.45525C6.01835 8.66537 6.04228 8.88316 6.13371 9.08108C6.22515 9.27901 6.37998 9.44818 6.57864 9.56722C6.77731 9.68626 7.01088 9.74983 7.24982 9.74987Z" fill="#FF884D"/>
</g>
<defs>
<clipPath id="clip0_130_238">
<rect width="29" height="26" fill="white"/>
</clipPath>
</defs>
</svg>
