<svg width="28" height="35" viewBox="0 0 28 35" fill="none" xmlns="http://www.w3.org/2000/svg">
<g clip-path="url(#clip0_257_415)">
<path d="M6.41675 24.792C7.38325 24.792 8.16675 23.8126 8.16675 22.6045C8.16675 21.3964 7.38325 20.417 6.41675 20.417C5.45025 20.417 4.66675 21.3964 4.66675 22.6045C4.66675 23.8126 5.45025 24.792 6.41675 24.792Z" fill="#4AC06F"/>
<path d="M22.1667 4.375H5.83333C4.28681 4.37732 2.80415 5.14629 1.71059 6.51324C0.617029 7.88019 0.0018525 9.73351 0 11.6667L0 23.3333C0.0018525 25.2665 0.617029 27.1198 1.71059 28.4868C2.80415 29.8537 4.28681 30.6227 5.83333 30.625H22.1667C23.7132 30.6227 25.1959 29.8537 26.2894 28.4868C27.383 27.1198 27.9981 25.2665 28 23.3333V11.6667C27.9981 9.73351 27.383 7.88019 26.2894 6.51324C25.1959 5.14629 23.7132 4.37732 22.1667 4.375V4.375ZM5.83333 7.29167H22.1667C23.0949 7.29167 23.9852 7.7526 24.6415 8.57308C25.2979 9.39355 25.6667 10.5063 25.6667 11.6667H2.33333C2.33333 10.5063 2.70208 9.39355 3.35846 8.57308C4.01484 7.7526 4.90508 7.29167 5.83333 7.29167V7.29167ZM22.1667 27.7083H5.83333C4.90508 27.7083 4.01484 27.2474 3.35846 26.4269C2.70208 25.6065 2.33333 24.4937 2.33333 23.3333V14.5833H25.6667V23.3333C25.6667 24.4937 25.2979 25.6065 24.6415 26.4269C23.9852 27.2474 23.0949 27.7083 22.1667 27.7083Z" fill="#4AC06F"/>
</g>
<defs>
<clipPath id="clip0_257_415">
<rect width="28" height="35" fill="white"/>
</clipPath>
</defs>
</svg>
