<svg width="26" height="26" viewBox="0 0 26 26" fill="none" xmlns="http://www.w3.org/2000/svg">
<path d="M3.71429 0C1.66294 0 0 1.66294 0 3.71429V7.42857C0 9.47991 1.66294 11.1429 3.71429 11.1429H7.42857C9.47991 11.1429 11.1429 9.47991 11.1429 7.42857V3.71429C11.1429 1.66294 9.47991 0 7.42857 0H3.71429Z" fill="#E27F86"/>
<path d="M3.71429 14.8571C1.66294 14.8571 0 16.5201 0 18.5714V22.2857C0 24.3371 1.66294 26 3.71429 26H7.42857C9.47991 26 11.1429 24.3371 11.1429 22.2857V18.5714C11.1429 16.5201 9.47991 14.8571 7.42857 14.8571H3.71429Z" fill="#E27F86"/>
<path d="M14.8571 3.71429C14.8571 1.66294 16.5201 0 18.5714 0H22.2857C24.3371 0 26 1.66294 26 3.71429V7.42857C26 9.47991 24.3371 11.1429 22.2857 11.1429H18.5714C16.5201 11.1429 14.8571 9.47991 14.8571 7.42857V3.71429Z" fill="#E27F86"/>
<path d="M20.4286 14.8571C21.4542 14.8571 22.2857 15.6886 22.2857 16.7143V18.5714H24.1429C25.1685 18.5714 26 19.4029 26 20.4286C26 21.4542 25.1685 22.2857 24.1429 22.2857H22.2857V24.1429C22.2857 25.1685 21.4542 26 20.4286 26C19.4029 26 18.5714 25.1685 18.5714 24.1429V22.2857H16.7143C15.6886 22.2857 14.8571 21.4542 14.8571 20.4286C14.8571 19.4029 15.6886 18.5714 16.7143 18.5714H18.5714V16.7143C18.5714 15.6886 19.4029 14.8571 20.4286 14.8571Z" fill="#E27F86"/>
</svg>
