<svg width="14" height="14" viewBox="0 0 14 14" fill="none" xmlns="http://www.w3.org/2000/svg">
<path d="M4.08332 12.8333H2.33332C2.0239 12.8333 1.72716 12.7104 1.50837 12.4916C1.28957 12.2728 1.16666 11.976 1.16666 11.6666V7.58329C1.16666 7.27387 1.28957 6.97713 1.50837 6.75833C1.72716 6.53954 2.0239 6.41663 2.33332 6.41663H4.08332M8.16666 5.24996V2.91663C8.16666 2.4525 7.98228 2.00738 7.65409 1.67919C7.3259 1.351 6.88079 1.16663 6.41666 1.16663L4.08332 6.41663V12.8333H10.6633C10.9447 12.8365 11.2177 12.7379 11.4321 12.5556C11.6465 12.3734 11.7878 12.1198 11.83 11.8416L12.635 6.59163C12.6604 6.42442 12.6491 6.25369 12.6019 6.09127C12.5548 5.92885 12.4729 5.77863 12.3619 5.65101C12.2509 5.52339 12.1135 5.42142 11.9592 5.35217C11.8049 5.28292 11.6374 5.24804 11.4683 5.24996H8.16666Z" stroke="#808080" stroke-linecap="round" stroke-linejoin="round"/>
</svg>
