<svg width="14" height="14" viewBox="0 0 14 14" fill="none" xmlns="http://www.w3.org/2000/svg">
<path d="M9.91669 1.16671H11.4742C11.8043 1.16088 12.1251 1.27646 12.3757 1.49153C12.6262 1.70659 12.7891 2.00617 12.8334 2.33338V6.41671C12.7891 6.74393 12.6262 7.0435 12.3757 7.25857C12.1251 7.47364 11.8043 7.58922 11.4742 7.58338H9.91669M5.83335 8.75005V11.0834C5.83335 11.5475 6.01773 11.9926 6.34591 12.3208C6.6741 12.649 7.11922 12.8334 7.58335 12.8334L9.91669 7.58338V1.16671H3.33668C3.05533 1.16353 2.7823 1.26214 2.56791 1.44438C2.35351 1.62661 2.21221 1.88019 2.17002 2.15838L1.36502 7.40838C1.33964 7.57559 1.35092 7.74632 1.39807 7.90873C1.44522 8.07115 1.52712 8.22138 1.6381 8.349C1.74908 8.47662 1.88647 8.57859 2.04077 8.64784C2.19506 8.71709 2.36257 8.75196 2.53168 8.75005H5.83335Z" stroke="#808080" stroke-linecap="round" stroke-linejoin="round"/>
</svg>
