<svg width="5" height="5" viewBox="0 0 5 5" fill="none" xmlns="http://www.w3.org/2000/svg">
<path d="M4.40357 3.89572C4.62688 4.13764 4.62688 4.52862 4.40357 4.77054C4.29304 4.89272 4.14643 4.95136 3.99981 4.95136C3.8532 4.95136 3.70658 4.89027 3.59605 4.77054L2.28553 3.3508L0.975 4.77054C0.864474 4.89272 0.717857 4.95136 0.571241 4.95136C0.424624 4.95136 0.278007 4.89027 0.167481 4.77054C-0.0558271 4.52862 -0.0558271 4.13764 0.167481 3.89572L1.47801 2.47599L0.167481 1.05625C-0.0558271 0.814332 -0.0558271 0.423355 0.167481 0.181438C0.390789 -0.0604793 0.751692 -0.0604793 0.975 0.181438L2.28553 1.60117L3.59605 0.181438C3.81936 -0.0604793 4.18026 -0.0604793 4.40357 0.181438C4.62688 0.423355 4.62688 0.814332 4.40357 1.05625L3.09304 2.47599L4.40357 3.89572Z" fill="#F48023"/>
</svg>
