<svg width="20" height="23" viewBox="0 0 20 23" fill="none" xmlns="http://www.w3.org/2000/svg">
<path d="M5.83341 1.91663C3.53223 1.91663 1.66675 4.06193 1.66675 6.70829V16.2916C1.66675 18.938 3.53223 21.0833 5.83341 21.0833H14.1667C16.4679 21.0833 18.3334 18.938 18.3334 16.2916V11.5C18.3334 10.9707 17.9603 10.5416 17.5001 10.5416C17.0398 10.5416 16.6667 10.9707 16.6667 11.5V16.2916C16.6667 17.8794 15.5475 19.1666 14.1667 19.1666H5.83341C4.4527 19.1666 3.33341 17.8794 3.33341 16.2916V6.70829C3.33341 5.12047 4.4527 3.83329 5.83341 3.83329H10.0001C10.4603 3.83329 10.8334 3.40423 10.8334 2.87496C10.8334 2.34569 10.4603 1.91663 10.0001 1.91663H5.83341Z" fill="white"/>
<path fill-rule="evenodd" clip-rule="evenodd" d="M16.8394 3.63503C15.8236 2.46687 14.1766 2.46687 13.1608 3.63503L7.23727 10.4471C6.91688 10.8156 6.68958 11.2773 6.57968 11.7828L5.85831 15.1011C5.78732 15.4277 5.87053 15.7731 6.07751 16.0112C6.28449 16.2492 6.5849 16.3449 6.86888 16.2632L9.75436 15.4337C10.1939 15.3073 10.5954 15.0459 10.9158 14.6774L16.8394 7.86532C17.8552 6.69716 17.8551 4.80319 16.8394 3.63503ZM14.3394 4.99032C14.7043 4.57066 15.2959 4.57066 15.6608 4.99032C16.0258 5.40998 16.0258 6.09038 15.6608 6.51003L9.73727 13.3221C9.63047 13.445 9.49666 13.5321 9.35013 13.5742L7.81207 14.0164L8.19659 12.2476C8.23322 12.0791 8.30898 11.9252 8.41578 11.8024L14.3394 4.99032Z" fill="white"/>
</svg>
