<svg width="18" height="19" viewBox="0 0 18 19" fill="none" xmlns="http://www.w3.org/2000/svg">
<path d="M8 3.25098C8.5523 3.25098 9 3.6987 9 4.25098C9 4.80326 8.5523 5.25098 8 5.25098H2L2 16.251H13V10.251C13 9.69868 13.4477 9.25098 14 9.25098C14.5523 9.25098 15 9.69868 15 10.251V16.251C15 17.3556 14.1046 18.251 13 18.251H2C0.89543 18.251 0 17.3556 0 16.251L0 5.25098C0 4.14641 0.89543 3.25098 2 3.25098L8 3.25098ZM17 0.250977C17.5523 0.250977 18 0.698697 18 1.25098V6.25098C18 6.80326 17.5523 7.25098 17 7.25098C16.4477 7.25098 16 6.80326 16 6.25098V3.66519L7.7071 11.9581C7.3166 12.3486 6.68342 12.3486 6.29289 11.9581C5.90237 11.5676 5.90237 10.9344 6.29289 10.5439L14.5858 2.25098H12C11.4477 2.25098 11 1.80327 11 1.25098C11 0.698697 11.4477 0.250977 12 0.250977L17 0.250977Z" fill="#2772F0"/>
</svg>
