<svg width="36" height="36" viewBox="0 0 36 36" fill="none" xmlns="http://www.w3.org/2000/svg">
<path d="M26.8676 0C28.1645 0 29.3737 0.628147 30.1207 1.67241L30.2976 1.94202L35.145 10.021C35.6245 10.8202 35.9102 11.7184 35.982 12.6435L36 13.1079V32C36 34.1088 34.3683 35.8363 32.2985 35.989L32 36H4C1.89128 36 0.16367 34.3683 0.0109715 32.2985L0 32V13.1079C0 12.1758 0.217132 11.2587 0.631507 10.4285L0.85504 10.021L5.7024 1.94202C6.36969 0.829878 7.53044 0.116182 8.81018 0.0129638L9.13238 0H26.8676ZM32 14H4V32H32V14ZM16 4H9.13238L5.53238 10H16V4ZM26.8676 4H20V10H30.4676L26.8676 4Z" fill="#F5B544"/>
</svg>
