<svg width="24" height="24" viewBox="0 0 24 24" fill="none" xmlns="http://www.w3.org/2000/svg">
<path d="M13 15.7324C13.5978 15.3866 14 14.7403 14 14C14 12.8954 13.1046 12 12 12C10.8954 12 10 12.8954 10 14C10 14.7403 10.4022 15.3866 11 15.7324V17C11 17.5523 11.4477 18 12 18C12.5523 18 13 17.5523 13 17V15.7324Z" fill="#152C70"/>
<path fill-rule="evenodd" clip-rule="evenodd" d="M12 2C9.23858 2 7 4.23858 7 7V8.41604C5.23409 9.1876 4 10.9497 4 13V17C4 19.7614 6.23858 22 9 22H15C17.7614 22 20 19.7614 20 17V13C20 10.9497 18.7659 9.1876 17 8.41604V7C17 4.23858 14.7614 2 12 2ZM15 10H9C7.34315 10 6 11.3431 6 13V17C6 18.6569 7.34315 20 9 20H15C16.6569 20 18 18.6569 18 17V13C18 11.3431 16.6569 10 15 10ZM9 8H15V7C15 5.34315 13.6569 4 12 4C10.3431 4 9 5.34315 9 7V8Z" fill="#152C70"/>
</svg>
