<svg width="138" height="46" viewBox="0 0 138 46" fill="none" xmlns="http://www.w3.org/2000/svg">
<rect width="138" height="46" rx="16" fill="#2772F0"/>
<path d="M50.056 20.904V22.552H60.344V20.904H50.056ZM51.976 17.416V19.032H59.672V17.416H51.976ZM54.44 15.496V21.528H56.344V15.496H54.44ZM51.736 15.912C51.368 17.304 50.696 18.696 49.816 19.576C50.264 19.8 51.032 20.312 51.4 20.6C52.264 19.576 53.096 17.944 53.56 16.296L51.736 15.912ZM55.672 21.88V25.384C55.672 27.064 55.992 27.64 57.528 27.64C57.816 27.64 58.424 27.64 58.728 27.64C59.912 27.64 60.392 27.08 60.568 24.936C60.056 24.808 59.256 24.52 58.904 24.2C58.856 25.672 58.792 25.864 58.52 25.864C58.392 25.864 57.96 25.864 57.864 25.864C57.592 25.864 57.56 25.816 57.56 25.368V21.88H55.672ZM52.792 21.816C52.6 23.736 52.216 25.272 49.736 26.168C50.152 26.536 50.68 27.256 50.888 27.752C53.848 26.52 54.472 24.424 54.712 21.816H52.792ZM45.688 16.952C46.584 17.736 47.64 18.84 48.088 19.624L49.672 18.408C49.16 17.656 48.056 16.6 47.16 15.88L45.688 16.952ZM49.336 21.592H45.72V23.368H47.496V27.672H49.336V21.592ZM49.16 26.952C48.136 26.952 46.728 27.816 45.512 28.936L46.776 30.6C47.64 29.608 48.52 28.664 49.112 28.664C49.464 28.664 49.976 29.128 50.632 29.528C51.704 30.136 52.968 30.344 54.872 30.344C56.44 30.344 58.84 30.248 60.024 30.168C60.04 29.656 60.344 28.712 60.552 28.2C59 28.424 56.52 28.552 54.92 28.552C53.256 28.552 51.88 28.472 50.872 27.848C50.056 27.368 49.656 26.952 49.16 26.952ZM61.4 23.496L61.816 25.336C63.32 24.92 65.208 24.376 66.984 23.848L66.744 22.12C64.792 22.648 62.776 23.192 61.4 23.496ZM61.624 18.424V20.184H67V18.424H61.624ZM63.432 15.432V28.376C63.432 28.584 63.368 28.648 63.176 28.648C62.984 28.664 62.392 28.664 61.848 28.632C62.072 29.16 62.296 29.944 62.36 30.44C63.416 30.44 64.136 30.392 64.648 30.088C65.144 29.784 65.304 29.288 65.304 28.392V15.432H63.432ZM67.4 16.056V17.752H74.344V16.056H67.4ZM73.992 16.056V16.328C72.856 18.824 69.736 20.776 66.52 21.592C66.872 21.96 67.32 22.664 67.512 23.128C70.968 22.04 74.264 19.88 75.768 16.6L74.616 15.992L74.312 16.056H73.992ZM69.64 16.904L68.168 17.416C69.688 20.232 72.264 22.232 75.608 23.144C75.864 22.664 76.392 21.928 76.776 21.544C73.528 20.856 70.92 19.16 69.64 16.904ZM67.592 23.608V25.288H75.368V23.608H67.592ZM66.792 26.392V28.104H76.392V26.392H66.792ZM70.568 22.36V30.456H72.504V22.36H70.568ZM88.056 18.984C86.392 24.2 82.952 27.16 77.416 28.616C77.8 29.08 78.408 30.008 78.632 30.488C84.36 28.696 88.088 25.336 90.104 19.576L88.056 18.984ZM81.88 19.112L79.96 19.688C81.96 25.224 85.256 28.888 91.256 30.456C91.56 29.896 92.184 28.984 92.648 28.536C86.952 27.256 83.496 23.848 81.88 19.112ZM77.704 17.944V19.832H92.36V17.944H77.704ZM83.992 15.416V19.096H85.976V15.416H83.992ZM93.688 18.712V20.504H99.352V18.712H93.688ZM95.736 15.416V30.44H97.544V15.416H95.736ZM95.56 19.944C95.192 21.976 94.28 24.488 93.272 25.88C93.56 26.344 93.976 27.128 94.168 27.656C95.304 26.008 96.216 22.888 96.664 20.328L95.56 19.944ZM97.464 20.936L96.6 21.768C97.096 22.568 98.104 24.376 98.504 25.368L99.576 23.896C99.288 23.432 97.848 21.384 97.464 20.936ZM102.648 15.48V22.072H104.488V15.48H102.648ZM106.328 16.456C106.04 17.656 105.448 19.272 104.92 20.296L106.456 20.744C106.984 19.784 107.624 18.296 108.168 16.92L106.328 16.456ZM99.144 16.952C99.64 18.12 100.216 19.672 100.456 20.664L102.088 20.008C101.8 19.032 101.224 17.544 100.696 16.392L99.144 16.952ZM99.256 21.336V23.176H105.992V30.232H107.88V21.336H99.256ZM99.48 24.536V26.248H106.6V24.536H99.48ZM98.888 27.72V29.544H106.552V27.72H98.888Z" fill="white"/>
<path fill-rule="evenodd" clip-rule="evenodd" d="M119.293 19.2929C119.653 18.9324 120.221 18.9047 120.613 19.2097L120.707 19.2929L125 23.585L129.293 19.2929C129.653 18.9324 130.221 18.9047 130.613 19.2097L130.707 19.2929C131.068 19.6534 131.095 20.2206 130.79 20.6129L130.707 20.7071L125.707 25.7071C125.347 26.0676 124.779 26.0953 124.387 25.7903L124.293 25.7071L119.293 20.7071C118.902 20.3166 118.902 19.6834 119.293 19.2929Z" fill="white"/>
<path d="M20.5001 20.6668H21.6667C21.9762 20.6668 22.2729 20.5439 22.4917 20.3251C22.7105 20.1063 22.8334 19.8096 22.8334 19.5002C22.8334 19.1907 22.7105 18.894 22.4917 18.6752C22.2729 18.4564 21.9762 18.3335 21.6667 18.3335H20.5001C20.1907 18.3335 19.8939 18.4564 19.6751 18.6752C19.4563 18.894 19.3334 19.1907 19.3334 19.5002C19.3334 19.8096 19.4563 20.1063 19.6751 20.3251C19.8939 20.5439 20.1907 20.6668 20.5001 20.6668ZM20.5001 23.0002C20.1907 23.0002 19.8939 23.1231 19.6751 23.3419C19.4563 23.5607 19.3334 23.8574 19.3334 24.1668C19.3334 24.4762 19.4563 24.773 19.6751 24.9918C19.8939 25.2106 20.1907 25.3335 20.5001 25.3335H27.5001C27.8095 25.3335 28.1062 25.2106 28.325 24.9918C28.5438 24.773 28.6667 24.4762 28.6667 24.1668C28.6667 23.8574 28.5438 23.5607 28.325 23.3419C28.1062 23.1231 27.8095 23.0002 27.5001 23.0002H20.5001ZM33.3334 19.4302C33.3213 19.323 33.2978 19.2174 33.2634 19.1152V19.0102C33.2073 18.8902 33.1325 18.7799 33.0417 18.6835L26.0417 11.6835C25.9453 11.5927 25.835 11.5179 25.7151 11.4618C25.6803 11.4569 25.6449 11.4569 25.6101 11.4618C25.4916 11.3939 25.3607 11.3502 25.2251 11.3335H18.1667C17.2385 11.3335 16.3483 11.7022 15.6919 12.3586C15.0355 13.015 14.6667 13.9052 14.6667 14.8335V31.1668C14.6667 32.0951 15.0355 32.9853 15.6919 33.6417C16.3483 34.2981 17.2385 34.6668 18.1667 34.6668H29.8334C30.7617 34.6668 31.6519 34.2981 32.3083 33.6417C32.9647 32.9853 33.3334 32.0951 33.3334 31.1668V19.5002C33.3334 19.5002 33.3334 19.5002 33.3334 19.4302ZM26.3334 15.3118L29.3551 18.3335H27.5001C27.1907 18.3335 26.8939 18.2106 26.6751 17.9918C26.4563 17.773 26.3334 17.4762 26.3334 17.1668V15.3118ZM31.0001 31.1668C31.0001 31.4762 30.8772 31.773 30.6584 31.9918C30.4396 32.2106 30.1428 32.3335 29.8334 32.3335H18.1667C17.8573 32.3335 17.5606 32.2106 17.3418 31.9918C17.123 31.773 17.0001 31.4762 17.0001 31.1668V14.8335C17.0001 14.5241 17.123 14.2273 17.3418 14.0085C17.5606 13.7897 17.8573 13.6668 18.1667 13.6668H24.0001V17.1668C24.0001 18.0951 24.3688 18.9853 25.0252 19.6417C25.6816 20.2981 26.5718 20.6668 27.5001 20.6668H31.0001V31.1668ZM27.5001 27.6668H20.5001C20.1907 27.6668 19.8939 27.7897 19.6751 28.0085C19.4563 28.2273 19.3334 28.5241 19.3334 28.8335C19.3334 29.1429 19.4563 29.4397 19.6751 29.6585C19.8939 29.8772 20.1907 30.0002 20.5001 30.0002H27.5001C27.8095 30.0002 28.1062 29.8772 28.325 29.6585C28.5438 29.4397 28.6667 29.1429 28.6667 28.8335C28.6667 28.5241 28.5438 28.2273 28.325 28.0085C28.1062 27.7897 27.8095 27.6668 27.5001 27.6668Z" fill="white"/>
</svg>
