<svg width="25" height="25" viewBox="0 0 25 25" fill="none" xmlns="http://www.w3.org/2000/svg">
<path d="M20.6616 5.69824H12.5488C12.3047 5.69824 12.0825 5.55664 11.9824 5.33447L11.4771 4.23096C11.0254 3.24219 10.0391 2.60986 8.95264 2.60986H4.38721C2.854 2.60986 1.61133 3.85254 1.61133 5.38574V19.2871C1.61133 20.8203 2.854 22.063 4.38721 22.063H20.6592C22.1924 22.063 23.4351 20.8203 23.4351 19.2871V8.47656C23.4375 6.94092 22.1948 5.69824 20.6616 5.69824ZM21.875 19.2871C21.875 19.9585 21.3306 20.5005 20.6616 20.5005H4.38721C3.71582 20.5005 3.17383 19.9561 3.17383 19.2871V5.38574C3.17383 4.71436 3.71826 4.17236 4.38721 4.17236H8.95264C9.42627 4.17236 9.86084 4.45068 10.0562 4.88037L10.7666 6.43311C10.9961 6.93604 11.499 7.2583 12.0532 7.2583H20.6616C21.333 7.2583 21.875 7.80273 21.875 8.47168V19.2871Z" fill="#09244B" fill-opacity="0.6"/>
<path d="M16.3599 13.1128H13.2568V10.0098C13.2568 9.58008 12.9053 9.22852 12.4756 9.22852C12.0459 9.22852 11.6943 9.58008 11.6943 10.0098V13.1128H8.59131C8.16162 13.1128 7.81006 13.4644 7.81006 13.894C7.81006 14.3237 8.16162 14.6753 8.59131 14.6753H11.6943V17.7783C11.6943 18.208 12.0459 18.5596 12.4756 18.5596C12.9053 18.5596 13.2568 18.208 13.2568 17.7783V14.6753H16.3599C16.7896 14.6753 17.1411 14.3237 17.1411 13.894C17.1411 13.4644 16.7896 13.1128 16.3599 13.1128Z" fill="#09244B" fill-opacity="0.6"/>
</svg>
