<svg width="25" height="25" viewBox="0 0 25 25" fill="none" xmlns="http://www.w3.org/2000/svg">
<path d="M5.72913 22.9168C5.52014 22.9172 5.31323 22.8754 5.12079 22.7939C5.02782 22.7547 4.93886 22.7066 4.85517 22.6502C4.77219 22.5941 4.69476 22.5303 4.62392 22.4595C4.55314 22.3887 4.48931 22.3113 4.43329 22.2283C4.37691 22.1446 4.32877 22.0556 4.28954 21.9627C4.20812 21.7702 4.16631 21.5633 4.16663 21.3543V3.646C4.16631 3.43702 4.20812 3.23013 4.28954 3.03767C4.32877 2.94469 4.37691 2.85573 4.43329 2.77204C4.48928 2.68903 4.55312 2.61159 4.62392 2.54079C4.69478 2.47006 4.77221 2.40623 4.85517 2.35017C4.93886 2.29378 5.02782 2.24564 5.12079 2.20642C5.31323 2.12491 5.52014 2.0831 5.72913 2.0835H15.625L20.8333 7.29183V21.3543C20.8338 21.5633 20.7919 21.7703 20.7104 21.9627C20.6712 22.0556 20.623 22.1446 20.5666 22.2283C20.5105 22.3112 20.4467 22.3886 20.376 22.4595C20.3052 22.5303 20.2278 22.5942 20.1448 22.6502C20.0611 22.7066 19.9721 22.7547 19.8791 22.7939C19.6867 22.8754 19.4798 22.9172 19.2708 22.9168H5.72913ZM5.62496 21.4585H19.375V9.37517H13.5416V3.54183H5.62496V21.4585ZM19.3937 7.91683L15 3.52308L15.0187 3.54183H15V7.91683H19.375V7.89808L19.3937 7.91683ZM11.7708 19.4793V16.0418H8.33329V14.5835H11.7708V11.146H13.2291V14.5835H16.6666V16.0418H13.2291V19.4793H11.7708Z" fill="#09244B" fill-opacity="0.6"/>
</svg>
