<svg width="28" height="28" viewBox="0 0 28 28" fill="none" xmlns="http://www.w3.org/2000/svg">
<path d="M10.5001 11.6668H11.6667C11.9762 11.6668 12.2729 11.5439 12.4917 11.3251C12.7105 11.1063 12.8334 10.8096 12.8334 10.5002C12.8334 10.1907 12.7105 9.894 12.4917 9.6752C12.2729 9.45641 11.9762 9.3335 11.6667 9.3335H10.5001C10.1907 9.3335 9.89392 9.45641 9.67512 9.6752C9.45633 9.894 9.33342 10.1907 9.33342 10.5002C9.33342 10.8096 9.45633 11.1063 9.67512 11.3251C9.89392 11.5439 10.1907 11.6668 10.5001 11.6668ZM10.5001 14.0002C10.1907 14.0002 9.89392 14.1231 9.67512 14.3419C9.45633 14.5607 9.33342 14.8574 9.33342 15.1668C9.33342 15.4762 9.45633 15.773 9.67512 15.9918C9.89392 16.2106 10.1907 16.3335 10.5001 16.3335H17.5001C17.8095 16.3335 18.1062 16.2106 18.325 15.9918C18.5438 15.773 18.6667 15.4762 18.6667 15.1668C18.6667 14.8574 18.5438 14.5607 18.325 14.3419C18.1062 14.1231 17.8095 14.0002 17.5001 14.0002H10.5001ZM23.3334 10.4302C23.3213 10.323 23.2978 10.2174 23.2634 10.1152V10.0102C23.2073 9.89021 23.1325 9.77994 23.0417 9.6835L16.0417 2.6835C15.9453 2.59275 15.835 2.51792 15.7151 2.46183C15.6803 2.45688 15.6449 2.45688 15.6101 2.46183C15.4916 2.39386 15.3607 2.35023 15.2251 2.3335H8.16675C7.23849 2.3335 6.34825 2.70225 5.69187 3.35862C5.0355 4.015 4.66675 4.90524 4.66675 5.8335V22.1668C4.66675 23.0951 5.0355 23.9853 5.69187 24.6417C6.34825 25.2981 7.23849 25.6668 8.16675 25.6668H19.8334C20.7617 25.6668 21.6519 25.2981 22.3083 24.6417C22.9647 23.9853 23.3334 23.0951 23.3334 22.1668V10.5002C23.3334 10.5002 23.3334 10.5002 23.3334 10.4302ZM16.3334 6.31183L19.3551 9.3335H17.5001C17.1907 9.3335 16.8939 9.21058 16.6751 8.99179C16.4563 8.77299 16.3334 8.47625 16.3334 8.16683V6.31183ZM21.0001 22.1668C21.0001 22.4762 20.8772 22.773 20.6584 22.9918C20.4396 23.2106 20.1428 23.3335 19.8334 23.3335H8.16675C7.85733 23.3335 7.56058 23.2106 7.34179 22.9918C7.123 22.773 7.00008 22.4762 7.00008 22.1668V5.8335C7.00008 5.52408 7.123 5.22733 7.34179 5.00854C7.56058 4.78975 7.85733 4.66683 8.16675 4.66683H14.0001V8.16683C14.0001 9.09509 14.3688 9.98533 15.0252 10.6417C15.6816 11.2981 16.5718 11.6668 17.5001 11.6668H21.0001V22.1668ZM17.5001 18.6668H10.5001C10.1907 18.6668 9.89392 18.7897 9.67512 19.0085C9.45633 19.2273 9.33342 19.5241 9.33342 19.8335C9.33342 20.1429 9.45633 20.4397 9.67512 20.6585C9.89392 20.8772 10.1907 21.0002 10.5001 21.0002H17.5001C17.8095 21.0002 18.1062 20.8772 18.325 20.6585C18.5438 20.4397 18.6667 20.1429 18.6667 19.8335C18.6667 19.5241 18.5438 19.2273 18.325 19.0085C18.1062 18.7897 17.8095 18.6668 17.5001 18.6668Z" fill="#2D6FED" fill-opacity="0.75"/>
</svg>
