<svg width="636" height="35" viewBox="0 0 636 35" fill="none" xmlns="http://www.w3.org/2000/svg">
<g clip-path="url(#clip0_783_10970)">
<rect x="5" y="5" width="77" height="32" rx="16" fill="#2772F0" fill-opacity="0.09"/>
<path d="M19 18H25.5" stroke="#2D6FED" stroke-width="2" stroke-linecap="round" stroke-linejoin="round"/>
<path d="M19 21H25.5" stroke="#2D6FED" stroke-width="2" stroke-linecap="round" stroke-linejoin="round"/>
<path d="M19 24H25.5" stroke="#2D6FED" stroke-width="2" stroke-linecap="round" stroke-linejoin="round"/>
<path d="M16.5 18H16.505" stroke="#2D6FED" stroke-width="2" stroke-linecap="round" stroke-linejoin="round"/>
<path d="M16.5 21H16.505" stroke="#2D6FED" stroke-width="2" stroke-linecap="round" stroke-linejoin="round"/>
<path d="M16.5 24H16.505" stroke="#2D6FED" stroke-width="2" stroke-linecap="round" stroke-linejoin="round"/>
<path d="M46.18 24.26V26H50.035V24.26H46.18ZM37.735 15.95V17.72H43.24V15.95H37.735ZM45.385 14.975V27.05H47.11V16.715H49.03V26.93H50.845V14.975H45.385ZM42.79 15.95V16.355C42.685 22.415 42.565 24.575 42.25 25.025C42.1 25.235 41.965 25.31 41.74 25.295C41.455 25.295 40.915 25.295 40.315 25.235C40.615 25.745 40.81 26.525 40.84 27.05C41.53 27.08 42.205 27.08 42.655 26.975C43.15 26.885 43.465 26.705 43.81 26.21C44.29 25.505 44.395 23.195 44.53 16.775C44.53 16.55 44.53 15.95 44.53 15.95H42.79ZM39.52 13.475C39.505 18.965 39.625 23.39 37.285 26.03C37.735 26.315 38.335 26.915 38.62 27.35C41.215 24.365 41.275 19.385 41.29 13.475H39.52ZM55.615 13.295V27.32H57.28V13.295H55.615ZM53.455 18.26V19.94H59.305V18.26H53.455ZM55.435 19.16C55.03 20.645 54.115 22.73 53.2 23.84C53.47 24.35 53.875 25.145 54.025 25.7C55.03 24.26 55.945 21.65 56.425 19.64L55.435 19.16ZM57.145 20.045L56.32 20.75C56.875 21.47 57.925 23.09 58.33 23.915L59.425 22.505C59.08 22.1 57.58 20.435 57.145 20.045ZM53.425 14.42C53.785 15.515 54.07 16.97 54.115 17.915L55.465 17.57C55.405 16.625 55.09 15.2 54.685 14.105L53.425 14.42ZM58.135 14.015C57.97 15.095 57.61 16.61 57.295 17.57L58.435 17.885C58.825 16.985 59.275 15.56 59.65 14.345L58.135 14.015ZM61.045 17.69V19.295H65.11V17.69H61.045ZM61.045 21.515V23.12H65.11V21.515H61.045ZM58.63 25.385V27.05H67.285V25.385H58.63ZM60.01 13.85V26.33H61.735V15.515H64.36V26.33H66.175V13.85H60.01Z" fill="#2D6FED"/>
<rect x="98" y="6" width="119" height="32" rx="16" fill="#2772F0" fill-opacity="0.09"/>
<path d="M112 19H118.5" stroke="#2D6FED" stroke-width="2" stroke-linecap="round" stroke-linejoin="round"/>
<path d="M112 22H118.5" stroke="#2D6FED" stroke-width="2" stroke-linecap="round" stroke-linejoin="round"/>
<path d="M112 25H118.5" stroke="#2D6FED" stroke-width="2" stroke-linecap="round" stroke-linejoin="round"/>
<path d="M109.5 19H109.505" stroke="#2D6FED" stroke-width="2" stroke-linecap="round" stroke-linejoin="round"/>
<path d="M109.5 22H109.505" stroke="#2D6FED" stroke-width="2" stroke-linecap="round" stroke-linejoin="round"/>
<path d="M109.5 25H109.505" stroke="#2D6FED" stroke-width="2" stroke-linecap="round" stroke-linejoin="round"/>
<path d="M143.02 14.49C141.145 14.94 138.13 15.225 135.49 15.36C135.67 15.735 135.865 16.365 135.91 16.77C138.595 16.71 141.79 16.425 144.055 15.9L143.02 14.49ZM138.115 19.875C137.56 20.265 136.66 20.73 135.88 21.045C136.06 21.39 136.315 21.96 136.405 22.29C137.35 22.02 138.52 21.6 139.495 21.15L138.115 19.875ZM135.28 17.655V19.23H144.385V17.655H135.28ZM138.94 15.63V26.985H140.605V15.63H138.94ZM135.49 20.31V28.32H137.125V20.82L135.49 20.31ZM141.01 20.415V21.93H142.45V28.29H144.085V20.415H141.01ZM136.54 23.145V24.645H138.46V23.145H136.54ZM141.16 23.145V24.645H143.545V23.145H141.16ZM136.285 26.07V27.615H143.32V26.07H136.285ZM130.3 21.81L130.705 23.535C132.025 23.16 133.675 22.68 135.22 22.2L134.98 20.58C133.285 21.06 131.5 21.54 130.3 21.81ZM130.54 17.115V18.765H135.13V17.115H130.54ZM132.13 14.28V26.445C132.13 26.655 132.055 26.7 131.875 26.7C131.695 26.715 131.17 26.715 130.63 26.685C130.84 27.18 131.05 27.915 131.095 28.365C132.07 28.365 132.715 28.305 133.165 28.02C133.63 27.75 133.78 27.285 133.78 26.445V14.28H132.13ZM149.185 15.105V16.935H153.43V15.105H149.185ZM152.545 15.105C152.545 18.165 153.205 24.87 158.92 28.305C159.235 27.855 159.955 27.06 160.375 26.73C154.81 23.475 154.405 17.955 154.405 15.105H152.545ZM151.9 18.39C151.09 22.365 149.29 25.275 146.155 26.865C146.62 27.195 147.46 27.945 147.79 28.335C150.925 26.445 152.92 23.22 153.97 18.765L151.9 18.39ZM166.585 19.32L166.855 21.045L175.975 19.815L175.72 18.105L166.585 19.32ZM172.24 15.21C173.005 15.975 173.92 17.04 174.295 17.73L175.735 16.8C175.315 16.095 174.37 15.09 173.59 14.37L172.24 15.21ZM165.76 14.385C164.83 16.65 163.255 18.885 161.635 20.28C161.95 20.715 162.46 21.675 162.64 22.11C164.515 20.385 166.345 17.61 167.47 14.955L165.76 14.385ZM164.2 18.69V28.32H166.06V16.89L166.045 16.86L164.2 18.69ZM169.39 14.49C169.66 22.665 170.545 27.99 174.1 28.32C174.94 28.365 175.75 27.675 176.14 24.765C175.81 24.6 175 24.12 174.655 23.745C174.55 25.395 174.355 26.175 174.01 26.145C172.195 25.89 171.325 20.91 171.22 14.49H169.39ZM189.76 20.775V21.045C189.52 24.69 189.19 26.175 188.83 26.55C188.665 26.715 188.515 26.745 188.275 26.745C187.99 26.745 187.42 26.745 186.79 26.67C187.06 27.12 187.24 27.795 187.27 28.29C187.99 28.305 188.665 28.305 189.085 28.245C189.565 28.2 189.925 28.05 190.27 27.63C190.81 27.06 191.125 25.44 191.44 21.48C191.455 21.255 191.485 20.775 191.485 20.775H189.76ZM183.82 15.03V16.65H189.325V15.03H183.82ZM184.54 17.235C184.435 18.855 184.225 20.97 184 22.29H185.695C185.875 21.03 186.1 18.96 186.22 17.325L184.54 17.235ZM184.48 20.775V22.29H190.255V20.775H184.48ZM183.52 23.745V25.335H188.89V23.745H183.52ZM188.65 15.03V15.21C188.56 16.725 188.275 19.605 187.99 21.735L189.685 21.87C189.97 19.755 190.255 17.1 190.39 15.09L189.115 14.97L188.845 15.03H188.65ZM177.895 14.925V16.56H183.295V14.925H177.895ZM179.56 19.605V21.18H181.42V24.945H179.56V26.52H182.965V19.605H179.56ZM179.635 15.765C179.26 18.045 178.615 20.22 177.55 21.63C177.805 22.155 178.12 23.295 178.195 23.775C179.755 21.915 180.7 18.99 181.27 16.14L179.635 15.765ZM178.795 19.605V27.645H180.325V19.605H178.795ZM199.015 16.65V18.33H204.625V21.87H206.305V16.65H199.015ZM198.64 21.015V22.71H207.25V21.015H198.64ZM203.56 21.66L202.045 21.96C202.78 24.915 204.01 27.195 206.29 28.38C206.56 27.885 207.13 27.15 207.535 26.79C205.435 25.89 204.175 23.985 203.56 21.66ZM201.22 14.43V19.74C201.22 22.5 200.8 25.29 197.035 27.015C197.425 27.315 198.01 27.975 198.25 28.395C202.45 26.385 202.96 23.025 202.96 19.755V14.43H201.22ZM193.66 17.745V19.44H198.415V17.745H193.66ZM195.265 14.475V24.42H196.945V14.475H195.265ZM193.39 24.165L194.11 25.98C195.46 25.35 197.14 24.555 198.7 23.775L198.28 22.185C196.495 22.95 194.605 23.745 193.39 24.165Z" fill="#2D6FED"/>
<rect x="235" y="6" width="101" height="32" rx="16" fill="#2772F0" fill-opacity="0.09"/>
<path d="M249 19H255.5" stroke="#2D6FED" stroke-width="2" stroke-linecap="round" stroke-linejoin="round"/>
<path d="M249 22H255.5" stroke="#2D6FED" stroke-width="2" stroke-linecap="round" stroke-linejoin="round"/>
<path d="M249 25H255.5" stroke="#2D6FED" stroke-width="2" stroke-linecap="round" stroke-linejoin="round"/>
<path d="M246.5 19H246.505" stroke="#2D6FED" stroke-width="2" stroke-linecap="round" stroke-linejoin="round"/>
<path d="M246.5 22H246.505" stroke="#2D6FED" stroke-width="2" stroke-linecap="round" stroke-linejoin="round"/>
<path d="M246.5 25H246.505" stroke="#2D6FED" stroke-width="2" stroke-linecap="round" stroke-linejoin="round"/>
<path d="M280.02 14.49C278.145 14.94 275.13 15.225 272.49 15.36C272.67 15.735 272.865 16.365 272.91 16.77C275.595 16.71 278.79 16.425 281.055 15.9L280.02 14.49ZM275.115 19.875C274.56 20.265 273.66 20.73 272.88 21.045C273.06 21.39 273.315 21.96 273.405 22.29C274.35 22.02 275.52 21.6 276.495 21.15L275.115 19.875ZM272.28 17.655V19.23H281.385V17.655H272.28ZM275.94 15.63V26.985H277.605V15.63H275.94ZM272.49 20.31V28.32H274.125V20.82L272.49 20.31ZM278.01 20.415V21.93H279.45V28.29H281.085V20.415H278.01ZM273.54 23.145V24.645H275.46V23.145H273.54ZM278.16 23.145V24.645H280.545V23.145H278.16ZM273.285 26.07V27.615H280.32V26.07H273.285ZM267.3 21.81L267.705 23.535C269.025 23.16 270.675 22.68 272.22 22.2L271.98 20.58C270.285 21.06 268.5 21.54 267.3 21.81ZM267.54 17.115V18.765H272.13V17.115H267.54ZM269.13 14.28V26.445C269.13 26.655 269.055 26.7 268.875 26.7C268.695 26.715 268.17 26.715 267.63 26.685C267.84 27.18 268.05 27.915 268.095 28.365C269.07 28.365 269.715 28.305 270.165 28.02C270.63 27.75 270.78 27.285 270.78 26.445V14.28H269.13ZM286.185 15.105V16.935H290.43V15.105H286.185ZM289.545 15.105C289.545 18.165 290.205 24.87 295.92 28.305C296.235 27.855 296.955 27.06 297.375 26.73C291.81 23.475 291.405 17.955 291.405 15.105H289.545ZM288.9 18.39C288.09 22.365 286.29 25.275 283.155 26.865C283.62 27.195 284.46 27.945 284.79 28.335C287.925 26.445 289.92 23.22 290.97 18.765L288.9 18.39ZM305.505 15.195V16.875H312.12V15.195H305.505ZM304.815 18.78V20.46H312.945V18.78H304.815ZM307.755 19.605V26.205C307.755 26.385 307.695 26.43 307.5 26.445C307.305 26.445 306.66 26.445 306.075 26.415C306.3 26.955 306.525 27.735 306.585 28.275C307.605 28.275 308.34 28.23 308.895 27.93C309.45 27.63 309.585 27.12 309.585 26.235V19.605H307.755ZM310.08 22.275C310.725 23.835 311.325 25.83 311.49 27.075L313.11 26.475C312.915 25.23 312.255 23.295 311.565 21.78L310.08 22.275ZM305.46 21.84C305.115 23.385 304.485 25.02 303.72 26.07C304.095 26.265 304.8 26.73 305.13 26.985C305.895 25.815 306.645 23.97 307.08 22.215L305.46 21.84ZM298.995 17.22V18.885H304.635V17.22H298.995ZM301.095 14.265V28.35H302.88V14.265H301.095ZM300.855 18.36C300.525 20.13 299.685 22.41 298.74 23.61C299.055 24.09 299.49 24.885 299.64 25.365C300.69 23.88 301.545 21.03 301.95 18.72L300.855 18.36ZM302.805 19.125L302.01 19.92C302.475 20.565 303.495 22.185 303.9 23.01L304.86 21.6C304.56 21.21 303.165 19.5 302.805 19.125ZM317.19 17.895H319.395V18.615H317.19V17.895ZM317.19 16.05H319.395V16.755H317.19V16.05ZM315.6 14.85V19.83H321.06V14.85H315.6ZM314.895 20.685V22.005H321.705V20.685H314.895ZM321.66 14.88V16.29H328.71V14.88H321.66ZM317.715 21.105V26.28L319.23 27.135V21.105H317.715ZM318.48 23.22V24.51H321.39V23.22H318.48ZM324.495 15.225C324.345 15.915 324.03 16.905 323.76 17.565L325.17 17.94C325.485 17.355 325.89 16.47 326.295 15.6L324.495 15.225ZM316.8 23.85L315.735 24.165C316.785 27.555 318.825 28.065 322.515 28.065H328.29C328.365 27.615 328.635 26.925 328.875 26.58C327.645 26.64 323.535 26.64 322.53 26.64C319.485 26.625 317.625 26.37 316.8 23.85ZM322.14 17.37V23.67H323.595V18.645H326.625V23.565H328.14V17.37H322.14ZM315.645 22.53C315.615 24.57 315.42 26.37 314.535 27.51C314.88 27.69 315.525 28.125 315.78 28.35C316.725 27.015 317.025 25.02 317.115 22.62L315.645 22.53ZM324.435 19.26C324.36 22.815 324.18 24.48 321.06 25.38C321.36 25.65 321.735 26.205 321.87 26.55C325.44 25.455 325.83 23.31 325.92 19.26H324.435ZM325.2 24.48C326.055 25.11 327.18 26.025 327.735 26.61L328.77 25.5C328.185 24.945 327.015 24.075 326.19 23.505L325.2 24.48Z" fill="#2D6FED"/>
</g>
<defs>
<clipPath id="clip0_783_10970">
<rect width="636" height="35" fill="white"/>
</clipPath>
</defs>
</svg>
