<svg width="171" height="49" viewBox="0 0 171 49" fill="none" xmlns="http://www.w3.org/2000/svg">
<rect y="3" width="138" height="46" rx="16" fill="#2772F0"/>
<path d="M45.896 27.04V28.816H60.152V27.04H45.896ZM54.872 26.128V31.424C54.872 31.664 54.76 31.744 54.44 31.744C54.136 31.744 52.856 31.76 51.864 31.712C52.12 32.192 52.424 32.912 52.504 33.424C53.992 33.424 55.08 33.424 55.848 33.168C56.6 32.928 56.856 32.464 56.856 31.488V26.128H54.872ZM48.024 29.536C49.048 30.272 50.264 31.392 50.776 32.176L52.168 30.848C51.592 30.08 50.344 29.04 49.32 28.352L48.024 29.536ZM46.936 19.808V23.488C46.936 25.328 47.912 25.776 51.032 25.776C51.768 25.776 55.896 25.776 56.664 25.776C58.936 25.776 59.672 25.424 59.944 23.792C59.384 23.712 58.6 23.504 58.136 23.248C57.976 24.096 57.72 24.24 56.472 24.24C55.432 24.24 51.8 24.24 51 24.24C49.272 24.24 48.952 24.112 48.952 23.44V19.808H46.936ZM47.56 21.52V23.184H58.232V18.832H46.936V20.48H56.344V21.52H47.56ZM63.544 30.624V32.512H74.488V30.624H63.544ZM67.896 18.576V31.776H69.896V18.576H67.896ZM62.6 26.624V33.44H64.552V26.624H62.6ZM73.464 26.624V33.424H75.464V26.624H73.464ZM63.24 19.92V25.76H74.824V19.92H72.792V23.904H65.16V19.92H63.24ZM88.056 21.984C86.392 27.2 82.952 30.16 77.416 31.616C77.8 32.08 78.408 33.008 78.632 33.488C84.36 31.696 88.088 28.336 90.104 22.576L88.056 21.984ZM81.88 22.112L79.96 22.688C81.96 28.224 85.256 31.888 91.256 33.456C91.56 32.896 92.184 31.984 92.648 31.536C86.952 30.256 83.496 26.848 81.88 22.112ZM77.704 20.944V22.832H92.36V20.944H77.704ZM83.992 18.416V22.096H85.976V18.416H83.992ZM93.688 21.712V23.504H99.352V21.712H93.688ZM95.736 18.416V33.44H97.544V18.416H95.736ZM95.56 22.944C95.192 24.976 94.28 27.488 93.272 28.88C93.56 29.344 93.976 30.128 94.168 30.656C95.304 29.008 96.216 25.888 96.664 23.328L95.56 22.944ZM97.464 23.936L96.6 24.768C97.096 25.568 98.104 27.376 98.504 28.368L99.576 26.896C99.288 26.432 97.848 24.384 97.464 23.936ZM102.648 18.48V25.072H104.488V18.48H102.648ZM106.328 19.456C106.04 20.656 105.448 22.272 104.92 23.296L106.456 23.744C106.984 22.784 107.624 21.296 108.168 19.92L106.328 19.456ZM99.144 19.952C99.64 21.12 100.216 22.672 100.456 23.664L102.088 23.008C101.8 22.032 101.224 20.544 100.696 19.392L99.144 19.952ZM99.256 24.336V26.176H105.992V33.232H107.88V24.336H99.256ZM99.48 27.536V29.248H106.6V27.536H99.48ZM98.888 30.72V32.544H106.552V30.72H98.888Z" fill="white"/>
<path fill-rule="evenodd" clip-rule="evenodd" d="M24.7557 18C26.9426 18 28.7861 19.4066 29.3319 21.3205C29.441 21.7032 29.7756 21.9891 30.1863 22.0532C32.1849 22.3652 33.7099 24.0145 33.7099 26C33.7099 27.4793 32.8645 28.7724 31.6023 29.4655C31.0986 29.742 30.9266 30.3538 31.2179 30.8318C31.5091 31.3099 32.1536 31.4732 32.6572 31.1967C34.5437 30.1608 35.8167 28.2221 35.8167 26C35.8167 23.2346 33.8468 20.9077 31.1665 20.212C30.1914 17.7515 27.6901 16 24.7557 16C21.0035 16 17.9562 18.8649 17.9089 22.4161C16.0487 23.1875 14.748 24.9486 14.748 27C14.748 29.0999 16.1114 30.8952 18.0398 31.6362C18.5791 31.8434 19.1932 31.5964 19.4115 31.0845C19.6298 30.5725 19.3696 29.9895 18.8303 29.7823C17.6702 29.3365 16.8549 28.2574 16.8549 27C16.8549 25.5965 17.8711 24.4159 19.2446 24.0896C19.7572 23.9678 20.1026 23.5047 20.044 22.9992C19.7403 20.3809 21.9655 18 24.7557 18ZM25.2824 25C25.8642 25 26.3358 25.4477 26.3358 26V32.5838L27.6983 31.2923C28.1101 30.9021 28.7771 30.9026 29.1882 31.2934C29.5993 31.6843 29.5987 32.3174 29.1871 32.7077L26.2128 35.5266C25.9462 35.7793 25.6868 36 25.2824 36C24.878 36 24.6186 35.7793 24.352 35.5266L21.3778 32.7077C20.9661 32.3174 20.9655 31.6843 21.3766 31.2934C21.7877 30.9026 22.4547 30.9021 22.8664 31.2923L24.229 32.5838V26C24.229 25.4477 24.7006 25 25.2824 25Z" fill="white"/>
<path fill-rule="evenodd" clip-rule="evenodd" d="M119.293 22.2929C119.653 21.9324 120.221 21.9047 120.613 22.2097L120.707 22.2929L125 26.585L129.293 22.2929C129.653 21.9324 130.221 21.9047 130.613 22.2097L130.707 22.2929C131.068 22.6534 131.095 23.2206 130.79 23.6129L130.707 23.7071L125.707 28.7071C125.347 29.0676 124.779 29.0953 124.387 28.7903L124.293 28.7071L119.293 23.7071C118.902 23.3166 118.902 22.6834 119.293 22.2929Z" fill="white"/>
</svg>
