<svg width="164" height="49" viewBox="0 0 164 49" fill="none" xmlns="http://www.w3.org/2000/svg">
<rect y="3" width="131" height="46" rx="16" fill="#2772F0"/>
<path d="M42.96 19.136V20.848H57.056V19.136H42.96ZM49.12 19.872V26.304C49.12 28.864 48.384 30.88 42.608 31.76C43.024 32.192 43.568 33.024 43.776 33.456C49.808 32.256 51.136 29.568 51.136 26.336V19.872H49.12ZM46.16 25.808H54.128V26.864H46.16V25.808ZM46.16 23.344H54.128V24.368H46.16V23.344ZM44.352 21.792V28.4H56.048V21.792H44.352ZM46.256 28.336L44.576 29.008C47.024 32.64 51.248 33.168 56.896 33.28C56.992 32.64 57.36 31.824 57.696 31.376C52.24 31.424 48.496 31.2 46.256 28.336ZM61.84 22.384C62.816 22.896 64.064 23.696 64.64 24.256L66 23.072C65.376 22.512 64.096 21.776 63.136 21.312L61.84 22.384ZM69.056 19.616V19.888C67.472 22.88 63.152 24.8 58.832 25.488C59.168 25.904 59.552 26.656 59.712 27.136C64.368 26.192 68.896 24.112 70.976 20.256L69.728 19.536L69.424 19.616H69.056ZM64 19.616V21.184H69.488V19.616H64ZM64.88 18.368C63.792 19.68 61.808 21.024 58.96 21.952C59.376 22.256 59.968 22.912 60.24 23.36C63.232 22.176 65.344 20.672 66.976 18.816L64.88 18.368ZM64.016 28.448C65.008 29.024 66.256 29.92 66.816 30.528L68.304 29.344C67.664 28.72 66.384 27.904 65.408 27.376L64.016 28.448ZM71.072 25.456V25.728C69.584 29.504 65.248 31.184 60.176 31.712C60.496 32.144 60.848 32.928 60.992 33.456C66.496 32.688 71.12 30.8 73.072 26.032L71.792 25.376L71.456 25.456H71.072ZM66.368 25.456V27.056H71.584V25.456H66.368ZM67.488 23.904C66.256 25.424 63.968 26.96 60.624 27.968C61.024 28.304 61.568 29.008 61.792 29.456C65.328 28.176 67.792 26.48 69.584 24.384L67.488 23.904ZM79.952 19.504V21.088H89.184V19.504H79.952ZM79.664 28.512V30.08H89.232V28.512H79.664ZM81.84 18.416V22H83.648V18.416H81.84ZM85.504 18.416V22H87.376V18.416H85.504ZM82.176 25.552H86.592V26.24H82.176V25.552ZM82.176 23.616H86.592V24.288H82.176V23.616ZM80.4 22.272V27.584H88.448V22.272H80.4ZM83.504 27.392C83.28 29.744 82.784 31.168 79.072 31.904C79.424 32.288 79.888 32.992 80.048 33.44C84.304 32.432 85.088 30.464 85.376 27.392H83.504ZM85.808 29.056L84.208 29.392C84.96 31.424 86.288 32.8 88.496 33.424C88.736 32.928 89.264 32.208 89.664 31.84C87.728 31.456 86.416 30.464 85.808 29.056ZM74.672 21.408V23.168H79.68V21.408H74.672ZM76.4 18.416V33.44H78.224V18.416H76.4ZM76.592 22.72C76.208 24.736 75.312 27.264 74.288 28.608C74.592 29.12 75.024 30 75.2 30.56C76.288 28.896 77.2 25.76 77.632 23.12L76.592 22.72ZM78.128 23.6L77.248 24.304C77.728 25.136 78.656 27.024 79.024 28L80.176 26.672C79.872 26.16 78.512 24.08 78.128 23.6ZM98.112 19.36V21.136H105.2V19.36H98.112ZM98.112 23.424V25.152H103.6V23.424H98.112ZM97.136 19.36V23.904C97.136 26.416 96.976 29.904 95.168 32.288C95.584 32.48 96.384 33.088 96.688 33.424C98.672 30.848 98.992 26.688 98.992 23.92V19.36H97.136ZM100.08 24.688L98.464 25.056C99.488 28.944 101.248 31.968 104.384 33.504C104.656 33.008 105.232 32.272 105.664 31.888C102.72 30.688 100.928 27.952 100.08 24.688ZM103.248 23.424V23.76C102.64 27.632 100.656 30.656 97.904 31.936C98.304 32.288 98.816 32.992 99.072 33.44C102.224 31.744 104.336 28.64 105.104 23.728L103.904 23.36L103.584 23.424H103.248ZM90.704 21.712V23.504H96.432V21.712H90.704ZM92.832 18.416V33.44H94.64V18.416H92.832ZM92.768 22.944C92.352 24.992 91.392 27.488 90.304 28.88C90.592 29.344 91.024 30.128 91.2 30.656C92.4 29.008 93.392 25.904 93.872 23.344L92.768 22.944ZM94.576 24.288L93.712 25.12C94.208 25.92 95.248 27.712 95.664 28.688L96.736 27.216C96.432 26.752 94.976 24.736 94.576 24.288Z" fill="white"/>
<path d="M23.5858 16C24.1162 16 24.6249 16.2107 25 16.5858L29.4142 21C29.7893 21.3751 30 21.8838 30 22.4142V34C30 35.1046 29.1046 36 28 36H16C14.8954 36 14 35.1046 14 34V18C14 16.8954 14.8954 16 16 16H23.5858ZM22 18H16V34H28V24H23.5C22.7203 24 22.0796 23.4051 22.0069 22.6445L22 22.5V18ZM24.0637 26.6489C24.2576 26.1318 24.834 25.8698 25.3511 26.0637C25.8313 26.2437 26.0915 26.7536 25.9709 27.2395L25.9363 27.3511L24.53 31.1014C24.1886 32.0117 22.9421 32.0513 22.522 31.2201L22.47 31.1014L22 29.848L21.53 31.1014C21.1886 32.0117 19.9421 32.0513 19.522 31.2201L19.47 31.1014L18.0637 27.3511C17.8698 26.834 18.1318 26.2576 18.6489 26.0637C19.1291 25.8836 19.6604 26.0967 19.8891 26.5421L19.9363 26.6489L20.5 28.152L20.97 26.8986C21.3114 25.9883 22.5579 25.9487 22.978 26.7799L23.03 26.8986L23.5 28.152L24.0637 26.6489ZM24 18.4142V22H27.5858L24 18.4142Z" fill="white"/>
</svg>
