<svg width="22" height="22" viewBox="0 0 22 22" fill="none" xmlns="http://www.w3.org/2000/svg">
<path d="M18.2596 2.84692L8.05881 13.0477C7.79026 13.3163 7.79026 13.7545 8.06096 14.0231C8.32952 14.2917 8.7678 14.2917 9.03635 14.0231L19.235 3.82231C19.5035 3.55376 19.5035 3.11548 19.235 2.84692C18.9664 2.57837 18.5282 2.57837 18.2596 2.84692Z" fill="#09244B" fill-opacity="0.6"/>
<path d="M20.0406 1.34932C20.0406 1.53222 20.1135 1.70764 20.2433 1.83697C20.373 1.96631 20.549 2.03896 20.7324 2.03896C20.9159 2.03896 21.0919 1.96631 21.2216 1.83697C21.3514 1.70764 21.4242 1.53222 21.4242 1.34932C21.4242 1.16641 21.3514 0.990995 21.2216 0.861661C21.0919 0.732327 20.9159 0.659668 20.7324 0.659668C20.549 0.659668 20.373 0.732327 20.2433 0.861661C20.1135 0.990995 20.0406 1.16641 20.0406 1.34932Z" fill="#09244B" fill-opacity="0.6"/>
<path d="M18.6248 7.5624C18.2424 7.5624 17.933 7.87178 17.933 8.25205V8.2542H17.9266V17.8448C17.9266 18.6011 17.3078 19.2198 16.5516 19.2198H4.79531C4.03906 19.2198 3.42031 18.6011 3.42031 17.8448V4.1249C3.42031 3.36865 4.03906 2.7499 4.79531 2.7499H15.1594C15.5375 2.74346 15.8404 2.43838 15.8404 2.06025C15.8404 1.67998 15.5311 1.37061 15.1486 1.37061C15.1314 1.37061 15.1143 1.37061 15.0971 1.37275H4.87695C3.36445 1.37275 2.12695 2.61025 2.12695 4.12275V17.8663C2.12695 19.3788 3.36445 20.6163 4.87695 20.6163H17.209C18.7215 20.6163 19.3145 19.3788 19.3145 17.8663V8.30361C19.3166 8.28643 19.3166 8.26924 19.3166 8.25205C19.3166 7.87178 19.0072 7.5624 18.6248 7.5624Z" fill="#09244B" fill-opacity="0.6"/>
</svg>
