<svg width="48" height="24" viewBox="0 0 48 24" fill="none" xmlns="http://www.w3.org/2000/svg">
<path fill-rule="evenodd" clip-rule="evenodd" d="M26 2C24.8954 2 24 2.89543 24 4V6V16V20C24 21.1046 24.8954 22 26 22H46C47.1046 22 48 21.1046 48 20V6C48 4.89543 47.1046 4 46 4H34C34 2.89543 33.1046 2 32 2H26Z" fill="#B3D4FF"/>
<path d="M24 6H48V20C48 21.1046 47.1046 22 46 22H26C24.8954 22 24 21.1046 24 20V6Z" fill="#B3D4FF" style="mix-blend-mode:multiply"/>
<path fill-rule="evenodd" clip-rule="evenodd" d="M4.19526 9.86177C4.43558 9.62144 4.81374 9.60296 5.07527 9.80631L5.13807 9.86177L8 12.7232L10.8619 9.86177C11.1023 9.62144 11.4804 9.60296 11.7419 9.80631L11.8047 9.86177C12.0451 10.1021 12.0635 10.4802 11.8602 10.7418L11.8047 10.8046L8.4714 14.1379C8.23108 14.3782 7.85293 14.3967 7.5914 14.1934L7.5286 14.1379L4.19526 10.8046C3.93491 10.5442 3.93491 10.1221 4.19526 9.86177Z" fill="#2772F0"/>
</svg>
