<svg width="14" height="14" viewBox="0 0 14 14" fill="none" xmlns="http://www.w3.org/2000/svg">
<path d="M12.25 3.5V11.375C12.25 11.8391 12.0656 12.2842 11.7374 12.6124C11.4092 12.9406 10.9641 13.125 10.5 13.125H3.5C3.03587 13.125 2.59075 12.9406 2.26256 12.6124C1.93437 12.2842 1.75 11.8391 1.75 11.375V3.5H0.875V2.625H3.5V1.75C3.5 1.51794 3.59219 1.29538 3.75628 1.13128C3.92038 0.967187 4.14294 0.875 4.375 0.875H9.625C9.85706 0.875 10.0796 0.967187 10.2437 1.13128C10.4078 1.29538 10.5 1.51794 10.5 1.75V2.625H13.125V3.5H12.25ZM9.625 1.75H4.375V2.625H9.625V1.75ZM11.375 3.5H2.625V11.375C2.625 11.6071 2.71719 11.8296 2.88128 11.9937C3.04538 12.1578 3.26794 12.25 3.5 12.25H10.5C10.7321 12.25 10.9546 12.1578 11.1187 11.9937C11.2828 11.8296 11.375 11.6071 11.375 11.375V3.5ZM7.875 5.25H8.75V10.5H7.875V5.25ZM5.25 5.25H6.125V10.5H5.25V5.25Z" fill="#09244B" fill-opacity="0.6"/>
</svg>
