<svg width="126" height="31" viewBox="0 0 126 31" fill="none" xmlns="http://www.w3.org/2000/svg">
<path d="M6.68 8.768C8.632 9.792 11.128 11.392 12.28 12.512L15 10.144C13.752 9.024 11.192 7.552 9.272 6.624L6.68 8.768ZM21.112 3.232V3.776C17.944 9.76 9.304 13.6 0.664 14.976C1.336 15.808 2.104 17.312 2.424 18.272C11.736 16.384 20.792 12.224 24.952 4.512L22.456 3.072L21.848 3.232H21.112ZM11 3.232V6.368H21.976V3.232H11ZM12.76 0.735998C10.584 3.36 6.616 6.048 0.92 7.904C1.752 8.512 2.936 9.824 3.48 10.72C9.464 8.352 13.688 5.344 16.952 1.632L12.76 0.735998ZM11.032 20.896C13.016 22.048 15.512 23.84 16.632 25.056L19.608 22.688C18.328 21.44 15.768 19.808 13.816 18.752L11.032 20.896ZM25.144 14.912V15.456C22.168 23.008 13.496 26.368 3.352 27.424C3.992 28.288 4.696 29.856 4.984 30.912C15.992 29.376 25.24 25.6 29.144 16.064L26.584 14.752L25.912 14.912H25.144ZM15.736 14.912V18.112H26.168V14.912H15.736ZM17.976 11.808C15.512 14.848 10.936 17.92 4.248 19.936C5.048 20.608 6.136 22.016 6.584 22.912C13.656 20.352 18.584 16.96 22.168 12.768L17.976 11.808ZM44.312 1.6C44.088 5.792 44.536 20.416 31.672 27.552C32.984 28.448 34.232 29.632 34.904 30.624C47.992 22.592 48.408 6.976 48.696 1.6H44.312ZM48.568 2.432L44.856 2.816C45.112 6.112 45.72 23.744 59.512 30.592C60.088 29.536 61.24 28.256 62.456 27.328C49.336 21.184 48.664 5.216 48.568 2.432ZM85.112 7.968C81.784 18.4 74.904 24.32 63.832 27.232C64.6 28.16 65.816 30.016 66.264 30.976C77.72 27.392 85.176 20.672 89.208 9.152L85.112 7.968ZM72.76 8.224L68.92 9.376C72.92 20.448 79.512 27.776 91.512 30.912C92.12 29.792 93.368 27.968 94.296 27.072C82.904 24.512 75.992 17.696 72.76 8.224ZM64.408 5.888V9.664H93.72V5.888H64.408ZM76.984 0.831999V8.192H80.952V0.831999H76.984ZM96.376 7.424V11.008H107.704V7.424H96.376ZM100.472 0.831999V30.88H104.088V0.831999H100.472ZM100.12 9.888C99.384 13.952 97.56 18.976 95.544 21.76C96.12 22.688 96.952 24.256 97.336 25.312C99.608 22.016 101.432 15.776 102.328 10.656L100.12 9.888ZM103.928 11.872L102.2 13.536C103.192 15.136 105.208 18.752 106.008 20.736L108.152 17.792C107.576 16.864 104.696 12.768 103.928 11.872ZM114.296 0.959999V14.144H117.976V0.959999H114.296ZM121.656 2.912C121.08 5.312 119.896 8.544 118.84 10.592L121.912 11.488C122.968 9.568 124.248 6.592 125.336 3.84L121.656 2.912ZM107.288 3.904C108.28 6.24 109.432 9.344 109.912 11.328L113.176 10.016C112.6 8.064 111.448 5.088 110.392 2.784L107.288 3.904ZM107.512 12.672V16.352H120.984V30.464H124.76V12.672H107.512ZM107.96 19.072V22.496H122.2V19.072H107.96ZM106.776 25.44V29.088H122.104V25.44H106.776Z" fill="black"/>
</svg>
