<svg width="22" height="20" viewBox="0 0 22 20" fill="none" xmlns="http://www.w3.org/2000/svg">
<path fill-rule="evenodd" clip-rule="evenodd" d="M10.7557 2C12.9426 2 14.7861 3.40663 15.3319 5.32051C15.441 5.70323 15.7756 5.98913 16.1863 6.05324C18.1849 6.36524 19.7099 8.0145 19.7099 10C19.7099 11.4793 18.8645 12.7724 17.6023 13.4655C17.0986 13.742 16.9266 14.3538 17.2179 14.8318C17.5091 15.3099 18.1536 15.4732 18.6572 15.1967C20.5437 14.1608 21.8167 12.2221 21.8167 10C21.8167 7.23462 19.8468 4.90766 17.1665 4.21198C16.1914 1.75154 13.6901 0 10.7557 0C7.00349 0 3.95621 2.86494 3.90891 6.41614C2.0487 7.18749 0.748047 8.9486 0.748047 11C0.748047 13.0999 2.11143 14.8952 4.0398 15.6362C4.5791 15.8434 5.19324 15.5964 5.41154 15.0845C5.62983 14.5725 5.36962 13.9895 4.83034 13.7823C3.67021 13.3365 2.85492 12.2574 2.85492 11C2.85492 9.5965 3.87114 8.4159 5.24465 8.0896C5.75723 7.9678 6.10259 7.50471 6.04397 6.99923C5.74031 4.38087 7.96549 2 10.7557 2ZM11.2824 9C11.8642 9 12.3358 9.4477 12.3358 10L12.3358 16.5838L13.6983 15.2923C14.1101 14.9021 14.7771 14.9026 15.1882 15.2934C15.5993 15.6843 15.5987 16.3174 15.1871 16.7077L12.2128 19.5266C11.9462 19.7793 11.6868 20 11.2824 20C10.878 20 10.6186 19.7793 10.352 19.5266L7.37779 16.7077C6.96607 16.3174 6.96555 15.6843 7.37662 15.2934C7.78769 14.9026 8.45468 14.9021 8.8664 15.2923L10.229 16.5838L10.229 10C10.229 9.4477 10.7006 9 11.2824 9Z" fill="white"/>
</svg>
