<svg width="24" height="30" viewBox="0 0 24 30" fill="none" xmlns="http://www.w3.org/2000/svg">
<path d="M14.3787 0C15.1743 0 15.9374 0.316065 16.5 0.878685L23.1213 7.5C23.684 8.0626 24 8.82567 24 9.62132V27C24 28.6569 22.6569 30 21 30H3C1.34314 30 0 28.6569 0 27V3C0 1.34314 1.34314 0 3 0H14.3787ZM12 3H3V27H21V12H14.25C13.0805 12 12.1193 11.1077 12.0103 9.96669L12 9.75V3ZM15.0955 15.9734C15.3864 15.1977 16.251 14.8047 17.0266 15.0955C17.7469 15.3656 18.1372 16.1304 17.9564 16.8593L17.9044 17.0266L15.795 22.6521C15.2829 24.0176 13.4131 24.077 12.783 22.8302L12.705 22.6521L12 20.772L11.295 22.6521C10.7829 24.0176 8.91316 24.077 8.28306 22.8302L8.20506 22.6521L6.09551 17.0266C5.80463 16.251 6.19764 15.3864 6.97332 15.0955C7.69359 14.8255 8.49055 15.145 8.83362 15.8131L8.9045 15.9734L9.75 18.228L10.455 16.3479C10.9671 14.9824 12.8369 14.923 13.467 16.1698L13.545 16.3479L14.25 18.228L15.0955 15.9734ZM15 3.62131V9H20.3787L15 3.62131Z" fill="#F5B544"/>
</svg>
